<svg width="18" height="20" viewBox="0 0 18 20" fill="none" xmlns="http://www.w3.org/2000/svg">
<path d="M5.625 20C5.625 19.6961 5.73462 19.4359 5.95385 19.2194C6.17308 18.9991 6.43846 18.8889 6.75 18.8889C6.75 19.1966 6.64038 19.4587 6.42115 19.6752C6.19808 19.8917 5.93269 20 5.625 20ZM7.875 20C7.56346 20 7.29808 19.8917 7.07885 19.6752C6.85962 19.4587 6.75 19.1966 6.75 18.8889C7.06154 18.8889 7.32692 18.9991 7.54615 19.2194C7.76538 19.4359 7.875 19.6961 7.875 20ZM7.875 20C7.875 19.6961 7.98462 19.4359 8.20385 19.2194C8.42308 18.9991 8.68846 18.8889 9 18.8889C9 19.1966 8.89038 19.4587 8.67115 19.6752C8.45192 19.8917 8.18654 20 7.875 20ZM10.125 20C9.81346 20 9.54808 19.8917 9.32885 19.6752C9.10962 19.4587 9 19.1966 9 18.8889C9.31154 18.8889 9.57692 18.9991 9.79615 19.2194C10.0154 19.4359 10.125 19.6961 10.125 20ZM10.125 20C10.125 19.6961 10.2346 19.4359 10.4538 19.2194C10.6731 18.9991 10.9385 18.8889 11.25 18.8889C11.25 19.1966 11.1404 19.4587 10.9212 19.6752C10.7019 19.8917 10.4365 20 10.125 20ZM12.375 20C12.0635 20 11.7981 19.8917 11.5788 19.6752C11.3596 19.4587 11.25 19.1966 11.25 18.8889C11.5615 18.8889 11.8269 18.9991 12.0462 19.2194C12.2654 19.4359 12.375 19.6961 12.375 20ZM5.625 18.8889C5.31346 18.8889 5.04808 18.7806 4.82885 18.5641C4.60962 18.3476 4.5 18.0855 4.5 17.7778C4.80769 17.7778 5.07308 17.8879 5.29615 18.1083C5.51538 18.3248 5.625 18.585 5.625 18.8889ZM5.625 18.8889C5.625 18.585 5.73462 18.3248 5.95385 18.1083C6.17308 17.8879 6.43846 17.7778 6.75 17.7778C6.75 18.0855 6.64038 18.3476 6.42115 18.5641C6.19808 18.7806 5.93269 18.8889 5.625 18.8889ZM7.875 18.8889C7.56346 18.8889 7.29808 18.7806 7.07885 18.5641C6.85962 18.3476 6.75 18.0855 6.75 17.7778C7.06154 17.7778 7.32692 17.8879 7.54615 18.1083C7.76538 18.3248 7.875 18.585 7.875 18.8889ZM7.875 18.8889C7.875 18.585 7.98462 18.3248 8.20385 18.1083C8.42308 17.8879 8.68846 17.7778 9 17.7778C9 18.0855 8.89038 18.3476 8.67115 18.5641C8.45192 18.7806 8.18654 18.8889 7.875 18.8889ZM10.125 18.8889C9.81346 18.8889 9.54808 18.7806 9.32885 18.5641C9.10962 18.3476 9 18.0855 9 17.7778C9.31154 17.7778 9.57692 17.8879 9.79615 18.1083C10.0154 18.3248 10.125 18.585 10.125 18.8889ZM10.125 18.8889C10.125 18.585 10.2346 18.3248 10.4538 18.1083C10.6731 17.8879 10.9385 17.7778 11.25 17.7778C11.25 18.0855 11.1404 18.3476 10.9212 18.5641C10.7019 18.7806 10.4365 18.8889 10.125 18.8889ZM12.375 18.8889C12.0635 18.8889 11.7981 18.7806 11.5788 18.5641C11.3596 18.3476 11.25 18.0855 11.25 17.7778C11.5615 17.7778 11.8269 17.8879 12.0462 18.1083C12.2654 18.3248 12.375 18.585 12.375 18.8889ZM12.375 18.8889C12.375 18.585 12.4846 18.3248 12.7038 18.1083C12.9231 17.8879 13.1885 17.7778 13.5 17.7778C13.5 18.0855 13.3904 18.3476 13.1712 18.5641C12.9519 18.7806 12.6865 18.8889 12.375 18.8889ZM5.625 17.7778C5.31346 17.7778 5.04808 17.6695 4.82885 17.453C4.60962 17.2365 4.5 16.9744 4.5 16.6667C4.80769 16.6667 5.07308 16.7768 5.29615 16.9972C5.51538 17.2137 5.625 17.4739 5.625 17.7778ZM5.625 17.7778C5.625 17.4739 5.73462 17.2137 5.95385 16.9972C6.17308 16.7768 6.43846 16.6667 6.75 16.6667C6.75 16.9744 6.64038 17.2365 6.42115 17.453C6.19808 17.6695 5.93269 17.7778 5.625 17.7778ZM7.875 17.7778C7.56346 17.7778 7.29808 17.6695 7.07885 17.453C6.85962 17.2365 6.75 16.9744 6.75 16.6667C7.06154 16.6667 7.32692 16.7768 7.54615 16.9972C7.76538 17.2137 7.875 17.4739 7.875 17.7778ZM7.875 17.7778C7.875 17.4739 7.98462 17.2137 8.20385 16.9972C8.42308 16.7768 8.68846 16.6667 9 16.6667C9 16.9744 8.89038 17.2365 8.67115 17.453C8.45192 17.6695 8.18654 17.7778 7.875 17.7778ZM10.125 17.7778C9.81346 17.7778 9.54808 17.6695 9.32885 17.453C9.10962 17.2365 9 16.9744 9 16.6667C9.31154 16.6667 9.57692 16.7768 9.79615 16.9972C10.0154 17.2137 10.125 17.4739 10.125 17.7778ZM10.125 17.7778C10.125 17.4739 10.2346 17.2137 10.4538 16.9972C10.6731 16.7768 10.9385 16.6667 11.25 16.6667C11.25 16.9744 11.1404 17.2365 10.9212 17.453C10.7019 17.6695 10.4365 17.7778 10.125 17.7778ZM12.375 17.7778C12.0635 17.7778 11.7981 17.6695 11.5788 17.453C11.3596 17.2365 11.25 16.9744 11.25 16.6667C11.5615 16.6667 11.8269 16.7768 12.0462 16.9972C12.2654 17.2137 12.375 17.4739 12.375 17.7778ZM12.375 17.7778C12.375 17.4739 12.4846 17.2137 12.7038 16.9972C12.9231 16.7768 13.1885 16.6667 13.5 16.6667C13.5 16.9744 13.3904 17.2365 13.1712 17.453C12.9519 17.6695 12.6865 17.7778 12.375 17.7778ZM5.625 16.6667C5.31346 16.6667 5.04808 16.5584 4.82885 16.3419C4.60962 16.1254 4.5 15.8632 4.5 15.5556C4.80769 15.5556 5.07308 15.6638 5.29615 15.8803C5.51538 16.1007 5.625 16.3628 5.625 16.6667ZM5.625 16.6667C5.625 16.3628 5.73462 16.1007 5.95385 15.8803C6.17308 15.6638 6.43846 15.5556 6.75 15.5556C6.75 15.8632 6.64038 16.1254 6.42115 16.3419C6.19808 16.5584 5.93269 16.6667 5.625 16.6667ZM7.875 16.6667C7.56346 16.6667 7.29808 16.5584 7.07885 16.3419C6.85962 16.1254 6.75 15.8632 6.75 15.5556C7.06154 15.5556 7.32692 15.6638 7.54615 15.8803C7.76538 16.1007 7.875 16.3628 7.875 16.6667ZM7.875 16.6667C7.875 16.3628 7.98462 16.1007 8.20385 15.8803C8.42308 15.6638 8.68846 15.5556 9 15.5556C9 15.8632 8.89038 16.1254 8.67115 16.3419C8.45192 16.5584 8.18654 16.6667 7.875 16.6667ZM10.125 16.6667C9.81346 16.6667 9.54808 16.5584 9.32885 16.3419C9.10962 16.1254 9 15.8632 9 15.5556C9.31154 15.5556 9.57692 15.6638 9.79615 15.8803C10.0154 16.1007 10.125 16.3628 10.125 16.6667ZM10.125 16.6667C10.125 16.3628 10.2346 16.1007 10.4538 15.8803C10.6731 15.6638 10.9385 15.5556 11.25 15.5556C11.25 15.8632 11.1404 16.1254 10.9212 16.3419C10.7019 16.5584 10.4365 16.6667 10.125 16.6667ZM12.375 16.6667C12.0635 16.6667 11.7981 16.5584 11.5788 16.3419C11.3596 16.1254 11.25 15.8632 11.25 15.5556C11.5615 15.5556 11.8269 15.6638 12.0462 15.8803C12.2654 16.1007 12.375 16.3628 12.375 16.6667ZM12.375 16.6667C12.375 16.3628 12.4846 16.1007 12.7038 15.8803C12.9231 15.6638 13.1885 15.5556 13.5 15.5556C13.5 15.8632 13.3904 16.1254 13.1712 16.3419C12.9519 16.5584 12.6865 16.6667 12.375 16.6667ZM7.875 15.5556C7.56346 15.5556 7.29808 15.4473 7.07885 15.2308C6.85962 15.0142 6.75 14.7521 6.75 14.4444C7.06154 14.4444 7.32692 14.5527 7.54615 14.7692C7.76538 14.9896 7.875 15.2517 7.875 15.5556ZM7.875 15.5556C7.875 15.2517 7.98462 14.9896 8.20385 14.7692C8.42308 14.5527 8.68846 14.4444 9 14.4444C9 14.7521 8.89038 15.0142 8.67115 15.2308C8.45192 15.4473 8.18654 15.5556 7.875 15.5556ZM10.125 15.5556C9.81346 15.5556 9.54808 15.4473 9.32885 15.2308C9.10962 15.0142 9 14.7521 9 14.4444C9.31154 14.4444 9.57692 14.5527 9.79615 14.7692C10.0154 14.9896 10.125 15.2517 10.125 15.5556ZM10.125 15.5556C10.125 15.2517 10.2346 14.9896 10.4538 14.7692C10.6731 14.5527 10.9385 14.4444 11.25 14.4444C11.25 14.7521 11.1404 15.0142 10.9212 15.2308C10.7019 15.4473 10.4365 15.5556 10.125 15.5556ZM1.125 14.4444C0.813462 14.4444 0.548077 14.3362 0.328846 14.1197C0.109615 13.9031 0 13.641 0 13.3333C0.307692 13.3333 0.571154 13.4416 0.790385 13.6581C1.01346 13.8784 1.125 14.1406 1.125 14.4444ZM1.125 14.4444C1.125 14.1406 1.23462 13.8784 1.45385 13.6581C1.67308 13.4416 1.93846 13.3333 2.25 13.3333C2.25 13.641 2.13846 13.9031 1.91538 14.1197C1.69615 14.3362 1.43269 14.4444 1.125 14.4444ZM3.375 14.4444C3.06346 14.4444 2.79808 14.3362 2.57885 14.1197C2.35962 13.9031 2.25 13.641 2.25 13.3333C2.55769 13.3333 2.82115 13.4416 3.04038 13.6581C3.26346 13.8784 3.375 14.1406 3.375 14.4444ZM3.375 14.4444C3.375 14.1406 3.48462 13.8784 3.70385 13.6581C3.92308 13.4416 4.18846 13.3333 4.5 13.3333C4.5 13.641 4.39038 13.9031 4.17115 14.1197C3.94808 14.3362 3.68269 14.4444 3.375 14.4444ZM5.625 14.4444C5.31346 14.4444 5.04808 14.3362 4.82885 14.1197C4.60962 13.9031 4.5 13.641 4.5 13.3333C4.80769 13.3333 5.07308 13.4416 5.29615 13.6581C5.51538 13.8784 5.625 14.1406 5.625 14.4444ZM5.625 14.4444C5.625 14.1406 5.73462 13.8784 5.95385 13.6581C6.17308 13.4416 6.43846 13.3333 6.75 13.3333C6.75 13.641 6.64038 13.9031 6.42115 14.1197C6.19808 14.3362 5.93269 14.4444 5.625 14.4444ZM7.875 14.4444C7.56346 14.4444 7.29808 14.3362 7.07885 14.1197C6.85962 13.9031 6.75 13.641 6.75 13.3333C7.06154 13.3333 7.32692 13.4416 7.54615 13.6581C7.76538 13.8784 7.875 14.1406 7.875 14.4444ZM7.875 14.4444C7.875 14.1406 7.98462 13.8784 8.20385 13.6581C8.42308 13.4416 8.68846 13.3333 9 13.3333C9 13.641 8.89038 13.9031 8.67115 14.1197C8.45192 14.3362 8.18654 14.4444 7.875 14.4444ZM10.125 14.4444C9.81346 14.4444 9.54808 14.3362 9.32885 14.1197C9.10962 13.9031 9 13.641 9 13.3333C9.31154 13.3333 9.57692 13.4416 9.79615 13.6581C10.0154 13.8784 10.125 14.1406 10.125 14.4444ZM10.125 14.4444C10.125 14.1406 10.2346 13.8784 10.4538 13.6581C10.6731 13.4416 10.9385 13.3333 11.25 13.3333C11.25 13.641 11.1404 13.9031 10.9212 14.1197C10.7019 14.3362 10.4365 14.4444 10.125 14.4444ZM12.375 14.4444C12.0635 14.4444 11.7981 14.3362 11.5788 14.1197C11.3596 13.9031 11.25 13.641 11.25 13.3333C11.5615 13.3333 11.8269 13.4416 12.0462 13.6581C12.2654 13.8784 12.375 14.1406 12.375 14.4444ZM12.375 14.4444C12.375 14.1406 12.4846 13.8784 12.7038 13.6581C12.9231 13.4416 13.1885 13.3333 13.5 13.3333C13.5 13.641 13.3904 13.9031 13.1712 14.1197C12.9519 14.3362 12.6865 14.4444 12.375 14.4444ZM14.625 14.4444C14.3135 14.4444 14.0481 14.3362 13.8288 14.1197C13.6096 13.9031 13.5 13.641 13.5 13.3333C13.8115 13.3333 14.0769 13.4416 14.2962 13.6581C14.5154 13.8784 14.625 14.1406 14.625 14.4444ZM14.625 14.4444C14.625 14.1406 14.7346 13.8784 14.9538 13.6581C15.1731 13.4416 15.4385 13.3333 15.75 13.3333C15.75 13.641 15.6404 13.9031 15.4212 14.1197C15.2019 14.3362 14.9365 14.4444 14.625 14.4444ZM16.875 14.4444C16.5635 14.4444 16.2981 14.3362 16.0788 14.1197C15.8596 13.9031 15.75 13.641 15.75 13.3333C16.0615 13.3333 16.3269 13.4416 16.5462 13.6581C16.7654 13.8784 16.875 14.1406 16.875 14.4444ZM16.875 14.4444C16.875 14.1406 16.9846 13.8784 17.2038 13.6581C17.4269 13.4416 17.6923 13.3333 18 13.3333C18 13.641 17.8904 13.9031 17.6712 14.1197C17.4519 14.3362 17.1865 14.4444 16.875 14.4444ZM1.125 13.3333C1.125 13.0256 1.23462 12.7635 1.45385 12.547C1.67308 12.3305 1.93846 12.2222 2.25 12.2222C2.25 12.5299 2.13846 12.792 1.91538 13.0085C1.69615 13.2251 1.43269 13.3333 1.125 13.3333ZM3.375 13.3333C3.06346 13.3333 2.79808 13.2251 2.57885 13.0085C2.35962 12.792 2.25 12.5299 2.25 12.2222C2.55769 12.2222 2.82115 12.3305 3.04038 12.547C3.26346 12.7635 3.375 13.0256 3.375 13.3333ZM3.375 13.3333C3.375 13.0256 3.48462 12.7635 3.70385 12.547C3.92308 12.3305 4.18846 12.2222 4.5 12.2222C4.5 12.5299 4.39038 12.792 4.17115 13.0085C3.94808 13.2251 3.68269 13.3333 3.375 13.3333ZM5.625 13.3333C5.31346 13.3333 5.04808 13.2251 4.82885 13.0085C4.60962 12.792 4.5 12.5299 4.5 12.2222C4.80769 12.2222 5.07308 12.3305 5.29615 12.547C5.51538 12.7635 5.625 13.0256 5.625 13.3333ZM5.625 13.3333C5.625 13.0256 5.73462 12.7635 5.95385 12.547C6.17308 12.3305 6.43846 12.2222 6.75 12.2222C6.75 12.5299 6.64038 12.792 6.42115 13.0085C6.19808 13.2251 5.93269 13.3333 5.625 13.3333ZM7.875 13.3333C7.56346 13.3333 7.29808 13.2251 7.07885 13.0085C6.85962 12.792 6.75 12.5299 6.75 12.2222C7.06154 12.2222 7.32692 12.3305 7.54615 12.547C7.76538 12.7635 7.875 13.0256 7.875 13.3333ZM7.875 13.3333C7.875 13.0256 7.98462 12.7635 8.20385 12.547C8.42308 12.3305 8.68846 12.2222 9 12.2222C9 12.5299 8.89038 12.792 8.67115 13.0085C8.45192 13.2251 8.18654 13.3333 7.875 13.3333ZM10.125 13.3333C9.81346 13.3333 9.54808 13.2251 9.32885 13.0085C9.10962 12.792 9 12.5299 9 12.2222C9.31154 12.2222 9.57692 12.3305 9.79615 12.547C10.0154 12.7635 10.125 13.0256 10.125 13.3333ZM10.125 13.3333C10.125 13.0256 10.2346 12.7635 10.4538 12.547C10.6731 12.3305 10.9385 12.2222 11.25 12.2222C11.25 12.5299 11.1404 12.792 10.9212 13.0085C10.7019 13.2251 10.4365 13.3333 10.125 13.3333ZM12.375 13.3333C12.0635 13.3333 11.7981 13.2251 11.5788 13.0085C11.3596 12.792 11.25 12.5299 11.25 12.2222C11.5615 12.2222 11.8269 12.3305 12.0462 12.547C12.2654 12.7635 12.375 13.0256 12.375 13.3333ZM12.375 13.3333C12.375 13.0256 12.4846 12.7635 12.7038 12.547C12.9231 12.3305 13.1885 12.2222 13.5 12.2222C13.5 12.5299 13.3904 12.792 13.1712 13.0085C12.9519 13.2251 12.6865 13.3333 12.375 13.3333ZM14.625 13.3333C14.3135 13.3333 14.0481 13.2251 13.8288 13.0085C13.6096 12.792 13.5 12.5299 13.5 12.2222C13.8115 12.2222 14.0769 12.3305 14.2962 12.547C14.5154 12.7635 14.625 13.0256 14.625 13.3333ZM14.625 13.3333C14.625 13.0256 14.7346 12.7635 14.9538 12.547C15.1731 12.3305 15.4385 12.2222 15.75 12.2222C15.75 12.5299 15.6404 12.792 15.4212 13.0085C15.2019 13.2251 14.9365 13.3333 14.625 13.3333ZM16.875 13.3333C16.5635 13.3333 16.2981 13.2251 16.0788 13.0085C15.8596 12.792 15.75 12.5299 15.75 12.2222C16.0615 12.2222 16.3269 12.3305 16.5462 12.547C16.7654 12.7635 16.875 13.0256 16.875 13.3333ZM1.125 12.2222C1.125 11.9145 1.23462 11.6524 1.45385 11.4359C1.67308 11.2194 1.93846 11.1111 2.25 11.1111C2.25 11.4188 2.13846 11.6809 1.91538 11.8974C1.69615 12.114 1.43269 12.2222 1.125 12.2222ZM3.375 12.2222C3.06346 12.2222 2.79808 12.114 2.57885 11.8974C2.35962 11.6809 2.25 11.4188 2.25 11.1111C2.55769 11.1111 2.82115 11.2194 3.04038 11.4359C3.26346 11.6524 3.375 11.9145 3.375 12.2222ZM3.375 12.2222C3.375 11.9145 3.48462 11.6524 3.70385 11.4359C3.92308 11.2194 4.18846 11.1111 4.5 11.1111C4.5 11.4188 4.39038 11.6809 4.17115 11.8974C3.94808 12.114 3.68269 12.2222 3.375 12.2222ZM5.625 12.2222C5.31346 12.2222 5.04808 12.114 4.82885 11.8974C4.60962 11.6809 4.5 11.4188 4.5 11.1111C4.80769 11.1111 5.07308 11.2194 5.29615 11.4359C5.51538 11.6524 5.625 11.9145 5.625 12.2222ZM5.625 12.2222C5.625 11.9145 5.73462 11.6524 5.95385 11.4359C6.17308 11.2194 6.43846 11.1111 6.75 11.1111C6.75 11.4188 6.64038 11.6809 6.42115 11.8974C6.19808 12.114 5.93269 12.2222 5.625 12.2222ZM7.875 12.2222C7.56346 12.2222 7.29808 12.114 7.07885 11.8974C6.85962 11.6809 6.75 11.4188 6.75 11.1111C7.06154 11.1111 7.32692 11.2194 7.54615 11.4359C7.76538 11.6524 7.875 11.9145 7.875 12.2222ZM7.875 12.2222C7.875 11.9145 7.98462 11.6524 8.20385 11.4359C8.42308 11.2194 8.68846 11.1111 9 11.1111C9 11.4188 8.89038 11.6809 8.67115 11.8974C8.45192 12.114 8.18654 12.2222 7.875 12.2222ZM10.125 12.2222C9.81346 12.2222 9.54808 12.114 9.32885 11.8974C9.10962 11.6809 9 11.4188 9 11.1111C9.31154 11.1111 9.57692 11.2194 9.79615 11.4359C10.0154 11.6524 10.125 11.9145 10.125 12.2222ZM10.125 12.2222C10.125 11.9145 10.2346 11.6524 10.4538 11.4359C10.6731 11.2194 10.9385 11.1111 11.25 11.1111C11.25 11.4188 11.1404 11.6809 10.9212 11.8974C10.7019 12.114 10.4365 12.2222 10.125 12.2222ZM12.375 12.2222C12.0635 12.2222 11.7981 12.114 11.5788 11.8974C11.3596 11.6809 11.25 11.4188 11.25 11.1111C11.5615 11.1111 11.8269 11.2194 12.0462 11.4359C12.2654 11.6524 12.375 11.9145 12.375 12.2222ZM12.375 12.2222C12.375 11.9145 12.4846 11.6524 12.7038 11.4359C12.9231 11.2194 13.1885 11.1111 13.5 11.1111C13.5 11.4188 13.3904 11.6809 13.1712 11.8974C12.9519 12.114 12.6865 12.2222 12.375 12.2222ZM14.625 12.2222C14.3135 12.2222 14.0481 12.114 13.8288 11.8974C13.6096 11.6809 13.5 11.4188 13.5 11.1111C13.8115 11.1111 14.0769 11.2194 14.2962 11.4359C14.5154 11.6524 14.625 11.9145 14.625 12.2222ZM14.625 12.2222C14.625 11.9145 14.7346 11.6524 14.9538 11.4359C15.1731 11.2194 15.4385 11.1111 15.75 11.1111C15.75 11.4188 15.6404 11.6809 15.4212 11.8974C15.2019 12.114 14.9365 12.2222 14.625 12.2222ZM16.875 12.2222C16.5635 12.2222 16.2981 12.114 16.0788 11.8974C15.8596 11.6809 15.75 11.4188 15.75 11.1111C16.0615 11.1111 16.3269 11.2194 16.5462 11.4359C16.7654 11.6524 16.875 11.9145 16.875 12.2222ZM3.375 11.1111C3.06346 11.1111 2.79808 11.0028 2.57885 10.7863C2.35962 10.5698 2.25 10.3077 2.25 10C2.55769 10 2.82115 10.1083 3.04038 10.3248C3.26346 10.5413 3.375 10.8034 3.375 11.1111ZM3.375 11.1111C3.375 10.8034 3.48462 10.5413 3.70385 10.3248C3.92308 10.1083 4.18846 10 4.5 10C4.5 10.3077 4.39038 10.5698 4.17115 10.7863C3.94808 11.0028 3.68269 11.1111 3.375 11.1111ZM5.625 11.1111C5.31346 11.1111 5.04808 11.0028 4.82885 10.7863C4.60962 10.5698 4.5 10.3077 4.5 10C4.80769 10 5.07308 10.1083 5.29615 10.3248C5.51538 10.5413 5.625 10.8034 5.625 11.1111ZM5.625 11.1111C5.625 10.8034 5.73462 10.5413 5.95385 10.3248C6.17308 10.1083 6.43846 10 6.75 10C6.75 10.3077 6.64038 10.5698 6.42115 10.7863C6.19808 11.0028 5.93269 11.1111 5.625 11.1111ZM7.875 11.1111C7.56346 11.1111 7.29808 11.0028 7.07885 10.7863C6.85962 10.5698 6.75 10.3077 6.75 10C7.06154 10 7.32692 10.1083 7.54615 10.3248C7.76538 10.5413 7.875 10.8034 7.875 11.1111ZM7.875 11.1111C7.875 10.8034 7.98462 10.5413 8.20385 10.3248C8.42308 10.1083 8.68846 10 9 10C9 10.3077 8.89038 10.5698 8.67115 10.7863C8.45192 11.0028 8.18654 11.1111 7.875 11.1111ZM10.125 11.1111C9.81346 11.1111 9.54808 11.0028 9.32885 10.7863C9.10962 10.5698 9 10.3077 9 10C9.31154 10 9.57692 10.1083 9.79615 10.3248C10.0154 10.5413 10.125 10.8034 10.125 11.1111ZM10.125 11.1111C10.125 10.8034 10.2346 10.5413 10.4538 10.3248C10.6731 10.1083 10.9385 10 11.25 10C11.25 10.3077 11.1404 10.5698 10.9212 10.7863C10.7019 11.0028 10.4365 11.1111 10.125 11.1111ZM12.375 11.1111C12.0635 11.1111 11.7981 11.0028 11.5788 10.7863C11.3596 10.5698 11.25 10.3077 11.25 10C11.5615 10 11.8269 10.1083 12.0462 10.3248C12.2654 10.5413 12.375 10.8034 12.375 11.1111ZM12.375 11.1111C12.375 10.8034 12.4846 10.5413 12.7038 10.3248C12.9231 10.1083 13.1885 10 13.5 10C13.5 10.3077 13.3904 10.5698 13.1712 10.7863C12.9519 11.0028 12.6865 11.1111 12.375 11.1111ZM14.625 11.1111C14.3135 11.1111 14.0481 11.0028 13.8288 10.7863C13.6096 10.5698 13.5 10.3077 13.5 10C13.8115 10 14.0769 10.1083 14.2962 10.3248C14.5154 10.5413 14.625 10.8034 14.625 11.1111ZM14.625 11.1111C14.625 10.8034 14.7346 10.5413 14.9538 10.3248C15.1731 10.1083 15.4385 10 15.75 10C15.75 10.3077 15.6404 10.5698 15.4212 10.7863C15.2019 11.0028 14.9365 11.1111 14.625 11.1111ZM3.375 10C3.375 9.69231 3.48462 9.4302 3.70385 9.21367C3.92308 8.99715 4.18846 8.88889 4.5 8.88889C4.5 9.19658 4.39038 9.45869 4.17115 9.67521C3.94808 9.89174 3.68269 10 3.375 10ZM5.625 10C5.31346 10 5.04808 9.89174 4.82885 9.67521C4.60962 9.45869 4.5 9.19658 4.5 8.88889C4.80769 8.88889 5.07308 8.99715 5.29615 9.21367C5.51538 9.4302 5.625 9.69231 5.625 10ZM5.625 10C5.625 9.69231 5.73462 9.4302 5.95385 9.21367C6.17308 8.99715 6.43846 8.88889 6.75 8.88889C6.75 9.19658 6.64038 9.45869 6.42115 9.67521C6.19808 9.89174 5.93269 10 5.625 10ZM7.875 10C7.56346 10 7.29808 9.89174 7.07885 9.67521C6.85962 9.45869 6.75 9.19658 6.75 8.88889C7.06154 8.88889 7.32692 8.99715 7.54615 9.21367C7.76538 9.4302 7.875 9.69231 7.875 10ZM7.875 10C7.875 9.69231 7.98462 9.4302 8.20385 9.21367C8.42308 8.99715 8.68846 8.88889 9 8.88889C9 9.19658 8.89038 9.45869 8.67115 9.67521C8.45192 9.89174 8.18654 10 7.875 10ZM10.125 10C9.81346 10 9.54808 9.89174 9.32885 9.67521C9.10962 9.45869 9 9.19658 9 8.88889C9.31154 8.88889 9.57692 8.99715 9.79615 9.21367C10.0154 9.4302 10.125 9.69231 10.125 10ZM10.125 10C10.125 9.69231 10.2346 9.4302 10.4538 9.21367C10.6731 8.99715 10.9385 8.88889 11.25 8.88889C11.25 9.19658 11.1404 9.45869 10.9212 9.67521C10.7019 9.89174 10.4365 10 10.125 10ZM12.375 10C12.0635 10 11.7981 9.89174 11.5788 9.67521C11.3596 9.45869 11.25 9.19658 11.25 8.88889C11.5615 8.88889 11.8269 8.99715 12.0462 9.21367C12.2654 9.4302 12.375 9.69231 12.375 10ZM12.375 10C12.375 9.69231 12.4846 9.4302 12.7038 9.21367C12.9231 8.99715 13.1885 8.88889 13.5 8.88889C13.5 9.19658 13.3904 9.45869 13.1712 9.67521C12.9519 9.89174 12.6865 10 12.375 10ZM14.625 10C14.3135 10 14.0481 9.89174 13.8288 9.67521C13.6096 9.45869 13.5 9.19658 13.5 8.88889C13.8115 8.88889 14.0769 8.99715 14.2962 9.21367C14.5154 9.4302 14.625 9.69231 14.625 10ZM7.875 8.88889C7.56346 8.88889 7.29808 8.78063 7.07885 8.5641C6.85962 8.34758 6.75 8.08547 6.75 7.77778C7.06154 7.77778 7.32692 7.88604 7.54615 8.10256C7.76538 8.31909 7.875 8.5812 7.875 8.88889ZM7.875 8.88889C7.875 8.5812 7.98462 8.31909 8.20385 8.10256C8.42308 7.88604 8.68846 7.77778 9 7.77778C9 8.08547 8.89038 8.34758 8.67115 8.5641C8.45192 8.78063 8.18654 8.88889 7.875 8.88889ZM10.125 8.88889C9.81346 8.88889 9.54808 8.78063 9.32885 8.5641C9.10962 8.34758 9 8.08547 9 7.77778C9.31154 7.77778 9.57692 7.88604 9.79615 8.10256C10.0154 8.31909 10.125 8.5812 10.125 8.88889ZM10.125 8.88889C10.125 8.5812 10.2346 8.31909 10.4538 8.10256C10.6731 7.88604 10.9385 7.77778 11.25 7.77778C11.25 8.08547 11.1404 8.34758 10.9212 8.5641C10.7019 8.78063 10.4365 8.88889 10.125 8.88889ZM3.375 7.77778C3.375 7.47009 3.48462 7.20798 3.70385 6.99145C3.92308 6.77493 4.18846 6.66667 4.5 6.66667C4.5 6.97436 4.39038 7.23647 4.17115 7.45299C3.94808 7.66952 3.68269 7.77778 3.375 7.77778ZM5.625 7.77778C5.31346 7.77778 5.04808 7.66952 4.82885 7.45299C4.60962 7.23647 4.5 6.97436 4.5 6.66667C4.80769 6.66667 5.07308 6.77493 5.29615 6.99145C5.51538 7.20798 5.625 7.47009 5.625 7.77778ZM5.625 7.77778C5.625 7.47009 5.73462 7.20798 5.95385 6.99145C6.17308 6.77493 6.43846 6.66667 6.75 6.66667C6.75 6.97436 6.64038 7.23647 6.42115 7.45299C6.19808 7.66952 5.93269 7.77778 5.625 7.77778ZM7.875 7.77778C7.56346 7.77778 7.29808 7.66952 7.07885 7.45299C6.85962 7.23647 6.75 6.97436 6.75 6.66667C7.06154 6.66667 7.32692 6.77493 7.54615 6.99145C7.76538 7.20798 7.875 7.47009 7.875 7.77778ZM7.875 7.77778C7.875 7.47009 7.98462 7.20798 8.20385 6.99145C8.42308 6.77493 8.68846 6.66667 9 6.66667C9 6.97436 8.89038 7.23647 8.67115 7.45299C8.45192 7.66952 8.18654 7.77778 7.875 7.77778ZM10.125 7.77778C9.81346 7.77778 9.54808 7.66952 9.32885 7.45299C9.10962 7.23647 9 6.97436 9 6.66667C9.31154 6.66667 9.57692 6.77493 9.79615 6.99145C10.0154 7.20798 10.125 7.47009 10.125 7.77778ZM10.125 7.77778C10.125 7.47009 10.2346 7.20798 10.4538 6.99145C10.6731 6.77493 10.9385 6.66667 11.25 6.66667C11.25 6.97436 11.1404 7.23647 10.9212 7.45299C10.7019 7.66952 10.4365 7.77778 10.125 7.77778ZM12.375 7.77778C12.0635 7.77778 11.7981 7.66952 11.5788 7.45299C11.3596 7.23647 11.25 6.97436 11.25 6.66667C11.5615 6.66667 11.8269 6.77493 12.0462 6.99145C12.2654 7.20798 12.375 7.47009 12.375 7.77778ZM12.375 7.77778C12.375 7.47009 12.4846 7.20798 12.7038 6.99145C12.9231 6.77493 13.1885 6.66667 13.5 6.66667C13.5 6.97436 13.3904 7.23647 13.1712 7.45299C12.9519 7.66952 12.6865 7.77778 12.375 7.77778ZM14.625 7.77778C14.3135 7.77778 14.0481 7.66952 13.8288 7.45299C13.6096 7.23647 13.5 6.97436 13.5 6.66667C13.8115 6.66667 14.0769 6.77493 14.2962 6.99145C14.5154 7.20798 14.625 7.47009 14.625 7.77778ZM5.625 6.66667C5.31346 6.66667 5.04808 6.5584 4.82885 6.34188C4.60962 6.12536 4.5 5.86325 4.5 5.55556C4.80769 5.55556 5.07308 5.66382 5.29615 5.88034C5.51538 6.09687 5.625 6.35897 5.625 6.66667ZM5.625 6.66667C5.625 6.35897 5.73462 6.09687 5.95385 5.88034C6.17308 5.66382 6.43846 5.55556 6.75 5.55556C6.75 5.86325 6.64038 6.12536 6.42115 6.34188C6.19808 6.5584 5.93269 6.66667 5.625 6.66667ZM7.875 6.66667C7.56346 6.66667 7.29808 6.5584 7.07885 6.34188C6.85962 6.12536 6.75 5.86325 6.75 5.55556C7.06154 5.55556 7.32692 5.66382 7.54615 5.88034C7.76538 6.09687 7.875 6.35897 7.875 6.66667ZM7.875 6.66667C7.875 6.35897 7.98462 6.09687 8.20385 5.88034C8.42308 5.66382 8.68846 5.55556 9 5.55556C9 5.86325 8.89038 6.12536 8.67115 6.34188C8.45192 6.5584 8.18654 6.66667 7.875 6.66667ZM10.125 6.66667C9.81346 6.66667 9.54808 6.5584 9.32885 6.34188C9.10962 6.12536 9 5.86325 9 5.55556C9.31154 5.55556 9.57692 5.66382 9.79615 5.88034C10.0154 6.09687 10.125 6.35897 10.125 6.66667ZM10.125 6.66667C10.125 6.35897 10.2346 6.09687 10.4538 5.88034C10.6731 5.66382 10.9385 5.55556 11.25 5.55556C11.25 5.86325 11.1404 6.12536 10.9212 6.34188C10.7019 6.5584 10.4365 6.66667 10.125 6.66667ZM12.375 6.66667C12.0635 6.66667 11.7981 6.5584 11.5788 6.34188C11.3596 6.12536 11.25 5.86325 11.25 5.55556C11.5615 5.55556 11.8269 5.66382 12.0462 5.88034C12.2654 6.09687 12.375 6.35897 12.375 6.66667ZM12.375 6.66667C12.375 6.35897 12.4846 6.09687 12.7038 5.88034C12.9231 5.66382 13.1885 5.55556 13.5 5.55556C13.5 5.86325 13.3904 6.12536 13.1712 6.34188C12.9519 6.5584 12.6865 6.66667 12.375 6.66667ZM5.625 5.55556C5.625 5.24786 5.73462 4.98575 5.95385 4.76923C6.17308 4.55271 6.43846 4.44444 6.75 4.44444C6.75 4.75214 6.64038 5.01425 6.42115 5.23077C6.19808 5.44729 5.93269 5.55556 5.625 5.55556ZM7.875 5.55556C7.56346 5.55556 7.29808 5.44729 7.07885 5.23077C6.85962 5.01425 6.75 4.75214 6.75 4.44444C7.06154 4.44444 7.32692 4.55271 7.54615 4.76923C7.76538 4.98575 7.875 5.24786 7.875 5.55556ZM7.875 5.55556C7.875 5.24786 7.98462 4.98575 8.20385 4.76923C8.42308 4.55271 8.68846 4.44444 9 4.44444C9 4.75214 8.89038 5.01425 8.67115 5.23077C8.45192 5.44729 8.18654 5.55556 7.875 5.55556ZM10.125 5.55556C9.81346 5.55556 9.54808 5.44729 9.32885 5.23077C9.10962 5.01425 9 4.75214 9 4.44444C9.31154 4.44444 9.57692 4.55271 9.79615 4.76923C10.0154 4.98575 10.125 5.24786 10.125 5.55556ZM10.125 5.55556C10.125 5.24786 10.2346 4.98575 10.4538 4.76923C10.6731 4.55271 10.9385 4.44444 11.25 4.44444C11.25 4.75214 11.1404 5.01425 10.9212 5.23077C10.7019 5.44729 10.4365 5.55556 10.125 5.55556ZM12.375 5.55556C12.0635 5.55556 11.7981 5.44729 11.5788 5.23077C11.3596 5.01425 11.25 4.75214 11.25 4.44444C11.5615 4.44444 11.8269 4.55271 12.0462 4.76923C12.2654 4.98575 12.375 5.24786 12.375 5.55556ZM7.875 4.44444C7.56346 4.44444 7.29808 4.33618 7.07885 4.11966C6.85962 3.90313 6.75 3.64103 6.75 3.33333C7.06154 3.33333 7.32692 3.4416 7.54615 3.65812C7.76538 3.87464 7.875 4.13675 7.875 4.44444ZM7.875 4.44444C7.875 4.13675 7.98462 3.87464 8.20385 3.65812C8.42308 3.4416 8.68846 3.33333 9 3.33333C9 3.64103 8.89038 3.90313 8.67115 4.11966C8.45192 4.33618 8.18654 4.44444 7.875 4.44444ZM10.125 4.44444C9.81346 4.44444 9.54808 4.33618 9.32885 4.11966C9.10962 3.90313 9 3.64103 9 3.33333C9.31154 3.33333 9.57692 3.4416 9.79615 3.65812C10.0154 3.87464 10.125 4.13675 10.125 4.44444ZM10.125 4.44444C10.125 4.13675 10.2346 3.87464 10.4538 3.65812C10.6731 3.4416 10.9385 3.33333 11.25 3.33333C11.25 3.64103 11.1404 3.90313 10.9212 4.11966C10.7019 4.33618 10.4365 4.44444 10.125 4.44444ZM5.625 3.33333C5.625 3.02564 5.73462 2.76353 5.95385 2.54701C6.17308 2.33048 6.43846 2.22222 6.75 2.22222C6.75 2.52612 6.64038 2.78822 6.42115 3.00855C6.19808 3.22507 5.93269 3.33333 5.625 3.33333ZM7.875 3.33333C7.56346 3.33333 7.29808 3.22507 7.07885 3.00855C6.85962 2.78822 6.75 2.52612 6.75 2.22222C7.06154 2.22222 7.32692 2.33048 7.54615 2.54701C7.76538 2.76353 7.875 3.02564 7.875 3.33333ZM7.875 3.33333C7.875 3.02564 7.98462 2.76353 8.20385 2.54701C8.42308 2.33048 8.68846 2.22222 9 2.22222C9 2.52612 8.89038 2.78822 8.67115 3.00855C8.45192 3.22507 8.18654 3.33333 7.875 3.33333ZM10.125 3.33333C9.81346 3.33333 9.54808 3.22507 9.32885 3.00855C9.10962 2.78822 9 2.52612 9 2.22222C9.31154 2.22222 9.57692 2.33048 9.79615 2.54701C10.0154 2.76353 10.125 3.02564 10.125 3.33333ZM10.125 3.33333C10.125 3.02564 10.2346 2.76353 10.4538 2.54701C10.6731 2.33048 10.9385 2.22222 11.25 2.22222C11.25 2.52612 11.1404 2.78822 10.9212 3.00855C10.7019 3.22507 10.4365 3.33333 10.125 3.33333ZM12.375 3.33333C12.0635 3.33333 11.7981 3.22507 11.5788 3.00855C11.3596 2.78822 11.25 2.52612 11.25 2.22222C11.5615 2.22222 11.8269 2.33048 12.0462 2.54701C12.2654 2.76353 12.375 3.02564 12.375 3.33333ZM7.875 2.22222C7.56346 2.22222 7.29808 2.11396 7.07885 1.89744C6.85962 1.67711 6.75 1.415 6.75 1.11111C7.06154 1.11111 7.32692 1.21937 7.54615 1.4359C7.76538 1.65242 7.875 1.91453 7.875 2.22222ZM7.875 2.22222C7.875 1.91453 7.98462 1.65242 8.20385 1.4359C8.42308 1.21937 8.68846 1.11111 9 1.11111C9 1.415 8.89038 1.67711 8.67115 1.89744C8.45192 2.11396 8.18654 2.22222 7.875 2.22222ZM10.125 2.22222C9.81346 2.22222 9.54808 2.11396 9.32885 1.89744C9.10962 1.67711 9 1.415 9 1.11111C9.31154 1.11111 9.57692 1.21937 9.79615 1.4359C10.0154 1.65242 10.125 1.91453 10.125 2.22222ZM10.125 2.22222C10.125 1.91453 10.2346 1.65242 10.4538 1.4359C10.6731 1.21937 10.9385 1.11111 11.25 1.11111C11.25 1.415 11.1404 1.67711 10.9212 1.89744C10.7019 2.11396 10.4365 2.22222 10.125 2.22222ZM7.875 1.11111C7.875 0.803419 7.98462 0.541311 8.20385 0.324786C8.42308 0.108262 8.68846 0 9 0C9 0.303894 8.89038 0.566002 8.67115 0.786325C8.45192 1.00285 8.18654 1.11111 7.875 1.11111ZM10.125 1.11111C9.81346 1.11111 9.54808 1.00285 9.32885 0.786325C9.10962 0.566002 9 0.303894 9 0C9.31154 0 9.57692 0.108262 9.79615 0.324786C10.0154 0.541311 10.125 0.803419 10.125 1.11111Z" fill="#AE1B2E"/>
</svg>
