<svg width="20" height="20" viewBox="0 0 20 20" fill="none" xmlns="http://www.w3.org/2000/svg">
<path d="M8.88889 20C8.5812 20 8.31909 19.8917 8.10256 19.6752C7.88604 19.4587 7.77778 19.1966 7.77778 18.8889C8.08547 18.8889 8.34758 18.9991 8.5641 19.2194C8.78063 19.4359 8.88889 19.6961 8.88889 20ZM8.88889 20C8.88889 19.6961 8.99715 19.4359 9.21367 19.2194C9.4302 18.9991 9.69231 18.8889 10 18.8889C10 19.1966 9.89174 19.4587 9.67521 19.6752C9.45869 19.8917 9.19658 20 8.88889 20ZM11.1111 20C10.8034 20 10.5413 19.8917 10.3248 19.6752C10.1083 19.4587 10 19.1966 10 18.8889C10.3077 18.8889 10.5698 18.9991 10.7863 19.2194C11.0028 19.4359 11.1111 19.6961 11.1111 20ZM11.1111 20C11.1111 19.6961 11.2194 19.4359 11.4359 19.2194C11.6524 18.9991 11.9145 18.8889 12.2222 18.8889C12.2222 19.1966 12.114 19.4587 11.8974 19.6752C11.6809 19.8917 11.4188 20 11.1111 20ZM2.22222 18.8889C2.22222 18.585 2.33048 18.3248 2.54701 18.1083C2.76353 17.8879 3.02564 17.7778 3.33333 17.7778C3.33333 18.0855 3.22317 18.3476 3.00285 18.5641C2.78632 18.7806 2.52612 18.8889 2.22222 18.8889ZM4.44444 18.8889C4.13675 18.8889 3.87464 18.7806 3.65812 18.5641C3.4416 18.3476 3.33333 18.0855 3.33333 17.7778C3.63723 17.7778 3.89934 17.8879 4.11966 18.1083C4.33618 18.3248 4.44444 18.585 4.44444 18.8889ZM4.44444 18.8889C4.44444 18.585 4.55271 18.3248 4.76923 18.1083C4.98575 17.8879 5.24786 17.7778 5.55556 17.7778C5.55556 18.0855 5.44729 18.3476 5.23077 18.5641C5.01045 18.7806 4.74834 18.8889 4.44444 18.8889ZM6.66667 18.8889C6.66667 18.585 6.77493 18.3248 6.99145 18.1083C7.20798 17.8879 7.47009 17.7778 7.77778 17.7778C7.77778 18.0855 7.66952 18.3476 7.45299 18.5641C7.23647 18.7806 6.97436 18.8889 6.66667 18.8889ZM8.88889 18.8889C8.5812 18.8889 8.31909 18.7806 8.10256 18.5641C7.88604 18.3476 7.77778 18.0855 7.77778 17.7778C8.08547 17.7778 8.34758 17.8879 8.5641 18.1083C8.78063 18.3248 8.88889 18.585 8.88889 18.8889ZM8.88889 18.8889C8.88889 18.585 8.99715 18.3248 9.21367 18.1083C9.4302 17.8879 9.69231 17.7778 10 17.7778C10 18.0855 9.89174 18.3476 9.67521 18.5641C9.45869 18.7806 9.19658 18.8889 8.88889 18.8889ZM11.1111 18.8889C10.8034 18.8889 10.5413 18.7806 10.3248 18.5641C10.1083 18.3476 10 18.0855 10 17.7778C10.3077 17.7778 10.5698 17.8879 10.7863 18.1083C11.0028 18.3248 11.1111 18.585 11.1111 18.8889ZM11.1111 18.8889C11.1111 18.585 11.2194 18.3248 11.4359 18.1083C11.6524 17.8879 11.9145 17.7778 12.2222 17.7778C12.2222 18.0855 12.114 18.3476 11.8974 18.5641C11.6809 18.7806 11.4188 18.8889 11.1111 18.8889ZM13.3333 18.8889C13.0256 18.8889 12.7635 18.7806 12.547 18.5641C12.3305 18.3476 12.2222 18.0855 12.2222 17.7778C12.5299 17.7778 12.792 17.8879 13.0085 18.1083C13.2251 18.3248 13.3333 18.585 13.3333 18.8889ZM15.5556 18.8889C15.2479 18.8889 14.9858 18.7806 14.7692 18.5641C14.5527 18.3476 14.4444 18.0855 14.4444 17.7778C14.7521 17.7778 15.0142 17.8879 15.2308 18.1083C15.4473 18.3248 15.5556 18.585 15.5556 18.8889ZM15.5556 18.8889C15.5556 18.585 15.6638 18.3248 15.8803 18.1083C16.0969 17.8879 16.359 17.7778 16.6667 17.7778C16.6667 18.0855 16.5584 18.3476 16.3419 18.5641C16.1254 18.7806 15.8632 18.8889 15.5556 18.8889ZM17.7778 18.8889C17.4739 18.8889 17.2118 18.7806 16.9915 18.5641C16.7749 18.3476 16.6667 18.0855 16.6667 17.7778C16.9744 17.7778 17.2365 17.8879 17.453 18.1083C17.6695 18.3248 17.7778 18.585 17.7778 18.8889ZM2.22222 17.7778C1.91453 17.7778 1.65242 17.6695 1.4359 17.453C1.21937 17.2365 1.11111 16.9744 1.11111 16.6667C1.415 16.6667 1.67521 16.7768 1.89174 16.9972C2.11206 17.2137 2.22222 17.4739 2.22222 17.7778ZM2.22222 17.7778C2.22222 17.4739 2.33048 17.2137 2.54701 16.9972C2.76353 16.7768 3.02564 16.6667 3.33333 16.6667C3.33333 16.9744 3.22317 17.2365 3.00285 17.453C2.78632 17.6695 2.52612 17.7778 2.22222 17.7778ZM4.44444 17.7778C4.13675 17.7778 3.87464 17.6695 3.65812 17.453C3.4416 17.2365 3.33333 16.9744 3.33333 16.6667C3.63723 16.6667 3.89934 16.7768 4.11966 16.9972C4.33618 17.2137 4.44444 17.4739 4.44444 17.7778ZM4.44444 17.7778C4.44444 17.4739 4.55271 17.2137 4.76923 16.9972C4.98575 16.7768 5.24786 16.6667 5.55556 16.6667C5.55556 16.9744 5.44729 17.2365 5.23077 17.453C5.01045 17.6695 4.74834 17.7778 4.44444 17.7778ZM8.88889 17.7778C8.5812 17.7778 8.31909 17.6695 8.10256 17.453C7.88604 17.2365 7.77778 16.9744 7.77778 16.6667C8.08547 16.6667 8.34758 16.7768 8.5641 16.9972C8.78063 17.2137 8.88889 17.4739 8.88889 17.7778ZM8.88889 17.7778C8.88889 17.4739 8.99715 17.2137 9.21367 16.9972C9.4302 16.7768 9.69231 16.6667 10 16.6667C10 16.9744 9.89174 17.2365 9.67521 17.453C9.45869 17.6695 9.19658 17.7778 8.88889 17.7778ZM11.1111 17.7778C10.8034 17.7778 10.5413 17.6695 10.3248 17.453C10.1083 17.2365 10 16.9744 10 16.6667C10.3077 16.6667 10.5698 16.7768 10.7863 16.9972C11.0028 17.2137 11.1111 17.4739 11.1111 17.7778ZM11.1111 17.7778C11.1111 17.4739 11.2194 17.2137 11.4359 16.9972C11.6524 16.7768 11.9145 16.6667 12.2222 16.6667C12.2222 16.9744 12.114 17.2365 11.8974 17.453C11.6809 17.6695 11.4188 17.7778 11.1111 17.7778ZM15.5556 17.7778C15.2479 17.7778 14.9858 17.6695 14.7692 17.453C14.5527 17.2365 14.4444 16.9744 14.4444 16.6667C14.7521 16.6667 15.0142 16.7768 15.2308 16.9972C15.4473 17.2137 15.5556 17.4739 15.5556 17.7778ZM15.5556 17.7778C15.5556 17.4739 15.6638 17.2137 15.8803 16.9972C16.0969 16.7768 16.359 16.6667 16.6667 16.6667C16.6667 16.9744 16.5584 17.2365 16.3419 17.453C16.1254 17.6695 15.8632 17.7778 15.5556 17.7778ZM17.7778 17.7778C17.4739 17.7778 17.2118 17.6695 16.9915 17.453C16.7749 17.2365 16.6667 16.9744 16.6667 16.6667C16.9744 16.6667 17.2365 16.7768 17.453 16.9972C17.6695 17.2137 17.7778 17.4739 17.7778 17.7778ZM17.7778 17.7778C17.7778 17.4739 17.886 17.2137 18.1026 16.9972C18.3229 16.7768 18.585 16.6667 18.8889 16.6667C18.8889 16.9744 18.7806 17.2365 18.5641 17.453C18.3476 17.6695 18.0855 17.7778 17.7778 17.7778ZM2.22222 16.6667C2.22222 16.3628 2.33048 16.1007 2.54701 15.8803C2.76353 15.6638 3.02564 15.5556 3.33333 15.5556C3.33333 15.8632 3.22317 16.1254 3.00285 16.3419C2.78632 16.5584 2.52612 16.6667 2.22222 16.6667ZM4.44444 16.6667C4.13675 16.6667 3.87464 16.5584 3.65812 16.3419C3.4416 16.1254 3.33333 15.8632 3.33333 15.5556C3.63723 15.5556 3.89934 15.6638 4.11966 15.8803C4.33618 16.1007 4.44444 16.3628 4.44444 16.6667ZM4.44444 16.6667C4.44444 16.3628 4.55271 16.1007 4.76923 15.8803C4.98575 15.6638 5.24786 15.5556 5.55556 15.5556C5.55556 15.8632 5.44729 16.1254 5.23077 16.3419C5.01045 16.5584 4.74834 16.6667 4.44444 16.6667ZM6.66667 16.6667C6.35897 16.6667 6.09687 16.5584 5.88034 16.3419C5.66382 16.1254 5.55556 15.8632 5.55556 15.5556C5.85945 15.5556 6.12156 15.6638 6.34188 15.8803C6.5584 16.1007 6.66667 16.3628 6.66667 16.6667ZM8.88889 16.6667C8.5812 16.6667 8.31909 16.5584 8.10256 16.3419C7.88604 16.1254 7.77778 15.8632 7.77778 15.5556C8.08547 15.5556 8.34758 15.6638 8.5641 15.8803C8.78063 16.1007 8.88889 16.3628 8.88889 16.6667ZM8.88889 16.6667C8.88889 16.3628 8.99715 16.1007 9.21367 15.8803C9.4302 15.6638 9.69231 15.5556 10 15.5556C10 15.8632 9.89174 16.1254 9.67521 16.3419C9.45869 16.5584 9.19658 16.6667 8.88889 16.6667ZM11.1111 16.6667C10.8034 16.6667 10.5413 16.5584 10.3248 16.3419C10.1083 16.1254 10 15.8632 10 15.5556C10.3077 15.5556 10.5698 15.6638 10.7863 15.8803C11.0028 16.1007 11.1111 16.3628 11.1111 16.6667ZM11.1111 16.6667C11.1111 16.3628 11.2194 16.1007 11.4359 15.8803C11.6524 15.6638 11.9145 15.5556 12.2222 15.5556C12.2222 15.8632 12.114 16.1254 11.8974 16.3419C11.6809 16.5584 11.4188 16.6667 11.1111 16.6667ZM13.3333 16.6667C13.3333 16.3628 13.4416 16.1007 13.6581 15.8803C13.8746 15.6638 14.1368 15.5556 14.4444 15.5556C14.4444 15.8632 14.3362 16.1254 14.1197 16.3419C13.9031 16.5584 13.641 16.6667 13.3333 16.6667ZM15.5556 16.6667C15.2479 16.6667 14.9858 16.5584 14.7692 16.3419C14.5527 16.1254 14.4444 15.8632 14.4444 15.5556C14.7521 15.5556 15.0142 15.6638 15.2308 15.8803C15.4473 16.1007 15.5556 16.3628 15.5556 16.6667ZM15.5556 16.6667C15.5556 16.3628 15.6638 16.1007 15.8803 15.8803C16.0969 15.6638 16.359 15.5556 16.6667 15.5556C16.6667 15.8632 16.5584 16.1254 16.3419 16.3419C16.1254 16.5584 15.8632 16.6667 15.5556 16.6667ZM17.7778 16.6667C17.4739 16.6667 17.2118 16.5584 16.9915 16.3419C16.7749 16.1254 16.6667 15.8632 16.6667 15.5556C16.9744 15.5556 17.2365 15.6638 17.453 15.8803C17.6695 16.1007 17.7778 16.3628 17.7778 16.6667ZM4.44444 15.5556C4.13675 15.5556 3.87464 15.4473 3.65812 15.2308C3.4416 15.0142 3.33333 14.7521 3.33333 14.4444C3.63723 14.4444 3.89934 14.5527 4.11966 14.7692C4.33618 14.9896 4.44444 15.2517 4.44444 15.5556ZM4.44444 15.5556C4.44444 15.2517 4.55271 14.9896 4.76923 14.7692C4.98575 14.5527 5.24786 14.4444 5.55556 14.4444C5.55556 14.7521 5.44729 15.0142 5.23077 15.2308C5.01045 15.4473 4.74834 15.5556 4.44444 15.5556ZM6.66667 15.5556C6.35897 15.5556 6.09687 15.4473 5.88034 15.2308C5.66382 15.0142 5.55556 14.7521 5.55556 14.4444C5.85945 14.4444 6.12156 14.5527 6.34188 14.7692C6.5584 14.9896 6.66667 15.2517 6.66667 15.5556ZM8.88889 15.5556C8.88889 15.2517 8.99715 14.9896 9.21367 14.7692C9.4302 14.5527 9.69231 14.4444 10 14.4444C10 14.7521 9.89174 15.0142 9.67521 15.2308C9.45869 15.4473 9.19658 15.5556 8.88889 15.5556ZM11.1111 15.5556C10.8034 15.5556 10.5413 15.4473 10.3248 15.2308C10.1083 15.0142 10 14.7521 10 14.4444C10.3077 14.4444 10.5698 14.5527 10.7863 14.7692C11.0028 14.9896 11.1111 15.2517 11.1111 15.5556ZM13.3333 15.5556C13.3333 15.2517 13.4416 14.9896 13.6581 14.7692C13.8746 14.5527 14.1368 14.4444 14.4444 14.4444C14.4444 14.7521 14.3362 15.0142 14.1197 15.2308C13.9031 15.4473 13.641 15.5556 13.3333 15.5556ZM15.5556 15.5556C15.2479 15.5556 14.9858 15.4473 14.7692 15.2308C14.5527 15.0142 14.4444 14.7521 14.4444 14.4444C14.7521 14.4444 15.0142 14.5527 15.2308 14.7692C15.4473 14.9896 15.5556 15.2517 15.5556 15.5556ZM15.5556 15.5556C15.5556 15.2517 15.6638 14.9896 15.8803 14.7692C16.0969 14.5527 16.359 14.4444 16.6667 14.4444C16.6667 14.7521 16.5584 15.0142 16.3419 15.2308C16.1254 15.4473 15.8632 15.5556 15.5556 15.5556ZM4.44444 14.4444C4.44444 14.1406 4.55271 13.8784 4.76923 13.6581C4.98575 13.4416 5.24786 13.3333 5.55556 13.3333C5.55556 13.641 5.44729 13.9031 5.23077 14.1197C5.01045 14.3362 4.74834 14.4444 4.44444 14.4444ZM6.66667 14.4444C6.35897 14.4444 6.09687 14.3362 5.88034 14.1197C5.66382 13.9031 5.55556 13.641 5.55556 13.3333C5.85945 13.3333 6.12156 13.4416 6.34188 13.6581C6.5584 13.8784 6.66667 14.1406 6.66667 14.4444ZM6.66667 14.4444C6.66667 14.1406 6.77493 13.8784 6.99145 13.6581C7.20798 13.4416 7.47009 13.3333 7.77778 13.3333C7.77778 13.641 7.66952 13.9031 7.45299 14.1197C7.23647 14.3362 6.97436 14.4444 6.66667 14.4444ZM8.88889 14.4444C8.88889 14.1406 8.99715 13.8784 9.21367 13.6581C9.4302 13.4416 9.69231 13.3333 10 13.3333C10 13.641 9.89174 13.9031 9.67521 14.1197C9.45869 14.3362 9.19658 14.4444 8.88889 14.4444ZM11.1111 14.4444C10.8034 14.4444 10.5413 14.3362 10.3248 14.1197C10.1083 13.9031 10 13.641 10 13.3333C10.3077 13.3333 10.5698 13.4416 10.7863 13.6581C11.0028 13.8784 11.1111 14.1406 11.1111 14.4444ZM13.3333 14.4444C13.0256 14.4444 12.7635 14.3362 12.547 14.1197C12.3305 13.9031 12.2222 13.641 12.2222 13.3333C12.5299 13.3333 12.792 13.4416 13.0085 13.6581C13.2251 13.8784 13.3333 14.1406 13.3333 14.4444ZM13.3333 14.4444C13.3333 14.1406 13.4416 13.8784 13.6581 13.6581C13.8746 13.4416 14.1368 13.3333 14.4444 13.3333C14.4444 13.641 14.3362 13.9031 14.1197 14.1197C13.9031 14.3362 13.641 14.4444 13.3333 14.4444ZM2.22222 13.3333C1.91453 13.3333 1.65242 13.2251 1.4359 13.0085C1.21937 12.792 1.11111 12.5299 1.11111 12.2222C1.415 12.2222 1.67521 12.3305 1.89174 12.547C2.11206 12.7635 2.22222 13.0256 2.22222 13.3333ZM6.66667 13.3333C6.35897 13.3333 6.09687 13.2251 5.88034 13.0085C5.66382 12.792 5.55556 12.5299 5.55556 12.2222C5.85945 12.2222 6.12156 12.3305 6.34188 12.547C6.5584 12.7635 6.66667 13.0256 6.66667 13.3333ZM6.66667 13.3333C6.66667 13.0256 6.77493 12.7635 6.99145 12.547C7.20798 12.3305 7.47009 12.2222 7.77778 12.2222C7.77778 12.5299 7.66952 12.792 7.45299 13.0085C7.23647 13.2251 6.97436 13.3333 6.66667 13.3333ZM8.88889 13.3333C8.5812 13.3333 8.31909 13.2251 8.10256 13.0085C7.88604 12.792 7.77778 12.5299 7.77778 12.2222C8.08547 12.2222 8.34758 12.3305 8.5641 12.547C8.78063 12.7635 8.88889 13.0256 8.88889 13.3333ZM8.88889 13.3333C8.88889 13.0256 8.99715 12.7635 9.21367 12.547C9.4302 12.3305 9.69231 12.2222 10 12.2222C10 12.5299 9.89174 12.792 9.67521 13.0085C9.45869 13.2251 9.19658 13.3333 8.88889 13.3333ZM11.1111 13.3333C10.8034 13.3333 10.5413 13.2251 10.3248 13.0085C10.1083 12.792 10 12.5299 10 12.2222C10.3077 12.2222 10.5698 12.3305 10.7863 12.547C11.0028 12.7635 11.1111 13.0256 11.1111 13.3333ZM11.1111 13.3333C11.1111 13.0256 11.2194 12.7635 11.4359 12.547C11.6524 12.3305 11.9145 12.2222 12.2222 12.2222C12.2222 12.5299 12.114 12.792 11.8974 13.0085C11.6809 13.2251 11.4188 13.3333 11.1111 13.3333ZM13.3333 13.3333C13.0256 13.3333 12.7635 13.2251 12.547 13.0085C12.3305 12.792 12.2222 12.5299 12.2222 12.2222C12.5299 12.2222 12.792 12.3305 13.0085 12.547C13.2251 12.7635 13.3333 13.0256 13.3333 13.3333ZM13.3333 13.3333C13.3333 13.0256 13.4416 12.7635 13.6581 12.547C13.8746 12.3305 14.1368 12.2222 14.4444 12.2222C14.4444 12.5299 14.3362 12.792 14.1197 13.0085C13.9031 13.2251 13.641 13.3333 13.3333 13.3333ZM17.7778 13.3333C17.7778 13.0256 17.886 12.7635 18.1026 12.547C18.3229 12.3305 18.585 12.2222 18.8889 12.2222C18.8889 12.5299 18.7806 12.792 18.5641 13.0085C18.3476 13.2251 18.0855 13.3333 17.7778 13.3333ZM0 12.2222C0 11.9145 0.108262 11.6524 0.324786 11.4359C0.541311 11.2194 0.803419 11.1111 1.11111 11.1111C1.11111 11.4188 1.00095 11.6809 0.780627 11.8974C0.564103 12.114 0.303894 12.2222 0 12.2222ZM2.22222 12.2222C1.91453 12.2222 1.65242 12.114 1.4359 11.8974C1.21937 11.6809 1.11111 11.4188 1.11111 11.1111C1.415 11.1111 1.67521 11.2194 1.89174 11.4359C2.11206 11.6524 2.22222 11.9145 2.22222 12.2222ZM2.22222 12.2222C2.22222 11.9145 2.33048 11.6524 2.54701 11.4359C2.76353 11.2194 3.02564 11.1111 3.33333 11.1111C3.33333 11.4188 3.22317 11.6809 3.00285 11.8974C2.78632 12.114 2.52612 12.2222 2.22222 12.2222ZM6.66667 12.2222C6.66667 11.9145 6.77493 11.6524 6.99145 11.4359C7.20798 11.2194 7.47009 11.1111 7.77778 11.1111C7.77778 11.4188 7.66952 11.6809 7.45299 11.8974C7.23647 12.114 6.97436 12.2222 6.66667 12.2222ZM8.88889 12.2222C8.5812 12.2222 8.31909 12.114 8.10256 11.8974C7.88604 11.6809 7.77778 11.4188 7.77778 11.1111C8.08547 11.1111 8.34758 11.2194 8.5641 11.4359C8.78063 11.6524 8.88889 11.9145 8.88889 12.2222ZM8.88889 12.2222C8.88889 11.9145 8.99715 11.6524 9.21367 11.4359C9.4302 11.2194 9.69231 11.1111 10 11.1111C10 11.4188 9.89174 11.6809 9.67521 11.8974C9.45869 12.114 9.19658 12.2222 8.88889 12.2222ZM11.1111 12.2222C10.8034 12.2222 10.5413 12.114 10.3248 11.8974C10.1083 11.6809 10 11.4188 10 11.1111C10.3077 11.1111 10.5698 11.2194 10.7863 11.4359C11.0028 11.6524 11.1111 11.9145 11.1111 12.2222ZM11.1111 12.2222C11.1111 11.9145 11.2194 11.6524 11.4359 11.4359C11.6524 11.2194 11.9145 11.1111 12.2222 11.1111C12.2222 11.4188 12.114 11.6809 11.8974 11.8974C11.6809 12.114 11.4188 12.2222 11.1111 12.2222ZM13.3333 12.2222C13.0256 12.2222 12.7635 12.114 12.547 11.8974C12.3305 11.6809 12.2222 11.4188 12.2222 11.1111C12.5299 11.1111 12.792 11.2194 13.0085 11.4359C13.2251 11.6524 13.3333 11.9145 13.3333 12.2222ZM17.7778 12.2222C17.4739 12.2222 17.2118 12.114 16.9915 11.8974C16.7749 11.6809 16.6667 11.4188 16.6667 11.1111C16.9744 11.1111 17.2365 11.2194 17.453 11.4359C17.6695 11.6524 17.7778 11.9145 17.7778 12.2222ZM17.7778 12.2222C17.7778 11.9145 17.886 11.6524 18.1026 11.4359C18.3229 11.2194 18.585 11.1111 18.8889 11.1111C18.8889 11.4188 18.7806 11.6809 18.5641 11.8974C18.3476 12.114 18.0855 12.2222 17.7778 12.2222ZM20 12.2222C19.6961 12.2222 19.434 12.114 19.2137 11.8974C18.9972 11.6809 18.8889 11.4188 18.8889 11.1111C19.1966 11.1111 19.4587 11.2194 19.6752 11.4359C19.8917 11.6524 20 11.9145 20 12.2222ZM0 11.1111C0 10.8034 0.108262 10.5413 0.324786 10.3248C0.541311 10.1083 0.803419 10 1.11111 10C1.11111 10.3077 1.00095 10.5698 0.780627 10.7863C0.564103 11.0028 0.303894 11.1111 0 11.1111ZM2.22222 11.1111C1.91453 11.1111 1.65242 11.0028 1.4359 10.7863C1.21937 10.5698 1.11111 10.3077 1.11111 10C1.415 10 1.67521 10.1083 1.89174 10.3248C2.11206 10.5413 2.22222 10.8034 2.22222 11.1111ZM2.22222 11.1111C2.22222 10.8034 2.33048 10.5413 2.54701 10.3248C2.76353 10.1083 3.02564 10 3.33333 10C3.33333 10.3077 3.22317 10.5698 3.00285 10.7863C2.78632 11.0028 2.52612 11.1111 2.22222 11.1111ZM4.44444 11.1111C4.13675 11.1111 3.87464 11.0028 3.65812 10.7863C3.4416 10.5698 3.33333 10.3077 3.33333 10C3.63723 10 3.89934 10.1083 4.11966 10.3248C4.33618 10.5413 4.44444 10.8034 4.44444 11.1111ZM4.44444 11.1111C4.44444 10.8034 4.55271 10.5413 4.76923 10.3248C4.98575 10.1083 5.24786 10 5.55556 10C5.55556 10.3077 5.44729 10.5698 5.23077 10.7863C5.01045 11.0028 4.74834 11.1111 4.44444 11.1111ZM6.66667 11.1111C6.35897 11.1111 6.09687 11.0028 5.88034 10.7863C5.66382 10.5698 5.55556 10.3077 5.55556 10C5.85945 10 6.12156 10.1083 6.34188 10.3248C6.5584 10.5413 6.66667 10.8034 6.66667 11.1111ZM6.66667 11.1111C6.66667 10.8034 6.77493 10.5413 6.99145 10.3248C7.20798 10.1083 7.47009 10 7.77778 10C7.77778 10.3077 7.66952 10.5698 7.45299 10.7863C7.23647 11.0028 6.97436 11.1111 6.66667 11.1111ZM8.88889 11.1111C8.5812 11.1111 8.31909 11.0028 8.10256 10.7863C7.88604 10.5698 7.77778 10.3077 7.77778 10C8.08547 10 8.34758 10.1083 8.5641 10.3248C8.78063 10.5413 8.88889 10.8034 8.88889 11.1111ZM8.88889 11.1111C8.88889 10.8034 8.99715 10.5413 9.21367 10.3248C9.4302 10.1083 9.69231 10 10 10C10 10.3077 9.89174 10.5698 9.67521 10.7863C9.45869 11.0028 9.19658 11.1111 8.88889 11.1111ZM11.1111 11.1111C10.8034 11.1111 10.5413 11.0028 10.3248 10.7863C10.1083 10.5698 10 10.3077 10 10C10.3077 10 10.5698 10.1083 10.7863 10.3248C11.0028 10.5413 11.1111 10.8034 11.1111 11.1111ZM11.1111 11.1111C11.1111 10.8034 11.2194 10.5413 11.4359 10.3248C11.6524 10.1083 11.9145 10 12.2222 10C12.2222 10.3077 12.114 10.5698 11.8974 10.7863C11.6809 11.0028 11.4188 11.1111 11.1111 11.1111ZM13.3333 11.1111C13.0256 11.1111 12.7635 11.0028 12.547 10.7863C12.3305 10.5698 12.2222 10.3077 12.2222 10C12.5299 10 12.792 10.1083 13.0085 10.3248C13.2251 10.5413 13.3333 10.8034 13.3333 11.1111ZM13.3333 11.1111C13.3333 10.8034 13.4416 10.5413 13.6581 10.3248C13.8746 10.1083 14.1368 10 14.4444 10C14.4444 10.3077 14.3362 10.5698 14.1197 10.7863C13.9031 11.0028 13.641 11.1111 13.3333 11.1111ZM15.5556 11.1111C15.2479 11.1111 14.9858 11.0028 14.7692 10.7863C14.5527 10.5698 14.4444 10.3077 14.4444 10C14.7521 10 15.0142 10.1083 15.2308 10.3248C15.4473 10.5413 15.5556 10.8034 15.5556 11.1111ZM15.5556 11.1111C15.5556 10.8034 15.6638 10.5413 15.8803 10.3248C16.0969 10.1083 16.359 10 16.6667 10C16.6667 10.3077 16.5584 10.5698 16.3419 10.7863C16.1254 11.0028 15.8632 11.1111 15.5556 11.1111ZM17.7778 11.1111C17.4739 11.1111 17.2118 11.0028 16.9915 10.7863C16.7749 10.5698 16.6667 10.3077 16.6667 10C16.9744 10 17.2365 10.1083 17.453 10.3248C17.6695 10.5413 17.7778 10.8034 17.7778 11.1111ZM17.7778 11.1111C17.7778 10.8034 17.886 10.5413 18.1026 10.3248C18.3229 10.1083 18.585 10 18.8889 10C18.8889 10.3077 18.7806 10.5698 18.5641 10.7863C18.3476 11.0028 18.0855 11.1111 17.7778 11.1111ZM20 11.1111C19.6961 11.1111 19.434 11.0028 19.2137 10.7863C18.9972 10.5698 18.8889 10.3077 18.8889 10C19.1966 10 19.4587 10.1083 19.6752 10.3248C19.8917 10.5413 20 10.8034 20 11.1111ZM0 10C0 9.69231 0.108262 9.4302 0.324786 9.21367C0.541311 8.99715 0.803419 8.88889 1.11111 8.88889C1.11111 9.19658 1.00095 9.45869 0.780627 9.67521C0.564103 9.89174 0.303894 10 0 10ZM2.22222 10C1.91453 10 1.65242 9.89174 1.4359 9.67521C1.21937 9.45869 1.11111 9.19658 1.11111 8.88889C1.415 8.88889 1.67521 8.99715 1.89174 9.21367C2.11206 9.4302 2.22222 9.69231 2.22222 10ZM2.22222 10C2.22222 9.69231 2.33048 9.4302 2.54701 9.21367C2.76353 8.99715 3.02564 8.88889 3.33333 8.88889C3.33333 9.19658 3.22317 9.45869 3.00285 9.67521C2.78632 9.89174 2.52612 10 2.22222 10ZM4.44444 10C4.13675 10 3.87464 9.89174 3.65812 9.67521C3.4416 9.45869 3.33333 9.19658 3.33333 8.88889C3.63723 8.88889 3.89934 8.99715 4.11966 9.21367C4.33618 9.4302 4.44444 9.69231 4.44444 10ZM4.44444 10C4.44444 9.69231 4.55271 9.4302 4.76923 9.21367C4.98575 8.99715 5.24786 8.88889 5.55556 8.88889C5.55556 9.19658 5.44729 9.45869 5.23077 9.67521C5.01045 9.89174 4.74834 10 4.44444 10ZM6.66667 10C6.35897 10 6.09687 9.89174 5.88034 9.67521C5.66382 9.45869 5.55556 9.19658 5.55556 8.88889C5.85945 8.88889 6.12156 8.99715 6.34188 9.21367C6.5584 9.4302 6.66667 9.69231 6.66667 10ZM6.66667 10C6.66667 9.69231 6.77493 9.4302 6.99145 9.21367C7.20798 8.99715 7.47009 8.88889 7.77778 8.88889C7.77778 9.19658 7.66952 9.45869 7.45299 9.67521C7.23647 9.89174 6.97436 10 6.66667 10ZM8.88889 10C8.5812 10 8.31909 9.89174 8.10256 9.67521C7.88604 9.45869 7.77778 9.19658 7.77778 8.88889C8.08547 8.88889 8.34758 8.99715 8.5641 9.21367C8.78063 9.4302 8.88889 9.69231 8.88889 10ZM8.88889 10C8.88889 9.69231 8.99715 9.4302 9.21367 9.21367C9.4302 8.99715 9.69231 8.88889 10 8.88889C10 9.19658 9.89174 9.45869 9.67521 9.67521C9.45869 9.89174 9.19658 10 8.88889 10ZM11.1111 10C10.8034 10 10.5413 9.89174 10.3248 9.67521C10.1083 9.45869 10 9.19658 10 8.88889C10.3077 8.88889 10.5698 8.99715 10.7863 9.21367C11.0028 9.4302 11.1111 9.69231 11.1111 10ZM11.1111 10C11.1111 9.69231 11.2194 9.4302 11.4359 9.21367C11.6524 8.99715 11.9145 8.88889 12.2222 8.88889C12.2222 9.19658 12.114 9.45869 11.8974 9.67521C11.6809 9.89174 11.4188 10 11.1111 10ZM13.3333 10C13.0256 10 12.7635 9.89174 12.547 9.67521C12.3305 9.45869 12.2222 9.19658 12.2222 8.88889C12.5299 8.88889 12.792 8.99715 13.0085 9.21367C13.2251 9.4302 13.3333 9.69231 13.3333 10ZM13.3333 10C13.3333 9.69231 13.4416 9.4302 13.6581 9.21367C13.8746 8.99715 14.1368 8.88889 14.4444 8.88889C14.4444 9.19658 14.3362 9.45869 14.1197 9.67521C13.9031 9.89174 13.641 10 13.3333 10ZM15.5556 10C15.2479 10 14.9858 9.89174 14.7692 9.67521C14.5527 9.45869 14.4444 9.19658 14.4444 8.88889C14.7521 8.88889 15.0142 8.99715 15.2308 9.21367C15.4473 9.4302 15.5556 9.69231 15.5556 10ZM15.5556 10C15.5556 9.69231 15.6638 9.4302 15.8803 9.21367C16.0969 8.99715 16.359 8.88889 16.6667 8.88889C16.6667 9.19658 16.5584 9.45869 16.3419 9.67521C16.1254 9.89174 15.8632 10 15.5556 10ZM17.7778 10C17.4739 10 17.2118 9.89174 16.9915 9.67521C16.7749 9.45869 16.6667 9.19658 16.6667 8.88889C16.9744 8.88889 17.2365 8.99715 17.453 9.21367C17.6695 9.4302 17.7778 9.69231 17.7778 10ZM17.7778 10C17.7778 9.69231 17.886 9.4302 18.1026 9.21367C18.3229 8.99715 18.585 8.88889 18.8889 8.88889C18.8889 9.19658 18.7806 9.45869 18.5641 9.67521C18.3476 9.89174 18.0855 10 17.7778 10ZM20 10C19.6961 10 19.434 9.89174 19.2137 9.67521C18.9972 9.45869 18.8889 9.19658 18.8889 8.88889C19.1966 8.88889 19.4587 8.99715 19.6752 9.21367C19.8917 9.4302 20 9.69231 20 10ZM0 8.88889C0 8.5812 0.108262 8.31909 0.324786 8.10256C0.541311 7.88604 0.803419 7.77778 1.11111 7.77778C1.11111 8.08547 1.00095 8.34758 0.780627 8.5641C0.564103 8.78063 0.303894 8.88889 0 8.88889ZM2.22222 8.88889C1.91453 8.88889 1.65242 8.78063 1.4359 8.5641C1.21937 8.34758 1.11111 8.08547 1.11111 7.77778C1.415 7.77778 1.67521 7.88604 1.89174 8.10256C2.11206 8.31909 2.22222 8.5812 2.22222 8.88889ZM2.22222 8.88889C2.22222 8.5812 2.33048 8.31909 2.54701 8.10256C2.76353 7.88604 3.02564 7.77778 3.33333 7.77778C3.33333 8.08547 3.22317 8.34758 3.00285 8.5641C2.78632 8.78063 2.52612 8.88889 2.22222 8.88889ZM6.66667 8.88889C6.66667 8.5812 6.77493 8.31909 6.99145 8.10256C7.20798 7.88604 7.47009 7.77778 7.77778 7.77778C7.77778 8.08547 7.66952 8.34758 7.45299 8.5641C7.23647 8.78063 6.97436 8.88889 6.66667 8.88889ZM8.88889 8.88889C8.5812 8.88889 8.31909 8.78063 8.10256 8.5641C7.88604 8.34758 7.77778 8.08547 7.77778 7.77778C8.08547 7.77778 8.34758 7.88604 8.5641 8.10256C8.78063 8.31909 8.88889 8.5812 8.88889 8.88889ZM8.88889 8.88889C8.88889 8.5812 8.99715 8.31909 9.21367 8.10256C9.4302 7.88604 9.69231 7.77778 10 7.77778C10 8.08547 9.89174 8.34758 9.67521 8.5641C9.45869 8.78063 9.19658 8.88889 8.88889 8.88889ZM11.1111 8.88889C10.8034 8.88889 10.5413 8.78063 10.3248 8.5641C10.1083 8.34758 10 8.08547 10 7.77778C10.3077 7.77778 10.5698 7.88604 10.7863 8.10256C11.0028 8.31909 11.1111 8.5812 11.1111 8.88889ZM11.1111 8.88889C11.1111 8.5812 11.2194 8.31909 11.4359 8.10256C11.6524 7.88604 11.9145 7.77778 12.2222 7.77778C12.2222 8.08547 12.114 8.34758 11.8974 8.5641C11.6809 8.78063 11.4188 8.88889 11.1111 8.88889ZM13.3333 8.88889C13.0256 8.88889 12.7635 8.78063 12.547 8.5641C12.3305 8.34758 12.2222 8.08547 12.2222 7.77778C12.5299 7.77778 12.792 7.88604 13.0085 8.10256C13.2251 8.31909 13.3333 8.5812 13.3333 8.88889ZM17.7778 8.88889C17.4739 8.88889 17.2118 8.78063 16.9915 8.5641C16.7749 8.34758 16.6667 8.08547 16.6667 7.77778C16.9744 7.77778 17.2365 7.88604 17.453 8.10256C17.6695 8.31909 17.7778 8.5812 17.7778 8.88889ZM17.7778 8.88889C17.7778 8.5812 17.886 8.31909 18.1026 8.10256C18.3229 7.88604 18.585 7.77778 18.8889 7.77778C18.8889 8.08547 18.7806 8.34758 18.5641 8.5641C18.3476 8.78063 18.0855 8.88889 17.7778 8.88889ZM20 8.88889C19.6961 8.88889 19.434 8.78063 19.2137 8.5641C18.9972 8.34758 18.8889 8.08547 18.8889 7.77778C19.1966 7.77778 19.4587 7.88604 19.6752 8.10256C19.8917 8.31909 20 8.5812 20 8.88889ZM2.22222 7.77778C1.91453 7.77778 1.65242 7.66952 1.4359 7.45299C1.21937 7.23647 1.11111 6.97436 1.11111 6.66667C1.415 6.66667 1.67521 6.77493 1.89174 6.99145C2.11206 7.20798 2.22222 7.47009 2.22222 7.77778ZM6.66667 7.77778C6.35897 7.77778 6.09687 7.66952 5.88034 7.45299C5.66382 7.23647 5.55556 6.97436 5.55556 6.66667C5.85945 6.66667 6.12156 6.77493 6.34188 6.99145C6.5584 7.20798 6.66667 7.47009 6.66667 7.77778ZM6.66667 7.77778C6.66667 7.47009 6.77493 7.20798 6.99145 6.99145C7.20798 6.77493 7.47009 6.66667 7.77778 6.66667C7.77778 6.97436 7.66952 7.23647 7.45299 7.45299C7.23647 7.66952 6.97436 7.77778 6.66667 7.77778ZM8.88889 7.77778C8.5812 7.77778 8.31909 7.66952 8.10256 7.45299C7.88604 7.23647 7.77778 6.97436 7.77778 6.66667C8.08547 6.66667 8.34758 6.77493 8.5641 6.99145C8.78063 7.20798 8.88889 7.47009 8.88889 7.77778ZM8.88889 7.77778C8.88889 7.47009 8.99715 7.20798 9.21367 6.99145C9.4302 6.77493 9.69231 6.66667 10 6.66667C10 6.97436 9.89174 7.23647 9.67521 7.45299C9.45869 7.66952 9.19658 7.77778 8.88889 7.77778ZM11.1111 7.77778C10.8034 7.77778 10.5413 7.66952 10.3248 7.45299C10.1083 7.23647 10 6.97436 10 6.66667C10.3077 6.66667 10.5698 6.77493 10.7863 6.99145C11.0028 7.20798 11.1111 7.47009 11.1111 7.77778ZM11.1111 7.77778C11.1111 7.47009 11.2194 7.20798 11.4359 6.99145C11.6524 6.77493 11.9145 6.66667 12.2222 6.66667C12.2222 6.97436 12.114 7.23647 11.8974 7.45299C11.6809 7.66952 11.4188 7.77778 11.1111 7.77778ZM13.3333 7.77778C13.0256 7.77778 12.7635 7.66952 12.547 7.45299C12.3305 7.23647 12.2222 6.97436 12.2222 6.66667C12.5299 6.66667 12.792 6.77493 13.0085 6.99145C13.2251 7.20798 13.3333 7.47009 13.3333 7.77778ZM13.3333 7.77778C13.3333 7.47009 13.4416 7.20798 13.6581 6.99145C13.8746 6.77493 14.1368 6.66667 14.4444 6.66667C14.4444 6.97436 14.3362 7.23647 14.1197 7.45299C13.9031 7.66952 13.641 7.77778 13.3333 7.77778ZM17.7778 7.77778C17.7778 7.47009 17.886 7.20798 18.1026 6.99145C18.3229 6.77493 18.585 6.66667 18.8889 6.66667C18.8889 6.97436 18.7806 7.23647 18.5641 7.45299C18.3476 7.66952 18.0855 7.77778 17.7778 7.77778ZM4.44444 6.66667C4.44444 6.35897 4.55271 6.09687 4.76923 5.88034C4.98575 5.66382 5.24786 5.55556 5.55556 5.55556C5.55556 5.86325 5.44729 6.12536 5.23077 6.34188C5.01045 6.5584 4.74834 6.66667 4.44444 6.66667ZM6.66667 6.66667C6.35897 6.66667 6.09687 6.5584 5.88034 6.34188C5.66382 6.12536 5.55556 5.86325 5.55556 5.55556C5.85945 5.55556 6.12156 5.66382 6.34188 5.88034C6.5584 6.09687 6.66667 6.35897 6.66667 6.66667ZM6.66667 6.66667C6.66667 6.35897 6.77493 6.09687 6.99145 5.88034C7.20798 5.66382 7.47009 5.55556 7.77778 5.55556C7.77778 5.86325 7.66952 6.12536 7.45299 6.34188C7.23647 6.5584 6.97436 6.66667 6.66667 6.66667ZM8.88889 6.66667C8.88889 6.35897 8.99715 6.09687 9.21367 5.88034C9.4302 5.66382 9.69231 5.55556 10 5.55556C10 5.86325 9.89174 6.12536 9.67521 6.34188C9.45869 6.5584 9.19658 6.66667 8.88889 6.66667ZM11.1111 6.66667C10.8034 6.66667 10.5413 6.5584 10.3248 6.34188C10.1083 6.12536 10 5.86325 10 5.55556C10.3077 5.55556 10.5698 5.66382 10.7863 5.88034C11.0028 6.09687 11.1111 6.35897 11.1111 6.66667ZM13.3333 6.66667C13.0256 6.66667 12.7635 6.5584 12.547 6.34188C12.3305 6.12536 12.2222 5.86325 12.2222 5.55556C12.5299 5.55556 12.792 5.66382 13.0085 5.88034C13.2251 6.09687 13.3333 6.35897 13.3333 6.66667ZM13.3333 6.66667C13.3333 6.35897 13.4416 6.09687 13.6581 5.88034C13.8746 5.66382 14.1368 5.55556 14.4444 5.55556C14.4444 5.86325 14.3362 6.12536 14.1197 6.34188C13.9031 6.5584 13.641 6.66667 13.3333 6.66667ZM15.5556 6.66667C15.2479 6.66667 14.9858 6.5584 14.7692 6.34188C14.5527 6.12536 14.4444 5.86325 14.4444 5.55556C14.7521 5.55556 15.0142 5.66382 15.2308 5.88034C15.4473 6.09687 15.5556 6.35897 15.5556 6.66667ZM4.44444 5.55556C4.13675 5.55556 3.87464 5.44729 3.65812 5.23077C3.4416 5.01425 3.33333 4.75214 3.33333 4.44444C3.63723 4.44444 3.89934 4.55271 4.11966 4.76923C4.33618 4.98575 4.44444 5.24786 4.44444 5.55556ZM4.44444 5.55556C4.44444 5.24786 4.55271 4.98575 4.76923 4.76923C4.98575 4.55271 5.24786 4.44444 5.55556 4.44444C5.55556 4.75214 5.44729 5.01425 5.23077 5.23077C5.01045 5.44729 4.74834 5.55556 4.44444 5.55556ZM6.66667 5.55556C6.35897 5.55556 6.09687 5.44729 5.88034 5.23077C5.66382 5.01425 5.55556 4.75214 5.55556 4.44444C5.85945 4.44444 6.12156 4.55271 6.34188 4.76923C6.5584 4.98575 6.66667 5.24786 6.66667 5.55556ZM8.88889 5.55556C8.88889 5.24786 8.99715 4.98575 9.21367 4.76923C9.4302 4.55271 9.69231 4.44444 10 4.44444C10 4.75214 9.89174 5.01425 9.67521 5.23077C9.45869 5.44729 9.19658 5.55556 8.88889 5.55556ZM11.1111 5.55556C10.8034 5.55556 10.5413 5.44729 10.3248 5.23077C10.1083 5.01425 10 4.75214 10 4.44444C10.3077 4.44444 10.5698 4.55271 10.7863 4.76923C11.0028 4.98575 11.1111 5.24786 11.1111 5.55556ZM13.3333 5.55556C13.3333 5.24786 13.4416 4.98575 13.6581 4.76923C13.8746 4.55271 14.1368 4.44444 14.4444 4.44444C14.4444 4.75214 14.3362 5.01425 14.1197 5.23077C13.9031 5.44729 13.641 5.55556 13.3333 5.55556ZM15.5556 5.55556C15.2479 5.55556 14.9858 5.44729 14.7692 5.23077C14.5527 5.01425 14.4444 4.75214 14.4444 4.44444C14.7521 4.44444 15.0142 4.55271 15.2308 4.76923C15.4473 4.98575 15.5556 5.24786 15.5556 5.55556ZM15.5556 5.55556C15.5556 5.24786 15.6638 4.98575 15.8803 4.76923C16.0969 4.55271 16.359 4.44444 16.6667 4.44444C16.6667 4.75214 16.5584 5.01425 16.3419 5.23077C16.1254 5.44729 15.8632 5.55556 15.5556 5.55556ZM2.22222 4.44444C2.22222 4.13675 2.33048 3.87464 2.54701 3.65812C2.76353 3.4416 3.02564 3.33333 3.33333 3.33333C3.33333 3.64103 3.22317 3.90313 3.00285 4.11966C2.78632 4.33618 2.52612 4.44444 2.22222 4.44444ZM4.44444 4.44444C4.13675 4.44444 3.87464 4.33618 3.65812 4.11966C3.4416 3.90313 3.33333 3.64103 3.33333 3.33333C3.63723 3.33333 3.89934 3.4416 4.11966 3.65812C4.33618 3.87464 4.44444 4.13675 4.44444 4.44444ZM4.44444 4.44444C4.44444 4.13675 4.55271 3.87464 4.76923 3.65812C4.98575 3.4416 5.24786 3.33333 5.55556 3.33333C5.55556 3.64103 5.44729 3.90313 5.23077 4.11966C5.01045 4.33618 4.74834 4.44444 4.44444 4.44444ZM6.66667 4.44444C6.35897 4.44444 6.09687 4.33618 5.88034 4.11966C5.66382 3.90313 5.55556 3.64103 5.55556 3.33333C5.85945 3.33333 6.12156 3.4416 6.34188 3.65812C6.5584 3.87464 6.66667 4.13675 6.66667 4.44444ZM8.88889 4.44444C8.5812 4.44444 8.31909 4.33618 8.10256 4.11966C7.88604 3.90313 7.77778 3.64103 7.77778 3.33333C8.08547 3.33333 8.34758 3.4416 8.5641 3.65812C8.78063 3.87464 8.88889 4.13675 8.88889 4.44444ZM8.88889 4.44444C8.88889 4.13675 8.99715 3.87464 9.21367 3.65812C9.4302 3.4416 9.69231 3.33333 10 3.33333C10 3.64103 9.89174 3.90313 9.67521 4.11966C9.45869 4.33618 9.19658 4.44444 8.88889 4.44444ZM11.1111 4.44444C10.8034 4.44444 10.5413 4.33618 10.3248 4.11966C10.1083 3.90313 10 3.64103 10 3.33333C10.3077 3.33333 10.5698 3.4416 10.7863 3.65812C11.0028 3.87464 11.1111 4.13675 11.1111 4.44444ZM11.1111 4.44444C11.1111 4.13675 11.2194 3.87464 11.4359 3.65812C11.6524 3.4416 11.9145 3.33333 12.2222 3.33333C12.2222 3.64103 12.114 3.90313 11.8974 4.11966C11.6809 4.33618 11.4188 4.44444 11.1111 4.44444ZM13.3333 4.44444C13.3333 4.13675 13.4416 3.87464 13.6581 3.65812C13.8746 3.4416 14.1368 3.33333 14.4444 3.33333C14.4444 3.64103 14.3362 3.90313 14.1197 4.11966C13.9031 4.33618 13.641 4.44444 13.3333 4.44444ZM15.5556 4.44444C15.2479 4.44444 14.9858 4.33618 14.7692 4.11966C14.5527 3.90313 14.4444 3.64103 14.4444 3.33333C14.7521 3.33333 15.0142 3.4416 15.2308 3.65812C15.4473 3.87464 15.5556 4.13675 15.5556 4.44444ZM15.5556 4.44444C15.5556 4.13675 15.6638 3.87464 15.8803 3.65812C16.0969 3.4416 16.359 3.33333 16.6667 3.33333C16.6667 3.64103 16.5584 3.90313 16.3419 4.11966C16.1254 4.33618 15.8632 4.44444 15.5556 4.44444ZM17.7778 4.44444C17.4739 4.44444 17.2118 4.33618 16.9915 4.11966C16.7749 3.90313 16.6667 3.64103 16.6667 3.33333C16.9744 3.33333 17.2365 3.4416 17.453 3.65812C17.6695 3.87464 17.7778 4.13675 17.7778 4.44444ZM2.22222 3.33333C1.91453 3.33333 1.65242 3.22507 1.4359 3.00855C1.21937 2.78822 1.11111 2.52612 1.11111 2.22222C1.415 2.22222 1.67521 2.33048 1.89174 2.54701C2.11206 2.76353 2.22222 3.02564 2.22222 3.33333ZM2.22222 3.33333C2.22222 3.02564 2.33048 2.76353 2.54701 2.54701C2.76353 2.33048 3.02564 2.22222 3.33333 2.22222C3.33333 2.52612 3.22317 2.78822 3.00285 3.00855C2.78632 3.22507 2.52612 3.33333 2.22222 3.33333ZM4.44444 3.33333C4.13675 3.33333 3.87464 3.22507 3.65812 3.00855C3.4416 2.78822 3.33333 2.52612 3.33333 2.22222C3.63723 2.22222 3.89934 2.33048 4.11966 2.54701C4.33618 2.76353 4.44444 3.02564 4.44444 3.33333ZM4.44444 3.33333C4.44444 3.02564 4.55271 2.76353 4.76923 2.54701C4.98575 2.33048 5.24786 2.22222 5.55556 2.22222C5.55556 2.52612 5.44729 2.78822 5.23077 3.00855C5.01045 3.22507 4.74834 3.33333 4.44444 3.33333ZM8.88889 3.33333C8.5812 3.33333 8.31909 3.22507 8.10256 3.00855C7.88604 2.78822 7.77778 2.52612 7.77778 2.22222C8.08547 2.22222 8.34758 2.33048 8.5641 2.54701C8.78063 2.76353 8.88889 3.02564 8.88889 3.33333ZM8.88889 3.33333C8.88889 3.02564 8.99715 2.76353 9.21367 2.54701C9.4302 2.33048 9.69231 2.22222 10 2.22222C10 2.52612 9.89174 2.78822 9.67521 3.00855C9.45869 3.22507 9.19658 3.33333 8.88889 3.33333ZM11.1111 3.33333C10.8034 3.33333 10.5413 3.22507 10.3248 3.00855C10.1083 2.78822 10 2.52612 10 2.22222C10.3077 2.22222 10.5698 2.33048 10.7863 2.54701C11.0028 2.76353 11.1111 3.02564 11.1111 3.33333ZM11.1111 3.33333C11.1111 3.02564 11.2194 2.76353 11.4359 2.54701C11.6524 2.33048 11.9145 2.22222 12.2222 2.22222C12.2222 2.52612 12.114 2.78822 11.8974 3.00855C11.6809 3.22507 11.4188 3.33333 11.1111 3.33333ZM15.5556 3.33333C15.2479 3.33333 14.9858 3.22507 14.7692 3.00855C14.5527 2.78822 14.4444 2.52612 14.4444 2.22222C14.7521 2.22222 15.0142 2.33048 15.2308 2.54701C15.4473 2.76353 15.5556 3.02564 15.5556 3.33333ZM15.5556 3.33333C15.5556 3.02564 15.6638 2.76353 15.8803 2.54701C16.0969 2.33048 16.359 2.22222 16.6667 2.22222C16.6667 2.52612 16.5584 2.78822 16.3419 3.00855C16.1254 3.22507 15.8632 3.33333 15.5556 3.33333ZM17.7778 3.33333C17.4739 3.33333 17.2118 3.22507 16.9915 3.00855C16.7749 2.78822 16.6667 2.52612 16.6667 2.22222C16.9744 2.22222 17.2365 2.33048 17.453 2.54701C17.6695 2.76353 17.7778 3.02564 17.7778 3.33333ZM17.7778 3.33333C17.7778 3.02564 17.886 2.76353 18.1026 2.54701C18.3229 2.33048 18.585 2.22222 18.8889 2.22222C18.8889 2.52612 18.7806 2.78822 18.5641 3.00855C18.3476 3.22507 18.0855 3.33333 17.7778 3.33333ZM2.22222 2.22222C2.22222 1.91453 2.33048 1.65242 2.54701 1.4359C2.76353 1.21937 3.02564 1.11111 3.33333 1.11111C3.33333 1.415 3.22317 1.67711 3.00285 1.89744C2.78632 2.11396 2.52612 2.22222 2.22222 2.22222ZM4.44444 2.22222C4.13675 2.22222 3.87464 2.11396 3.65812 1.89744C3.4416 1.67711 3.33333 1.415 3.33333 1.11111C3.63723 1.11111 3.89934 1.21937 4.11966 1.4359C4.33618 1.65242 4.44444 1.91453 4.44444 2.22222ZM4.44444 2.22222C4.44444 1.91453 4.55271 1.65242 4.76923 1.4359C4.98575 1.21937 5.24786 1.11111 5.55556 1.11111C5.55556 1.415 5.44729 1.67711 5.23077 1.89744C5.01045 2.11396 4.74834 2.22222 4.44444 2.22222ZM6.66667 2.22222C6.66667 1.91453 6.77493 1.65242 6.99145 1.4359C7.20798 1.21937 7.47009 1.11111 7.77778 1.11111C7.77778 1.415 7.66952 1.67711 7.45299 1.89744C7.23647 2.11396 6.97436 2.22222 6.66667 2.22222ZM8.88889 2.22222C8.5812 2.22222 8.31909 2.11396 8.10256 1.89744C7.88604 1.67711 7.77778 1.415 7.77778 1.11111C8.08547 1.11111 8.34758 1.21937 8.5641 1.4359C8.78063 1.65242 8.88889 1.91453 8.88889 2.22222ZM8.88889 2.22222C8.88889 1.91453 8.99715 1.65242 9.21367 1.4359C9.4302 1.21937 9.69231 1.11111 10 1.11111C10 1.415 9.89174 1.67711 9.67521 1.89744C9.45869 2.11396 9.19658 2.22222 8.88889 2.22222ZM11.1111 2.22222C10.8034 2.22222 10.5413 2.11396 10.3248 1.89744C10.1083 1.67711 10 1.415 10 1.11111C10.3077 1.11111 10.5698 1.21937 10.7863 1.4359C11.0028 1.65242 11.1111 1.91453 11.1111 2.22222ZM11.1111 2.22222C11.1111 1.91453 11.2194 1.65242 11.4359 1.4359C11.6524 1.21937 11.9145 1.11111 12.2222 1.11111C12.2222 1.415 12.114 1.67711 11.8974 1.89744C11.6809 2.11396 11.4188 2.22222 11.1111 2.22222ZM13.3333 2.22222C13.0256 2.22222 12.7635 2.11396 12.547 1.89744C12.3305 1.67711 12.2222 1.415 12.2222 1.11111C12.5299 1.11111 12.792 1.21937 13.0085 1.4359C13.2251 1.65242 13.3333 1.91453 13.3333 2.22222ZM15.5556 2.22222C15.2479 2.22222 14.9858 2.11396 14.7692 1.89744C14.5527 1.67711 14.4444 1.415 14.4444 1.11111C14.7521 1.11111 15.0142 1.21937 15.2308 1.4359C15.4473 1.65242 15.5556 1.91453 15.5556 2.22222ZM15.5556 2.22222C15.5556 1.91453 15.6638 1.65242 15.8803 1.4359C16.0969 1.21937 16.359 1.11111 16.6667 1.11111C16.6667 1.415 16.5584 1.67711 16.3419 1.89744C16.1254 2.11396 15.8632 2.22222 15.5556 2.22222ZM17.7778 2.22222C17.4739 2.22222 17.2118 2.11396 16.9915 1.89744C16.7749 1.67711 16.6667 1.415 16.6667 1.11111C16.9744 1.11111 17.2365 1.21937 17.453 1.4359C17.6695 1.65242 17.7778 1.91453 17.7778 2.22222ZM8.88889 1.11111C8.5812 1.11111 8.31909 1.00285 8.10256 0.786325C7.88604 0.566002 7.77778 0.303894 7.77778 0C8.08547 0 8.34758 0.108262 8.5641 0.324786C8.78063 0.541311 8.88889 0.803419 8.88889 1.11111ZM8.88889 1.11111C8.88889 0.803419 8.99715 0.541311 9.21367 0.324786C9.4302 0.108262 9.69231 0 10 0C10 0.303894 9.89174 0.566002 9.67521 0.786325C9.45869 1.00285 9.19658 1.11111 8.88889 1.11111ZM11.1111 1.11111C10.8034 1.11111 10.5413 1.00285 10.3248 0.786325C10.1083 0.566002 10 0.303894 10 0C10.3077 0 10.5698 0.108262 10.7863 0.324786C11.0028 0.541311 11.1111 0.803419 11.1111 1.11111ZM11.1111 1.11111C11.1111 0.803419 11.2194 0.541311 11.4359 0.324786C11.6524 0.108262 11.9145 0 12.2222 0C12.2222 0.303894 12.114 0.566002 11.8974 0.786325C11.6809 1.00285 11.4188 1.11111 11.1111 1.11111Z" fill="#AE1B2E"/>
</svg>
