<svg width="20" height="20" viewBox="0 0 20 20" fill="none" xmlns="http://www.w3.org/2000/svg">
<g id="more_horiz">
<path id="Vector" d="M5.00004 8.33398C4.08337 8.33398 3.33337 9.08398 3.33337 10.0007C3.33337 10.9173 4.08337 11.6673 5.00004 11.6673C5.91671 11.6673 6.66671 10.9173 6.66671 10.0007C6.66671 9.08398 5.91671 8.33398 5.00004 8.33398ZM15 8.33398C14.0834 8.33398 13.3334 9.08398 13.3334 10.0007C13.3334 10.9173 14.0834 11.6673 15 11.6673C15.9167 11.6673 16.6667 10.9173 16.6667 10.0007C16.6667 9.08398 15.9167 8.33398 15 8.33398ZM10 8.33398C9.08337 8.33398 8.33337 9.08398 8.33337 10.0007C8.33337 10.9173 9.08337 11.6673 10 11.6673C10.9167 11.6673 11.6667 10.9173 11.6667 10.0007C11.6667 9.08398 10.9167 8.33398 10 8.33398Z" fill="#889BC3"/>
</g>
</svg>
