<svg width="14" height="14" viewBox="0 0 14 14" fill="none" xmlns="http://www.w3.org/2000/svg">
<g id="settings">
<path id="Vector" d="M11.3358 7.57163C11.3591 7.38496 11.3766 7.19829 11.3766 6.99996C11.3766 6.80163 11.3591 6.61496 11.3358 6.42829L12.5666 5.46579C12.6774 5.37829 12.7066 5.22079 12.6366 5.09246L11.4699 3.07413C11.4174 2.98079 11.3183 2.92829 11.2133 2.92829C11.1783 2.92829 11.1433 2.93413 11.1141 2.94579L9.66162 3.52913C9.35828 3.29579 9.03162 3.10329 8.67578 2.95746L8.45411 1.41163C8.43661 1.27163 8.31412 1.16663 8.16828 1.16663H5.83495C5.68912 1.16663 5.56662 1.27163 5.54912 1.41163L5.32745 2.95746C4.97162 3.10329 4.64495 3.30163 4.34162 3.52913L2.88912 2.94579C2.85412 2.93413 2.81912 2.92829 2.78412 2.92829C2.68495 2.92829 2.58578 2.98079 2.53328 3.07413L1.36662 5.09246C1.29078 5.22079 1.32578 5.37829 1.43662 5.46579L2.66745 6.42829C2.64412 6.61496 2.62662 6.80746 2.62662 6.99996C2.62662 7.19246 2.64412 7.38496 2.66745 7.57163L1.43662 8.53413C1.32578 8.62163 1.29662 8.77913 1.36662 8.90746L2.53328 10.9258C2.58578 11.0191 2.68495 11.0716 2.78995 11.0716C2.82495 11.0716 2.85995 11.0658 2.88912 11.0541L4.34162 10.4708C4.64495 10.7041 4.97162 10.8966 5.32745 11.0425L5.54912 12.5883C5.56662 12.7283 5.68912 12.8333 5.83495 12.8333H8.16828C8.31412 12.8333 8.43661 12.7283 8.45411 12.5883L8.67578 11.0425C9.03162 10.8966 9.35828 10.6983 9.66162 10.4708L11.1141 11.0541C11.1491 11.0658 11.1841 11.0716 11.2191 11.0716C11.3183 11.0716 11.4174 11.0191 11.4699 10.9258L12.6366 8.90746C12.7066 8.77913 12.6774 8.62163 12.5666 8.53413L11.3358 7.57163ZM10.1808 6.57413C10.2041 6.75496 10.2099 6.87746 10.2099 6.99996C10.2099 7.12246 10.1983 7.25079 10.1808 7.42579L10.0991 8.08496L10.6183 8.49329L11.2483 8.98329L10.8399 9.68913L10.0991 9.39163L9.49245 9.14663L8.96745 9.54329C8.71662 9.72996 8.47745 9.86996 8.23828 9.96913L7.61995 10.22L7.52662 10.8791L7.40995 11.6666H6.59328L6.38912 10.22L5.77078 9.96913C5.51995 9.86413 5.28662 9.72996 5.05328 9.55496L4.52245 9.14663L3.90412 9.39746L3.16328 9.69496L2.75495 8.98913L3.38495 8.49913L3.90412 8.09079L3.82245 7.43163C3.80495 7.25079 3.79328 7.11663 3.79328 6.99996C3.79328 6.88329 3.80495 6.74913 3.82245 6.57413L3.90412 5.91496L3.38495 5.50663L2.75495 5.01663L3.16328 4.31079L3.90412 4.60829L4.51078 4.85329L5.03578 4.45663C5.28662 4.26996 5.52578 4.12996 5.76495 4.03079L6.38328 3.77996L6.47662 3.12079L6.59328 2.33329H7.40412L7.60828 3.77996L8.22662 4.03079C8.47745 4.13579 8.71078 4.26996 8.94412 4.44496L9.47495 4.85329L10.0933 4.60246L10.8341 4.30496L11.2424 5.01079L10.6183 5.50663L10.0991 5.91496L10.1808 6.57413ZM7.00162 4.66663C5.71245 4.66663 4.66828 5.71079 4.66828 6.99996C4.66828 8.28913 5.71245 9.33329 7.00162 9.33329C8.29078 9.33329 9.33495 8.28913 9.33495 6.99996C9.33495 5.71079 8.29078 4.66663 7.00162 4.66663ZM7.00162 8.16663C6.35995 8.16663 5.83495 7.64163 5.83495 6.99996C5.83495 6.35829 6.35995 5.83329 7.00162 5.83329C7.64328 5.83329 8.16828 6.35829 8.16828 6.99996C8.16828 7.64163 7.64328 8.16663 7.00162 8.16663Z" fill="#889BC3"/>
</g>
</svg>
