<svg width="16" height="16" viewBox="0 0 16 16" fill="none" xmlns="http://www.w3.org/2000/svg">
<path id="&#60;" d="M7.11111 16C6.86496 16 6.65527 15.9134 6.48205 15.7402C6.30883 15.567 6.22222 15.3573 6.22222 15.1111C6.46838 15.1111 6.67806 15.1992 6.85128 15.3755C7.0245 15.5487 7.11111 15.7569 7.11111 16ZM7.11111 16C7.11111 15.7569 7.19772 15.5487 7.37094 15.3755C7.54416 15.1992 7.75385 15.1111 8 15.1111C8 15.3573 7.91339 15.567 7.74017 15.7402C7.56695 15.9134 7.35726 16 7.11111 16ZM8.88889 16C8.64274 16 8.43305 15.9134 8.25983 15.7402C8.08661 15.567 8 15.3573 8 15.1111C8.24615 15.1111 8.45584 15.1992 8.62906 15.3755C8.80228 15.5487 8.88889 15.7569 8.88889 16ZM8.88889 16C8.88889 15.7569 8.9755 15.5487 9.14872 15.3755C9.32194 15.1992 9.53162 15.1111 9.77778 15.1111C9.77778 15.3573 9.69117 15.567 9.51795 15.7402C9.34473 15.9134 9.13504 16 8.88889 16ZM1.77778 15.1111C1.77778 14.868 1.86439 14.6598 2.03761 14.4866C2.21083 14.3104 2.42051 14.2222 2.66667 14.2222C2.66667 14.4684 2.57854 14.6781 2.40228 14.8513C2.22906 15.0245 2.02089 15.1111 1.77778 15.1111ZM3.55556 15.1111C3.3094 15.1111 3.09971 15.0245 2.9265 14.8513C2.75328 14.6781 2.66667 14.4684 2.66667 14.2222C2.90978 14.2222 3.11947 14.3104 3.29573 14.4866C3.46895 14.6598 3.55556 14.868 3.55556 15.1111ZM3.55556 15.1111C3.55556 14.868 3.64217 14.6598 3.81538 14.4866C3.9886 14.3104 4.19829 14.2222 4.44444 14.2222C4.44444 14.4684 4.35783 14.6781 4.18462 14.8513C4.00836 15.0245 3.79867 15.1111 3.55556 15.1111ZM5.33333 15.1111C5.33333 14.868 5.41994 14.6598 5.59316 14.4866C5.76638 14.3104 5.97607 14.2222 6.22222 14.2222C6.22222 14.4684 6.13561 14.6781 5.96239 14.8513C5.78917 15.0245 5.57949 15.1111 5.33333 15.1111ZM7.11111 15.1111C6.86496 15.1111 6.65527 15.0245 6.48205 14.8513C6.30883 14.6781 6.22222 14.4684 6.22222 14.2222C6.46838 14.2222 6.67806 14.3104 6.85128 14.4866C7.0245 14.6598 7.11111 14.868 7.11111 15.1111ZM7.11111 15.1111C7.11111 14.868 7.19772 14.6598 7.37094 14.4866C7.54416 14.3104 7.75385 14.2222 8 14.2222C8 14.4684 7.91339 14.6781 7.74017 14.8513C7.56695 15.0245 7.35726 15.1111 7.11111 15.1111ZM8.88889 15.1111C8.64274 15.1111 8.43305 15.0245 8.25983 14.8513C8.08661 14.6781 8 14.4684 8 14.2222C8.24615 14.2222 8.45584 14.3104 8.62906 14.4866C8.80228 14.6598 8.88889 14.868 8.88889 15.1111ZM8.88889 15.1111C8.88889 14.868 8.9755 14.6598 9.14872 14.4866C9.32194 14.3104 9.53162 14.2222 9.77778 14.2222C9.77778 14.4684 9.69117 14.6781 9.51795 14.8513C9.34473 15.0245 9.13504 15.1111 8.88889 15.1111ZM10.6667 15.1111C10.4205 15.1111 10.2108 15.0245 10.0376 14.8513C9.86439 14.6781 9.77778 14.4684 9.77778 14.2222C10.0239 14.2222 10.2336 14.3104 10.4068 14.4866C10.5801 14.6598 10.6667 14.868 10.6667 15.1111ZM12.4444 15.1111C12.1983 15.1111 11.9886 15.0245 11.8154 14.8513C11.6422 14.6781 11.5556 14.4684 11.5556 14.2222C11.8017 14.2222 12.0114 14.3104 12.1846 14.4866C12.3578 14.6598 12.4444 14.868 12.4444 15.1111ZM12.4444 15.1111C12.4444 14.868 12.5311 14.6598 12.7043 14.4866C12.8775 14.3104 13.0872 14.2222 13.3333 14.2222C13.3333 14.4684 13.2467 14.6781 13.0735 14.8513C12.9003 15.0245 12.6906 15.1111 12.4444 15.1111ZM14.2222 15.1111C13.9791 15.1111 13.7694 15.0245 13.5932 14.8513C13.4199 14.6781 13.3333 14.4684 13.3333 14.2222C13.5795 14.2222 13.7892 14.3104 13.9624 14.4866C14.1356 14.6598 14.2222 14.868 14.2222 15.1111ZM1.77778 14.2222C1.53162 14.2222 1.32194 14.1356 1.14872 13.9624C0.975499 13.7892 0.888889 13.5795 0.888889 13.3333C1.132 13.3333 1.34017 13.4215 1.51339 13.5977C1.68965 13.7709 1.77778 13.9791 1.77778 14.2222ZM1.77778 14.2222C1.77778 13.9791 1.86439 13.7709 2.03761 13.5977C2.21083 13.4215 2.42051 13.3333 2.66667 13.3333C2.66667 13.5795 2.57854 13.7892 2.40228 13.9624C2.22906 14.1356 2.02089 14.2222 1.77778 14.2222ZM3.55556 14.2222C3.3094 14.2222 3.09971 14.1356 2.9265 13.9624C2.75328 13.7892 2.66667 13.5795 2.66667 13.3333C2.90978 13.3333 3.11947 13.4215 3.29573 13.5977C3.46895 13.7709 3.55556 13.9791 3.55556 14.2222ZM3.55556 14.2222C3.55556 13.9791 3.64217 13.7709 3.81538 13.5977C3.9886 13.4215 4.19829 13.3333 4.44444 13.3333C4.44444 13.5795 4.35783 13.7892 4.18462 13.9624C4.00836 14.1356 3.79867 14.2222 3.55556 14.2222ZM7.11111 14.2222C6.86496 14.2222 6.65527 14.1356 6.48205 13.9624C6.30883 13.7892 6.22222 13.5795 6.22222 13.3333C6.46838 13.3333 6.67806 13.4215 6.85128 13.5977C7.0245 13.7709 7.11111 13.9791 7.11111 14.2222ZM7.11111 14.2222C7.11111 13.9791 7.19772 13.7709 7.37094 13.5977C7.54416 13.4215 7.75385 13.3333 8 13.3333C8 13.5795 7.91339 13.7892 7.74017 13.9624C7.56695 14.1356 7.35726 14.2222 7.11111 14.2222ZM8.88889 14.2222C8.64274 14.2222 8.43305 14.1356 8.25983 13.9624C8.08661 13.7892 8 13.5795 8 13.3333C8.24615 13.3333 8.45584 13.4215 8.62906 13.5977C8.80228 13.7709 8.88889 13.9791 8.88889 14.2222ZM8.88889 14.2222C8.88889 13.9791 8.9755 13.7709 9.14872 13.5977C9.32194 13.4215 9.53162 13.3333 9.77778 13.3333C9.77778 13.5795 9.69117 13.7892 9.51795 13.9624C9.34473 14.1356 9.13504 14.2222 8.88889 14.2222ZM12.4444 14.2222C12.1983 14.2222 11.9886 14.1356 11.8154 13.9624C11.6422 13.7892 11.5556 13.5795 11.5556 13.3333C11.8017 13.3333 12.0114 13.4215 12.1846 13.5977C12.3578 13.7709 12.4444 13.9791 12.4444 14.2222ZM12.4444 14.2222C12.4444 13.9791 12.5311 13.7709 12.7043 13.5977C12.8775 13.4215 13.0872 13.3333 13.3333 13.3333C13.3333 13.5795 13.2467 13.7892 13.0735 13.9624C12.9003 14.1356 12.6906 14.2222 12.4444 14.2222ZM14.2222 14.2222C13.9791 14.2222 13.7694 14.1356 13.5932 13.9624C13.4199 13.7892 13.3333 13.5795 13.3333 13.3333C13.5795 13.3333 13.7892 13.4215 13.9624 13.5977C14.1356 13.7709 14.2222 13.9791 14.2222 14.2222ZM14.2222 14.2222C14.2222 13.9791 14.3088 13.7709 14.4821 13.5977C14.6583 13.4215 14.868 13.3333 15.1111 13.3333C15.1111 13.5795 15.0245 13.7892 14.8513 13.9624C14.6781 14.1356 14.4684 14.2222 14.2222 14.2222ZM1.77778 13.3333C1.77778 13.0902 1.86439 12.8805 2.03761 12.7043C2.21083 12.5311 2.42051 12.4444 2.66667 12.4444C2.66667 12.6906 2.57854 12.9003 2.40228 13.0735C2.22906 13.2467 2.02089 13.3333 1.77778 13.3333ZM3.55556 13.3333C3.3094 13.3333 3.09971 13.2467 2.9265 13.0735C2.75328 12.9003 2.66667 12.6906 2.66667 12.4444C2.90978 12.4444 3.11947 12.5311 3.29573 12.7043C3.46895 12.8805 3.55556 13.0902 3.55556 13.3333ZM3.55556 13.3333C3.55556 13.0902 3.64217 12.8805 3.81538 12.7043C3.9886 12.5311 4.19829 12.4444 4.44444 12.4444C4.44444 12.6906 4.35783 12.9003 4.18462 13.0735C4.00836 13.2467 3.79867 13.3333 3.55556 13.3333ZM5.33333 13.3333C5.08718 13.3333 4.87749 13.2467 4.70427 13.0735C4.53105 12.9003 4.44444 12.6906 4.44444 12.4444C4.68756 12.4444 4.89725 12.5311 5.0735 12.7043C5.24672 12.8805 5.33333 13.0902 5.33333 13.3333ZM7.11111 13.3333C6.86496 13.3333 6.65527 13.2467 6.48205 13.0735C6.30883 12.9003 6.22222 12.6906 6.22222 12.4444C6.46838 12.4444 6.67806 12.5311 6.85128 12.7043C7.0245 12.8805 7.11111 13.0902 7.11111 13.3333ZM7.11111 13.3333C7.11111 13.0902 7.19772 12.8805 7.37094 12.7043C7.54416 12.5311 7.75385 12.4444 8 12.4444C8 12.6906 7.91339 12.9003 7.74017 13.0735C7.56695 13.2467 7.35726 13.3333 7.11111 13.3333ZM8.88889 13.3333C8.64274 13.3333 8.43305 13.2467 8.25983 13.0735C8.08661 12.9003 8 12.6906 8 12.4444C8.24615 12.4444 8.45584 12.5311 8.62906 12.7043C8.80228 12.8805 8.88889 13.0902 8.88889 13.3333ZM8.88889 13.3333C8.88889 13.0902 8.9755 12.8805 9.14872 12.7043C9.32194 12.5311 9.53162 12.4444 9.77778 12.4444C9.77778 12.6906 9.69117 12.9003 9.51795 13.0735C9.34473 13.2467 9.13504 13.3333 8.88889 13.3333ZM10.6667 13.3333C10.6667 13.0902 10.7533 12.8805 10.9265 12.7043C11.0997 12.5311 11.3094 12.4444 11.5556 12.4444C11.5556 12.6906 11.4689 12.9003 11.2957 13.0735C11.1225 13.2467 10.9128 13.3333 10.6667 13.3333ZM12.4444 13.3333C12.1983 13.3333 11.9886 13.2467 11.8154 13.0735C11.6422 12.9003 11.5556 12.6906 11.5556 12.4444C11.8017 12.4444 12.0114 12.5311 12.1846 12.7043C12.3578 12.8805 12.4444 13.0902 12.4444 13.3333ZM12.4444 13.3333C12.4444 13.0902 12.5311 12.8805 12.7043 12.7043C12.8775 12.5311 13.0872 12.4444 13.3333 12.4444C13.3333 12.6906 13.2467 12.9003 13.0735 13.0735C12.9003 13.2467 12.6906 13.3333 12.4444 13.3333ZM14.2222 13.3333C13.9791 13.3333 13.7694 13.2467 13.5932 13.0735C13.4199 12.9003 13.3333 12.6906 13.3333 12.4444C13.5795 12.4444 13.7892 12.5311 13.9624 12.7043C14.1356 12.8805 14.2222 13.0902 14.2222 13.3333ZM3.55556 12.4444C3.3094 12.4444 3.09971 12.3578 2.9265 12.1846C2.75328 12.0114 2.66667 11.8017 2.66667 11.5556C2.90978 11.5556 3.11947 11.6422 3.29573 11.8154C3.46895 11.9916 3.55556 12.2013 3.55556 12.4444ZM3.55556 12.4444C3.55556 12.2013 3.64217 11.9916 3.81538 11.8154C3.9886 11.6422 4.19829 11.5556 4.44444 11.5556C4.44444 11.8017 4.35783 12.0114 4.18462 12.1846C4.00836 12.3578 3.79867 12.4444 3.55556 12.4444ZM5.33333 12.4444C5.08718 12.4444 4.87749 12.3578 4.70427 12.1846C4.53105 12.0114 4.44444 11.8017 4.44444 11.5556C4.68756 11.5556 4.89725 11.6422 5.0735 11.8154C5.24672 11.9916 5.33333 12.2013 5.33333 12.4444ZM7.11111 12.4444C7.11111 12.2013 7.19772 11.9916 7.37094 11.8154C7.54416 11.6422 7.75385 11.5556 8 11.5556C8 11.8017 7.91339 12.0114 7.74017 12.1846C7.56695 12.3578 7.35726 12.4444 7.11111 12.4444ZM8.88889 12.4444C8.64274 12.4444 8.43305 12.3578 8.25983 12.1846C8.08661 12.0114 8 11.8017 8 11.5556C8.24615 11.5556 8.45584 11.6422 8.62906 11.8154C8.80228 11.9916 8.88889 12.2013 8.88889 12.4444ZM10.6667 12.4444C10.6667 12.2013 10.7533 11.9916 10.9265 11.8154C11.0997 11.6422 11.3094 11.5556 11.5556 11.5556C11.5556 11.8017 11.4689 12.0114 11.2957 12.1846C11.1225 12.3578 10.9128 12.4444 10.6667 12.4444ZM12.4444 12.4444C12.1983 12.4444 11.9886 12.3578 11.8154 12.1846C11.6422 12.0114 11.5556 11.8017 11.5556 11.5556C11.8017 11.5556 12.0114 11.6422 12.1846 11.8154C12.3578 11.9916 12.4444 12.2013 12.4444 12.4444ZM12.4444 12.4444C12.4444 12.2013 12.5311 11.9916 12.7043 11.8154C12.8775 11.6422 13.0872 11.5556 13.3333 11.5556C13.3333 11.8017 13.2467 12.0114 13.0735 12.1846C12.9003 12.3578 12.6906 12.4444 12.4444 12.4444ZM3.55556 11.5556C3.55556 11.3124 3.64217 11.1028 3.81538 10.9265C3.9886 10.7533 4.19829 10.6667 4.44444 10.6667C4.44444 10.9128 4.35783 11.1225 4.18462 11.2957C4.00836 11.4689 3.79867 11.5556 3.55556 11.5556ZM5.33333 11.5556C5.08718 11.5556 4.87749 11.4689 4.70427 11.2957C4.53105 11.1225 4.44444 10.9128 4.44444 10.6667C4.68756 10.6667 4.89725 10.7533 5.0735 10.9265C5.24672 11.1028 5.33333 11.3124 5.33333 11.5556ZM5.33333 11.5556C5.33333 11.3124 5.41994 11.1028 5.59316 10.9265C5.76638 10.7533 5.97607 10.6667 6.22222 10.6667C6.22222 10.9128 6.13561 11.1225 5.96239 11.2957C5.78917 11.4689 5.57949 11.5556 5.33333 11.5556ZM7.11111 11.5556C7.11111 11.3124 7.19772 11.1028 7.37094 10.9265C7.54416 10.7533 7.75385 10.6667 8 10.6667C8 10.9128 7.91339 11.1225 7.74017 11.2957C7.56695 11.4689 7.35726 11.5556 7.11111 11.5556ZM8.88889 11.5556C8.64274 11.5556 8.43305 11.4689 8.25983 11.2957C8.08661 11.1225 8 10.9128 8 10.6667C8.24615 10.6667 8.45584 10.7533 8.62906 10.9265C8.80228 11.1028 8.88889 11.3124 8.88889 11.5556ZM10.6667 11.5556C10.4205 11.5556 10.2108 11.4689 10.0376 11.2957C9.86439 11.1225 9.77778 10.9128 9.77778 10.6667C10.0239 10.6667 10.2336 10.7533 10.4068 10.9265C10.5801 11.1028 10.6667 11.3124 10.6667 11.5556ZM10.6667 11.5556C10.6667 11.3124 10.7533 11.1028 10.9265 10.9265C11.0997 10.7533 11.3094 10.6667 11.5556 10.6667C11.5556 10.9128 11.4689 11.1225 11.2957 11.2957C11.1225 11.4689 10.9128 11.5556 10.6667 11.5556ZM1.77778 10.6667C1.53162 10.6667 1.32194 10.5801 1.14872 10.4068C0.975499 10.2336 0.888889 10.0239 0.888889 9.77778C1.132 9.77778 1.34017 9.86439 1.51339 10.0376C1.68965 10.2108 1.77778 10.4205 1.77778 10.6667ZM5.33333 10.6667C5.08718 10.6667 4.87749 10.5801 4.70427 10.4068C4.53105 10.2336 4.44444 10.0239 4.44444 9.77778C4.68756 9.77778 4.89725 9.86439 5.0735 10.0376C5.24672 10.2108 5.33333 10.4205 5.33333 10.6667ZM5.33333 10.6667C5.33333 10.4205 5.41994 10.2108 5.59316 10.0376C5.76638 9.86439 5.97607 9.77778 6.22222 9.77778C6.22222 10.0239 6.13561 10.2336 5.96239 10.4068C5.78917 10.5801 5.57949 10.6667 5.33333 10.6667ZM7.11111 10.6667C6.86496 10.6667 6.65527 10.5801 6.48205 10.4068C6.30883 10.2336 6.22222 10.0239 6.22222 9.77778C6.46838 9.77778 6.67806 9.86439 6.85128 10.0376C7.0245 10.2108 7.11111 10.4205 7.11111 10.6667ZM7.11111 10.6667C7.11111 10.4205 7.19772 10.2108 7.37094 10.0376C7.54416 9.86439 7.75385 9.77778 8 9.77778C8 10.0239 7.91339 10.2336 7.74017 10.4068C7.56695 10.5801 7.35726 10.6667 7.11111 10.6667ZM8.88889 10.6667C8.64274 10.6667 8.43305 10.5801 8.25983 10.4068C8.08661 10.2336 8 10.0239 8 9.77778C8.24615 9.77778 8.45584 9.86439 8.62906 10.0376C8.80228 10.2108 8.88889 10.4205 8.88889 10.6667ZM8.88889 10.6667C8.88889 10.4205 8.9755 10.2108 9.14872 10.0376C9.32194 9.86439 9.53162 9.77778 9.77778 9.77778C9.77778 10.0239 9.69117 10.2336 9.51795 10.4068C9.34473 10.5801 9.13504 10.6667 8.88889 10.6667ZM10.6667 10.6667C10.4205 10.6667 10.2108 10.5801 10.0376 10.4068C9.86439 10.2336 9.77778 10.0239 9.77778 9.77778C10.0239 9.77778 10.2336 9.86439 10.4068 10.0376C10.5801 10.2108 10.6667 10.4205 10.6667 10.6667ZM10.6667 10.6667C10.6667 10.4205 10.7533 10.2108 10.9265 10.0376C11.0997 9.86439 11.3094 9.77778 11.5556 9.77778C11.5556 10.0239 11.4689 10.2336 11.2957 10.4068C11.1225 10.5801 10.9128 10.6667 10.6667 10.6667ZM14.2222 10.6667C14.2222 10.4205 14.3088 10.2108 14.4821 10.0376C14.6583 9.86439 14.868 9.77778 15.1111 9.77778C15.1111 10.0239 15.0245 10.2336 14.8513 10.4068C14.6781 10.5801 14.4684 10.6667 14.2222 10.6667ZM0 9.77778C0 9.53162 0.0866097 9.32194 0.259829 9.14872C0.433048 8.9755 0.642735 8.88889 0.888889 8.88889C0.888889 9.13504 0.80076 9.34473 0.624501 9.51795C0.451282 9.69117 0.243115 9.77778 0 9.77778ZM1.77778 9.77778C1.53162 9.77778 1.32194 9.69117 1.14872 9.51795C0.975499 9.34473 0.888889 9.13504 0.888889 8.88889C1.132 8.88889 1.34017 8.9755 1.51339 9.14872C1.68965 9.32194 1.77778 9.53162 1.77778 9.77778ZM1.77778 9.77778C1.77778 9.53162 1.86439 9.32194 2.03761 9.14872C2.21083 8.9755 2.42051 8.88889 2.66667 8.88889C2.66667 9.13504 2.57854 9.34473 2.40228 9.51795C2.22906 9.69117 2.02089 9.77778 1.77778 9.77778ZM5.33333 9.77778C5.33333 9.53162 5.41994 9.32194 5.59316 9.14872C5.76638 8.9755 5.97607 8.88889 6.22222 8.88889C6.22222 9.13504 6.13561 9.34473 5.96239 9.51795C5.78917 9.69117 5.57949 9.77778 5.33333 9.77778ZM7.11111 9.77778C6.86496 9.77778 6.65527 9.69117 6.48205 9.51795C6.30883 9.34473 6.22222 9.13504 6.22222 8.88889C6.46838 8.88889 6.67806 8.9755 6.85128 9.14872C7.0245 9.32194 7.11111 9.53162 7.11111 9.77778ZM7.11111 9.77778C7.11111 9.53162 7.19772 9.32194 7.37094 9.14872C7.54416 8.9755 7.75385 8.88889 8 8.88889C8 9.13504 7.91339 9.34473 7.74017 9.51795C7.56695 9.69117 7.35726 9.77778 7.11111 9.77778ZM8.88889 9.77778C8.64274 9.77778 8.43305 9.69117 8.25983 9.51795C8.08661 9.34473 8 9.13504 8 8.88889C8.24615 8.88889 8.45584 8.9755 8.62906 9.14872C8.80228 9.32194 8.88889 9.53162 8.88889 9.77778ZM8.88889 9.77778C8.88889 9.53162 8.9755 9.32194 9.14872 9.14872C9.32194 8.9755 9.53162 8.88889 9.77778 8.88889C9.77778 9.13504 9.69117 9.34473 9.51795 9.51795C9.34473 9.69117 9.13504 9.77778 8.88889 9.77778ZM10.6667 9.77778C10.4205 9.77778 10.2108 9.69117 10.0376 9.51795C9.86439 9.34473 9.77778 9.13504 9.77778 8.88889C10.0239 8.88889 10.2336 8.9755 10.4068 9.14872C10.5801 9.32194 10.6667 9.53162 10.6667 9.77778ZM14.2222 9.77778C13.9791 9.77778 13.7694 9.69117 13.5932 9.51795C13.4199 9.34473 13.3333 9.13504 13.3333 8.88889C13.5795 8.88889 13.7892 8.9755 13.9624 9.14872C14.1356 9.32194 14.2222 9.53162 14.2222 9.77778ZM14.2222 9.77778C14.2222 9.53162 14.3088 9.32194 14.4821 9.14872C14.6583 8.9755 14.868 8.88889 15.1111 8.88889C15.1111 9.13504 15.0245 9.34473 14.8513 9.51795C14.6781 9.69117 14.4684 9.77778 14.2222 9.77778ZM16 9.77778C15.7569 9.77778 15.5472 9.69117 15.3709 9.51795C15.1977 9.34473 15.1111 9.13504 15.1111 8.88889C15.3573 8.88889 15.567 8.9755 15.7402 9.14872C15.9134 9.32194 16 9.53162 16 9.77778ZM0 8.88889C0 8.64274 0.0866097 8.43305 0.259829 8.25983C0.433048 8.08661 0.642735 8 0.888889 8C0.888889 8.24615 0.80076 8.45584 0.624501 8.62906C0.451282 8.80228 0.243115 8.88889 0 8.88889ZM1.77778 8.88889C1.53162 8.88889 1.32194 8.80228 1.14872 8.62906C0.975499 8.45584 0.888889 8.24615 0.888889 8C1.132 8 1.34017 8.08661 1.51339 8.25983C1.68965 8.43305 1.77778 8.64274 1.77778 8.88889ZM1.77778 8.88889C1.77778 8.64274 1.86439 8.43305 2.03761 8.25983C2.21083 8.08661 2.42051 8 2.66667 8C2.66667 8.24615 2.57854 8.45584 2.40228 8.62906C2.22906 8.80228 2.02089 8.88889 1.77778 8.88889ZM3.55556 8.88889C3.3094 8.88889 3.09971 8.80228 2.9265 8.62906C2.75328 8.45584 2.66667 8.24615 2.66667 8C2.90978 8 3.11947 8.08661 3.29573 8.25983C3.46895 8.43305 3.55556 8.64274 3.55556 8.88889ZM3.55556 8.88889C3.55556 8.64274 3.64217 8.43305 3.81538 8.25983C3.9886 8.08661 4.19829 8 4.44444 8C4.44444 8.24615 4.35783 8.45584 4.18462 8.62906C4.00836 8.80228 3.79867 8.88889 3.55556 8.88889ZM5.33333 8.88889C5.08718 8.88889 4.87749 8.80228 4.70427 8.62906C4.53105 8.45584 4.44444 8.24615 4.44444 8C4.68756 8 4.89725 8.08661 5.0735 8.25983C5.24672 8.43305 5.33333 8.64274 5.33333 8.88889ZM5.33333 8.88889C5.33333 8.64274 5.41994 8.43305 5.59316 8.25983C5.76638 8.08661 5.97607 8 6.22222 8C6.22222 8.24615 6.13561 8.45584 5.96239 8.62906C5.78917 8.80228 5.57949 8.88889 5.33333 8.88889ZM7.11111 8.88889C6.86496 8.88889 6.65527 8.80228 6.48205 8.62906C6.30883 8.45584 6.22222 8.24615 6.22222 8C6.46838 8 6.67806 8.08661 6.85128 8.25983C7.0245 8.43305 7.11111 8.64274 7.11111 8.88889ZM7.11111 8.88889C7.11111 8.64274 7.19772 8.43305 7.37094 8.25983C7.54416 8.08661 7.75385 8 8 8C8 8.24615 7.91339 8.45584 7.74017 8.62906C7.56695 8.80228 7.35726 8.88889 7.11111 8.88889ZM8.88889 8.88889C8.64274 8.88889 8.43305 8.80228 8.25983 8.62906C8.08661 8.45584 8 8.24615 8 8C8.24615 8 8.45584 8.08661 8.62906 8.25983C8.80228 8.43305 8.88889 8.64274 8.88889 8.88889ZM8.88889 8.88889C8.88889 8.64274 8.9755 8.43305 9.14872 8.25983C9.32194 8.08661 9.53162 8 9.77778 8C9.77778 8.24615 9.69117 8.45584 9.51795 8.62906C9.34473 8.80228 9.13504 8.88889 8.88889 8.88889ZM10.6667 8.88889C10.4205 8.88889 10.2108 8.80228 10.0376 8.62906C9.86439 8.45584 9.77778 8.24615 9.77778 8C10.0239 8 10.2336 8.08661 10.4068 8.25983C10.5801 8.43305 10.6667 8.64274 10.6667 8.88889ZM10.6667 8.88889C10.6667 8.64274 10.7533 8.43305 10.9265 8.25983C11.0997 8.08661 11.3094 8 11.5556 8C11.5556 8.24615 11.4689 8.45584 11.2957 8.62906C11.1225 8.80228 10.9128 8.88889 10.6667 8.88889ZM12.4444 8.88889C12.1983 8.88889 11.9886 8.80228 11.8154 8.62906C11.6422 8.45584 11.5556 8.24615 11.5556 8C11.8017 8 12.0114 8.08661 12.1846 8.25983C12.3578 8.43305 12.4444 8.64274 12.4444 8.88889ZM12.4444 8.88889C12.4444 8.64274 12.5311 8.43305 12.7043 8.25983C12.8775 8.08661 13.0872 8 13.3333 8C13.3333 8.24615 13.2467 8.45584 13.0735 8.62906C12.9003 8.80228 12.6906 8.88889 12.4444 8.88889ZM14.2222 8.88889C13.9791 8.88889 13.7694 8.80228 13.5932 8.62906C13.4199 8.45584 13.3333 8.24615 13.3333 8C13.5795 8 13.7892 8.08661 13.9624 8.25983C14.1356 8.43305 14.2222 8.64274 14.2222 8.88889ZM14.2222 8.88889C14.2222 8.64274 14.3088 8.43305 14.4821 8.25983C14.6583 8.08661 14.868 8 15.1111 8C15.1111 8.24615 15.0245 8.45584 14.8513 8.62906C14.6781 8.80228 14.4684 8.88889 14.2222 8.88889ZM16 8.88889C15.7569 8.88889 15.5472 8.80228 15.3709 8.62906C15.1977 8.45584 15.1111 8.24615 15.1111 8C15.3573 8 15.567 8.08661 15.7402 8.25983C15.9134 8.43305 16 8.64274 16 8.88889ZM0 8C0 7.75385 0.0866097 7.54416 0.259829 7.37094C0.433048 7.19772 0.642735 7.11111 0.888889 7.11111C0.888889 7.35726 0.80076 7.56695 0.624501 7.74017C0.451282 7.91339 0.243115 8 0 8ZM1.77778 8C1.53162 8 1.32194 7.91339 1.14872 7.74017C0.975499 7.56695 0.888889 7.35726 0.888889 7.11111C1.132 7.11111 1.34017 7.19772 1.51339 7.37094C1.68965 7.54416 1.77778 7.75385 1.77778 8ZM1.77778 8C1.77778 7.75385 1.86439 7.54416 2.03761 7.37094C2.21083 7.19772 2.42051 7.11111 2.66667 7.11111C2.66667 7.35726 2.57854 7.56695 2.40228 7.74017C2.22906 7.91339 2.02089 8 1.77778 8ZM3.55556 8C3.3094 8 3.09971 7.91339 2.9265 7.74017C2.75328 7.56695 2.66667 7.35726 2.66667 7.11111C2.90978 7.11111 3.11947 7.19772 3.29573 7.37094C3.46895 7.54416 3.55556 7.75385 3.55556 8ZM3.55556 8C3.55556 7.75385 3.64217 7.54416 3.81538 7.37094C3.9886 7.19772 4.19829 7.11111 4.44444 7.11111C4.44444 7.35726 4.35783 7.56695 4.18462 7.74017C4.00836 7.91339 3.79867 8 3.55556 8ZM5.33333 8C5.08718 8 4.87749 7.91339 4.70427 7.74017C4.53105 7.56695 4.44444 7.35726 4.44444 7.11111C4.68756 7.11111 4.89725 7.19772 5.0735 7.37094C5.24672 7.54416 5.33333 7.75385 5.33333 8ZM5.33333 8C5.33333 7.75385 5.41994 7.54416 5.59316 7.37094C5.76638 7.19772 5.97607 7.11111 6.22222 7.11111C6.22222 7.35726 6.13561 7.56695 5.96239 7.74017C5.78917 7.91339 5.57949 8 5.33333 8ZM7.11111 8C6.86496 8 6.65527 7.91339 6.48205 7.74017C6.30883 7.56695 6.22222 7.35726 6.22222 7.11111C6.46838 7.11111 6.67806 7.19772 6.85128 7.37094C7.0245 7.54416 7.11111 7.75385 7.11111 8ZM7.11111 8C7.11111 7.75385 7.19772 7.54416 7.37094 7.37094C7.54416 7.19772 7.75385 7.11111 8 7.11111C8 7.35726 7.91339 7.56695 7.74017 7.74017C7.56695 7.91339 7.35726 8 7.11111 8ZM8.88889 8C8.64274 8 8.43305 7.91339 8.25983 7.74017C8.08661 7.56695 8 7.35726 8 7.11111C8.24615 7.11111 8.45584 7.19772 8.62906 7.37094C8.80228 7.54416 8.88889 7.75385 8.88889 8ZM8.88889 8C8.88889 7.75385 8.9755 7.54416 9.14872 7.37094C9.32194 7.19772 9.53162 7.11111 9.77778 7.11111C9.77778 7.35726 9.69117 7.56695 9.51795 7.74017C9.34473 7.91339 9.13504 8 8.88889 8ZM10.6667 8C10.4205 8 10.2108 7.91339 10.0376 7.74017C9.86439 7.56695 9.77778 7.35726 9.77778 7.11111C10.0239 7.11111 10.2336 7.19772 10.4068 7.37094C10.5801 7.54416 10.6667 7.75385 10.6667 8ZM10.6667 8C10.6667 7.75385 10.7533 7.54416 10.9265 7.37094C11.0997 7.19772 11.3094 7.11111 11.5556 7.11111C11.5556 7.35726 11.4689 7.56695 11.2957 7.74017C11.1225 7.91339 10.9128 8 10.6667 8ZM12.4444 8C12.1983 8 11.9886 7.91339 11.8154 7.74017C11.6422 7.56695 11.5556 7.35726 11.5556 7.11111C11.8017 7.11111 12.0114 7.19772 12.1846 7.37094C12.3578 7.54416 12.4444 7.75385 12.4444 8ZM12.4444 8C12.4444 7.75385 12.5311 7.54416 12.7043 7.37094C12.8775 7.19772 13.0872 7.11111 13.3333 7.11111C13.3333 7.35726 13.2467 7.56695 13.0735 7.74017C12.9003 7.91339 12.6906 8 12.4444 8ZM14.2222 8C13.9791 8 13.7694 7.91339 13.5932 7.74017C13.4199 7.56695 13.3333 7.35726 13.3333 7.11111C13.5795 7.11111 13.7892 7.19772 13.9624 7.37094C14.1356 7.54416 14.2222 7.75385 14.2222 8ZM14.2222 8C14.2222 7.75385 14.3088 7.54416 14.4821 7.37094C14.6583 7.19772 14.868 7.11111 15.1111 7.11111C15.1111 7.35726 15.0245 7.56695 14.8513 7.74017C14.6781 7.91339 14.4684 8 14.2222 8ZM16 8C15.7569 8 15.5472 7.91339 15.3709 7.74017C15.1977 7.56695 15.1111 7.35726 15.1111 7.11111C15.3573 7.11111 15.567 7.19772 15.7402 7.37094C15.9134 7.54416 16 7.75385 16 8ZM0 7.11111C0 6.86496 0.0866097 6.65527 0.259829 6.48205C0.433048 6.30883 0.642735 6.22222 0.888889 6.22222C0.888889 6.46838 0.80076 6.67806 0.624501 6.85128C0.451282 7.0245 0.243115 7.11111 0 7.11111ZM1.77778 7.11111C1.53162 7.11111 1.32194 7.0245 1.14872 6.85128C0.975499 6.67806 0.888889 6.46838 0.888889 6.22222C1.132 6.22222 1.34017 6.30883 1.51339 6.48205C1.68965 6.65527 1.77778 6.86496 1.77778 7.11111ZM1.77778 7.11111C1.77778 6.86496 1.86439 6.65527 2.03761 6.48205C2.21083 6.30883 2.42051 6.22222 2.66667 6.22222C2.66667 6.46838 2.57854 6.67806 2.40228 6.85128C2.22906 7.0245 2.02089 7.11111 1.77778 7.11111ZM5.33333 7.11111C5.33333 6.86496 5.41994 6.65527 5.59316 6.48205C5.76638 6.30883 5.97607 6.22222 6.22222 6.22222C6.22222 6.46838 6.13561 6.67806 5.96239 6.85128C5.78917 7.0245 5.57949 7.11111 5.33333 7.11111ZM7.11111 7.11111C6.86496 7.11111 6.65527 7.0245 6.48205 6.85128C6.30883 6.67806 6.22222 6.46838 6.22222 6.22222C6.46838 6.22222 6.67806 6.30883 6.85128 6.48205C7.0245 6.65527 7.11111 6.86496 7.11111 7.11111ZM7.11111 7.11111C7.11111 6.86496 7.19772 6.65527 7.37094 6.48205C7.54416 6.30883 7.75385 6.22222 8 6.22222C8 6.46838 7.91339 6.67806 7.74017 6.85128C7.56695 7.0245 7.35726 7.11111 7.11111 7.11111ZM8.88889 7.11111C8.64274 7.11111 8.43305 7.0245 8.25983 6.85128C8.08661 6.67806 8 6.46838 8 6.22222C8.24615 6.22222 8.45584 6.30883 8.62906 6.48205C8.80228 6.65527 8.88889 6.86496 8.88889 7.11111ZM8.88889 7.11111C8.88889 6.86496 8.9755 6.65527 9.14872 6.48205C9.32194 6.30883 9.53162 6.22222 9.77778 6.22222C9.77778 6.46838 9.69117 6.67806 9.51795 6.85128C9.34473 7.0245 9.13504 7.11111 8.88889 7.11111ZM10.6667 7.11111C10.4205 7.11111 10.2108 7.0245 10.0376 6.85128C9.86439 6.67806 9.77778 6.46838 9.77778 6.22222C10.0239 6.22222 10.2336 6.30883 10.4068 6.48205C10.5801 6.65527 10.6667 6.86496 10.6667 7.11111ZM14.2222 7.11111C13.9791 7.11111 13.7694 7.0245 13.5932 6.85128C13.4199 6.67806 13.3333 6.46838 13.3333 6.22222C13.5795 6.22222 13.7892 6.30883 13.9624 6.48205C14.1356 6.65527 14.2222 6.86496 14.2222 7.11111ZM14.2222 7.11111C14.2222 6.86496 14.3088 6.65527 14.4821 6.48205C14.6583 6.30883 14.868 6.22222 15.1111 6.22222C15.1111 6.46838 15.0245 6.67806 14.8513 6.85128C14.6781 7.0245 14.4684 7.11111 14.2222 7.11111ZM16 7.11111C15.7569 7.11111 15.5472 7.0245 15.3709 6.85128C15.1977 6.67806 15.1111 6.46838 15.1111 6.22222C15.3573 6.22222 15.567 6.30883 15.7402 6.48205C15.9134 6.65527 16 6.86496 16 7.11111ZM1.77778 6.22222C1.53162 6.22222 1.32194 6.13561 1.14872 5.96239C0.975499 5.78917 0.888889 5.57949 0.888889 5.33333C1.132 5.33333 1.34017 5.41994 1.51339 5.59316C1.68965 5.76638 1.77778 5.97607 1.77778 6.22222ZM5.33333 6.22222C5.08718 6.22222 4.87749 6.13561 4.70427 5.96239C4.53105 5.78917 4.44444 5.57949 4.44444 5.33333C4.68756 5.33333 4.89725 5.41994 5.0735 5.59316C5.24672 5.76638 5.33333 5.97607 5.33333 6.22222ZM5.33333 6.22222C5.33333 5.97607 5.41994 5.76638 5.59316 5.59316C5.76638 5.41994 5.97607 5.33333 6.22222 5.33333C6.22222 5.57949 6.13561 5.78917 5.96239 5.96239C5.78917 6.13561 5.57949 6.22222 5.33333 6.22222ZM7.11111 6.22222C6.86496 6.22222 6.65527 6.13561 6.48205 5.96239C6.30883 5.78917 6.22222 5.57949 6.22222 5.33333C6.46838 5.33333 6.67806 5.41994 6.85128 5.59316C7.0245 5.76638 7.11111 5.97607 7.11111 6.22222ZM7.11111 6.22222C7.11111 5.97607 7.19772 5.76638 7.37094 5.59316C7.54416 5.41994 7.75385 5.33333 8 5.33333C8 5.57949 7.91339 5.78917 7.74017 5.96239C7.56695 6.13561 7.35726 6.22222 7.11111 6.22222ZM8.88889 6.22222C8.64274 6.22222 8.43305 6.13561 8.25983 5.96239C8.08661 5.78917 8 5.57949 8 5.33333C8.24615 5.33333 8.45584 5.41994 8.62906 5.59316C8.80228 5.76638 8.88889 5.97607 8.88889 6.22222ZM8.88889 6.22222C8.88889 5.97607 8.9755 5.76638 9.14872 5.59316C9.32194 5.41994 9.53162 5.33333 9.77778 5.33333C9.77778 5.57949 9.69117 5.78917 9.51795 5.96239C9.34473 6.13561 9.13504 6.22222 8.88889 6.22222ZM10.6667 6.22222C10.4205 6.22222 10.2108 6.13561 10.0376 5.96239C9.86439 5.78917 9.77778 5.57949 9.77778 5.33333C10.0239 5.33333 10.2336 5.41994 10.4068 5.59316C10.5801 5.76638 10.6667 5.97607 10.6667 6.22222ZM10.6667 6.22222C10.6667 5.97607 10.7533 5.76638 10.9265 5.59316C11.0997 5.41994 11.3094 5.33333 11.5556 5.33333C11.5556 5.57949 11.4689 5.78917 11.2957 5.96239C11.1225 6.13561 10.9128 6.22222 10.6667 6.22222ZM14.2222 6.22222C14.2222 5.97607 14.3088 5.76638 14.4821 5.59316C14.6583 5.41994 14.868 5.33333 15.1111 5.33333C15.1111 5.57949 15.0245 5.78917 14.8513 5.96239C14.6781 6.13561 14.4684 6.22222 14.2222 6.22222ZM3.55556 5.33333C3.55556 5.08718 3.64217 4.87749 3.81538 4.70427C3.9886 4.53105 4.19829 4.44444 4.44444 4.44444C4.44444 4.6906 4.35783 4.90028 4.18462 5.0735C4.00836 5.24672 3.79867 5.33333 3.55556 5.33333ZM5.33333 5.33333C5.08718 5.33333 4.87749 5.24672 4.70427 5.0735C4.53105 4.90028 4.44444 4.6906 4.44444 4.44444C4.68756 4.44444 4.89725 4.53105 5.0735 4.70427C5.24672 4.87749 5.33333 5.08718 5.33333 5.33333ZM5.33333 5.33333C5.33333 5.08718 5.41994 4.87749 5.59316 4.70427C5.76638 4.53105 5.97607 4.44444 6.22222 4.44444C6.22222 4.6906 6.13561 4.90028 5.96239 5.0735C5.78917 5.24672 5.57949 5.33333 5.33333 5.33333ZM7.11111 5.33333C7.11111 5.08718 7.19772 4.87749 7.37094 4.70427C7.54416 4.53105 7.75385 4.44444 8 4.44444C8 4.6906 7.91339 4.90028 7.74017 5.0735C7.56695 5.24672 7.35726 5.33333 7.11111 5.33333ZM8.88889 5.33333C8.64274 5.33333 8.43305 5.24672 8.25983 5.0735C8.08661 4.90028 8 4.6906 8 4.44444C8.24615 4.44444 8.45584 4.53105 8.62906 4.70427C8.80228 4.87749 8.88889 5.08718 8.88889 5.33333ZM10.6667 5.33333C10.4205 5.33333 10.2108 5.24672 10.0376 5.0735C9.86439 4.90028 9.77778 4.6906 9.77778 4.44444C10.0239 4.44444 10.2336 4.53105 10.4068 4.70427C10.5801 4.87749 10.6667 5.08718 10.6667 5.33333ZM10.6667 5.33333C10.6667 5.08718 10.7533 4.87749 10.9265 4.70427C11.0997 4.53105 11.3094 4.44444 11.5556 4.44444C11.5556 4.6906 11.4689 4.90028 11.2957 5.0735C11.1225 5.24672 10.9128 5.33333 10.6667 5.33333ZM12.4444 5.33333C12.1983 5.33333 11.9886 5.24672 11.8154 5.0735C11.6422 4.90028 11.5556 4.6906 11.5556 4.44444C11.8017 4.44444 12.0114 4.53105 12.1846 4.70427C12.3578 4.87749 12.4444 5.08718 12.4444 5.33333ZM3.55556 4.44444C3.3094 4.44444 3.09971 4.35783 2.9265 4.18462C2.75328 4.0114 2.66667 3.80171 2.66667 3.55556C2.90978 3.55556 3.11947 3.64217 3.29573 3.81538C3.46895 3.9886 3.55556 4.19829 3.55556 4.44444ZM3.55556 4.44444C3.55556 4.19829 3.64217 3.9886 3.81538 3.81538C3.9886 3.64217 4.19829 3.55556 4.44444 3.55556C4.44444 3.80171 4.35783 4.0114 4.18462 4.18462C4.00836 4.35783 3.79867 4.44444 3.55556 4.44444ZM5.33333 4.44444C5.08718 4.44444 4.87749 4.35783 4.70427 4.18462C4.53105 4.0114 4.44444 3.80171 4.44444 3.55556C4.68756 3.55556 4.89725 3.64217 5.0735 3.81538C5.24672 3.9886 5.33333 4.19829 5.33333 4.44444ZM7.11111 4.44444C7.11111 4.19829 7.19772 3.9886 7.37094 3.81538C7.54416 3.64217 7.75385 3.55556 8 3.55556C8 3.80171 7.91339 4.0114 7.74017 4.18462C7.56695 4.35783 7.35726 4.44444 7.11111 4.44444ZM8.88889 4.44444C8.64274 4.44444 8.43305 4.35783 8.25983 4.18462C8.08661 4.0114 8 3.80171 8 3.55556C8.24615 3.55556 8.45584 3.64217 8.62906 3.81538C8.80228 3.9886 8.88889 4.19829 8.88889 4.44444ZM10.6667 4.44444C10.6667 4.19829 10.7533 3.9886 10.9265 3.81538C11.0997 3.64217 11.3094 3.55556 11.5556 3.55556C11.5556 3.80171 11.4689 4.0114 11.2957 4.18462C11.1225 4.35783 10.9128 4.44444 10.6667 4.44444ZM12.4444 4.44444C12.1983 4.44444 11.9886 4.35783 11.8154 4.18462C11.6422 4.0114 11.5556 3.80171 11.5556 3.55556C11.8017 3.55556 12.0114 3.64217 12.1846 3.81538C12.3578 3.9886 12.4444 4.19829 12.4444 4.44444ZM12.4444 4.44444C12.4444 4.19829 12.5311 3.9886 12.7043 3.81538C12.8775 3.64217 13.0872 3.55556 13.3333 3.55556C13.3333 3.80171 13.2467 4.0114 13.0735 4.18462C12.9003 4.35783 12.6906 4.44444 12.4444 4.44444ZM1.77778 3.55556C1.77778 3.3094 1.86439 3.09971 2.03761 2.9265C2.21083 2.75328 2.42051 2.66667 2.66667 2.66667C2.66667 2.91282 2.57854 3.12251 2.40228 3.29573C2.22906 3.46895 2.02089 3.55556 1.77778 3.55556ZM3.55556 3.55556C3.3094 3.55556 3.09971 3.46895 2.9265 3.29573C2.75328 3.12251 2.66667 2.91282 2.66667 2.66667C2.90978 2.66667 3.11947 2.75328 3.29573 2.9265C3.46895 3.09971 3.55556 3.3094 3.55556 3.55556ZM3.55556 3.55556C3.55556 3.3094 3.64217 3.09971 3.81538 2.9265C3.9886 2.75328 4.19829 2.66667 4.44444 2.66667C4.44444 2.91282 4.35783 3.12251 4.18462 3.29573C4.00836 3.46895 3.79867 3.55556 3.55556 3.55556ZM5.33333 3.55556C5.08718 3.55556 4.87749 3.46895 4.70427 3.29573C4.53105 3.12251 4.44444 2.91282 4.44444 2.66667C4.68756 2.66667 4.89725 2.75328 5.0735 2.9265C5.24672 3.09971 5.33333 3.3094 5.33333 3.55556ZM7.11111 3.55556C6.86496 3.55556 6.65527 3.46895 6.48205 3.29573C6.30883 3.12251 6.22222 2.91282 6.22222 2.66667C6.46838 2.66667 6.67806 2.75328 6.85128 2.9265C7.0245 3.09971 7.11111 3.3094 7.11111 3.55556ZM7.11111 3.55556C7.11111 3.3094 7.19772 3.09971 7.37094 2.9265C7.54416 2.75328 7.75385 2.66667 8 2.66667C8 2.91282 7.91339 3.12251 7.74017 3.29573C7.56695 3.46895 7.35726 3.55556 7.11111 3.55556ZM8.88889 3.55556C8.64274 3.55556 8.43305 3.46895 8.25983 3.29573C8.08661 3.12251 8 2.91282 8 2.66667C8.24615 2.66667 8.45584 2.75328 8.62906 2.9265C8.80228 3.09971 8.88889 3.3094 8.88889 3.55556ZM8.88889 3.55556C8.88889 3.3094 8.9755 3.09971 9.14872 2.9265C9.32194 2.75328 9.53162 2.66667 9.77778 2.66667C9.77778 2.91282 9.69117 3.12251 9.51795 3.29573C9.34473 3.46895 9.13504 3.55556 8.88889 3.55556ZM10.6667 3.55556C10.6667 3.3094 10.7533 3.09971 10.9265 2.9265C11.0997 2.75328 11.3094 2.66667 11.5556 2.66667C11.5556 2.91282 11.4689 3.12251 11.2957 3.29573C11.1225 3.46895 10.9128 3.55556 10.6667 3.55556ZM12.4444 3.55556C12.1983 3.55556 11.9886 3.46895 11.8154 3.29573C11.6422 3.12251 11.5556 2.91282 11.5556 2.66667C11.8017 2.66667 12.0114 2.75328 12.1846 2.9265C12.3578 3.09971 12.4444 3.3094 12.4444 3.55556ZM12.4444 3.55556C12.4444 3.3094 12.5311 3.09971 12.7043 2.9265C12.8775 2.75328 13.0872 2.66667 13.3333 2.66667C13.3333 2.91282 13.2467 3.12251 13.0735 3.29573C12.9003 3.46895 12.6906 3.55556 12.4444 3.55556ZM14.2222 3.55556C13.9791 3.55556 13.7694 3.46895 13.5932 3.29573C13.4199 3.12251 13.3333 2.91282 13.3333 2.66667C13.5795 2.66667 13.7892 2.75328 13.9624 2.9265C14.1356 3.09971 14.2222 3.3094 14.2222 3.55556ZM1.77778 2.66667C1.53162 2.66667 1.32194 2.58006 1.14872 2.40684C0.975499 2.23058 0.888889 2.02089 0.888889 1.77778C1.132 1.77778 1.34017 1.86439 1.51339 2.03761C1.68965 2.21083 1.77778 2.42051 1.77778 2.66667ZM1.77778 2.66667C1.77778 2.42051 1.86439 2.21083 2.03761 2.03761C2.21083 1.86439 2.42051 1.77778 2.66667 1.77778C2.66667 2.02089 2.57854 2.23058 2.40228 2.40684C2.22906 2.58006 2.02089 2.66667 1.77778 2.66667ZM3.55556 2.66667C3.3094 2.66667 3.09971 2.58006 2.9265 2.40684C2.75328 2.23058 2.66667 2.02089 2.66667 1.77778C2.90978 1.77778 3.11947 1.86439 3.29573 2.03761C3.46895 2.21083 3.55556 2.42051 3.55556 2.66667ZM3.55556 2.66667C3.55556 2.42051 3.64217 2.21083 3.81538 2.03761C3.9886 1.86439 4.19829 1.77778 4.44444 1.77778C4.44444 2.02089 4.35783 2.23058 4.18462 2.40684C4.00836 2.58006 3.79867 2.66667 3.55556 2.66667ZM7.11111 2.66667C6.86496 2.66667 6.65527 2.58006 6.48205 2.40684C6.30883 2.23058 6.22222 2.02089 6.22222 1.77778C6.46838 1.77778 6.67806 1.86439 6.85128 2.03761C7.0245 2.21083 7.11111 2.42051 7.11111 2.66667ZM7.11111 2.66667C7.11111 2.42051 7.19772 2.21083 7.37094 2.03761C7.54416 1.86439 7.75385 1.77778 8 1.77778C8 2.02089 7.91339 2.23058 7.74017 2.40684C7.56695 2.58006 7.35726 2.66667 7.11111 2.66667ZM8.88889 2.66667C8.64274 2.66667 8.43305 2.58006 8.25983 2.40684C8.08661 2.23058 8 2.02089 8 1.77778C8.24615 1.77778 8.45584 1.86439 8.62906 2.03761C8.80228 2.21083 8.88889 2.42051 8.88889 2.66667ZM8.88889 2.66667C8.88889 2.42051 8.9755 2.21083 9.14872 2.03761C9.32194 1.86439 9.53162 1.77778 9.77778 1.77778C9.77778 2.02089 9.69117 2.23058 9.51795 2.40684C9.34473 2.58006 9.13504 2.66667 8.88889 2.66667ZM12.4444 2.66667C12.1983 2.66667 11.9886 2.58006 11.8154 2.40684C11.6422 2.23058 11.5556 2.02089 11.5556 1.77778C11.8017 1.77778 12.0114 1.86439 12.1846 2.03761C12.3578 2.21083 12.4444 2.42051 12.4444 2.66667ZM12.4444 2.66667C12.4444 2.42051 12.5311 2.21083 12.7043 2.03761C12.8775 1.86439 13.0872 1.77778 13.3333 1.77778C13.3333 2.02089 13.2467 2.23058 13.0735 2.40684C12.9003 2.58006 12.6906 2.66667 12.4444 2.66667ZM14.2222 2.66667C13.9791 2.66667 13.7694 2.58006 13.5932 2.40684C13.4199 2.23058 13.3333 2.02089 13.3333 1.77778C13.5795 1.77778 13.7892 1.86439 13.9624 2.03761C14.1356 2.21083 14.2222 2.42051 14.2222 2.66667ZM14.2222 2.66667C14.2222 2.42051 14.3088 2.21083 14.4821 2.03761C14.6583 1.86439 14.868 1.77778 15.1111 1.77778C15.1111 2.02089 15.0245 2.23058 14.8513 2.40684C14.6781 2.58006 14.4684 2.66667 14.2222 2.66667ZM1.77778 1.77778C1.77778 1.53162 1.86439 1.32194 2.03761 1.14872C2.21083 0.975499 2.42051 0.888889 2.66667 0.888889C2.66667 1.132 2.57854 1.34169 2.40228 1.51795C2.22906 1.69117 2.02089 1.77778 1.77778 1.77778ZM3.55556 1.77778C3.3094 1.77778 3.09971 1.69117 2.9265 1.51795C2.75328 1.34169 2.66667 1.132 2.66667 0.888889C2.90978 0.888889 3.11947 0.975499 3.29573 1.14872C3.46895 1.32194 3.55556 1.53162 3.55556 1.77778ZM3.55556 1.77778C3.55556 1.53162 3.64217 1.32194 3.81538 1.14872C3.9886 0.975499 4.19829 0.888889 4.44444 0.888889C4.44444 1.132 4.35783 1.34169 4.18462 1.51795C4.00836 1.69117 3.79867 1.77778 3.55556 1.77778ZM5.33333 1.77778C5.33333 1.53162 5.41994 1.32194 5.59316 1.14872C5.76638 0.975499 5.97607 0.888889 6.22222 0.888889C6.22222 1.132 6.13561 1.34169 5.96239 1.51795C5.78917 1.69117 5.57949 1.77778 5.33333 1.77778ZM7.11111 1.77778C6.86496 1.77778 6.65527 1.69117 6.48205 1.51795C6.30883 1.34169 6.22222 1.132 6.22222 0.888889C6.46838 0.888889 6.67806 0.975499 6.85128 1.14872C7.0245 1.32194 7.11111 1.53162 7.11111 1.77778ZM7.11111 1.77778C7.11111 1.53162 7.19772 1.32194 7.37094 1.14872C7.54416 0.975499 7.75385 0.888889 8 0.888889C8 1.132 7.91339 1.34169 7.74017 1.51795C7.56695 1.69117 7.35726 1.77778 7.11111 1.77778ZM8.88889 1.77778C8.64274 1.77778 8.43305 1.69117 8.25983 1.51795C8.08661 1.34169 8 1.132 8 0.888889C8.24615 0.888889 8.45584 0.975499 8.62906 1.14872C8.80228 1.32194 8.88889 1.53162 8.88889 1.77778ZM8.88889 1.77778C8.88889 1.53162 8.9755 1.32194 9.14872 1.14872C9.32194 0.975499 9.53162 0.888889 9.77778 0.888889C9.77778 1.132 9.69117 1.34169 9.51795 1.51795C9.34473 1.69117 9.13504 1.77778 8.88889 1.77778ZM10.6667 1.77778C10.4205 1.77778 10.2108 1.69117 10.0376 1.51795C9.86439 1.34169 9.77778 1.132 9.77778 0.888889C10.0239 0.888889 10.2336 0.975499 10.4068 1.14872C10.5801 1.32194 10.6667 1.53162 10.6667 1.77778ZM12.4444 1.77778C12.1983 1.77778 11.9886 1.69117 11.8154 1.51795C11.6422 1.34169 11.5556 1.132 11.5556 0.888889C11.8017 0.888889 12.0114 0.975499 12.1846 1.14872C12.3578 1.32194 12.4444 1.53162 12.4444 1.77778ZM12.4444 1.77778C12.4444 1.53162 12.5311 1.32194 12.7043 1.14872C12.8775 0.975499 13.0872 0.888889 13.3333 0.888889C13.3333 1.132 13.2467 1.34169 13.0735 1.51795C12.9003 1.69117 12.6906 1.77778 12.4444 1.77778ZM14.2222 1.77778C13.9791 1.77778 13.7694 1.69117 13.5932 1.51795C13.4199 1.34169 13.3333 1.132 13.3333 0.888889C13.5795 0.888889 13.7892 0.975499 13.9624 1.14872C14.1356 1.32194 14.2222 1.53162 14.2222 1.77778ZM7.11111 0.888889C6.86496 0.888889 6.65527 0.802279 6.48205 0.62906C6.30883 0.452802 6.22222 0.243115 6.22222 0C6.46838 0 6.67806 0.0866097 6.85128 0.259829C7.0245 0.433048 7.11111 0.642735 7.11111 0.888889ZM7.11111 0.888889C7.11111 0.642735 7.19772 0.433048 7.37094 0.259829C7.54416 0.0866097 7.75385 0 8 0C8 0.243115 7.91339 0.452802 7.74017 0.62906C7.56695 0.802279 7.35726 0.888889 7.11111 0.888889ZM8.88889 0.888889C8.64274 0.888889 8.43305 0.802279 8.25983 0.62906C8.08661 0.452802 8 0.243115 8 0C8.24615 0 8.45584 0.0866097 8.62906 0.259829C8.80228 0.433048 8.88889 0.642735 8.88889 0.888889ZM8.88889 0.888889C8.88889 0.642735 8.9755 0.433048 9.14872 0.259829C9.32194 0.0866097 9.53162 0 9.77778 0C9.77778 0.243115 9.69117 0.452802 9.51795 0.62906C9.34473 0.802279 9.13504 0.888889 8.88889 0.888889Z" fill="#667EB2"/>
</svg>
