<svg width="146" height="195" viewBox="0 0 146 195" fill="none" xmlns="http://www.w3.org/2000/svg">
<g id="Group 2608762">
<path id="Vector" d="M90.5 80C91.8889 80 93.0694 80.4861 94.0417 81.4583C95.0139 82.4537 95.5 83.6343 95.5 85C94.1111 85 92.9306 84.5139 91.9583 83.5417C90.9861 82.5694 90.5 81.3889 90.5 80Z" fill="#667EB2"/>
<path id="Vector_2" d="M90.5 90C91.8889 90 93.0694 90.4861 94.0417 91.4583C95.0139 92.4537 95.5 93.6343 95.5 95C94.1111 95 92.9306 94.5139 91.9583 93.5417C90.9861 92.5694 90.5 91.3889 90.5 90Z" fill="#667EB2"/>
<path id="Vector_3" d="M90.5 105C91.8889 105 93.0694 105.486 94.0417 106.458C95.0139 107.454 95.5 108.634 95.5 110C94.1111 110 92.9306 109.514 91.9583 108.542C90.9861 107.569 90.5 106.389 90.5 105Z" fill="#667EB2"/>
<path id="Vector_4" d="M90.5 110C91.8889 110 93.0694 110.486 94.0417 111.458C95.0139 112.454 95.5 113.634 95.5 115C94.1111 115 92.9306 114.514 91.9583 113.542C90.9861 112.569 90.5 111.389 90.5 110Z" fill="#667EB2"/>
<path id="Vector_5" d="M90.5 115C91.8889 115 93.0694 115.486 94.0417 116.458C95.0139 117.454 95.5 118.634 95.5 120C94.1111 120 92.9306 119.514 91.9583 118.542C90.9861 117.569 90.5 116.389 90.5 115Z" fill="#667EB2"/>
<path id="Vector_6" d="M90.5 85C91.8889 85 93.0694 85.4861 94.0417 86.4583C95.0139 87.4537 95.5 88.6343 95.5 90C94.1111 90 92.9306 89.5139 91.9583 88.5417C90.9861 87.5694 90.5 86.3889 90.5 85Z" fill="#667EB2"/>
<path id="Vector_7" d="M90.5 120C91.8889 120 93.0694 120.486 94.0417 121.458C95.0139 122.454 95.5 123.634 95.5 125C94.1111 125 92.9306 124.514 91.9583 123.542C90.9861 122.569 90.5 121.389 90.5 120Z" fill="#667EB2"/>
<path id="Vector_8" d="M90.5 125C91.8889 125 93.0694 125.486 94.0417 126.458C95.0139 127.454 95.5 128.634 95.5 130C94.1111 130 92.9306 129.514 91.9583 128.542C90.9861 127.569 90.5 126.389 90.5 125Z" fill="#667EB2"/>
<path id="Vector_9" d="M100.5 80C101.889 80 103.069 80.4861 104.042 81.4583C105.014 82.4537 105.5 83.6343 105.5 85C104.111 85 102.931 84.5139 101.958 83.5417C100.986 82.5694 100.5 81.3889 100.5 80Z" fill="#667EB2"/>
<path id="Vector_10" d="M100.5 90C101.889 90 103.069 90.4861 104.042 91.4583C105.014 92.4537 105.5 93.6343 105.5 95C104.111 95 102.931 94.5139 101.958 93.5417C100.986 92.5694 100.5 91.3889 100.5 90Z" fill="#667EB2"/>
<path id="Vector_11" d="M100.5 85C101.889 85 103.069 85.4861 104.042 86.4583C105.014 87.4537 105.5 88.6343 105.5 90C104.111 90 102.931 89.5139 101.958 88.5417C100.986 87.5694 100.5 86.3889 100.5 85Z" fill="#667EB2"/>
<path id="Vector_12" d="M100.5 105C101.889 105 103.069 105.486 104.042 106.458C105.014 107.454 105.5 108.634 105.5 110C104.111 110 102.931 109.514 101.958 108.542C100.986 107.569 100.5 106.389 100.5 105Z" fill="#667EB2"/>
<path id="Vector_13" d="M100.5 110C101.889 110 103.069 110.486 104.042 111.458C105.014 112.454 105.5 113.634 105.5 115C104.111 115 102.931 114.514 101.958 113.542C100.986 112.569 100.5 111.389 100.5 110Z" fill="#667EB2"/>
<path id="Vector_14" d="M100.5 115C101.889 115 103.069 115.486 104.042 116.458C105.014 117.454 105.5 118.634 105.5 120C104.111 120 102.931 119.514 101.958 118.542C100.986 117.569 100.5 116.389 100.5 115Z" fill="#667EB2"/>
<path id="Vector_15" d="M100.5 120C101.889 120 103.069 120.486 104.042 121.458C105.014 122.454 105.5 123.634 105.5 125C104.111 125 102.931 124.514 101.958 123.542C100.986 122.569 100.5 121.389 100.5 120Z" fill="#667EB2"/>
<path id="Vector_16" d="M100.5 125C101.889 125 103.069 125.486 104.042 126.458C105.014 127.454 105.5 128.634 105.5 130C104.111 130 102.931 129.514 101.958 128.542C100.986 127.569 100.5 126.389 100.5 125Z" fill="#667EB2"/>
<path id="Vector_17" d="M60.5 70C61.8889 70 63.0694 70.4861 64.0417 71.4583C65.0139 72.4537 65.5 73.6343 65.5 75C64.1111 75 62.9306 74.5139 61.9583 73.5417C60.9861 72.5694 60.5 71.3889 60.5 70Z" fill="#667EB2"/>
<path id="Vector_18" d="M60.5 80C61.8889 80 63.0694 80.4861 64.0417 81.4583C65.0139 82.4537 65.5 83.6343 65.5 85C64.1111 85 62.9306 84.5139 61.9583 83.5417C60.9861 82.5694 60.5 81.3889 60.5 80Z" fill="#667EB2"/>
<path id="Vector_19" d="M60.5 95C61.8889 95 63.0694 95.4861 64.0417 96.4583C65.0139 97.4537 65.5 98.6343 65.5 100C64.1111 100 62.9306 99.5139 61.9583 98.5417C60.9861 97.5694 60.5 96.3889 60.5 95Z" fill="#667EB2"/>
<path id="Vector_20" d="M60.5 105C61.8889 105 63.0694 105.486 64.0417 106.458C65.0139 107.454 65.5 108.634 65.5 110C64.1111 110 62.9306 109.514 61.9583 108.542C60.9861 107.569 60.5 106.389 60.5 105Z" fill="#667EB2"/>
<path id="Vector_21" d="M60.5 75C61.8889 75 63.0694 75.4861 64.0417 76.4583C65.0139 77.4537 65.5 78.6343 65.5 80C64.1111 80 62.9306 79.5139 61.9583 78.5417C60.9861 77.5694 60.5 76.3889 60.5 75Z" fill="#667EB2"/>
<path id="Vector_22" d="M60.5 100C61.8889 100 63.0694 100.486 64.0417 101.458C65.0139 102.454 65.5 103.634 65.5 105C64.1111 105 62.9306 104.514 61.9583 103.542C60.9861 102.569 60.5 101.389 60.5 100Z" fill="#667EB2"/>
<path id="Vector_23" d="M60.5 110C61.8889 110 63.0694 110.486 64.0417 111.458C65.0139 112.454 65.5 113.634 65.5 115C64.1111 115 62.9306 114.514 61.9583 113.542C60.9861 112.569 60.5 111.389 60.5 110Z" fill="#667EB2"/>
<path id="Vector_24" d="M60.5 115C61.8889 115 63.0694 115.486 64.0417 116.458C65.0139 117.454 65.5 118.634 65.5 120C64.1111 120 62.9306 119.514 61.9583 118.542C60.9861 117.569 60.5 116.389 60.5 115Z" fill="#667EB2"/>
<path id="Vector_25" d="M60.5 120C61.8889 120 63.0694 120.486 64.0417 121.458C65.0139 122.454 65.5 123.634 65.5 125C64.1111 125 62.9306 124.514 61.9583 123.542C60.9861 122.569 60.5 121.389 60.5 120Z" fill="#667EB2"/>
<path id="Vector_26" d="M60.5 125C61.8889 125 63.0694 125.486 64.0417 126.458C65.0139 127.454 65.5 128.634 65.5 130C64.1111 130 62.9306 129.514 61.9583 128.542C60.9861 127.569 60.5 126.389 60.5 125Z" fill="#667EB2"/>
<path id="Vector_27" d="M50.5 70C51.8889 70 53.0694 70.4861 54.0417 71.4583C55.0139 72.4537 55.5 73.6343 55.5 75C54.1111 75 52.9306 74.5139 51.9583 73.5417C50.9861 72.5694 50.5 71.3889 50.5 70Z" fill="#667EB2"/>
<path id="Vector_28" d="M50.5 105C51.8889 105 53.0694 105.486 54.0417 106.458C55.0139 107.454 55.5 108.634 55.5 110C54.1111 110 52.9306 109.514 51.9583 108.542C50.9861 107.569 50.5 106.389 50.5 105Z" fill="#667EB2"/>
<path id="Vector_29" d="M50.5 75C51.8889 75 53.0694 75.4861 54.0417 76.4583C55.0139 77.4537 55.5 78.6343 55.5 80C54.1111 80 52.9306 79.5139 51.9583 78.5417C50.9861 77.5694 50.5 76.3889 50.5 75Z" fill="#667EB2"/>
<path id="Vector_30" d="M50.5 90C51.8889 90 53.0694 90.4861 54.0417 91.4583C55.0139 92.4537 55.5 93.6343 55.5 95C54.1111 95 52.9306 94.5139 51.9583 93.5417C50.9861 92.5694 50.5 91.3889 50.5 90Z" fill="#667EB2"/>
<path id="Vector_31" d="M50.5 110C51.8889 110 53.0694 110.486 54.0417 111.458C55.0139 112.454 55.5 113.634 55.5 115C54.1111 115 52.9306 114.514 51.9583 113.542C50.9861 112.569 50.5 111.389 50.5 110Z" fill="#667EB2"/>
<path id="Vector_32" d="M50.5 115C51.8889 115 53.0694 115.486 54.0417 116.458C55.0139 117.454 55.5 118.634 55.5 120C54.1111 120 52.9306 119.514 51.9583 118.542C50.9861 117.569 50.5 116.389 50.5 115Z" fill="#667EB2"/>
<path id="Vector_33" d="M50.5 120C51.8889 120 53.0694 120.486 54.0417 121.458C55.0139 122.454 55.5 123.634 55.5 125C54.1111 125 52.9306 124.514 51.9583 123.542C50.9861 122.569 50.5 121.389 50.5 120Z" fill="#667EB2"/>
<path id="Vector_34" d="M40.5 70C41.8889 70 43.0694 70.4861 44.0417 71.4583C45.0139 72.4537 45.5 73.6343 45.5 75C44.1111 75 42.9306 74.5139 41.9583 73.5417C40.9861 72.5694 40.5 71.3889 40.5 70Z" fill="#667EB2"/>
<path id="Vector_35" d="M40.5 65C41.8889 65 43.0694 65.4861 44.0417 66.4583C45.0139 67.4537 45.5 68.6343 45.5 70C44.1111 70 42.9306 69.5139 41.9583 68.5417C40.9861 67.5694 40.5 66.3889 40.5 65Z" fill="#667EB2"/>
<path id="Vector_36" d="M40.5 60C41.8889 60 43.0694 60.4861 44.0417 61.4583C45.0139 62.4537 45.5 63.6343 45.5 65C44.1111 65 42.9306 64.5139 41.9583 63.5417C40.9861 62.5694 40.5 61.3889 40.5 60Z" fill="#667EB2"/>
<path id="Vector_37" d="M110.5 80C111.889 80 113.069 80.4861 114.042 81.4583C115.014 82.4537 115.5 83.6343 115.5 85C114.111 85 112.931 84.5139 111.958 83.5417C110.986 82.5694 110.5 81.3889 110.5 80Z" fill="#667EB2"/>
<path id="Vector_38" d="M110.5 70C111.889 70 113.069 70.4861 114.042 71.4583C115.014 72.4537 115.5 73.6343 115.5 75C114.111 75 112.931 74.5139 111.958 73.5417C110.986 72.5694 110.5 71.3889 110.5 70Z" fill="#667EB2"/>
<path id="Vector_39" d="M40.5 85C41.8889 85 43.0694 85.4861 44.0417 86.4583C45.0139 87.4537 45.5 88.6343 45.5 90C44.1111 90 42.9306 89.5139 41.9583 88.5417C40.9861 87.5694 40.5 86.3889 40.5 85Z" fill="#667EB2"/>
<path id="Vector_40" d="M40.5 90C41.8889 90 43.0694 90.4861 44.0417 91.4583C45.0139 92.4537 45.5 93.6343 45.5 95C44.1111 95 42.9306 94.5139 41.9583 93.5417C40.9861 92.5694 40.5 91.3889 40.5 90Z" fill="#667EB2"/>
<path id="Vector_41" d="M110.5 90C111.889 90 113.069 90.4861 114.042 91.4583C115.014 92.4537 115.5 93.6343 115.5 95C114.111 95 112.931 94.5139 111.958 93.5417C110.986 92.5694 110.5 91.3889 110.5 90Z" fill="#667EB2"/>
<path id="Vector_42" d="M30.5 95C31.8889 95 33.0694 95.4861 34.0417 96.4583C35.0139 97.4537 35.5 98.6343 35.5 100C34.1111 100 32.9306 99.5139 31.9583 98.5417C30.9861 97.5694 30.5 96.3889 30.5 95Z" fill="#667EB2"/>
<path id="Vector_43" d="M120.5 100C121.889 100 123.069 100.486 124.042 101.458C125.014 102.454 125.5 103.634 125.5 105C124.111 105 122.931 104.514 121.958 103.542C120.986 102.569 120.5 101.389 120.5 100Z" fill="#667EB2"/>
<path id="Vector_44" d="M40.5 105C41.8889 105 43.0694 105.486 44.0417 106.458C45.0139 107.454 45.5 108.634 45.5 110C44.1111 110 42.9306 109.514 41.9583 108.542C40.9861 107.569 40.5 106.389 40.5 105Z" fill="#667EB2"/>
<path id="Vector_45" d="M30.5 105C31.8889 105 33.0694 105.486 34.0417 106.458C35.0139 107.454 35.5 108.634 35.5 110C34.1111 110 32.9306 109.514 31.9583 108.542C30.9861 107.569 30.5 106.389 30.5 105Z" fill="#667EB2"/>
<path id="Vector_46" d="M110.5 85C111.889 85 113.069 85.4861 114.042 86.4583C115.014 87.4537 115.5 88.6343 115.5 90C114.111 90 112.931 89.5139 111.958 88.5417C110.986 87.5694 110.5 86.3889 110.5 85Z" fill="#667EB2"/>
<path id="Vector_47" d="M30.5 90C31.8889 90 33.0694 90.4861 34.0417 91.4583C35.0139 92.4537 35.5 93.6343 35.5 95C34.1111 95 32.9306 94.5139 31.9583 93.5417C30.9861 92.5694 30.5 91.3889 30.5 90Z" fill="#667EB2"/>
<path id="Vector_48" d="M30.5 85C31.8889 85 33.0694 85.4861 34.0417 86.4583C35.0139 87.4537 35.5 88.6343 35.5 90C34.1111 90 32.9306 89.5139 31.9583 88.5417C30.9861 87.5694 30.5 86.3889 30.5 85Z" fill="#667EB2"/>
<path id="Vector_49" d="M110.5 95C111.889 95 113.069 95.4861 114.042 96.4583C115.014 97.4537 115.5 98.6343 115.5 100C114.111 100 112.931 99.5139 111.958 98.5417C110.986 97.5694 110.5 96.3889 110.5 95Z" fill="#667EB2"/>
<path id="Vector_50" d="M30.5 100C31.8889 100 33.0694 100.486 34.0417 101.458C35.0139 102.454 35.5 103.634 35.5 105C34.1111 105 32.9306 104.514 31.9583 103.542C30.9861 102.569 30.5 101.389 30.5 100Z" fill="#667EB2"/>
<path id="Vector_51" d="M40.5 110C41.8889 110 43.0694 110.486 44.0417 111.458C45.0139 112.454 45.5 113.634 45.5 115C44.1111 115 42.9306 114.514 41.9583 113.542C40.9861 112.569 40.5 111.389 40.5 110Z" fill="#667EB2"/>
<path id="Vector_52" d="M40.5 115C41.8889 115 43.0694 115.486 44.0417 116.458C45.0139 117.454 45.5 118.634 45.5 120C44.1111 120 42.9306 119.514 41.9583 118.542C40.9861 117.569 40.5 116.389 40.5 115Z" fill="#667EB2"/>
<path id="Vector_53" d="M30.5 110C31.8889 110 33.0694 110.486 34.0417 111.458C35.0139 112.454 35.5 113.634 35.5 115C34.1111 115 32.9306 114.514 31.9583 113.542C30.9861 112.569 30.5 111.389 30.5 110Z" fill="#667EB2"/>
<path id="Vector_54" d="M30.5 115C31.8889 115 33.0694 115.486 34.0417 116.458C35.0139 117.454 35.5 118.634 35.5 120C34.1111 120 32.9306 119.514 31.9583 118.542C30.9861 117.569 30.5 116.389 30.5 115Z" fill="#667EB2"/>
<path id="Vector_55" d="M20.5 110C21.8889 110 23.0694 110.486 24.0417 111.458C25.0139 112.454 25.5 113.634 25.5 115C24.1111 115 22.9306 114.514 21.9583 113.542C20.9861 112.569 20.5 111.389 20.5 110Z" fill="#667EB2"/>
<path id="Vector_56" d="M110.5 110C111.889 110 113.069 110.486 114.042 111.458C115.014 112.454 115.5 113.634 115.5 115C114.111 115 112.931 114.514 111.958 113.542C110.986 112.569 110.5 111.389 110.5 110Z" fill="#667EB2"/>
<path id="Vector_57" d="M110.5 115C111.889 115 113.069 115.486 114.042 116.458C115.014 117.454 115.5 118.634 115.5 120C114.111 120 112.931 119.514 111.958 118.542C110.986 117.569 110.5 116.389 110.5 115Z" fill="#667EB2"/>
<path id="Vector_58" d="M120.5 110C121.889 110 123.069 110.486 124.042 111.458C125.014 112.454 125.5 113.634 125.5 115C124.111 115 122.931 114.514 121.958 113.542C120.986 112.569 120.5 111.389 120.5 110Z" fill="#667EB2"/>
<path id="Vector_59" d="M120.5 115C121.889 115 123.069 115.486 124.042 116.458C125.014 117.454 125.5 118.634 125.5 120C124.111 120 122.931 119.514 121.958 118.542C120.986 117.569 120.5 116.389 120.5 115Z" fill="#667EB2"/>
<path id="Vector_60" d="M130.5 120C131.889 120 133.069 120.486 134.042 121.458C135.014 122.454 135.5 123.634 135.5 125C134.111 125 132.931 124.514 131.958 123.542C130.986 122.569 130.5 121.389 130.5 120Z" fill="#667EB2"/>
<path id="Vector_61" d="M130.5 125C131.889 125 133.069 125.486 134.042 126.458C135.014 127.454 135.5 128.634 135.5 130C134.111 130 132.931 129.514 131.958 128.542C130.986 127.569 130.5 126.389 130.5 125Z" fill="#667EB2"/>
<path id="Vector_62" d="M70.5 70C71.8889 70 73.0694 70.4861 74.0417 71.4583C75.0139 72.4537 75.5 73.6343 75.5 75C74.1111 75 72.9306 74.5139 71.9583 73.5417C70.9861 72.5694 70.5 71.3889 70.5 70Z" fill="#667EB2"/>
<path id="Vector_63" d="M70.5 80C71.8889 80 73.0694 80.4861 74.0417 81.4583C75.0139 82.4537 75.5 83.6343 75.5 85C74.1111 85 72.9306 84.5139 71.9583 83.5417C70.9861 82.5694 70.5 81.3889 70.5 80Z" fill="#667EB2"/>
<path id="Vector_64" d="M70.5 95C71.8889 95 73.0694 95.4861 74.0417 96.4583C75.0139 97.4537 75.5 98.6343 75.5 100C74.1111 100 72.9306 99.5139 71.9583 98.5417C70.9861 97.5694 70.5 96.3889 70.5 95Z" fill="#667EB2"/>
<path id="Vector_65" d="M70.5 100C71.8889 100 73.0694 100.486 74.0417 101.458C75.0139 102.454 75.5 103.634 75.5 105C74.1111 105 72.9306 104.514 71.9583 103.542C70.9861 102.569 70.5 101.389 70.5 100Z" fill="#667EB2"/>
<path id="Vector_66" d="M70.5 105C71.8889 105 73.0694 105.486 74.0417 106.458C75.0139 107.454 75.5 108.634 75.5 110C74.1111 110 72.9306 109.514 71.9583 108.542C70.9861 107.569 70.5 106.389 70.5 105Z" fill="#667EB2"/>
<path id="Vector_67" d="M70.5 75C71.8889 75 73.0694 75.4861 74.0417 76.4583C75.0139 77.4537 75.5 78.6343 75.5 80C74.1111 80 72.9306 79.5139 71.9583 78.5417C70.9861 77.5694 70.5 76.3889 70.5 75Z" fill="#667EB2"/>
<path id="Vector_68" d="M70.5 110C71.8889 110 73.0694 110.486 74.0417 111.458C75.0139 112.454 75.5 113.634 75.5 115C74.1111 115 72.9306 114.514 71.9583 113.542C70.9861 112.569 70.5 111.389 70.5 110Z" fill="#667EB2"/>
<path id="Vector_69" d="M70.5 115C71.8889 115 73.0694 115.486 74.0417 116.458C75.0139 117.454 75.5 118.634 75.5 120C74.1111 120 72.9306 119.514 71.9583 118.542C70.9861 117.569 70.5 116.389 70.5 115Z" fill="#667EB2"/>
<path id="Vector_70" d="M70.5 120C71.8889 120 73.0694 120.486 74.0417 121.458C75.0139 122.454 75.5 123.634 75.5 125C74.1111 125 72.9306 124.514 71.9583 123.542C70.9861 122.569 70.5 121.389 70.5 120Z" fill="#667EB2"/>
<path id="Vector_71" d="M70.5 125C71.8889 125 73.0694 125.486 74.0417 126.458C75.0139 127.454 75.5 128.634 75.5 130C74.1111 130 72.9306 129.514 71.9583 128.542C70.9861 127.569 70.5 126.389 70.5 125Z" fill="#667EB2"/>
<path id="Vector_72" d="M40.5 130C41.8889 130 43.0694 130.486 44.0417 131.458C45.0139 132.454 45.5 133.634 45.5 135C44.1111 135 42.9306 134.514 41.9583 133.542C40.9861 132.569 40.5 131.389 40.5 130Z" fill="#667EB2"/>
<path id="Vector_73" d="M70.5 140C71.8889 140 73.0694 140.486 74.0417 141.458C75.0139 142.454 75.5 143.634 75.5 145C74.1111 145 72.9306 144.514 71.9583 143.542C70.9861 142.569 70.5 141.389 70.5 140Z" fill="#667EB2"/>
<path id="Vector_74" d="M70.5 150C71.8889 150 73.0694 150.486 74.0417 151.458C75.0139 152.454 75.5 153.634 75.5 155C74.1111 155 72.9306 154.514 71.9583 153.542C70.9861 152.569 70.5 151.389 70.5 150Z" fill="#667EB2"/>
<path id="Vector_75" d="M40.5 135C41.8889 135 43.0694 135.486 44.0417 136.458C45.0139 137.454 45.5 138.634 45.5 140C44.1111 140 42.9306 139.514 41.9583 138.542C40.9861 137.569 40.5 136.389 40.5 135Z" fill="#667EB2"/>
<path id="Vector_76" d="M110.5 135C111.889 135 113.069 135.486 114.042 136.458C115.014 137.454 115.5 138.634 115.5 140C114.111 140 112.931 139.514 111.958 138.542C110.986 137.569 110.5 136.389 110.5 135Z" fill="#667EB2"/>
<path id="Vector_77" d="M110.5 130C111.889 130 113.069 130.486 114.042 131.458C115.014 132.454 115.5 133.634 115.5 135C114.111 135 112.931 134.514 111.958 133.542C110.986 132.569 110.5 131.389 110.5 130Z" fill="#667EB2"/>
<path id="Vector_78" d="M40.5 140C41.8889 140 43.0694 140.486 44.0417 141.458C45.0139 142.454 45.5 143.634 45.5 145C44.1111 145 42.9306 144.514 41.9583 143.542C40.9861 142.569 40.5 141.389 40.5 140Z" fill="#667EB2"/>
<path id="Vector_79" d="M110.5 140C111.889 140 113.069 140.486 114.042 141.458C115.014 142.454 115.5 143.634 115.5 145C114.111 145 112.931 144.514 111.958 143.542C110.986 142.569 110.5 141.389 110.5 140Z" fill="#667EB2"/>
<path id="Vector_80" d="M70.5 145C71.8889 145 73.0694 145.486 74.0417 146.458C75.0139 147.454 75.5 148.634 75.5 150C74.1111 150 72.9306 149.514 71.9583 148.542C70.9861 147.569 70.5 146.389 70.5 145Z" fill="#667EB2"/>
<path id="Vector_81" d="M70.5 155C71.8889 155 73.0694 155.486 74.0417 156.458C75.0139 157.454 75.5 158.634 75.5 160C74.1111 160 72.9306 159.514 71.9583 158.542C70.9861 157.569 70.5 156.389 70.5 155Z" fill="#667EB2"/>
<path id="Vector_82" d="M140.5 145C141.889 145 143.069 145.486 144.042 146.458C145.014 147.454 145.5 148.634 145.5 150C144.111 150 142.931 149.514 141.958 148.542C140.986 147.569 140.5 146.389 140.5 145Z" fill="#667EB2"/>
<path id="Vector_83" d="M40.5 145C41.8889 145 43.0694 145.486 44.0417 146.458C45.0139 147.454 45.5 148.634 45.5 150C44.1111 150 42.9306 149.514 41.9583 148.542C40.9861 147.569 40.5 146.389 40.5 145Z" fill="#667EB2"/>
<path id="Vector_84" d="M140.5 150C141.889 150 143.069 150.486 144.042 151.458C145.014 152.454 145.5 153.634 145.5 155C144.111 155 142.931 154.514 141.958 153.542C140.986 152.569 140.5 151.389 140.5 150Z" fill="#667EB2"/>
<path id="Vector_85" d="M40.5 150C41.8889 150 43.0694 150.486 44.0417 151.458C45.0139 152.454 45.5 153.634 45.5 155C44.1111 155 42.9306 154.514 41.9583 153.542C40.9861 152.569 40.5 151.389 40.5 150Z" fill="#667EB2"/>
<path id="Vector_86" d="M40.5 155C41.8889 155 43.0694 155.486 44.0417 156.458C45.0139 157.454 45.5 158.634 45.5 160C44.1111 160 42.9306 159.514 41.9583 158.542C40.9861 157.569 40.5 156.389 40.5 155Z" fill="#667EB2"/>
<path id="Vector_87" d="M110.5 155C111.889 155 113.069 155.486 114.042 156.458C115.014 157.454 115.5 158.634 115.5 160C114.111 160 112.931 159.514 111.958 158.542C110.986 157.569 110.5 156.389 110.5 155Z" fill="#667EB2"/>
<path id="Vector_88" d="M100.5 155C101.889 155 103.069 155.486 104.042 156.458C105.014 157.454 105.5 158.634 105.5 160C104.111 160 102.931 159.514 101.958 158.542C100.986 157.569 100.5 156.389 100.5 155Z" fill="#667EB2"/>
<path id="Vector_89" d="M100.5 160C101.889 160 103.069 160.486 104.042 161.458C105.014 162.454 105.5 163.634 105.5 165C104.111 165 102.931 164.514 101.958 163.542C100.986 162.569 100.5 161.389 100.5 160Z" fill="#667EB2"/>
<path id="Vector_90" d="M110.5 160C111.889 160 113.069 160.486 114.042 161.458C115.014 162.454 115.5 163.634 115.5 165C114.111 165 112.931 164.514 111.958 163.542C110.986 162.569 110.5 161.389 110.5 160Z" fill="#667EB2"/>
<path id="Vector_91" d="M70.5 160C71.8889 160 73.0694 160.486 74.0417 161.458C75.0139 162.454 75.5 163.634 75.5 165C74.1111 165 72.9306 164.514 71.9583 163.542C70.9861 162.569 70.5 161.389 70.5 160Z" fill="#667EB2"/>
<path id="Vector_92" d="M70.5 165C71.8889 165 73.0694 165.486 74.0417 166.458C75.0139 167.454 75.5 168.634 75.5 170C74.1111 170 72.9306 169.514 71.9583 168.542C70.9861 167.569 70.5 166.389 70.5 165Z" fill="#667EB2"/>
<path id="Vector_93" d="M70.5 170C71.8889 170 73.0694 170.486 74.0417 171.458C75.0139 172.454 75.5 173.634 75.5 175C74.1111 175 72.9306 174.514 71.9583 173.542C70.9861 172.569 70.5 171.389 70.5 170Z" fill="#667EB2"/>
<path id="Vector_94" d="M70.5 175C71.8889 175 73.0694 175.486 74.0417 176.458C75.0139 177.454 75.5 178.634 75.5 180C74.1111 180 72.9306 179.514 71.9583 178.542C70.9861 177.569 70.5 176.389 70.5 175Z" fill="#667EB2"/>
<path id="Vector_95" d="M70.5 180C71.8889 180 73.0694 180.486 74.0417 181.458C75.0139 182.454 75.5 183.634 75.5 185C74.1111 185 72.9306 184.514 71.9583 183.542C70.9861 182.569 70.5 181.389 70.5 180Z" fill="#667EB2"/>
<path id="Vector_96" d="M70.5 185C71.8889 185 73.0694 185.486 74.0417 186.458C75.0139 187.454 75.5 188.634 75.5 190C74.1111 190 72.9306 189.514 71.9583 188.542C70.9861 187.569 70.5 186.389 70.5 185Z" fill="#667EB2"/>
<path id="Vector_97" d="M70.5 190C71.8889 190 73.0694 190.486 74.0417 191.458C75.0139 192.454 75.5 193.634 75.5 195C74.1111 195 72.9306 194.514 71.9583 193.542C70.9861 192.569 70.5 191.389 70.5 190Z" fill="#667EB2"/>
<path id="Vector_98" d="M40.5 160C41.8889 160 43.0694 160.486 44.0417 161.458C45.0139 162.454 45.5 163.634 45.5 165C44.1111 165 42.9306 164.514 41.9583 163.542C40.9861 162.569 40.5 161.389 40.5 160Z" fill="#667EB2"/>
<path id="Vector_99" d="M80.5 70C81.8889 70 83.0694 70.4861 84.0417 71.4583C85.0139 72.4537 85.5 73.6343 85.5 75C84.1111 75 82.9306 74.5139 81.9583 73.5417C80.9861 72.5694 80.5 71.3889 80.5 70Z" fill="#667EB2"/>
<path id="Vector_100" d="M80.5 65C81.8889 65 83.0694 65.4861 84.0417 66.4583C85.0139 67.4537 85.5 68.6343 85.5 70C84.1111 70 82.9306 69.5139 81.9583 68.5417C80.9861 67.5694 80.5 66.3889 80.5 65Z" fill="#667EB2"/>
<path id="Vector_101" d="M80.5 80C81.8889 80 83.0694 80.4861 84.0417 81.4583C85.0139 82.4537 85.5 83.6343 85.5 85C84.1111 85 82.9306 84.5139 81.9583 83.5417C80.9861 82.5694 80.5 81.3889 80.5 80Z" fill="#667EB2"/>
<path id="Vector_102" d="M80.5 75C81.8889 75 83.0694 75.4861 84.0417 76.4583C85.0139 77.4537 85.5 78.6343 85.5 80C84.1111 80 82.9306 79.5139 81.9583 78.5417C80.9861 77.5694 80.5 76.3889 80.5 75Z" fill="#667EB2"/>
<path id="Vector_103" d="M80.5 85C81.8889 85 83.0694 85.4861 84.0417 86.4583C85.0139 87.4537 85.5 88.6343 85.5 90C84.1111 90 82.9306 89.5139 81.9583 88.5417C80.9861 87.5694 80.5 86.3889 80.5 85Z" fill="#667EB2"/>
<path id="Vector_104" d="M80.5 125C81.8889 125 83.0694 125.486 84.0417 126.458C85.0139 127.454 85.5 128.634 85.5 130C84.1111 130 82.9306 129.514 81.9583 128.542C80.9861 127.569 80.5 126.389 80.5 125Z" fill="#667EB2"/>
<path id="Vector_105" d="M80.5 120C81.8889 120 83.0694 120.486 84.0417 121.458C85.0139 122.454 85.5 123.634 85.5 125C84.1111 125 82.9306 124.514 81.9583 123.542C80.9861 122.569 80.5 121.389 80.5 120Z" fill="#667EB2"/>
<path id="Vector_106" d="M80.5 130C81.8889 130 83.0694 130.486 84.0417 131.458C85.0139 132.454 85.5 133.634 85.5 135C84.1111 135 82.9306 134.514 81.9583 133.542C80.9861 132.569 80.5 131.389 80.5 130Z" fill="#667EB2"/>
<path id="Vector_107" d="M50.5 135C51.8889 135 53.0694 135.486 54.0417 136.458C55.0139 137.454 55.5 138.634 55.5 140C54.1111 140 52.9306 139.514 51.9583 138.542C50.9861 137.569 50.5 136.389 50.5 135Z" fill="#667EB2"/>
<path id="Vector_108" d="M120.5 135C121.889 135 123.069 135.486 124.042 136.458C125.014 137.454 125.5 138.634 125.5 140C124.111 140 122.931 139.514 121.958 138.542C120.986 137.569 120.5 136.389 120.5 135Z" fill="#667EB2"/>
<path id="Vector_109" d="M120.5 130C121.889 130 123.069 130.486 124.042 131.458C125.014 132.454 125.5 133.634 125.5 135C124.111 135 122.931 134.514 121.958 133.542C120.986 132.569 120.5 131.389 120.5 130Z" fill="#667EB2"/>
<path id="Vector_110" d="M50.5 140C51.8889 140 53.0694 140.486 54.0417 141.458C55.0139 142.454 55.5 143.634 55.5 145C54.1111 145 52.9306 144.514 51.9583 143.542C50.9861 142.569 50.5 141.389 50.5 140Z" fill="#667EB2"/>
<path id="Vector_111" d="M120.5 140C121.889 140 123.069 140.486 124.042 141.458C125.014 142.454 125.5 143.634 125.5 145C124.111 145 122.931 144.514 121.958 143.542C120.986 142.569 120.5 141.389 120.5 140Z" fill="#667EB2"/>
<path id="Vector_112" d="M120.5 145C121.889 145 123.069 145.486 124.042 146.458C125.014 147.454 125.5 148.634 125.5 150C124.111 150 122.931 149.514 121.958 148.542C120.986 147.569 120.5 146.389 120.5 145Z" fill="#667EB2"/>
<path id="Vector_113" d="M80.5 145C81.8889 145 83.0694 145.486 84.0417 146.458C85.0139 147.454 85.5 148.634 85.5 150C84.1111 150 82.9306 149.514 81.9583 148.542C80.9861 147.569 80.5 146.389 80.5 145Z" fill="#667EB2"/>
<path id="Vector_114" d="M50.5 145C51.8889 145 53.0694 145.486 54.0417 146.458C55.0139 147.454 55.5 148.634 55.5 150C54.1111 150 52.9306 149.514 51.9583 148.542C50.9861 147.569 50.5 146.389 50.5 145Z" fill="#667EB2"/>
<path id="Vector_115" d="M80.5 150C81.8889 150 83.0694 150.486 84.0417 151.458C85.0139 152.454 85.5 153.634 85.5 155C84.1111 155 82.9306 154.514 81.9583 153.542C80.9861 152.569 80.5 151.389 80.5 150Z" fill="#667EB2"/>
<path id="Vector_116" d="M50.5 150C51.8889 150 53.0694 150.486 54.0417 151.458C55.0139 152.454 55.5 153.634 55.5 155C54.1111 155 52.9306 154.514 51.9583 153.542C50.9861 152.569 50.5 151.389 50.5 150Z" fill="#667EB2"/>
<path id="Vector_117" d="M80.5 155C81.8889 155 83.0694 155.486 84.0417 156.458C85.0139 157.454 85.5 158.634 85.5 160C84.1111 160 82.9306 159.514 81.9583 158.542C80.9861 157.569 80.5 156.389 80.5 155Z" fill="#667EB2"/>
<path id="Vector_118" d="M50.5 155C51.8889 155 53.0694 155.486 54.0417 156.458C55.0139 157.454 55.5 158.634 55.5 160C54.1111 160 52.9306 159.514 51.9583 158.542C50.9861 157.569 50.5 156.389 50.5 155Z" fill="#667EB2"/>
<path id="Vector_119" d="M80.5 160C81.8889 160 83.0694 160.486 84.0417 161.458C85.0139 162.454 85.5 163.634 85.5 165C84.1111 165 82.9306 164.514 81.9583 163.542C80.9861 162.569 80.5 161.389 80.5 160Z" fill="#667EB2"/>
<path id="Vector_120" d="M80.5 165C81.8889 165 83.0694 165.486 84.0417 166.458C85.0139 167.454 85.5 168.634 85.5 170C84.1111 170 82.9306 169.514 81.9583 168.542C80.9861 167.569 80.5 166.389 80.5 165Z" fill="#667EB2"/>
<path id="Vector_121" d="M80.5 170C81.8889 170 83.0694 170.486 84.0417 171.458C85.0139 172.454 85.5 173.634 85.5 175C84.1111 175 82.9306 174.514 81.9583 173.542C80.9861 172.569 80.5 171.389 80.5 170Z" fill="#667EB2"/>
<path id="Vector_122" d="M80.5 175C81.8889 175 83.0694 175.486 84.0417 176.458C85.0139 177.454 85.5 178.634 85.5 180C84.1111 180 82.9306 179.514 81.9583 178.542C80.9861 177.569 80.5 176.389 80.5 175Z" fill="#667EB2"/>
<path id="Vector_123" d="M80.5 180C81.8889 180 83.0694 180.486 84.0417 181.458C85.0139 182.454 85.5 183.634 85.5 185C84.1111 185 82.9306 184.514 81.9583 183.542C80.9861 182.569 80.5 181.389 80.5 180Z" fill="#667EB2"/>
<path id="Vector_124" d="M80.5 185C81.8889 185 83.0694 185.486 84.0417 186.458C85.0139 187.454 85.5 188.634 85.5 190C84.1111 190 82.9306 189.514 81.9583 188.542C80.9861 187.569 80.5 186.389 80.5 185Z" fill="#667EB2"/>
<path id="Vector_125" d="M80.5 190C81.8889 190 83.0694 190.486 84.0417 191.458C85.0139 192.454 85.5 193.634 85.5 195C84.1111 195 82.9306 194.514 81.9583 193.542C80.9861 192.569 80.5 191.389 80.5 190Z" fill="#667EB2"/>
<path id="Vector_126" d="M50.5 160C51.8889 160 53.0694 160.486 54.0417 161.458C55.0139 162.454 55.5 163.634 55.5 165C54.1111 165 52.9306 164.514 51.9583 163.542C50.9861 162.569 50.5 161.389 50.5 160Z" fill="#667EB2"/>
<path id="Vector_127" d="M120.5 160C121.889 160 123.069 160.486 124.042 161.458C125.014 162.454 125.5 163.634 125.5 165C124.111 165 122.931 164.514 121.958 163.542C120.986 162.569 120.5 161.389 120.5 160Z" fill="#667EB2"/>
<path id="Vector_128" d="M100.5 90C99.1111 90 97.9306 90.4861 96.9583 91.4583C95.9861 92.4537 95.5 93.6343 95.5 95C96.8889 95 98.0694 94.5139 99.0417 93.5417C100.014 92.5694 100.5 91.3889 100.5 90Z" fill="#667EB2"/>
<path id="Vector_129" d="M100.5 105C99.1111 105 97.9306 105.486 96.9583 106.458C95.9861 107.454 95.5 108.634 95.5 110C96.8889 110 98.0694 109.514 99.0417 108.542C100.014 107.569 100.5 106.389 100.5 105Z" fill="#667EB2"/>
<path id="Vector_130" d="M100.5 85C99.1111 85 97.9306 85.4861 96.9583 86.4583C95.9861 87.4537 95.5 88.6343 95.5 90C96.8889 90 98.0694 89.5139 99.0417 88.5417C100.014 87.5694 100.5 86.3889 100.5 85Z" fill="#667EB2"/>
<path id="Vector_131" d="M100.5 110C99.1111 110 97.9306 110.486 96.9583 111.458C95.9861 112.454 95.5 113.634 95.5 115C96.8889 115 98.0694 114.514 99.0417 113.542C100.014 112.569 100.5 111.389 100.5 110Z" fill="#667EB2"/>
<path id="Vector_132" d="M100.5 115C99.1111 115 97.9306 115.486 96.9583 116.458C95.9861 117.454 95.5 118.634 95.5 120C96.8889 120 98.0694 119.514 99.0417 118.542C100.014 117.569 100.5 116.389 100.5 115Z" fill="#667EB2"/>
<path id="Vector_133" d="M100.5 120C99.1111 120 97.9306 120.486 96.9583 121.458C95.9861 122.454 95.5 123.634 95.5 125C96.8889 125 98.0694 124.514 99.0417 123.542C100.014 122.569 100.5 121.389 100.5 120Z" fill="#667EB2"/>
<path id="Vector_134" d="M100.5 125C99.1111 125 97.9306 125.486 96.9583 126.458C95.9861 127.454 95.5 128.634 95.5 130C96.8889 130 98.0694 129.514 99.0417 128.542C100.014 127.569 100.5 126.389 100.5 125Z" fill="#667EB2"/>
<path id="Vector_135" d="M110.5 70C109.111 70 107.931 70.4861 106.958 71.4583C105.986 72.4537 105.5 73.6343 105.5 75C106.889 75 108.069 74.5139 109.042 73.5417C110.014 72.5694 110.5 71.3889 110.5 70Z" fill="#667EB2"/>
<path id="Vector_136" d="M110.5 80C109.111 80 107.931 80.4861 106.958 81.4583C105.986 82.4537 105.5 83.6343 105.5 85C106.889 85 108.069 84.5139 109.042 83.5417C110.014 82.5694 110.5 81.3889 110.5 80Z" fill="#667EB2"/>
<path id="Vector_137" d="M110.5 90C109.111 90 107.931 90.4861 106.958 91.4583C105.986 92.4537 105.5 93.6343 105.5 95C106.889 95 108.069 94.5139 109.042 93.5417C110.014 92.5694 110.5 91.3889 110.5 90Z" fill="#667EB2"/>
<path id="Vector_138" d="M110.5 75C109.111 75 107.931 75.4861 106.958 76.4583C105.986 77.4537 105.5 78.6343 105.5 80C106.889 80 108.069 79.5139 109.042 78.5417C110.014 77.5694 110.5 76.3889 110.5 75Z" fill="#667EB2"/>
<path id="Vector_139" d="M110.5 85C109.111 85 107.931 85.4861 106.958 86.4583C105.986 87.4537 105.5 88.6343 105.5 90C106.889 90 108.069 89.5139 109.042 88.5417C110.014 87.5694 110.5 86.3889 110.5 85Z" fill="#667EB2"/>
<path id="Vector_140" d="M110.5 95C109.111 95 107.931 95.4861 106.958 96.4583C105.986 97.4537 105.5 98.6343 105.5 100C106.889 100 108.069 99.5139 109.042 98.5417C110.014 97.5694 110.5 96.3889 110.5 95Z" fill="#667EB2"/>
<path id="Vector_141" d="M110.5 110C109.111 110 107.931 110.486 106.958 111.458C105.986 112.454 105.5 113.634 105.5 115C106.889 115 108.069 114.514 109.042 113.542C110.014 112.569 110.5 111.389 110.5 110Z" fill="#667EB2"/>
<path id="Vector_142" d="M110.5 115C109.111 115 107.931 115.486 106.958 116.458C105.986 117.454 105.5 118.634 105.5 120C106.889 120 108.069 119.514 109.042 118.542C110.014 117.569 110.5 116.389 110.5 115Z" fill="#667EB2"/>
<path id="Vector_143" d="M110.5 120C109.111 120 107.931 120.486 106.958 121.458C105.986 122.454 105.5 123.634 105.5 125C106.889 125 108.069 124.514 109.042 123.542C110.014 122.569 110.5 121.389 110.5 120Z" fill="#667EB2"/>
<path id="Vector_144" d="M110.5 125C109.111 125 107.931 125.486 106.958 126.458C105.986 127.454 105.5 128.634 105.5 130C106.889 130 108.069 129.514 109.042 128.542C110.014 127.569 110.5 126.389 110.5 125Z" fill="#667EB2"/>
<path id="Vector_145" d="M50.5 70C49.1111 70 47.9306 70.4861 46.9583 71.4583C45.9861 72.4537 45.5 73.6343 45.5 75C46.8889 75 48.0694 74.5139 49.0417 73.5417C50.0139 72.5694 50.5 71.3889 50.5 70Z" fill="#667EB2"/>
<path id="Vector_146" d="M40.5 85C39.1111 85 37.9306 85.4861 36.9583 86.4583C35.9861 87.4537 35.5 88.6343 35.5 90C36.8889 90 38.0694 89.5139 39.0417 88.5417C40.0139 87.5694 40.5 86.3889 40.5 85Z" fill="#667EB2"/>
<path id="Vector_147" d="M120.5 90C119.111 90 117.931 90.4861 116.958 91.4583C115.986 92.4537 115.5 93.6343 115.5 95C116.889 95 118.069 94.5139 119.042 93.5417C120.014 92.5694 120.5 91.3889 120.5 90Z" fill="#667EB2"/>
<path id="Vector_148" d="M40.5 95C39.1111 95 37.9306 95.4861 36.9583 96.4583C35.9861 97.4537 35.5 98.6343 35.5 100C36.8889 100 38.0694 99.5139 39.0417 98.5417C40.0139 97.5694 40.5 96.3889 40.5 95Z" fill="#667EB2"/>
<path id="Vector_149" d="M40.5 105C39.1111 105 37.9306 105.486 36.9583 106.458C35.9861 107.454 35.5 108.634 35.5 110C36.8889 110 38.0694 109.514 39.0417 108.542C40.0139 107.569 40.5 106.389 40.5 105Z" fill="#667EB2"/>
<path id="Vector_150" d="M30.5 105C29.1111 105 27.9306 105.486 26.9583 106.458C25.9861 107.454 25.5 108.634 25.5 110C26.8889 110 28.0694 109.514 29.0417 108.542C30.0139 107.569 30.5 106.389 30.5 105Z" fill="#667EB2"/>
<path id="Vector_151" d="M30.5 110C29.1111 110 27.9306 110.486 26.9583 111.458C25.9861 112.454 25.5 113.634 25.5 115C26.8889 115 28.0694 114.514 29.0417 113.542C30.0139 112.569 30.5 111.389 30.5 110Z" fill="#667EB2"/>
<path id="Vector_152" d="M50.5 75C49.1111 75 47.9306 75.4861 46.9583 76.4583C45.9861 77.4537 45.5 78.6343 45.5 80C46.8889 80 48.0694 79.5139 49.0417 78.5417C50.0139 77.5694 50.5 76.3889 50.5 75Z" fill="#667EB2"/>
<path id="Vector_153" d="M40.5 90C39.1111 90 37.9306 90.4861 36.9583 91.4583C35.9861 92.4537 35.5 93.6343 35.5 95C36.8889 95 38.0694 94.5139 39.0417 93.5417C40.0139 92.5694 40.5 91.3889 40.5 90Z" fill="#667EB2"/>
<path id="Vector_154" d="M120.5 95C119.111 95 117.931 95.4861 116.958 96.4583C115.986 97.4537 115.5 98.6343 115.5 100C116.889 100 118.069 99.5139 119.042 98.5417C120.014 97.5694 120.5 96.3889 120.5 95Z" fill="#667EB2"/>
<path id="Vector_155" d="M40.5 100C39.1111 100 37.9306 100.486 36.9583 101.458C35.9861 102.454 35.5 103.634 35.5 105C36.8889 105 38.0694 104.514 39.0417 103.542C40.0139 102.569 40.5 101.389 40.5 100Z" fill="#667EB2"/>
<path id="Vector_156" d="M30.5 100C29.1111 100 27.9306 100.486 26.9583 101.458C25.9861 102.454 25.5 103.634 25.5 105C26.8889 105 28.0694 104.514 29.0417 103.542C30.0139 102.569 30.5 101.389 30.5 100Z" fill="#667EB2"/>
<path id="Vector_157" d="M30.5 95C29.1111 95 27.9306 95.4861 26.9583 96.4583C25.9861 97.4537 25.5 98.6343 25.5 100C26.8889 100 28.0694 99.5139 29.0417 98.5417C30.0139 97.5694 30.5 96.3889 30.5 95Z" fill="#667EB2"/>
<path id="Vector_158" d="M50.5 110C49.1111 110 47.9306 110.486 46.9583 111.458C45.9861 112.454 45.5 113.634 45.5 115C46.8889 115 48.0694 114.514 49.0417 113.542C50.0139 112.569 50.5 111.389 50.5 110Z" fill="#667EB2"/>
<path id="Vector_159" d="M50.5 115C49.1111 115 47.9306 115.486 46.9583 116.458C45.9861 117.454 45.5 118.634 45.5 120C46.8889 120 48.0694 119.514 49.0417 118.542C50.0139 117.569 50.5 116.389 50.5 115Z" fill="#667EB2"/>
<path id="Vector_160" d="M50.5 120C49.1111 120 47.9306 120.486 46.9583 121.458C45.9861 122.454 45.5 123.634 45.5 125C46.8889 125 48.0694 124.514 49.0417 123.542C50.0139 122.569 50.5 121.389 50.5 120Z" fill="#667EB2"/>
<path id="Vector_161" d="M40.5 110C39.1111 110 37.9306 110.486 36.9583 111.458C35.9861 112.454 35.5 113.634 35.5 115C36.8889 115 38.0694 114.514 39.0417 113.542C40.0139 112.569 40.5 111.389 40.5 110Z" fill="#667EB2"/>
<path id="Vector_162" d="M40.5 115C39.1111 115 37.9306 115.486 36.9583 116.458C35.9861 117.454 35.5 118.634 35.5 120C36.8889 120 38.0694 119.514 39.0417 118.542C40.0139 117.569 40.5 116.389 40.5 115Z" fill="#667EB2"/>
<path id="Vector_163" d="M130.5 115C129.111 115 127.931 115.486 126.958 116.458C125.986 117.454 125.5 118.634 125.5 120C126.889 120 128.069 119.514 129.042 118.542C130.014 117.569 130.5 116.389 130.5 115Z" fill="#667EB2"/>
<path id="Vector_164" d="M130.5 120C129.111 120 127.931 120.486 126.958 121.458C125.986 122.454 125.5 123.634 125.5 125C126.889 125 128.069 124.514 129.042 123.542C130.014 122.569 130.5 121.389 130.5 120Z" fill="#667EB2"/>
<path id="Vector_165" d="M130.5 125C129.111 125 127.931 125.486 126.958 126.458C125.986 127.454 125.5 128.634 125.5 130C126.889 130 128.069 129.514 129.042 128.542C130.014 127.569 130.5 126.389 130.5 125Z" fill="#667EB2"/>
<path id="Vector_166" d="M70.5 3.97232e-08C71.8889 1.61144e-07 73.0694 0.486111 74.0417 1.45833C75.0139 2.4537 75.5 3.63426 75.5 5C74.1111 5 72.9306 4.51389 71.9583 3.54167C70.9861 2.56944 70.5 1.38889 70.5 3.97232e-08Z" fill="#667EB2"/>
<path id="Vector_167" d="M70.5 5C71.8889 5 73.0694 5.48611 74.0417 6.45833C75.0139 7.4537 75.5 8.63426 75.5 10C74.1111 10 72.9306 9.51389 71.9583 8.54167C70.9861 7.56944 70.5 6.38889 70.5 5Z" fill="#667EB2"/>
<path id="Vector_168" d="M70.5 20C71.8889 20 73.0694 20.4861 74.0417 21.4583C75.0139 22.4537 75.5 23.6343 75.5 25C74.1111 25 72.9306 24.5139 71.9583 23.5417C70.9861 22.5694 70.5 21.3889 70.5 20Z" fill="#667EB2"/>
<path id="Vector_169" d="M80.5 20C81.8889 20 83.0694 20.4861 84.0417 21.4583C85.0139 22.4537 85.5 23.6343 85.5 25C84.1111 25 82.9306 24.5139 81.9583 23.5417C80.9861 22.5694 80.5 21.3889 80.5 20Z" fill="#667EB2"/>
<path id="Vector_170" d="M70.5 35C71.8889 35 73.0694 35.4861 74.0417 36.4583C75.0139 37.4537 75.5 38.6343 75.5 40C74.1111 40 72.9306 39.5139 71.9583 38.5417C70.9861 37.5694 70.5 36.3889 70.5 35Z" fill="#667EB2"/>
<path id="Vector_171" d="M80.5 35C81.8889 35 83.0694 35.4861 84.0417 36.4583C85.0139 37.4537 85.5 38.6343 85.5 40C84.1111 40 82.9306 39.5139 81.9583 38.5417C80.9861 37.5694 80.5 36.3889 80.5 35Z" fill="#667EB2"/>
<path id="Vector_172" d="M90.5 35C91.8889 35 93.0694 35.4861 94.0417 36.4583C95.0139 37.4537 95.5 38.6343 95.5 40C94.1111 40 92.9306 39.5139 91.9583 38.5417C90.9861 37.5694 90.5 36.3889 90.5 35Z" fill="#667EB2"/>
<path id="Vector_173" d="M90.5 65C91.8889 65 93.0694 65.4861 94.0417 66.4583C95.0139 67.4537 95.5 68.6343 95.5 70C94.1111 70 92.9306 69.5139 91.9583 68.5417C90.9861 67.5694 90.5 66.3889 90.5 65Z" fill="#667EB2"/>
<path id="Vector_174" d="M70.5 10C71.8889 10 73.0694 10.4861 74.0417 11.4583C75.0139 12.4537 75.5 13.6343 75.5 15C74.1111 15 72.9306 14.5139 71.9583 13.5417C70.9861 12.5694 70.5 11.3889 70.5 10Z" fill="#667EB2"/>
<path id="Vector_175" d="M70.5 25C71.8889 25 73.0694 25.4861 74.0417 26.4583C75.0139 27.4537 75.5 28.6343 75.5 30C74.1111 30 72.9306 29.5139 71.9583 28.5417C70.9861 27.5694 70.5 26.3889 70.5 25Z" fill="#667EB2"/>
<path id="Vector_176" d="M70.5 30C71.8889 30 73.0694 30.4861 74.0417 31.4583C75.0139 32.4537 75.5 33.6343 75.5 35C74.1111 35 72.9306 34.5139 71.9583 33.5417C70.9861 32.5694 70.5 31.3889 70.5 30Z" fill="#667EB2"/>
<path id="Vector_177" d="M80.5 25C81.8889 25 83.0694 25.4861 84.0417 26.4583C85.0139 27.4537 85.5 28.6343 85.5 30C84.1111 30 82.9306 29.5139 81.9583 28.5417C80.9861 27.5694 80.5 26.3889 80.5 25Z" fill="#667EB2"/>
<path id="Vector_178" d="M70.5 40C71.8889 40 73.0694 40.4861 74.0417 41.4583C75.0139 42.4537 75.5 43.6343 75.5 45C74.1111 45 72.9306 44.5139 71.9583 43.5417C70.9861 42.5694 70.5 41.3889 70.5 40Z" fill="#667EB2"/>
<path id="Vector_179" d="M80.5 40C81.8889 40 83.0694 40.4861 84.0417 41.4583C85.0139 42.4537 85.5 43.6343 85.5 45C84.1111 45 82.9306 44.5139 81.9583 43.5417C80.9861 42.5694 80.5 41.3889 80.5 40Z" fill="#667EB2"/>
<path id="Vector_180" d="M90.5 40C91.8889 40 93.0694 40.4861 94.0417 41.4583C95.0139 42.4537 95.5 43.6343 95.5 45C94.1111 45 92.9306 44.5139 91.9583 43.5417C90.9861 42.5694 90.5 41.3889 90.5 40Z" fill="#667EB2"/>
<path id="Vector_181" d="M70.5 55C71.8889 55 73.0694 55.4861 74.0417 56.4583C75.0139 57.4537 75.5 58.6343 75.5 60C74.1111 60 72.9306 59.5139 71.9583 58.5417C70.9861 57.5694 70.5 56.3889 70.5 55Z" fill="#667EB2"/>
<path id="Vector_182" d="M80.5 60C81.8889 60 83.0694 60.4861 84.0417 61.4583C85.0139 62.4537 85.5 63.6343 85.5 65C84.1111 65 82.9306 64.5139 81.9583 63.5417C80.9861 62.5694 80.5 61.3889 80.5 60Z" fill="#667EB2"/>
<path id="Vector_183" d="M70.5 15C71.8889 15 73.0694 15.4861 74.0417 16.4583C75.0139 17.4537 75.5 18.6343 75.5 20C74.1111 20 72.9306 19.5139 71.9583 18.5417C70.9861 17.5694 70.5 16.3889 70.5 15Z" fill="#667EB2"/>
<path id="Vector_184" d="M80.5 15C81.8889 15 83.0694 15.4861 84.0417 16.4583C85.0139 17.4537 85.5 18.6343 85.5 20C84.1111 20 82.9306 19.5139 81.9583 18.5417C80.9861 17.5694 80.5 16.3889 80.5 15Z" fill="#667EB2"/>
<path id="Vector_185" d="M80.5 5C81.8889 5 83.0694 5.48611 84.0417 6.45833C85.0139 7.4537 85.5 8.63426 85.5 10C84.1111 10 82.9306 9.51389 81.9583 8.54167C80.9861 7.56944 80.5 6.38889 80.5 5Z" fill="#667EB2"/>
<path id="Vector_186" d="M80.5 30C81.8889 30 83.0694 30.4861 84.0417 31.4583C85.0139 32.4537 85.5 33.6343 85.5 35C84.1111 35 82.9306 34.5139 81.9583 33.5417C80.9861 32.5694 80.5 31.3889 80.5 30Z" fill="#667EB2"/>
<path id="Vector_187" d="M90.5 30C91.8889 30 93.0694 30.4861 94.0417 31.4583C95.0139 32.4537 95.5 33.6343 95.5 35C94.1111 35 92.9306 34.5139 91.9583 33.5417C90.9861 32.5694 90.5 31.3889 90.5 30Z" fill="#667EB2"/>
<path id="Vector_188" d="M80.5 45C81.8889 45 83.0694 45.4861 84.0417 46.4583C85.0139 47.4537 85.5 48.6343 85.5 50C84.1111 50 82.9306 49.5139 81.9583 48.5417C80.9861 47.5694 80.5 46.3889 80.5 45Z" fill="#667EB2"/>
<path id="Vector_189" d="M90.5 45C91.8889 45 93.0694 45.4861 94.0417 46.4583C95.0139 47.4537 95.5 48.6343 95.5 50C94.1111 50 92.9306 49.5139 91.9583 48.5417C90.9861 47.5694 90.5 46.3889 90.5 45Z" fill="#667EB2"/>
<path id="Vector_190" d="M90.5 60C91.8889 60 93.0694 60.4861 94.0417 61.4583C95.0139 62.4537 95.5 63.6343 95.5 65C94.1111 65 92.9306 64.5139 91.9583 63.5417C90.9861 62.5694 90.5 61.3889 90.5 60Z" fill="#667EB2"/>
<path id="Vector_191" d="M60.5 20C61.8889 20 63.0694 20.4861 64.0417 21.4583C65.0139 22.4537 65.5 23.6343 65.5 25C64.1111 25 62.9306 24.5139 61.9583 23.5417C60.9861 22.5694 60.5 21.3889 60.5 20Z" fill="#667EB2"/>
<path id="Vector_192" d="M100.5 50C101.889 50 103.069 50.4861 104.042 51.4583C105.014 52.4537 105.5 53.6343 105.5 55C104.111 55 102.931 54.5139 101.958 53.5417C100.986 52.5694 100.5 51.3889 100.5 50Z" fill="#667EB2"/>
<path id="Vector_193" d="M60.5 35C61.8889 35 63.0694 35.4861 64.0417 36.4583C65.0139 37.4537 65.5 38.6343 65.5 40C64.1111 40 62.9306 39.5139 61.9583 38.5417C60.9861 37.5694 60.5 36.3889 60.5 35Z" fill="#667EB2"/>
<path id="Vector_194" d="M50.5 50C51.8889 50 53.0694 50.4861 54.0417 51.4583C55.0139 52.4537 55.5 53.6343 55.5 55C54.1111 55 52.9306 54.5139 51.9583 53.5417C50.9861 52.5694 50.5 51.3889 50.5 50Z" fill="#667EB2"/>
<path id="Vector_195" d="M50.5 55C51.8889 55 53.0694 55.4861 54.0417 56.4583C55.0139 57.4537 55.5 58.6343 55.5 60C54.1111 60 52.9306 59.5139 51.9583 58.5417C50.9861 57.5694 50.5 56.3889 50.5 55Z" fill="#667EB2"/>
<path id="Vector_196" d="M60.5 50C61.8889 50 63.0694 50.4861 64.0417 51.4583C65.0139 52.4537 65.5 53.6343 65.5 55C64.1111 55 62.9306 54.5139 61.9583 53.5417C60.9861 52.5694 60.5 51.3889 60.5 50Z" fill="#667EB2"/>
<path id="Vector_197" d="M50.5 65C51.8889 65 53.0694 65.4861 54.0417 66.4583C55.0139 67.4537 55.5 68.6343 55.5 70C54.1111 70 52.9306 69.5139 51.9583 68.5417C50.9861 67.5694 50.5 66.3889 50.5 65Z" fill="#667EB2"/>
<path id="Vector_198" d="M60.5 25C61.8889 25 63.0694 25.4861 64.0417 26.4583C65.0139 27.4537 65.5 28.6343 65.5 30C64.1111 30 62.9306 29.5139 61.9583 28.5417C60.9861 27.5694 60.5 26.3889 60.5 25Z" fill="#667EB2"/>
<path id="Vector_199" d="M60.5 55C61.8889 55 63.0694 55.4861 64.0417 56.4583C65.0139 57.4537 65.5 58.6343 65.5 60C64.1111 60 62.9306 59.5139 61.9583 58.5417C60.9861 57.5694 60.5 56.3889 60.5 55Z" fill="#667EB2"/>
<path id="Vector_200" d="M100.5 65C101.889 65 103.069 65.4861 104.042 66.4583C105.014 67.4537 105.5 68.6343 105.5 70C104.111 70 102.931 69.5139 101.958 68.5417C100.986 67.5694 100.5 66.3889 100.5 65Z" fill="#667EB2"/>
<path id="Vector_201" d="M60.5 30C61.8889 30 63.0694 30.4861 64.0417 31.4583C65.0139 32.4537 65.5 33.6343 65.5 35C64.1111 35 62.9306 34.5139 61.9583 33.5417C60.9861 32.5694 60.5 31.3889 60.5 30Z" fill="#667EB2"/>
<path id="Vector_202" d="M50.5 60C51.8889 60 53.0694 60.4861 54.0417 61.4583C55.0139 62.4537 55.5 63.6343 55.5 65C54.1111 65 52.9306 64.5139 51.9583 63.5417C50.9861 62.5694 50.5 61.3889 50.5 60Z" fill="#667EB2"/>
<path id="Vector_203" d="M80.5 -3.97233e-08C79.1111 -1.61144e-07 77.9306 0.486111 76.9583 1.45833C75.9861 2.4537 75.5 3.63426 75.5 5C76.8889 5 78.0694 4.51389 79.0417 3.54167C80.0139 2.56944 80.5 1.38889 80.5 -3.97233e-08Z" fill="#667EB2"/>
<path id="Vector_204" d="M80.5 10C79.1111 10 77.9306 10.4861 76.9583 11.4583C75.9861 12.4537 75.5 13.6343 75.5 15C76.8889 15 78.0694 14.5139 79.0417 13.5417C80.0139 12.5694 80.5 11.3889 80.5 10Z" fill="#667EB2"/>
<path id="Vector_205" d="M80.5 25C79.1111 25 77.9306 25.4861 76.9583 26.4583C75.9861 27.4537 75.5 28.6343 75.5 30C76.8889 30 78.0694 29.5139 79.0417 28.5417C80.0139 27.5694 80.5 26.3889 80.5 25Z" fill="#667EB2"/>
<path id="Vector_206" d="M90.5 25C89.1111 25 87.9306 25.4861 86.9583 26.4583C85.9861 27.4537 85.5 28.6343 85.5 30C86.8889 30 88.0694 29.5139 89.0417 28.5417C90.0139 27.5694 90.5 26.3889 90.5 25Z" fill="#667EB2"/>
<path id="Vector_207" d="M80.5 40C79.1111 40 77.9306 40.4861 76.9583 41.4583C75.9861 42.4537 75.5 43.6343 75.5 45C76.8889 45 78.0694 44.5139 79.0417 43.5417C80.0139 42.5694 80.5 41.3889 80.5 40Z" fill="#667EB2"/>
<path id="Vector_208" d="M100.5 40C99.1111 40 97.9306 40.4861 96.9583 41.4583C95.9861 42.4537 95.5 43.6343 95.5 45C96.8889 45 98.0694 44.5139 99.0417 43.5417C100.014 42.5694 100.5 41.3889 100.5 40Z" fill="#667EB2"/>
<path id="Vector_209" d="M80.5 55C79.1111 55 77.9306 55.4861 76.9583 56.4583C75.9861 57.4537 75.5 58.6343 75.5 60C76.8889 60 78.0694 59.5139 79.0417 58.5417C80.0139 57.5694 80.5 56.3889 80.5 55Z" fill="#667EB2"/>
<path id="Vector_210" d="M80.5 5C79.1111 5 77.9306 5.48611 76.9583 6.45833C75.9861 7.4537 75.5 8.63426 75.5 10C76.8889 10 78.0694 9.51389 79.0417 8.54167C80.0139 7.56944 80.5 6.38889 80.5 5Z" fill="#667EB2"/>
<path id="Vector_211" d="M80.5 20C79.1111 20 77.9306 20.4861 76.9583 21.4583C75.9861 22.4537 75.5 23.6343 75.5 25C76.8889 25 78.0694 24.5139 79.0417 23.5417C80.0139 22.5694 80.5 21.3889 80.5 20Z" fill="#667EB2"/>
<path id="Vector_212" d="M90.5 20C89.1111 20 87.9306 20.4861 86.9583 21.4583C85.9861 22.4537 85.5 23.6343 85.5 25C86.8889 25 88.0694 24.5139 89.0417 23.5417C90.0139 22.5694 90.5 21.3889 90.5 20Z" fill="#667EB2"/>
<path id="Vector_213" d="M80.5 35C79.1111 35 77.9306 35.4861 76.9583 36.4583C75.9861 37.4537 75.5 38.6343 75.5 40C76.8889 40 78.0694 39.5139 79.0417 38.5417C80.0139 37.5694 80.5 36.3889 80.5 35Z" fill="#667EB2"/>
<path id="Vector_214" d="M90.5 35C89.1111 35 87.9306 35.4861 86.9583 36.4583C85.9861 37.4537 85.5 38.6343 85.5 40C86.8889 40 88.0694 39.5139 89.0417 38.5417C90.0139 37.5694 90.5 36.3889 90.5 35Z" fill="#667EB2"/>
<path id="Vector_215" d="M90.5 40C89.1111 40 87.9306 40.4861 86.9583 41.4583C85.9861 42.4537 85.5 43.6343 85.5 45C86.8889 45 88.0694 44.5139 89.0417 43.5417C90.0139 42.5694 90.5 41.3889 90.5 40Z" fill="#667EB2"/>
<path id="Vector_216" d="M100.5 50C99.1111 50 97.9306 50.4861 96.9583 51.4583C95.9861 52.4537 95.5 53.6343 95.5 55C96.8889 55 98.0694 54.5139 99.0417 53.5417C100.014 52.5694 100.5 51.3889 100.5 50Z" fill="#667EB2"/>
<path id="Vector_217" d="M80.5 65C79.1111 65 77.9306 65.4861 76.9583 66.4583C75.9861 67.4537 75.5 68.6343 75.5 70C76.8889 70 78.0694 69.5139 79.0417 68.5417C80.0139 67.5694 80.5 66.3889 80.5 65Z" fill="#667EB2"/>
<path id="Vector_218" d="M90.5 65C89.1111 65 87.9306 65.4861 86.9583 66.4583C85.9861 67.4537 85.5 68.6343 85.5 70C86.8889 70 88.0694 69.5139 89.0417 68.5417C90.0139 67.5694 90.5 66.3889 90.5 65Z" fill="#667EB2"/>
<path id="Vector_219" d="M80.5 15C79.1111 15 77.9306 15.4861 76.9583 16.4583C75.9861 17.4537 75.5 18.6343 75.5 20C76.8889 20 78.0694 19.5139 79.0417 18.5417C80.0139 17.5694 80.5 16.3889 80.5 15Z" fill="#667EB2"/>
<path id="Vector_220" d="M80.5 30C79.1111 30 77.9306 30.4861 76.9583 31.4583C75.9861 32.4537 75.5 33.6343 75.5 35C76.8889 35 78.0694 34.5139 79.0417 33.5417C80.0139 32.5694 80.5 31.3889 80.5 30Z" fill="#667EB2"/>
<path id="Vector_221" d="M90.5 30C89.1111 30 87.9306 30.4861 86.9583 31.4583C85.9861 32.4537 85.5 33.6343 85.5 35C86.8889 35 88.0694 34.5139 89.0417 33.5417C90.0139 32.5694 90.5 31.3889 90.5 30Z" fill="#667EB2"/>
<path id="Vector_222" d="M90.5 45C89.1111 45 87.9306 45.4861 86.9583 46.4583C85.9861 47.4537 85.5 48.6343 85.5 50C86.8889 50 88.0694 49.5139 89.0417 48.5417C90.0139 47.5694 90.5 46.3889 90.5 45Z" fill="#667EB2"/>
<path id="Vector_223" d="M100.5 45C99.1111 45 97.9306 45.4861 96.9583 46.4583C95.9861 47.4537 95.5 48.6343 95.5 50C96.8889 50 98.0694 49.5139 99.0417 48.5417C100.014 47.5694 100.5 46.3889 100.5 45Z" fill="#667EB2"/>
<path id="Vector_224" d="M80.5 60C79.1111 60 77.9306 60.4861 76.9583 61.4583C75.9861 62.4537 75.5 63.6343 75.5 65C76.8889 65 78.0694 64.5139 79.0417 63.5417C80.0139 62.5694 80.5 61.3889 80.5 60Z" fill="#667EB2"/>
<path id="Vector_225" d="M90.5 60C89.1111 60 87.9306 60.4861 86.9583 61.4583C85.9861 62.4537 85.5 63.6343 85.5 65C86.8889 65 88.0694 64.5139 89.0417 63.5417C90.0139 62.5694 90.5 61.3889 90.5 60Z" fill="#667EB2"/>
<path id="Vector_226" d="M70.5 25C69.1111 25 67.9306 25.4861 66.9583 26.4583C65.9861 27.4537 65.5 28.6343 65.5 30C66.8889 30 68.0694 29.5139 69.0417 28.5417C70.0139 27.5694 70.5 26.3889 70.5 25Z" fill="#667EB2"/>
<path id="Vector_227" d="M110.5 65C109.111 65 107.931 65.4861 106.958 66.4583C105.986 67.4537 105.5 68.6343 105.5 70C106.889 70 108.069 69.5139 109.042 68.5417C110.014 67.5694 110.5 66.3889 110.5 65Z" fill="#667EB2"/>
<path id="Vector_228" d="M70.5 40C69.1111 40 67.9306 40.4861 66.9583 41.4583C65.9861 42.4537 65.5 43.6343 65.5 45C66.8889 45 68.0694 44.5139 69.0417 43.5417C70.0139 42.5694 70.5 41.3889 70.5 40Z" fill="#667EB2"/>
<path id="Vector_229" d="M60.5 35C59.1111 35 57.9306 35.4861 56.9583 36.4583C55.9861 37.4537 55.5 38.6343 55.5 40C56.8889 40 58.0694 39.5139 59.0417 38.5417C60.0139 37.5694 60.5 36.3889 60.5 35Z" fill="#667EB2"/>
<path id="Vector_230" d="M60.5 50C59.1111 50 57.9306 50.4861 56.9583 51.4583C55.9861 52.4537 55.5 53.6343 55.5 55C56.8889 55 58.0694 54.5139 59.0417 53.5417C60.0139 52.5694 60.5 51.3889 60.5 50Z" fill="#667EB2"/>
<path id="Vector_231" d="M60.5 55C59.1111 55 57.9306 55.4861 56.9583 56.4583C55.9861 57.4537 55.5 58.6343 55.5 60C56.8889 60 58.0694 59.5139 59.0417 58.5417C60.0139 57.5694 60.5 56.3889 60.5 55Z" fill="#667EB2"/>
<path id="Vector_232" d="M60.5 65C59.1111 65 57.9306 65.4861 56.9583 66.4583C55.9861 67.4537 55.5 68.6343 55.5 70C56.8889 70 58.0694 69.5139 59.0417 68.5417C60.0139 67.5694 60.5 66.3889 60.5 65Z" fill="#667EB2"/>
<path id="Vector_233" d="M70.5 15C69.1111 15 67.9306 15.4861 66.9583 16.4583C65.9861 17.4537 65.5 18.6343 65.5 20C66.8889 20 68.0694 19.5139 69.0417 18.5417C70.0139 17.5694 70.5 16.3889 70.5 15Z" fill="#667EB2"/>
<path id="Vector_234" d="M70.5 20C69.1111 20 67.9306 20.4861 66.9583 21.4583C65.9861 22.4537 65.5 23.6343 65.5 25C66.8889 25 68.0694 24.5139 69.0417 23.5417C70.0139 22.5694 70.5 21.3889 70.5 20Z" fill="#667EB2"/>
<path id="Vector_235" d="M70.5 5C69.1111 5 67.9306 5.48611 66.9583 6.45833C65.9861 7.4537 65.5 8.63426 65.5 10C66.8889 10 68.0694 9.51389 69.0417 8.54167C70.0139 7.56944 70.5 6.38889 70.5 5Z" fill="#667EB2"/>
<path id="Vector_236" d="M60.5 30C59.1111 30 57.9306 30.4861 56.9583 31.4583C55.9861 32.4537 55.5 33.6343 55.5 35C56.8889 35 58.0694 34.5139 59.0417 33.5417C60.0139 32.5694 60.5 31.3889 60.5 30Z" fill="#667EB2"/>
<path id="Vector_237" d="M70.5 30C69.1111 30 67.9306 30.4861 66.9583 31.4583C65.9861 32.4537 65.5 33.6343 65.5 35C66.8889 35 68.0694 34.5139 69.0417 33.5417C70.0139 32.5694 70.5 31.3889 70.5 30Z" fill="#667EB2"/>
<path id="Vector_238" d="M70.5 35C69.1111 35 67.9306 35.4861 66.9583 36.4583C65.9861 37.4537 65.5 38.6343 65.5 40C66.8889 40 68.0694 39.5139 69.0417 38.5417C70.0139 37.5694 70.5 36.3889 70.5 35Z" fill="#667EB2"/>
<path id="Vector_239" d="M50.5 60C49.1111 60 47.9306 60.4861 46.9583 61.4583C45.9861 62.4537 45.5 63.6343 45.5 65C46.8889 65 48.0694 64.5139 49.0417 63.5417C50.0139 62.5694 50.5 61.3889 50.5 60Z" fill="#667EB2"/>
<path id="Vector_240" d="M50.5 65C49.1111 65 47.9306 65.4861 46.9583 66.4583C45.9861 67.4537 45.5 68.6343 45.5 70C46.8889 70 48.0694 69.5139 49.0417 68.5417C50.0139 67.5694 50.5 66.3889 50.5 65Z" fill="#667EB2"/>
<path id="Vector_241" d="M50.5 55C49.1111 55 47.9306 55.4861 46.9583 56.4583C45.9861 57.4537 45.5 58.6343 45.5 60C46.8889 60 48.0694 59.5139 49.0417 58.5417C50.0139 57.5694 50.5 56.3889 50.5 55Z" fill="#667EB2"/>
<path id="Vector_242" d="M50.5 50C49.1111 50 47.9306 50.4861 46.9583 51.4583C45.9861 52.4537 45.5 53.6343 45.5 55C46.8889 55 48.0694 54.5139 49.0417 53.5417C50.0139 52.5694 50.5 51.3889 50.5 50Z" fill="#667EB2"/>
<path id="Vector_243" d="M60.5 60C59.1111 60 57.9306 60.4861 56.9583 61.4583C55.9861 62.4537 55.5 63.6343 55.5 65C56.8889 65 58.0694 64.5139 59.0417 63.5417C60.0139 62.5694 60.5 61.3889 60.5 60Z" fill="#667EB2"/>
<path id="Vector_244" d="M60.5 70C59.1111 70 57.9306 70.4861 56.9583 71.4583C55.9861 72.4537 55.5 73.6343 55.5 75C56.8889 75 58.0694 74.5139 59.0417 73.5417C60.0139 72.5694 60.5 71.3889 60.5 70Z" fill="#667EB2"/>
<path id="Vector_245" d="M60.5 75C59.1111 75 57.9306 75.4861 56.9583 76.4583C55.9861 77.4537 55.5 78.6343 55.5 80C56.8889 80 58.0694 79.5139 59.0417 78.5417C60.0139 77.5694 60.5 76.3889 60.5 75Z" fill="#667EB2"/>
<path id="Vector_246" d="M60.5 95C59.1111 95 57.9306 95.4861 56.9583 96.4583C55.9861 97.4537 55.5 98.6343 55.5 100C56.8889 100 58.0694 99.5139 59.0417 98.5417C60.0139 97.5694 60.5 96.3889 60.5 95Z" fill="#667EB2"/>
<path id="Vector_247" d="M60.5 105C59.1111 105 57.9306 105.486 56.9583 106.458C55.9861 107.454 55.5 108.634 55.5 110C56.8889 110 58.0694 109.514 59.0417 108.542C60.0139 107.569 60.5 106.389 60.5 105Z" fill="#667EB2"/>
<path id="Vector_248" d="M60.5 90C59.1111 90 57.9306 90.4861 56.9583 91.4583C55.9861 92.4537 55.5 93.6343 55.5 95C56.8889 95 58.0694 94.5139 59.0417 93.5417C60.0139 92.5694 60.5 91.3889 60.5 90Z" fill="#667EB2"/>
<path id="Vector_249" d="M60.5 100C59.1111 100 57.9306 100.486 56.9583 101.458C55.9861 102.454 55.5 103.634 55.5 105C56.8889 105 58.0694 104.514 59.0417 103.542C60.0139 102.569 60.5 101.389 60.5 100Z" fill="#667EB2"/>
<path id="Vector_250" d="M60.5 110C59.1111 110 57.9306 110.486 56.9583 111.458C55.9861 112.454 55.5 113.634 55.5 115C56.8889 115 58.0694 114.514 59.0417 113.542C60.0139 112.569 60.5 111.389 60.5 110Z" fill="#667EB2"/>
<path id="Vector_251" d="M60.5 115C59.1111 115 57.9306 115.486 56.9583 116.458C55.9861 117.454 55.5 118.634 55.5 120C56.8889 120 58.0694 119.514 59.0417 118.542C60.0139 117.569 60.5 116.389 60.5 115Z" fill="#667EB2"/>
<path id="Vector_252" d="M60.5 120C59.1111 120 57.9306 120.486 56.9583 121.458C55.9861 122.454 55.5 123.634 55.5 125C56.8889 125 58.0694 124.514 59.0417 123.542C60.0139 122.569 60.5 121.389 60.5 120Z" fill="#667EB2"/>
<path id="Vector_253" d="M70.5 80C69.1111 80 67.9306 80.4861 66.9583 81.4583C65.9861 82.4537 65.5 83.6343 65.5 85C66.8889 85 68.0694 84.5139 69.0417 83.5417C70.0139 82.5694 70.5 81.3889 70.5 80Z" fill="#667EB2"/>
<path id="Vector_254" d="M70.5 95C69.1111 95 67.9306 95.4861 66.9583 96.4583C65.9861 97.4537 65.5 98.6343 65.5 100C66.8889 100 68.0694 99.5139 69.0417 98.5417C70.0139 97.5694 70.5 96.3889 70.5 95Z" fill="#667EB2"/>
<path id="Vector_255" d="M70.5 105C69.1111 105 67.9306 105.486 66.9583 106.458C65.9861 107.454 65.5 108.634 65.5 110C66.8889 110 68.0694 109.514 69.0417 108.542C70.0139 107.569 70.5 106.389 70.5 105Z" fill="#667EB2"/>
<path id="Vector_256" d="M70.5 75C69.1111 75 67.9306 75.4861 66.9583 76.4583C65.9861 77.4537 65.5 78.6343 65.5 80C66.8889 80 68.0694 79.5139 69.0417 78.5417C70.0139 77.5694 70.5 76.3889 70.5 75Z" fill="#667EB2"/>
<path id="Vector_257" d="M70.5 100C69.1111 100 67.9306 100.486 66.9583 101.458C65.9861 102.454 65.5 103.634 65.5 105C66.8889 105 68.0694 104.514 69.0417 103.542C70.0139 102.569 70.5 101.389 70.5 100Z" fill="#667EB2"/>
<path id="Vector_258" d="M70.5 110C69.1111 110 67.9306 110.486 66.9583 111.458C65.9861 112.454 65.5 113.634 65.5 115C66.8889 115 68.0694 114.514 69.0417 113.542C70.0139 112.569 70.5 111.389 70.5 110Z" fill="#667EB2"/>
<path id="Vector_259" d="M70.5 115C69.1111 115 67.9306 115.486 66.9583 116.458C65.9861 117.454 65.5 118.634 65.5 120C66.8889 120 68.0694 119.514 69.0417 118.542C70.0139 117.569 70.5 116.389 70.5 115Z" fill="#667EB2"/>
<path id="Vector_260" d="M70.5 120C69.1111 120 67.9306 120.486 66.9583 121.458C65.9861 122.454 65.5 123.634 65.5 125C66.8889 125 68.0694 124.514 69.0417 123.542C70.0139 122.569 70.5 121.389 70.5 120Z" fill="#667EB2"/>
<path id="Vector_261" d="M70.5 125C69.1111 125 67.9306 125.486 66.9583 126.458C65.9861 127.454 65.5 128.634 65.5 130C66.8889 130 68.0694 129.514 69.0417 128.542C70.0139 127.569 70.5 126.389 70.5 125Z" fill="#667EB2"/>
<path id="Vector_262" d="M40.5 130C39.1111 130 37.9306 130.486 36.9583 131.458C35.9861 132.454 35.5 133.634 35.5 135C36.8889 135 38.0694 134.514 39.0417 133.542C40.0139 132.569 40.5 131.389 40.5 130Z" fill="#667EB2"/>
<path id="Vector_263" d="M40.5 140C39.1111 140 37.9306 140.486 36.9583 141.458C35.9861 142.454 35.5 143.634 35.5 145C36.8889 145 38.0694 144.514 39.0417 143.542C40.0139 142.569 40.5 141.389 40.5 140Z" fill="#667EB2"/>
<path id="Vector_264" d="M20.5 130C19.1111 130 17.9306 130.486 16.9583 131.458C15.9861 132.454 15.5 133.634 15.5 135C16.8889 135 18.0694 134.514 19.0417 133.542C20.0139 132.569 20.5 131.389 20.5 130Z" fill="#667EB2"/>
<path id="Vector_265" d="M20.5 125C19.1111 125 17.9306 125.486 16.9583 126.458C15.9861 127.454 15.5 128.634 15.5 130C16.8889 130 18.0694 129.514 19.0417 128.542C20.0139 127.569 20.5 126.389 20.5 125Z" fill="#667EB2"/>
<path id="Vector_266" d="M110.5 130C109.111 130 107.931 130.486 106.958 131.458C105.986 132.454 105.5 133.634 105.5 135C106.889 135 108.069 134.514 109.042 133.542C110.014 132.569 110.5 131.389 110.5 130Z" fill="#667EB2"/>
<path id="Vector_267" d="M110.5 135C109.111 135 107.931 135.486 106.958 136.458C105.986 137.454 105.5 138.634 105.5 140C106.889 140 108.069 139.514 109.042 138.542C110.014 137.569 110.5 136.389 110.5 135Z" fill="#667EB2"/>
<path id="Vector_268" d="M100.5 130C99.1111 130 97.9306 130.486 96.9583 131.458C95.9861 132.454 95.5 133.634 95.5 135C96.8889 135 98.0694 134.514 99.0417 133.542C100.014 132.569 100.5 131.389 100.5 130Z" fill="#667EB2"/>
<path id="Vector_269" d="M100.5 130C101.889 130 103.069 130.486 104.042 131.458C105.014 132.454 105.5 133.634 105.5 135C104.111 135 102.931 134.514 101.958 133.542C100.986 132.569 100.5 131.389 100.5 130Z" fill="#667EB2"/>
<path id="Vector_270" d="M130.5 130C131.889 130 133.069 130.486 134.042 131.458C135.014 132.454 135.5 133.634 135.5 135C134.111 135 132.931 134.514 131.958 133.542C130.986 132.569 130.5 131.389 130.5 130Z" fill="#667EB2"/>
<path id="Vector_271" d="M20.5 130C21.8889 130 23.0694 130.486 24.0417 131.458C25.0139 132.454 25.5 133.634 25.5 135C24.1111 135 22.9306 134.514 21.9583 133.542C20.9861 132.569 20.5 131.389 20.5 130Z" fill="#667EB2"/>
<path id="Vector_272" d="M30.5 130C31.8889 130 33.0694 130.486 34.0417 131.458C35.0139 132.454 35.5 133.634 35.5 135C34.1111 135 32.9306 134.514 31.9583 133.542C30.9861 132.569 30.5 131.389 30.5 130Z" fill="#667EB2"/>
<path id="Vector_273" d="M20.5 125C21.8889 125 23.0694 125.486 24.0417 126.458C25.0139 127.454 25.5 128.634 25.5 130C24.1111 130 22.9306 129.514 21.9583 128.542C20.9861 127.569 20.5 126.389 20.5 125Z" fill="#667EB2"/>
<path id="Vector_274" d="M90.5 130C91.8889 130 93.0694 130.486 94.0417 131.458C95.0139 132.454 95.5 133.634 95.5 135C94.1111 135 92.9306 134.514 91.9583 133.542C90.9861 132.569 90.5 131.389 90.5 130Z" fill="#667EB2"/>
<path id="Vector_275" d="M90.5 130C89.1111 130 87.9306 130.486 86.9583 131.458C85.9861 132.454 85.5 133.634 85.5 135C86.8889 135 88.0694 134.514 89.0417 133.542C90.0139 132.569 90.5 131.389 90.5 130Z" fill="#667EB2"/>
<path id="Vector_276" d="M40.5 135C39.1111 135 37.9306 135.486 36.9583 136.458C35.9861 137.454 35.5 138.634 35.5 140C36.8889 140 38.0694 139.514 39.0417 138.542C40.0139 137.569 40.5 136.389 40.5 135Z" fill="#667EB2"/>
<path id="Vector_277" d="M40.5 145C39.1111 145 37.9306 145.486 36.9583 146.458C35.9861 147.454 35.5 148.634 35.5 150C36.8889 150 38.0694 149.514 39.0417 148.542C40.0139 147.569 40.5 146.389 40.5 145Z" fill="#667EB2"/>
<path id="Vector_278" d="M20.5 135C19.1111 135 17.9306 135.486 16.9583 136.458C15.9861 137.454 15.5 138.634 15.5 140C16.8889 140 18.0694 139.514 19.0417 138.542C20.0139 137.569 20.5 136.389 20.5 135Z" fill="#667EB2"/>
<path id="Vector_279" d="M130.5 130C129.111 130 127.931 130.486 126.958 131.458C125.986 132.454 125.5 133.634 125.5 135C126.889 135 128.069 134.514 129.042 133.542C130.014 132.569 130.5 131.389 130.5 130Z" fill="#667EB2"/>
<path id="Vector_280" d="M10.5 135C11.8889 135 13.0694 135.486 14.0417 136.458C15.0139 137.454 15.5 138.634 15.5 140C14.1111 140 12.9306 139.514 11.9583 138.542C10.9861 137.569 10.5 136.389 10.5 135Z" fill="#667EB2"/>
<path id="Vector_281" d="M10.5 130C11.8889 130 13.0694 130.486 14.0417 131.458C15.0139 132.454 15.5 133.634 15.5 135C14.1111 135 12.9306 134.514 11.9583 133.542C10.9861 132.569 10.5 131.389 10.5 130Z" fill="#667EB2"/>
<path id="Vector_282" d="M100.5 135C101.889 135 103.069 135.486 104.042 136.458C105.014 137.454 105.5 138.634 105.5 140C104.111 140 102.931 139.514 101.958 138.542C100.986 137.569 100.5 136.389 100.5 135Z" fill="#667EB2"/>
<path id="Vector_283" d="M140.5 135C139.111 135 137.931 135.486 136.958 136.458C135.986 137.454 135.5 138.634 135.5 140C136.889 140 138.069 139.514 139.042 138.542C140.014 137.569 140.5 136.389 140.5 135Z" fill="#667EB2"/>
<path id="Vector_284" d="M100.5 135C99.1111 135 97.9306 135.486 96.9583 136.458C95.9861 137.454 95.5 138.634 95.5 140C96.8889 140 98.0694 139.514 99.0417 138.542C100.014 137.569 100.5 136.389 100.5 135Z" fill="#667EB2"/>
<path id="Vector_285" d="M130.5 135C131.889 135 133.069 135.486 134.042 136.458C135.014 137.454 135.5 138.634 135.5 140C134.111 140 132.931 139.514 131.958 138.542C130.986 137.569 130.5 136.389 130.5 135Z" fill="#667EB2"/>
<path id="Vector_286" d="M20.5 140C19.1111 140 17.9306 140.486 16.9583 141.458C15.9861 142.454 15.5 143.634 15.5 145C16.8889 145 18.0694 144.514 19.0417 143.542C20.0139 142.569 20.5 141.389 20.5 140Z" fill="#667EB2"/>
<path id="Vector_287" d="M20.5 135C21.8889 135 23.0694 135.486 24.0417 136.458C25.0139 137.454 25.5 138.634 25.5 140C24.1111 140 22.9306 139.514 21.9583 138.542C20.9861 137.569 20.5 136.389 20.5 135Z" fill="#667EB2"/>
<path id="Vector_288" d="M110.5 140C109.111 140 107.931 140.486 106.958 141.458C105.986 142.454 105.5 143.634 105.5 145C106.889 145 108.069 144.514 109.042 143.542C110.014 142.569 110.5 141.389 110.5 140Z" fill="#667EB2"/>
<path id="Vector_289" d="M30.5 135C31.8889 135 33.0694 135.486 34.0417 136.458C35.0139 137.454 35.5 138.634 35.5 140C34.1111 140 32.9306 139.514 31.9583 138.542C30.9861 137.569 30.5 136.389 30.5 135Z" fill="#667EB2"/>
<path id="Vector_290" d="M90.5 135C91.8889 135 93.0694 135.486 94.0417 136.458C95.0139 137.454 95.5 138.634 95.5 140C94.1111 140 92.9306 139.514 91.9583 138.542C90.9861 137.569 90.5 136.389 90.5 135Z" fill="#667EB2"/>
<path id="Vector_291" d="M10.5 140C11.8889 140 13.0694 140.486 14.0417 141.458C15.0139 142.454 15.5 143.634 15.5 145C14.1111 145 12.9306 144.514 11.9583 143.542C10.9861 142.569 10.5 141.389 10.5 140Z" fill="#667EB2"/>
<path id="Vector_292" d="M60.5 135C59.1111 135 57.9306 135.486 56.9583 136.458C55.9861 137.454 55.5 138.634 55.5 140C56.8889 140 58.0694 139.514 59.0417 138.542C60.0139 137.569 60.5 136.389 60.5 135Z" fill="#667EB2"/>
<path id="Vector_293" d="M130.5 135C129.111 135 127.931 135.486 126.958 136.458C125.986 137.454 125.5 138.634 125.5 140C126.889 140 128.069 139.514 129.042 138.542C130.014 137.569 130.5 136.389 130.5 135Z" fill="#667EB2"/>
<path id="Vector_294" d="M140.5 140C139.111 140 137.931 140.486 136.958 141.458C135.986 142.454 135.5 143.634 135.5 145C136.889 145 138.069 144.514 139.042 143.542C140.014 142.569 140.5 141.389 140.5 140Z" fill="#667EB2"/>
<path id="Vector_295" d="M20.5 145C19.1111 145 17.9306 145.486 16.9583 146.458C15.9861 147.454 15.5 148.634 15.5 150C16.8889 150 18.0694 149.514 19.0417 148.542C20.0139 147.569 20.5 146.389 20.5 145Z" fill="#667EB2"/>
<path id="Vector_296" d="M10.5 145C11.8889 145 13.0694 145.486 14.0417 146.458C15.0139 147.454 15.5 148.634 15.5 150C14.1111 150 12.9306 149.514 11.9583 148.542C10.9861 147.569 10.5 146.389 10.5 145Z" fill="#667EB2"/>
<path id="Vector_297" d="M130.5 140C131.889 140 133.069 140.486 134.042 141.458C135.014 142.454 135.5 143.634 135.5 145C134.111 145 132.931 144.514 131.958 143.542C130.986 142.569 130.5 141.389 130.5 140Z" fill="#667EB2"/>
<path id="Vector_298" d="M90.5 145C89.1111 145 87.9306 145.486 86.9583 146.458C85.9861 147.454 85.5 148.634 85.5 150C86.8889 150 88.0694 149.514 89.0417 148.542C90.0139 147.569 90.5 146.389 90.5 145Z" fill="#667EB2"/>
<path id="Vector_299" d="M40.5 150C39.1111 150 37.9306 150.486 36.9583 151.458C35.9861 152.454 35.5 153.634 35.5 155C36.8889 155 38.0694 154.514 39.0417 153.542C40.0139 152.569 40.5 151.389 40.5 150Z" fill="#667EB2"/>
<path id="Vector_300" d="M20.5 150C19.1111 150 17.9306 150.486 16.9583 151.458C15.9861 152.454 15.5 153.634 15.5 155C16.8889 155 18.0694 154.514 19.0417 153.542C20.0139 152.569 20.5 151.389 20.5 150Z" fill="#667EB2"/>
<path id="Vector_301" d="M60.5 140C59.1111 140 57.9306 140.486 56.9583 141.458C55.9861 142.454 55.5 143.634 55.5 145C56.8889 145 58.0694 144.514 59.0417 143.542C60.0139 142.569 60.5 141.389 60.5 140Z" fill="#667EB2"/>
<path id="Vector_302" d="M70.5 140C69.1111 140 67.9306 140.486 66.9583 141.458C65.9861 142.454 65.5 143.634 65.5 145C66.8889 145 68.0694 144.514 69.0417 143.542C70.0139 142.569 70.5 141.389 70.5 140Z" fill="#667EB2"/>
<path id="Vector_303" d="M60.5 145C59.1111 145 57.9306 145.486 56.9583 146.458C55.9861 147.454 55.5 148.634 55.5 150C56.8889 150 58.0694 149.514 59.0417 148.542C60.0139 147.569 60.5 146.389 60.5 145Z" fill="#667EB2"/>
<path id="Vector_304" d="M70.5 145C69.1111 145 67.9306 145.486 66.9583 146.458C65.9861 147.454 65.5 148.634 65.5 150C66.8889 150 68.0694 149.514 69.0417 148.542C70.0139 147.569 70.5 146.389 70.5 145Z" fill="#667EB2"/>
<path id="Vector_305" d="M130.5 140C129.111 140 127.931 140.486 126.958 141.458C125.986 142.454 125.5 143.634 125.5 145C126.889 145 128.069 144.514 129.042 143.542C130.014 142.569 130.5 141.389 130.5 140Z" fill="#667EB2"/>
<path id="Vector_306" d="M10.5 150C11.8889 150 13.0694 150.486 14.0417 151.458C15.0139 152.454 15.5 153.634 15.5 155C14.1111 155 12.9306 154.514 11.9583 153.542C10.9861 152.569 10.5 151.389 10.5 150Z" fill="#667EB2"/>
<path id="Vector_307" d="M140.5 145C139.111 145 137.931 145.486 136.958 146.458C135.986 147.454 135.5 148.634 135.5 150C136.889 150 138.069 149.514 139.042 148.542C140.014 147.569 140.5 146.389 140.5 145Z" fill="#667EB2"/>
<path id="Vector_308" d="M10.5 145C9.11111 145 7.93056 145.486 6.95833 146.458C5.98611 147.454 5.5 148.634 5.5 150C6.88889 150 8.06944 149.514 9.04167 148.542C10.0139 147.569 10.5 146.389 10.5 145Z" fill="#667EB2"/>
<path id="Vector_309" d="M130.5 145C131.889 145 133.069 145.486 134.042 146.458C135.014 147.454 135.5 148.634 135.5 150C134.111 150 132.931 149.514 131.958 148.542C130.986 147.569 130.5 146.389 130.5 145Z" fill="#667EB2"/>
<path id="Vector_310" d="M40.5 155C39.1111 155 37.9306 155.486 36.9583 156.458C35.9861 157.454 35.5 158.634 35.5 160C36.8889 160 38.0694 159.514 39.0417 158.542C40.0139 157.569 40.5 156.389 40.5 155Z" fill="#667EB2"/>
<path id="Vector_311" d="M20.5 155C19.1111 155 17.9306 155.486 16.9583 156.458C15.9861 157.454 15.5 158.634 15.5 160C16.8889 160 18.0694 159.514 19.0417 158.542C20.0139 157.569 20.5 156.389 20.5 155Z" fill="#667EB2"/>
<path id="Vector_312" d="M110.5 155C109.111 155 107.931 155.486 106.958 156.458C105.986 157.454 105.5 158.634 105.5 160C106.889 160 108.069 159.514 109.042 158.542C110.014 157.569 110.5 156.389 110.5 155Z" fill="#667EB2"/>
<path id="Vector_313" d="M110.5 160C109.111 160 107.931 160.486 106.958 161.458C105.986 162.454 105.5 163.634 105.5 165C106.889 165 108.069 164.514 109.042 163.542C110.014 162.569 110.5 161.389 110.5 160Z" fill="#667EB2"/>
<path id="Vector_314" d="M30.5 155C31.8889 155 33.0694 155.486 34.0417 156.458C35.0139 157.454 35.5 158.634 35.5 160C34.1111 160 32.9306 159.514 31.9583 158.542C30.9861 157.569 30.5 156.389 30.5 155Z" fill="#667EB2"/>
<path id="Vector_315" d="M30.5 150C31.8889 150 33.0694 150.486 34.0417 151.458C35.0139 152.454 35.5 153.634 35.5 155C34.1111 155 32.9306 154.514 31.9583 153.542C30.9861 152.569 30.5 151.389 30.5 150Z" fill="#667EB2"/>
<path id="Vector_316" d="M30.5 160C31.8889 160 33.0694 160.486 34.0417 161.458C35.0139 162.454 35.5 163.634 35.5 165C34.1111 165 32.9306 164.514 31.9583 163.542C30.9861 162.569 30.5 161.389 30.5 160Z" fill="#667EB2"/>
<path id="Vector_317" d="M10.5 155C11.8889 155 13.0694 155.486 14.0417 156.458C15.0139 157.454 15.5 158.634 15.5 160C14.1111 160 12.9306 159.514 11.9583 158.542C10.9861 157.569 10.5 156.389 10.5 155Z" fill="#667EB2"/>
<path id="Vector_318" d="M130.5 145C129.111 145 127.931 145.486 126.958 146.458C125.986 147.454 125.5 148.634 125.5 150C126.889 150 128.069 149.514 129.042 148.542C130.014 147.569 130.5 146.389 130.5 145Z" fill="#667EB2"/>
<path id="Vector_319" d="M140.5 150C139.111 150 137.931 150.486 136.958 151.458C135.986 152.454 135.5 153.634 135.5 155C136.889 155 138.069 154.514 139.042 153.542C140.014 152.569 140.5 151.389 140.5 150Z" fill="#667EB2"/>
<path id="Vector_320" d="M40.5 160C39.1111 160 37.9306 160.486 36.9583 161.458C35.9861 162.454 35.5 163.634 35.5 165C36.8889 165 38.0694 164.514 39.0417 163.542C40.0139 162.569 40.5 161.389 40.5 160Z" fill="#667EB2"/>
<path id="Vector_321" d="M20.5 160C19.1111 160 17.9306 160.486 16.9583 161.458C15.9861 162.454 15.5 163.634 15.5 165C16.8889 165 18.0694 164.514 19.0417 163.542C20.0139 162.569 20.5 161.389 20.5 160Z" fill="#667EB2"/>
<path id="Vector_322" d="M10.5 150C9.11111 150 7.93056 150.486 6.95833 151.458C5.98611 152.454 5.5 153.634 5.5 155C6.88889 155 8.06944 154.514 9.04167 153.542C10.0139 152.569 10.5 151.389 10.5 150Z" fill="#667EB2"/>
<path id="Vector_323" d="M100.5 150C99.1111 150 97.9306 150.486 96.9583 151.458C95.9861 152.454 95.5 153.634 95.5 155C96.8889 155 98.0694 154.514 99.0417 153.542C100.014 152.569 100.5 151.389 100.5 150Z" fill="#667EB2"/>
<path id="Vector_324" d="M10.5 160C11.8889 160 13.0694 160.486 14.0417 161.458C15.0139 162.454 15.5 163.634 15.5 165C14.1111 165 12.9306 164.514 11.9583 163.542C10.9861 162.569 10.5 161.389 10.5 160Z" fill="#667EB2"/>
<path id="Vector_325" d="M20.5 150C21.8889 150 23.0694 150.486 24.0417 151.458C25.0139 152.454 25.5 153.634 25.5 155C24.1111 155 22.9306 154.514 21.9583 153.542C20.9861 152.569 20.5 151.389 20.5 150Z" fill="#667EB2"/>
<path id="Vector_326" d="M90.5 150C91.8889 150 93.0694 150.486 94.0417 151.458C95.0139 152.454 95.5 153.634 95.5 155C94.1111 155 92.9306 154.514 91.9583 153.542C90.9861 152.569 90.5 151.389 90.5 150Z" fill="#667EB2"/>
<path id="Vector_327" d="M90.5 150C89.1111 150 87.9306 150.486 86.9583 151.458C85.9861 152.454 85.5 153.634 85.5 155C86.8889 155 88.0694 154.514 89.0417 153.542C90.0139 152.569 90.5 151.389 90.5 150Z" fill="#667EB2"/>
<path id="Vector_328" d="M30.5 155C29.1111 155 27.9306 155.486 26.9583 156.458C25.9861 157.454 25.5 158.634 25.5 160C26.8889 160 28.0694 159.514 29.0417 158.542C30.0139 157.569 30.5 156.389 30.5 155Z" fill="#667EB2"/>
<path id="Vector_329" d="M10.5 155C9.11111 155 7.93056 155.486 6.95833 156.458C5.98611 157.454 5.5 158.634 5.5 160C6.88889 160 8.06944 159.514 9.04167 158.542C10.0139 157.569 10.5 156.389 10.5 155Z" fill="#667EB2"/>
<path id="Vector_330" d="M10.5 160C9.11111 160 7.93056 160.486 6.95833 161.458C5.98611 162.454 5.5 163.634 5.5 165C6.88889 165 8.06944 164.514 9.04167 163.542C10.0139 162.569 10.5 161.389 10.5 160Z" fill="#667EB2"/>
<path id="Vector_331" d="M0.5 155C1.88889 155 3.06944 155.486 4.04167 156.458C5.01389 157.454 5.5 158.634 5.5 160C4.11111 160 2.93056 159.514 1.95833 158.542C0.986111 157.569 0.5 156.389 0.5 155Z" fill="#667EB2"/>
<path id="Vector_332" d="M100.5 155C99.1111 155 97.9306 155.486 96.9583 156.458C95.9861 157.454 95.5 158.634 95.5 160C96.8889 160 98.0694 159.514 99.0417 158.542C100.014 157.569 100.5 156.389 100.5 155Z" fill="#667EB2"/>
<path id="Vector_333" d="M100.5 160C99.1111 160 97.9306 160.486 96.9583 161.458C95.9861 162.454 95.5 163.634 95.5 165C96.8889 165 98.0694 164.514 99.0417 163.542C100.014 162.569 100.5 161.389 100.5 160Z" fill="#667EB2"/>
<path id="Vector_334" d="M130.5 160C131.889 160 133.069 160.486 134.042 161.458C135.014 162.454 135.5 163.634 135.5 165C134.111 165 132.931 164.514 131.958 163.542C130.986 162.569 130.5 161.389 130.5 160Z" fill="#667EB2"/>
<path id="Vector_335" d="M20.5 155C21.8889 155 23.0694 155.486 24.0417 156.458C25.0139 157.454 25.5 158.634 25.5 160C24.1111 160 22.9306 159.514 21.9583 158.542C20.9861 157.569 20.5 156.389 20.5 155Z" fill="#667EB2"/>
<path id="Vector_336" d="M90.5 155C91.8889 155 93.0694 155.486 94.0417 156.458C95.0139 157.454 95.5 158.634 95.5 160C94.1111 160 92.9306 159.514 91.9583 158.542C90.9861 157.569 90.5 156.389 90.5 155Z" fill="#667EB2"/>
<path id="Vector_337" d="M90.5 155C89.1111 155 87.9306 155.486 86.9583 156.458C85.9861 157.454 85.5 158.634 85.5 160C86.8889 160 88.0694 159.514 89.0417 158.542C90.0139 157.569 90.5 156.389 90.5 155Z" fill="#667EB2"/>
<path id="Vector_338" d="M70.5 165C69.1111 165 67.9306 165.486 66.9583 166.458C65.9861 167.454 65.5 168.634 65.5 170C66.8889 170 68.0694 169.514 69.0417 168.542C70.0139 167.569 70.5 166.389 70.5 165Z" fill="#667EB2"/>
<path id="Vector_339" d="M70.5 160C69.1111 160 67.9306 160.486 66.9583 161.458C65.9861 162.454 65.5 163.634 65.5 165C66.8889 165 68.0694 164.514 69.0417 163.542C70.0139 162.569 70.5 161.389 70.5 160Z" fill="#667EB2"/>
<path id="Vector_340" d="M70.5 170C69.1111 170 67.9306 170.486 66.9583 171.458C65.9861 172.454 65.5 173.634 65.5 175C66.8889 175 68.0694 174.514 69.0417 173.542C70.0139 172.569 70.5 171.389 70.5 170Z" fill="#667EB2"/>
<path id="Vector_341" d="M70.5 175C69.1111 175 67.9306 175.486 66.9583 176.458C65.9861 177.454 65.5 178.634 65.5 180C66.8889 180 68.0694 179.514 69.0417 178.542C70.0139 177.569 70.5 176.389 70.5 175Z" fill="#667EB2"/>
<path id="Vector_342" d="M70.5 180C69.1111 180 67.9306 180.486 66.9583 181.458C65.9861 182.454 65.5 183.634 65.5 185C66.8889 185 68.0694 184.514 69.0417 183.542C70.0139 182.569 70.5 181.389 70.5 180Z" fill="#667EB2"/>
<path id="Vector_343" d="M70.5 185C69.1111 185 67.9306 185.486 66.9583 186.458C65.9861 187.454 65.5 188.634 65.5 190C66.8889 190 68.0694 189.514 69.0417 188.542C70.0139 187.569 70.5 186.389 70.5 185Z" fill="#667EB2"/>
<path id="Vector_344" d="M70.5 190C69.1111 190 67.9306 190.486 66.9583 191.458C65.9861 192.454 65.5 193.634 65.5 195C66.8889 195 68.0694 194.514 69.0417 193.542C70.0139 192.569 70.5 191.389 70.5 190Z" fill="#667EB2"/>
<path id="Vector_345" d="M30.5 160C29.1111 160 27.9306 160.486 26.9583 161.458C25.9861 162.454 25.5 163.634 25.5 165C26.8889 165 28.0694 164.514 29.0417 163.542C30.0139 162.569 30.5 161.389 30.5 160Z" fill="#667EB2"/>
<path id="Vector_346" d="M60.5 165C61.8889 165 63.0694 165.486 64.0417 166.458C65.0139 167.454 65.5 168.634 65.5 170C64.1111 170 62.9306 169.514 61.9583 168.542C60.9861 167.569 60.5 166.389 60.5 165Z" fill="#667EB2"/>
<path id="Vector_347" d="M60.5 170C61.8889 170 63.0694 170.486 64.0417 171.458C65.0139 172.454 65.5 173.634 65.5 175C64.1111 175 62.9306 174.514 61.9583 173.542C60.9861 172.569 60.5 171.389 60.5 170Z" fill="#667EB2"/>
<path id="Vector_348" d="M60.5 175C61.8889 175 63.0694 175.486 64.0417 176.458C65.0139 177.454 65.5 178.634 65.5 180C64.1111 180 62.9306 179.514 61.9583 178.542C60.9861 177.569 60.5 176.389 60.5 175Z" fill="#667EB2"/>
<path id="Vector_349" d="M60.5 180C61.8889 180 63.0694 180.486 64.0417 181.458C65.0139 182.454 65.5 183.634 65.5 185C64.1111 185 62.9306 184.514 61.9583 183.542C60.9861 182.569 60.5 181.389 60.5 180Z" fill="#667EB2"/>
<path id="Vector_350" d="M60.5 185C61.8889 185 63.0694 185.486 64.0417 186.458C65.0139 187.454 65.5 188.634 65.5 190C64.1111 190 62.9306 189.514 61.9583 188.542C60.9861 187.569 60.5 186.389 60.5 185Z" fill="#667EB2"/>
<path id="Vector_351" d="M60.5 190C61.8889 190 63.0694 190.486 64.0417 191.458C65.0139 192.454 65.5 193.634 65.5 195C64.1111 195 62.9306 194.514 61.9583 193.542C60.9861 192.569 60.5 191.389 60.5 190Z" fill="#667EB2"/>
<path id="Vector_352" d="M90.5 160C89.1111 160 87.9306 160.486 86.9583 161.458C85.9861 162.454 85.5 163.634 85.5 165C86.8889 165 88.0694 164.514 89.0417 163.542C90.0139 162.569 90.5 161.389 90.5 160Z" fill="#667EB2"/>
<path id="Vector_353" d="M20.5 160C21.8889 160 23.0694 160.486 24.0417 161.458C25.0139 162.454 25.5 163.634 25.5 165C24.1111 165 22.9306 164.514 21.9583 163.542C20.9861 162.569 20.5 161.389 20.5 160Z" fill="#667EB2"/>
<path id="Vector_354" d="M90.5 160C91.8889 160 93.0694 160.486 94.0417 161.458C95.0139 162.454 95.5 163.634 95.5 165C94.1111 165 92.9306 164.514 91.9583 163.542C90.9861 162.569 90.5 161.389 90.5 160Z" fill="#667EB2"/>
<path id="Vector_355" d="M90.5 165C89.1111 165 87.9306 165.486 86.9583 166.458C85.9861 167.454 85.5 168.634 85.5 170C86.8889 170 88.0694 169.514 89.0417 168.542C90.0139 167.569 90.5 166.389 90.5 165Z" fill="#667EB2"/>
<path id="Vector_356" d="M90.5 170C89.1111 170 87.9306 170.486 86.9583 171.458C85.9861 172.454 85.5 173.634 85.5 175C86.8889 175 88.0694 174.514 89.0417 173.542C90.0139 172.569 90.5 171.389 90.5 170Z" fill="#667EB2"/>
<path id="Vector_357" d="M90.5 175C89.1111 175 87.9306 175.486 86.9583 176.458C85.9861 177.454 85.5 178.634 85.5 180C86.8889 180 88.0694 179.514 89.0417 178.542C90.0139 177.569 90.5 176.389 90.5 175Z" fill="#667EB2"/>
<path id="Vector_358" d="M90.5 180C89.1111 180 87.9306 180.486 86.9583 181.458C85.9861 182.454 85.5 183.634 85.5 185C86.8889 185 88.0694 184.514 89.0417 183.542C90.0139 182.569 90.5 181.389 90.5 180Z" fill="#667EB2"/>
<path id="Vector_359" d="M90.5 185C89.1111 185 87.9306 185.486 86.9583 186.458C85.9861 187.454 85.5 188.634 85.5 190C86.8889 190 88.0694 189.514 89.0417 188.542C90.0139 187.569 90.5 186.389 90.5 185Z" fill="#667EB2"/>
<path id="Vector_360" d="M90.5 190C89.1111 190 87.9306 190.486 86.9583 191.458C85.9861 192.454 85.5 193.634 85.5 195C86.8889 195 88.0694 194.514 89.0417 193.542C90.0139 192.569 90.5 191.389 90.5 190Z" fill="#667EB2"/>
<path id="Vector_361" d="M60.5 160C59.1111 160 57.9306 160.486 56.9583 161.458C55.9861 162.454 55.5 163.634 55.5 165C56.8889 165 58.0694 164.514 59.0417 163.542C60.0139 162.569 60.5 161.389 60.5 160Z" fill="#667EB2"/>
<path id="Vector_362" d="M130.5 160C129.111 160 127.931 160.486 126.958 161.458C125.986 162.454 125.5 163.634 125.5 165C126.889 165 128.069 164.514 129.042 163.542C130.014 162.569 130.5 161.389 130.5 160Z" fill="#667EB2"/>
<path id="Vector_363" d="M80.5 70C79.1111 70 77.9306 70.4861 76.9583 71.4583C75.9861 72.4537 75.5 73.6343 75.5 75C76.8889 75 78.0694 74.5139 79.0417 73.5417C80.0139 72.5694 80.5 71.3889 80.5 70Z" fill="#667EB2"/>
<path id="Vector_364" d="M80.5 75C79.1111 75 77.9306 75.4861 76.9583 76.4583C75.9861 77.4537 75.5 78.6343 75.5 80C76.8889 80 78.0694 79.5139 79.0417 78.5417C80.0139 77.5694 80.5 76.3889 80.5 75Z" fill="#667EB2"/>
<path id="Vector_365" d="M80.5 80C79.1111 80 77.9306 80.4861 76.9583 81.4583C75.9861 82.4537 75.5 83.6343 75.5 85C76.8889 85 78.0694 84.5139 79.0417 83.5417C80.0139 82.5694 80.5 81.3889 80.5 80Z" fill="#667EB2"/>
<path id="Vector_366" d="M80.5 85C79.1111 85 77.9306 85.4861 76.9583 86.4583C75.9861 87.4537 75.5 88.6343 75.5 90C76.8889 90 78.0694 89.5139 79.0417 88.5417C80.0139 87.5694 80.5 86.3889 80.5 85Z" fill="#667EB2"/>
<path id="Vector_367" d="M80.5 100C79.1111 100 77.9306 100.486 76.9583 101.458C75.9861 102.454 75.5 103.634 75.5 105C76.8889 105 78.0694 104.514 79.0417 103.542C80.0139 102.569 80.5 101.389 80.5 100Z" fill="#667EB2"/>
<path id="Vector_368" d="M80.5 120C79.1111 120 77.9306 120.486 76.9583 121.458C75.9861 122.454 75.5 123.634 75.5 125C76.8889 125 78.0694 124.514 79.0417 123.542C80.0139 122.569 80.5 121.389 80.5 120Z" fill="#667EB2"/>
<path id="Vector_369" d="M80.5 115C79.1111 115 77.9306 115.486 76.9583 116.458C75.9861 117.454 75.5 118.634 75.5 120C76.8889 120 78.0694 119.514 79.0417 118.542C80.0139 117.569 80.5 116.389 80.5 115Z" fill="#667EB2"/>
<path id="Vector_370" d="M80.5 125C79.1111 125 77.9306 125.486 76.9583 126.458C75.9861 127.454 75.5 128.634 75.5 130C76.8889 130 78.0694 129.514 79.0417 128.542C80.0139 127.569 80.5 126.389 80.5 125Z" fill="#667EB2"/>
<path id="Vector_371" d="M80.5 130C79.1111 130 77.9306 130.486 76.9583 131.458C75.9861 132.454 75.5 133.634 75.5 135C76.8889 135 78.0694 134.514 79.0417 133.542C80.0139 132.569 80.5 131.389 80.5 130Z" fill="#667EB2"/>
<path id="Vector_372" d="M50.5 135C49.1111 135 47.9306 135.486 46.9583 136.458C45.9861 137.454 45.5 138.634 45.5 140C46.8889 140 48.0694 139.514 49.0417 138.542C50.0139 137.569 50.5 136.389 50.5 135Z" fill="#667EB2"/>
<path id="Vector_373" d="M50.5 140C49.1111 140 47.9306 140.486 46.9583 141.458C45.9861 142.454 45.5 143.634 45.5 145C46.8889 145 48.0694 144.514 49.0417 143.542C50.0139 142.569 50.5 141.389 50.5 140Z" fill="#667EB2"/>
<path id="Vector_374" d="M120.5 140C119.111 140 117.931 140.486 116.958 141.458C115.986 142.454 115.5 143.634 115.5 145C116.889 145 118.069 144.514 119.042 143.542C120.014 142.569 120.5 141.389 120.5 140Z" fill="#667EB2"/>
<path id="Vector_375" d="M120.5 135C119.111 135 117.931 135.486 116.958 136.458C115.986 137.454 115.5 138.634 115.5 140C116.889 140 118.069 139.514 119.042 138.542C120.014 137.569 120.5 136.389 120.5 135Z" fill="#667EB2"/>
<path id="Vector_376" d="M80.5 145C79.1111 145 77.9306 145.486 76.9583 146.458C75.9861 147.454 75.5 148.634 75.5 150C76.8889 150 78.0694 149.514 79.0417 148.542C80.0139 147.569 80.5 146.389 80.5 145Z" fill="#667EB2"/>
<path id="Vector_377" d="M50.5 145C49.1111 145 47.9306 145.486 46.9583 146.458C45.9861 147.454 45.5 148.634 45.5 150C46.8889 150 48.0694 149.514 49.0417 148.542C50.0139 147.569 50.5 146.389 50.5 145Z" fill="#667EB2"/>
<path id="Vector_378" d="M80.5 150C79.1111 150 77.9306 150.486 76.9583 151.458C75.9861 152.454 75.5 153.634 75.5 155C76.8889 155 78.0694 154.514 79.0417 153.542C80.0139 152.569 80.5 151.389 80.5 150Z" fill="#667EB2"/>
<path id="Vector_379" d="M50.5 150C49.1111 150 47.9306 150.486 46.9583 151.458C45.9861 152.454 45.5 153.634 45.5 155C46.8889 155 48.0694 154.514 49.0417 153.542C50.0139 152.569 50.5 151.389 50.5 150Z" fill="#667EB2"/>
<path id="Vector_380" d="M50.5 155C49.1111 155 47.9306 155.486 46.9583 156.458C45.9861 157.454 45.5 158.634 45.5 160C46.8889 160 48.0694 159.514 49.0417 158.542C50.0139 157.569 50.5 156.389 50.5 155Z" fill="#667EB2"/>
<path id="Vector_381" d="M50.5 160C49.1111 160 47.9306 160.486 46.9583 161.458C45.9861 162.454 45.5 163.634 45.5 165C46.8889 165 48.0694 164.514 49.0417 163.542C50.0139 162.569 50.5 161.389 50.5 160Z" fill="#667EB2"/>
<path id="Vector_382" d="M80.5 160C79.1111 160 77.9306 160.486 76.9583 161.458C75.9861 162.454 75.5 163.634 75.5 165C76.8889 165 78.0694 164.514 79.0417 163.542C80.0139 162.569 80.5 161.389 80.5 160Z" fill="#667EB2"/>
<path id="Vector_383" d="M80.5 155C79.1111 155 77.9306 155.486 76.9583 156.458C75.9861 157.454 75.5 158.634 75.5 160C76.8889 160 78.0694 159.514 79.0417 158.542C80.0139 157.569 80.5 156.389 80.5 155Z" fill="#667EB2"/>
<path id="Vector_384" d="M120.5 155C119.111 155 117.931 155.486 116.958 156.458C115.986 157.454 115.5 158.634 115.5 160C116.889 160 118.069 159.514 119.042 158.542C120.014 157.569 120.5 156.389 120.5 155Z" fill="#667EB2"/>
<path id="Vector_385" d="M120.5 160C119.111 160 117.931 160.486 116.958 161.458C115.986 162.454 115.5 163.634 115.5 165C116.889 165 118.069 164.514 119.042 163.542C120.014 162.569 120.5 161.389 120.5 160Z" fill="#667EB2"/>
<path id="Vector_386" d="M80.5 165C79.1111 165 77.9306 165.486 76.9583 166.458C75.9861 167.454 75.5 168.634 75.5 170C76.8889 170 78.0694 169.514 79.0417 168.542C80.0139 167.569 80.5 166.389 80.5 165Z" fill="#667EB2"/>
<path id="Vector_387" d="M80.5 170C79.1111 170 77.9306 170.486 76.9583 171.458C75.9861 172.454 75.5 173.634 75.5 175C76.8889 175 78.0694 174.514 79.0417 173.542C80.0139 172.569 80.5 171.389 80.5 170Z" fill="#667EB2"/>
<path id="Vector_388" d="M80.5 175C79.1111 175 77.9306 175.486 76.9583 176.458C75.9861 177.454 75.5 178.634 75.5 180C76.8889 180 78.0694 179.514 79.0417 178.542C80.0139 177.569 80.5 176.389 80.5 175Z" fill="#667EB2"/>
<path id="Vector_389" d="M80.5 180C79.1111 180 77.9306 180.486 76.9583 181.458C75.9861 182.454 75.5 183.634 75.5 185C76.8889 185 78.0694 184.514 79.0417 183.542C80.0139 182.569 80.5 181.389 80.5 180Z" fill="#667EB2"/>
<path id="Vector_390" d="M80.5 185C79.1111 185 77.9306 185.486 76.9583 186.458C75.9861 187.454 75.5 188.634 75.5 190C76.8889 190 78.0694 189.514 79.0417 188.542C80.0139 187.569 80.5 186.389 80.5 185Z" fill="#667EB2"/>
<path id="Vector_391" d="M80.5 190C79.1111 190 77.9306 190.486 76.9583 191.458C75.9861 192.454 75.5 193.634 75.5 195C76.8889 195 78.0694 194.514 79.0417 193.542C80.0139 192.569 80.5 191.389 80.5 190Z" fill="#667EB2"/>
<path id="Vector_392" d="M90.5 70C89.1111 70 87.9306 70.4861 86.9583 71.4583C85.9861 72.4537 85.5 73.6343 85.5 75C86.8889 75 88.0694 74.5139 89.0417 73.5417C90.0139 72.5694 90.5 71.3889 90.5 70Z" fill="#667EB2"/>
<path id="Vector_393" d="M90.5 80C89.1111 80 87.9306 80.4861 86.9583 81.4583C85.9861 82.4537 85.5 83.6343 85.5 85C86.8889 85 88.0694 84.5139 89.0417 83.5417C90.0139 82.5694 90.5 81.3889 90.5 80Z" fill="#667EB2"/>
<path id="Vector_394" d="M90.5 75C89.1111 75 87.9306 75.4861 86.9583 76.4583C85.9861 77.4537 85.5 78.6343 85.5 80C86.8889 80 88.0694 79.5139 89.0417 78.5417C90.0139 77.5694 90.5 76.3889 90.5 75Z" fill="#667EB2"/>
<path id="Vector_395" d="M90.5 85C89.1111 85 87.9306 85.4861 86.9583 86.4583C85.9861 87.4537 85.5 88.6343 85.5 90C86.8889 90 88.0694 89.5139 89.0417 88.5417C90.0139 87.5694 90.5 86.3889 90.5 85Z" fill="#667EB2"/>
<path id="Vector_396" d="M90.5 100C89.1111 100 87.9306 100.486 86.9583 101.458C85.9861 102.454 85.5 103.634 85.5 105C86.8889 105 88.0694 104.514 89.0417 103.542C90.0139 102.569 90.5 101.389 90.5 100Z" fill="#667EB2"/>
<path id="Vector_397" d="M90.5 120C89.1111 120 87.9306 120.486 86.9583 121.458C85.9861 122.454 85.5 123.634 85.5 125C86.8889 125 88.0694 124.514 89.0417 123.542C90.0139 122.569 90.5 121.389 90.5 120Z" fill="#667EB2"/>
<path id="Vector_398" d="M90.5 115C89.1111 115 87.9306 115.486 86.9583 116.458C85.9861 117.454 85.5 118.634 85.5 120C86.8889 120 88.0694 119.514 89.0417 118.542C90.0139 117.569 90.5 116.389 90.5 115Z" fill="#667EB2"/>
<path id="Vector_399" d="M90.5 125C89.1111 125 87.9306 125.486 86.9583 126.458C85.9861 127.454 85.5 128.634 85.5 130C86.8889 130 88.0694 129.514 89.0417 128.542C90.0139 127.569 90.5 126.389 90.5 125Z" fill="#667EB2"/>
</g>
</svg>
