<svg width="101" height="180" viewBox="0 0 101 180" fill="none" xmlns="http://www.w3.org/2000/svg">
<g id="Group 2608756">
<g id="Group 2608751">
<path id="Vector" d="M50.7031 50C49.3142 50 48.1337 50.4861 47.1615 51.4583C46.1892 52.4537 45.7031 53.6343 45.7031 55C47.092 55 48.2726 54.5139 49.2448 53.5417C50.217 52.5694 50.7031 51.3889 50.7031 50Z" fill="#667EB2"/>
<path id="Vector_2" d="M30.7031 50C29.3142 50 28.1337 50.4861 27.1615 51.4583C26.1892 52.4537 25.7031 53.6343 25.7031 55C27.092 55 28.2726 54.5139 29.2448 53.5417C30.217 52.5694 30.7031 51.3889 30.7031 50Z" fill="#667EB2"/>
<path id="Vector_3" d="M50.7031 60C49.3142 60 48.1337 60.4861 47.1615 61.4583C46.1892 62.4537 45.7031 63.6343 45.7031 65C47.092 65 48.2726 64.5139 49.2448 63.5417C50.217 62.5694 50.7031 61.3889 50.7031 60Z" fill="#667EB2"/>
<path id="Vector_4" d="M50.7031 70C49.3142 70 48.1337 70.4861 47.1615 71.4583C46.1892 72.4537 45.7031 73.6343 45.7031 75C47.092 75 48.2726 74.5139 49.2448 73.5417C50.217 72.5694 50.7031 71.3889 50.7031 70Z" fill="#667EB2"/>
<path id="Vector_5" d="M30.7031 60C29.3142 60 28.1337 60.4861 27.1615 61.4583C26.1892 62.4537 25.7031 63.6343 25.7031 65C27.092 65 28.2726 64.5139 29.2448 63.5417C30.217 62.5694 30.7031 61.3889 30.7031 60Z" fill="#667EB2"/>
<path id="Vector_6" d="M50.7031 35C49.3142 35 48.1337 35.4861 47.1615 36.4583C46.1892 37.4537 45.7031 38.6343 45.7031 40C47.092 40 48.2726 39.5139 49.2448 38.5417C50.217 37.5694 50.7031 36.3889 50.7031 35Z" fill="#667EB2"/>
<path id="Vector_7" d="M50.7031 45C49.3142 45 48.1337 45.4861 47.1615 46.4583C46.1892 47.4537 45.7031 48.6343 45.7031 50C47.092 50 48.2726 49.5139 49.2448 48.5417C50.217 47.5694 50.7031 46.3889 50.7031 45Z" fill="#667EB2"/>
<path id="Vector_8" d="M40.7031 50C39.3142 50 38.1337 50.4861 37.1615 51.4583C36.1892 52.4537 35.7031 53.6343 35.7031 55C37.092 55 38.2726 54.5139 39.2448 53.5417C40.217 52.5694 40.7031 51.3889 40.7031 50Z" fill="#667EB2"/>
<path id="Vector_9" d="M40.7031 70C39.3142 70 38.1337 70.4861 37.1615 71.4583C36.1892 72.4537 35.7031 73.6343 35.7031 75C37.092 75 38.2726 74.5139 39.2448 73.5417C40.217 72.5694 40.7031 71.3889 40.7031 70Z" fill="#667EB2"/>
<path id="Vector_10" d="M40.7031 45C39.3142 45 38.1337 45.4861 37.1615 46.4583C36.1892 47.4537 35.7031 48.6343 35.7031 50C37.092 50 38.2726 49.5139 39.2448 48.5417C40.217 47.5694 40.7031 46.3889 40.7031 45Z" fill="#667EB2"/>
<path id="Vector_11" d="M20.7031 70C19.3142 70 18.1337 70.4861 17.1615 71.4583C16.1892 72.4537 15.7031 73.6343 15.7031 75C17.092 75 18.2726 74.5139 19.2448 73.5417C20.217 72.5694 20.7031 71.3889 20.7031 70Z" fill="#667EB2"/>
<path id="Vector_12" d="M50.7031 55C49.3142 55 48.1337 55.4861 47.1615 56.4583C46.1892 57.4537 45.7031 58.6343 45.7031 60C47.092 60 48.2726 59.5139 49.2448 58.5417C50.217 57.5694 50.7031 56.3889 50.7031 55Z" fill="#667EB2"/>
<path id="Vector_13" d="M50.7031 65C49.3142 65 48.1337 65.4861 47.1615 66.4583C46.1892 67.4537 45.7031 68.6343 45.7031 70C47.092 70 48.2726 69.5139 49.2448 68.5417C50.217 67.5694 50.7031 66.3889 50.7031 65Z" fill="#667EB2"/>
<path id="Vector_14" d="M50.7031 40C49.3142 40 48.1337 40.4861 47.1615 41.4583C46.1892 42.4537 45.7031 43.6343 45.7031 45C47.092 45 48.2726 44.5139 49.2448 43.5417C50.217 42.5694 50.7031 41.3889 50.7031 40Z" fill="#667EB2"/>
<path id="Vector_15" d="M40.7031 55C39.3142 55 38.1337 55.4861 37.1615 56.4583C36.1892 57.4537 35.7031 58.6343 35.7031 60C37.092 60 38.2726 59.5139 39.2448 58.5417C40.217 57.5694 40.7031 56.3889 40.7031 55Z" fill="#667EB2"/>
<path id="Vector_16" d="M40.7031 65C39.3142 65 38.1337 65.4861 37.1615 66.4583C36.1892 67.4537 35.7031 68.6343 35.7031 70C37.092 70 38.2726 69.5139 39.2448 68.5417C40.217 67.5694 40.7031 66.3889 40.7031 65Z" fill="#667EB2"/>
<path id="Vector_17" d="M40.7031 40C39.3142 40 38.1337 40.4861 37.1615 41.4583C36.1892 42.4537 35.7031 43.6343 35.7031 45C37.092 45 38.2726 44.5139 39.2448 43.5417C40.217 42.5694 40.7031 41.3889 40.7031 40Z" fill="#667EB2"/>
<path id="Vector_18" d="M30.7031 55C29.3142 55 28.1337 55.4861 27.1615 56.4583C26.1892 57.4537 25.7031 58.6343 25.7031 60C27.092 60 28.2726 59.5139 29.2448 58.5417C30.217 57.5694 30.7031 56.3889 30.7031 55Z" fill="#667EB2"/>
<path id="Vector_19" d="M30.7031 65C29.3142 65 28.1337 65.4861 27.1615 66.4583C26.1892 67.4537 25.7031 68.6343 25.7031 70C27.092 70 28.2726 69.5139 29.2448 68.5417C30.217 67.5694 30.7031 66.3889 30.7031 65Z" fill="#667EB2"/>
<path id="Vector_20" d="M10.7031 70C9.31424 70 8.13368 70.4861 7.16146 71.4583C6.18924 72.4537 5.70312 73.6343 5.70312 75C7.09201 75 8.27257 74.5139 9.24479 73.5417C10.217 72.5694 10.7031 71.3889 10.7031 70Z" fill="#667EB2"/>
<path id="Vector_21" d="M30.7031 50C32.092 50 33.2726 50.4861 34.2448 51.4583C35.217 52.4537 35.7031 53.6343 35.7031 55C34.3142 55 33.1337 54.5139 32.1615 53.5417C31.1892 52.5694 30.7031 51.3889 30.7031 50Z" fill="#667EB2"/>
<path id="Vector_22" d="M30.7031 60C32.092 60 33.2726 60.4861 34.2448 61.4583C35.217 62.4537 35.7031 63.6343 35.7031 65C34.3142 65 33.1337 64.5139 32.1615 63.5417C31.1892 62.5694 30.7031 61.3889 30.7031 60Z" fill="#667EB2"/>
<path id="Vector_23" d="M30.7031 70C32.092 70 33.2726 70.4861 34.2448 71.4583C35.217 72.4537 35.7031 73.6343 35.7031 75C34.3142 75 33.1337 74.5139 32.1615 73.5417C31.1892 72.5694 30.7031 71.3889 30.7031 70Z" fill="#667EB2"/>
<path id="Vector_24" d="M30.7031 45C32.092 45 33.2726 45.4861 34.2448 46.4583C35.217 47.4537 35.7031 48.6343 35.7031 50C34.3142 50 33.1337 49.5139 32.1615 48.5417C31.1892 47.5694 30.7031 46.3889 30.7031 45Z" fill="#667EB2"/>
<path id="Vector_25" d="M40.7031 50C42.092 50 43.2726 50.4861 44.2448 51.4583C45.217 52.4537 45.7031 53.6343 45.7031 55C44.3142 55 43.1337 54.5139 42.1615 53.5417C41.1892 52.5694 40.7031 51.3889 40.7031 50Z" fill="#667EB2"/>
<path id="Vector_26" d="M40.7031 70C42.092 70 43.2726 70.4861 44.2448 71.4583C45.217 72.4537 45.7031 73.6343 45.7031 75C44.3142 75 43.1337 74.5139 42.1615 73.5417C41.1892 72.5694 40.7031 71.3889 40.7031 70Z" fill="#667EB2"/>
<path id="Vector_27" d="M20.7031 70C22.092 70 23.2726 70.4861 24.2448 71.4583C25.217 72.4537 25.7031 73.6343 25.7031 75C24.3142 75 23.1337 74.5139 22.1615 73.5417C21.1892 72.5694 20.7031 71.3889 20.7031 70Z" fill="#667EB2"/>
<path id="Vector_28" d="M40.7031 45C42.092 45 43.2726 45.4861 44.2448 46.4583C45.217 47.4537 45.7031 48.6343 45.7031 50C44.3142 50 43.1337 49.5139 42.1615 48.5417C41.1892 47.5694 40.7031 46.3889 40.7031 45Z" fill="#667EB2"/>
<path id="Vector_29" d="M30.7031 55C32.092 55 33.2726 55.4861 34.2448 56.4583C35.217 57.4537 35.7031 58.6343 35.7031 60C34.3142 60 33.1337 59.5139 32.1615 58.5417C31.1892 57.5694 30.7031 56.3889 30.7031 55Z" fill="#667EB2"/>
<path id="Vector_30" d="M40.7031 55C42.092 55 43.2726 55.4861 44.2448 56.4583C45.217 57.4537 45.7031 58.6343 45.7031 60C44.3142 60 43.1337 59.5139 42.1615 58.5417C41.1892 57.5694 40.7031 56.3889 40.7031 55Z" fill="#667EB2"/>
<path id="Vector_31" d="M40.7031 65C42.092 65 43.2726 65.4861 44.2448 66.4583C45.217 67.4537 45.7031 68.6343 45.7031 70C44.3142 70 43.1337 69.5139 42.1615 68.5417C41.1892 67.5694 40.7031 66.3889 40.7031 65Z" fill="#667EB2"/>
<path id="Vector_32" d="M40.7031 40C42.092 40 43.2726 40.4861 44.2448 41.4583C45.217 42.4537 45.7031 43.6343 45.7031 45C44.3142 45 43.1337 44.5139 42.1615 43.5417C41.1892 42.5694 40.7031 41.3889 40.7031 40Z" fill="#667EB2"/>
<path id="Vector_33" d="M30.7031 65C32.092 65 33.2726 65.4861 34.2448 66.4583C35.217 67.4537 35.7031 68.6343 35.7031 70C34.3142 70 33.1337 69.5139 32.1615 68.5417C31.1892 67.5694 30.7031 66.3889 30.7031 65Z" fill="#667EB2"/>
<path id="Vector_34" d="M40.7031 75C39.3142 75 38.1337 75.4861 37.1615 76.4583C36.1892 77.4537 35.7031 78.6343 35.7031 80C37.092 80 38.2726 79.5139 39.2448 78.5417C40.217 77.5694 40.7031 76.3889 40.7031 75Z" fill="#667EB2"/>
<path id="Vector_35" d="M50.7031 80C49.3142 80 48.1337 80.4861 47.1615 81.4583C46.1892 82.4537 45.7031 83.6343 45.7031 85C47.092 85 48.2726 84.5139 49.2448 83.5417C50.217 82.5694 50.7031 81.3889 50.7031 80Z" fill="#667EB2"/>
<path id="Vector_36" d="M40.7031 80C39.3142 80 38.1337 80.4861 37.1615 81.4583C36.1892 82.4537 35.7031 83.6343 35.7031 85C37.092 85 38.2726 84.5139 39.2448 83.5417C40.217 82.5694 40.7031 81.3889 40.7031 80Z" fill="#667EB2"/>
<path id="Vector_37" d="M30.7031 80C29.3142 80 28.1337 80.4861 27.1615 81.4583C26.1892 82.4537 25.7031 83.6343 25.7031 85C27.092 85 28.2726 84.5139 29.2448 83.5417C30.217 82.5694 30.7031 81.3889 30.7031 80Z" fill="#667EB2"/>
<path id="Vector_38" d="M40.7031 75C42.092 75 43.2726 75.4861 44.2448 76.4583C45.217 77.4537 45.7031 78.6343 45.7031 80C44.3142 80 43.1337 79.5139 42.1615 78.5417C41.1892 77.5694 40.7031 76.3889 40.7031 75Z" fill="#667EB2"/>
<path id="Vector_39" d="M40.7031 80C42.092 80 43.2726 80.4861 44.2448 81.4583C45.217 82.4537 45.7031 83.6343 45.7031 85C44.3142 85 43.1337 84.5139 42.1615 83.5417C41.1892 82.5694 40.7031 81.3889 40.7031 80Z" fill="#667EB2"/>
<path id="Vector_40" d="M10.7031 70C12.092 70 13.2726 70.4861 14.2448 71.4583C15.217 72.4537 15.7031 73.6343 15.7031 75C14.3142 75 13.1337 74.5139 12.1615 73.5417C11.1892 72.5694 10.7031 71.3889 10.7031 70Z" fill="#667EB2"/>
<path id="Vector_41" d="M20.7031 75C19.3142 75 18.1337 75.4861 17.1615 76.4583C16.1892 77.4537 15.7031 78.6343 15.7031 80C17.092 80 18.2726 79.5139 19.2448 78.5417C20.217 77.5694 20.7031 76.3889 20.7031 75Z" fill="#667EB2"/>
<path id="Vector_42" d="M10.7031 75C9.31424 75 8.13368 75.4861 7.16146 76.4583C6.18924 77.4537 5.70312 78.6343 5.70312 80C7.09201 80 8.27257 79.5139 9.24479 78.5417C10.217 77.5694 10.7031 76.3889 10.7031 75Z" fill="#667EB2"/>
<path id="Vector_43" d="M20.7031 80C19.3142 80 18.1337 80.4861 17.1615 81.4583C16.1892 82.4537 15.7031 83.6343 15.7031 85C17.092 85 18.2726 84.5139 19.2448 83.5417C20.217 82.5694 20.7031 81.3889 20.7031 80Z" fill="#667EB2"/>
<path id="Vector_44" d="M10.7031 80C9.31424 80 8.13368 80.4861 7.16146 81.4583C6.18924 82.4537 5.70312 83.6343 5.70312 85C7.09201 85 8.27257 84.5139 9.24479 83.5417C10.217 82.5694 10.7031 81.3889 10.7031 80Z" fill="#667EB2"/>
<path id="Vector_45" d="M30.7031 75C32.092 75 33.2726 75.4861 34.2448 76.4583C35.217 77.4537 35.7031 78.6343 35.7031 80C34.3142 80 33.1337 79.5139 32.1615 78.5417C31.1892 77.5694 30.7031 76.3889 30.7031 75Z" fill="#667EB2"/>
<path id="Vector_46" d="M20.7031 75C22.092 75 23.2726 75.4861 24.2448 76.4583C25.217 77.4537 25.7031 78.6343 25.7031 80C24.3142 80 23.1337 79.5139 22.1615 78.5417C21.1892 77.5694 20.7031 76.3889 20.7031 75Z" fill="#667EB2"/>
<path id="Vector_47" d="M50.7031 110C49.3142 110 48.1337 110.486 47.1615 111.458C46.1892 112.454 45.7031 113.634 45.7031 115C47.092 115 48.2726 114.514 49.2448 113.542C50.217 112.569 50.7031 111.389 50.7031 110Z" fill="#667EB2"/>
<path id="Vector_48" d="M50.7031 120C49.3142 120 48.1337 120.486 47.1615 121.458C46.1892 122.454 45.7031 123.634 45.7031 125C47.092 125 48.2726 124.514 49.2448 123.542C50.217 122.569 50.7031 121.389 50.7031 120Z" fill="#667EB2"/>
<path id="Vector_49" d="M20.7031 80C22.092 80 23.2726 80.4861 24.2448 81.4583C25.217 82.4537 25.7031 83.6343 25.7031 85C24.3142 85 23.1337 84.5139 22.1615 83.5417C21.1892 82.5694 20.7031 81.3889 20.7031 80Z" fill="#667EB2"/>
<path id="Vector_50" d="M40.7031 110C39.3142 110 38.1337 110.486 37.1615 111.458C36.1892 112.454 35.7031 113.634 35.7031 115C37.092 115 38.2726 114.514 39.2448 113.542C40.217 112.569 40.7031 111.389 40.7031 110Z" fill="#667EB2"/>
<path id="Vector_51" d="M10.7031 75C12.092 75 13.2726 75.4861 14.2448 76.4583C15.217 77.4537 15.7031 78.6343 15.7031 80C14.3142 80 13.1337 79.5139 12.1615 78.5417C11.1892 77.5694 10.7031 76.3889 10.7031 75Z" fill="#667EB2"/>
<path id="Vector_52" d="M40.7031 105C39.3142 105 38.1337 105.486 37.1615 106.458C36.1892 107.454 35.7031 108.634 35.7031 110C37.092 110 38.2726 109.514 39.2448 108.542C40.217 107.569 40.7031 106.389 40.7031 105Z" fill="#667EB2"/>
<path id="Vector_53" d="M40.7031 115C39.3142 115 38.1337 115.486 37.1615 116.458C36.1892 117.454 35.7031 118.634 35.7031 120C37.092 120 38.2726 119.514 39.2448 118.542C40.217 117.569 40.7031 116.389 40.7031 115Z" fill="#667EB2"/>
<path id="Vector_54" d="M10.7031 80C12.092 80 13.2726 80.4861 14.2448 81.4583C15.217 82.4537 15.7031 83.6343 15.7031 85C14.3142 85 13.1337 84.5139 12.1615 83.5417C11.1892 82.5694 10.7031 81.3889 10.7031 80Z" fill="#667EB2"/>
<path id="Vector_55" d="M50.7031 140C49.3142 140 48.1337 140.486 47.1615 141.458C46.1892 142.454 45.7031 143.634 45.7031 145C47.092 145 48.2726 144.514 49.2448 143.542C50.217 142.569 50.7031 141.389 50.7031 140Z" fill="#667EB2"/>
<path id="Vector_56" d="M50.7031 150C49.3142 150 48.1337 150.486 47.1615 151.458C46.1892 152.454 45.7031 153.634 45.7031 155C47.092 155 48.2726 154.514 49.2448 153.542C50.217 152.569 50.7031 151.389 50.7031 150Z" fill="#667EB2"/>
<path id="Vector_57" d="M30.7031 110C29.3142 110 28.1337 110.486 27.1615 111.458C26.1892 112.454 25.7031 113.634 25.7031 115C27.092 115 28.2726 114.514 29.2448 113.542C30.217 112.569 30.7031 111.389 30.7031 110Z" fill="#667EB2"/>
<path id="Vector_58" d="M40.7031 140C39.3142 140 38.1337 140.486 37.1615 141.458C36.1892 142.454 35.7031 143.634 35.7031 145C37.092 145 38.2726 144.514 39.2448 143.542C40.217 142.569 40.7031 141.389 40.7031 140Z" fill="#667EB2"/>
<path id="Vector_59" d="M50.7031 130C49.3142 130 48.1337 130.486 47.1615 131.458C46.1892 132.454 45.7031 133.634 45.7031 135C47.092 135 48.2726 134.514 49.2448 133.542C50.217 132.569 50.7031 131.389 50.7031 130Z" fill="#667EB2"/>
<path id="Vector_60" d="M30.7031 120C29.3142 120 28.1337 120.486 27.1615 121.458C26.1892 122.454 25.7031 123.634 25.7031 125C27.092 125 28.2726 124.514 29.2448 123.542C30.217 122.569 30.7031 121.389 30.7031 120Z" fill="#667EB2"/>
<path id="Vector_61" d="M50.7031 100C49.3142 100 48.1337 100.486 47.1615 101.458C46.1892 102.454 45.7031 103.634 45.7031 105C47.092 105 48.2726 104.514 49.2448 103.542C50.217 102.569 50.7031 101.389 50.7031 100Z" fill="#667EB2"/>
<path id="Vector_62" d="M40.7031 150C39.3142 150 38.1337 150.486 37.1615 151.458C36.1892 152.454 35.7031 153.634 35.7031 155C37.092 155 38.2726 154.514 39.2448 153.542C40.217 152.569 40.7031 151.389 40.7031 150Z" fill="#667EB2"/>
<path id="Vector_63" d="M30.7031 105C29.3142 105 28.1337 105.486 27.1615 106.458C26.1892 107.454 25.7031 108.634 25.7031 110C27.092 110 28.2726 109.514 29.2448 108.542C30.217 107.569 30.7031 106.389 30.7031 105Z" fill="#667EB2"/>
<path id="Vector_64" d="M40.7031 160C39.3142 160 38.1337 160.486 37.1615 161.458C36.1892 162.454 35.7031 163.634 35.7031 165C37.092 165 38.2726 164.514 39.2448 163.542C40.217 162.569 40.7031 161.389 40.7031 160Z" fill="#667EB2"/>
<path id="Vector_65" d="M50.7031 135C49.3142 135 48.1337 135.486 47.1615 136.458C46.1892 137.454 45.7031 138.634 45.7031 140C47.092 140 48.2726 139.514 49.2448 138.542C50.217 137.569 50.7031 136.389 50.7031 135Z" fill="#667EB2"/>
<path id="Vector_66" d="M50.7031 145C49.3142 145 48.1337 145.486 47.1615 146.458C46.1892 147.454 45.7031 148.634 45.7031 150C47.092 150 48.2726 149.514 49.2448 148.542C50.217 147.569 50.7031 146.389 50.7031 145Z" fill="#667EB2"/>
<path id="Vector_67" d="M50.7031 155C49.3142 155 48.1337 155.486 47.1615 156.458C46.1892 157.454 45.7031 158.634 45.7031 160C47.092 160 48.2726 159.514 49.2448 158.542C50.217 157.569 50.7031 156.389 50.7031 155Z" fill="#667EB2"/>
<path id="Vector_68" d="M40.7031 125C39.3142 125 38.1337 125.486 37.1615 126.458C36.1892 127.454 35.7031 128.634 35.7031 130C37.092 130 38.2726 129.514 39.2448 128.542C40.217 127.569 40.7031 126.389 40.7031 125Z" fill="#667EB2"/>
<path id="Vector_69" d="M40.7031 145C39.3142 145 38.1337 145.486 37.1615 146.458C36.1892 147.454 35.7031 148.634 35.7031 150C37.092 150 38.2726 149.514 39.2448 148.542C40.217 147.569 40.7031 146.389 40.7031 145Z" fill="#667EB2"/>
<path id="Vector_70" d="M30.7031 115C29.3142 115 28.1337 115.486 27.1615 116.458C26.1892 117.454 25.7031 118.634 25.7031 120C27.092 120 28.2726 119.514 29.2448 118.542C30.217 117.569 30.7031 116.389 30.7031 115Z" fill="#667EB2"/>
<path id="Vector_71" d="M40.7031 135C39.3142 135 38.1337 135.486 37.1615 136.458C36.1892 137.454 35.7031 138.634 35.7031 140C37.092 140 38.2726 139.514 39.2448 138.542C40.217 137.569 40.7031 136.389 40.7031 135Z" fill="#667EB2"/>
<path id="Vector_72" d="M50.7031 85C49.3142 85 48.1337 85.4861 47.1615 86.4583C46.1892 87.4537 45.7031 88.6343 45.7031 90C47.092 90 48.2726 89.5139 49.2448 88.5417C50.217 87.5694 50.7031 86.3889 50.7031 85Z" fill="#667EB2"/>
<path id="Vector_73" d="M40.7031 155C39.3142 155 38.1337 155.486 37.1615 156.458C36.1892 157.454 35.7031 158.634 35.7031 160C37.092 160 38.2726 159.514 39.2448 158.542C40.217 157.569 40.7031 156.389 40.7031 155Z" fill="#667EB2"/>
<path id="Vector_74" d="M30.7031 140C29.3142 140 28.1337 140.486 27.1615 141.458C26.1892 142.454 25.7031 143.634 25.7031 145C27.092 145 28.2726 144.514 29.2448 143.542C30.217 142.569 30.7031 141.389 30.7031 140Z" fill="#667EB2"/>
<path id="Vector_75" d="M40.7031 110C42.092 110 43.2726 110.486 44.2448 111.458C45.217 112.454 45.7031 113.634 45.7031 115C44.3142 115 43.1337 114.514 42.1615 113.542C41.1892 112.569 40.7031 111.389 40.7031 110Z" fill="#667EB2"/>
<path id="Vector_76" d="M40.7031 100C39.3142 100 38.1337 100.486 37.1615 101.458C36.1892 102.454 35.7031 103.634 35.7031 105C37.092 105 38.2726 104.514 39.2448 103.542C40.217 102.569 40.7031 101.389 40.7031 100Z" fill="#667EB2"/>
<path id="Vector_77" d="M40.7031 105C42.092 105 43.2726 105.486 44.2448 106.458C45.217 107.454 45.7031 108.634 45.7031 110C44.3142 110 43.1337 109.514 42.1615 108.542C41.1892 107.569 40.7031 106.389 40.7031 105Z" fill="#667EB2"/>
<path id="Vector_78" d="M40.7031 140C42.092 140 43.2726 140.486 44.2448 141.458C45.217 142.454 45.7031 143.634 45.7031 145C44.3142 145 43.1337 144.514 42.1615 143.542C41.1892 142.569 40.7031 141.389 40.7031 140Z" fill="#667EB2"/>
<path id="Vector_79" d="M40.7031 115C42.092 115 43.2726 115.486 44.2448 116.458C45.217 117.454 45.7031 118.634 45.7031 120C44.3142 120 43.1337 119.514 42.1615 118.542C41.1892 117.569 40.7031 116.389 40.7031 115Z" fill="#667EB2"/>
<path id="Vector_80" d="M0.703125 80C2.09201 80 3.27257 80.4861 4.24479 81.4583C5.21701 82.4537 5.70312 83.6343 5.70312 85C4.31424 85 3.13368 84.5139 2.16146 83.5417C1.18924 82.5694 0.703125 81.3889 0.703125 80Z" fill="#667EB2"/>
<path id="Vector_81" d="M40.7031 85C39.3142 85 38.1337 85.4861 37.1615 86.4583C36.1892 87.4537 35.7031 88.6343 35.7031 90C37.092 90 38.2726 89.5139 39.2448 88.5417C40.217 87.5694 40.7031 86.3889 40.7031 85Z" fill="#667EB2"/>
<path id="Vector_82" d="M40.7031 95C39.3142 95 38.1337 95.4861 37.1615 96.4583C36.1892 97.4537 35.7031 98.6343 35.7031 100C37.092 100 38.2726 99.5139 39.2448 98.5417C40.217 97.5694 40.7031 96.3889 40.7031 95Z" fill="#667EB2"/>
<path id="Vector_83" d="M50.7031 90C49.3142 90 48.1337 90.4861 47.1615 91.4583C46.1892 92.4537 45.7031 93.6343 45.7031 95C47.092 95 48.2726 94.5139 49.2448 93.5417C50.217 92.5694 50.7031 91.3889 50.7031 90Z" fill="#667EB2"/>
<path id="Vector_84" d="M30.7031 130C29.3142 130 28.1337 130.486 27.1615 131.458C26.1892 132.454 25.7031 133.634 25.7031 135C27.092 135 28.2726 134.514 29.2448 133.542C30.217 132.569 30.7031 131.389 30.7031 130Z" fill="#667EB2"/>
<path id="Vector_85" d="M30.7031 165C29.3142 165 28.1337 165.486 27.1615 166.458C26.1892 167.454 25.7031 168.634 25.7031 170C27.092 170 28.2726 169.514 29.2448 168.542C30.217 167.569 30.7031 166.389 30.7031 165Z" fill="#667EB2"/>
<path id="Vector_86" d="M40.7031 90C39.3142 90 38.1337 90.4861 37.1615 91.4583C36.1892 92.4537 35.7031 93.6343 35.7031 95C37.092 95 38.2726 94.5139 39.2448 93.5417C40.217 92.5694 40.7031 91.3889 40.7031 90Z" fill="#667EB2"/>
<path id="Vector_87" d="M30.7031 150C29.3142 150 28.1337 150.486 27.1615 151.458C26.1892 152.454 25.7031 153.634 25.7031 155C27.092 155 28.2726 154.514 29.2448 153.542C30.217 152.569 30.7031 151.389 30.7031 150Z" fill="#667EB2"/>
<path id="Vector_88" d="M30.7031 140C32.092 140 33.2726 140.486 34.2448 141.458C35.217 142.454 35.7031 143.634 35.7031 145C34.3142 145 33.1337 144.514 32.1615 143.542C31.1892 142.569 30.7031 141.389 30.7031 140Z" fill="#667EB2"/>
<path id="Vector_89" d="M30.7031 110C32.092 110 33.2726 110.486 34.2448 111.458C35.217 112.454 35.7031 113.634 35.7031 115C34.3142 115 33.1337 114.514 32.1615 113.542C31.1892 112.569 30.7031 111.389 30.7031 110Z" fill="#667EB2"/>
<path id="Vector_90" d="M40.7031 150C42.092 150 43.2726 150.486 44.2448 151.458C45.217 152.454 45.7031 153.634 45.7031 155C44.3142 155 43.1337 154.514 42.1615 153.542C41.1892 152.569 40.7031 151.389 40.7031 150Z" fill="#667EB2"/>
<path id="Vector_91" d="M30.7031 120C32.092 120 33.2726 120.486 34.2448 121.458C35.217 122.454 35.7031 123.634 35.7031 125C34.3142 125 33.1337 124.514 32.1615 123.542C31.1892 122.569 30.7031 121.389 30.7031 120Z" fill="#667EB2"/>
<path id="Vector_92" d="M40.7031 125C42.092 125 43.2726 125.486 44.2448 126.458C45.217 127.454 45.7031 128.634 45.7031 130C44.3142 130 43.1337 129.514 42.1615 128.542C41.1892 127.569 40.7031 126.389 40.7031 125Z" fill="#667EB2"/>
<path id="Vector_93" d="M40.7031 135C42.092 135 43.2726 135.486 44.2448 136.458C45.217 137.454 45.7031 138.634 45.7031 140C44.3142 140 43.1337 139.514 42.1615 138.542C41.1892 137.569 40.7031 136.389 40.7031 135Z" fill="#667EB2"/>
<path id="Vector_94" d="M20.7031 140C19.3142 140 18.1337 140.486 17.1615 141.458C16.1892 142.454 15.7031 143.634 15.7031 145C17.092 145 18.2726 144.514 19.2448 143.542C20.217 142.569 20.7031 141.389 20.7031 140Z" fill="#667EB2"/>
<path id="Vector_95" d="M40.7031 145C42.092 145 43.2726 145.486 44.2448 146.458C45.217 147.454 45.7031 148.634 45.7031 150C44.3142 150 43.1337 149.514 42.1615 148.542C41.1892 147.569 40.7031 146.389 40.7031 145Z" fill="#667EB2"/>
<path id="Vector_96" d="M40.7031 155C42.092 155 43.2726 155.486 44.2448 156.458C45.217 157.454 45.7031 158.634 45.7031 160C44.3142 160 43.1337 159.514 42.1615 158.542C41.1892 157.569 40.7031 156.389 40.7031 155Z" fill="#667EB2"/>
<path id="Vector_97" d="M30.7031 100C29.3142 100 28.1337 100.486 27.1615 101.458C26.1892 102.454 25.7031 103.634 25.7031 105C27.092 105 28.2726 104.514 29.2448 103.542C30.217 102.569 30.7031 101.389 30.7031 100Z" fill="#667EB2"/>
<path id="Vector_98" d="M30.7031 105C32.092 105 33.2726 105.486 34.2448 106.458C35.217 107.454 35.7031 108.634 35.7031 110C34.3142 110 33.1337 109.514 32.1615 108.542C31.1892 107.569 30.7031 106.389 30.7031 105Z" fill="#667EB2"/>
<path id="Vector_99" d="M30.7031 145C29.3142 145 28.1337 145.486 27.1615 146.458C26.1892 147.454 25.7031 148.634 25.7031 150C27.092 150 28.2726 149.514 29.2448 148.542C30.217 147.569 30.7031 146.389 30.7031 145Z" fill="#667EB2"/>
<path id="Vector_100" d="M30.7031 155C29.3142 155 28.1337 155.486 27.1615 156.458C26.1892 157.454 25.7031 158.634 25.7031 160C27.092 160 28.2726 159.514 29.2448 158.542C30.217 157.569 30.7031 156.389 30.7031 155Z" fill="#667EB2"/>
<path id="Vector_101" d="M20.7031 150C19.3142 150 18.1337 150.486 17.1615 151.458C16.1892 152.454 15.7031 153.634 15.7031 155C17.092 155 18.2726 154.514 19.2448 153.542C20.217 152.569 20.7031 151.389 20.7031 150Z" fill="#667EB2"/>
<path id="Vector_102" d="M30.7031 125C29.3142 125 28.1337 125.486 27.1615 126.458C26.1892 127.454 25.7031 128.634 25.7031 130C27.092 130 28.2726 129.514 29.2448 128.542C30.217 127.569 30.7031 126.389 30.7031 125Z" fill="#667EB2"/>
<path id="Vector_103" d="M30.7031 135C29.3142 135 28.1337 135.486 27.1615 136.458C26.1892 137.454 25.7031 138.634 25.7031 140C27.092 140 28.2726 139.514 29.2448 138.542C30.217 137.569 30.7031 136.389 30.7031 135Z" fill="#667EB2"/>
<path id="Vector_104" d="M20.7031 160C19.3142 160 18.1337 160.486 17.1615 161.458C16.1892 162.454 15.7031 163.634 15.7031 165C17.092 165 18.2726 164.514 19.2448 163.542C20.217 162.569 20.7031 161.389 20.7031 160Z" fill="#667EB2"/>
<path id="Vector_105" d="M30.7031 115C32.092 115 33.2726 115.486 34.2448 116.458C35.217 117.454 35.7031 118.634 35.7031 120C34.3142 120 33.1337 119.514 32.1615 118.542C31.1892 117.569 30.7031 116.389 30.7031 115Z" fill="#667EB2"/>
<path id="Vector_106" d="M20.7031 165C19.3142 165 18.1337 165.486 17.1615 166.458C16.1892 167.454 15.7031 168.634 15.7031 170C17.092 170 18.2726 169.514 19.2448 168.542C20.217 167.569 20.7031 166.389 20.7031 165Z" fill="#667EB2"/>
<path id="Vector_107" d="M30.7031 175C29.3142 175 28.1337 175.486 27.1615 176.458C26.1892 177.454 25.7031 178.634 25.7031 180C27.092 180 28.2726 179.514 29.2448 178.542C30.217 177.569 30.7031 176.389 30.7031 175Z" fill="#667EB2"/>
<path id="Vector_108" d="M30.7031 150C32.092 150 33.2726 150.486 34.2448 151.458C35.217 152.454 35.7031 153.634 35.7031 155C34.3142 155 33.1337 154.514 32.1615 153.542C31.1892 152.569 30.7031 151.389 30.7031 150Z" fill="#667EB2"/>
<path id="Vector_109" d="M30.7031 160C32.092 160 33.2726 160.486 34.2448 161.458C35.217 162.454 35.7031 163.634 35.7031 165C34.3142 165 33.1337 164.514 32.1615 163.542C31.1892 162.569 30.7031 161.389 30.7031 160Z" fill="#667EB2"/>
<path id="Vector_110" d="M20.7031 100C19.3142 100 18.1337 100.486 17.1615 101.458C16.1892 102.454 15.7031 103.634 15.7031 105C17.092 105 18.2726 104.514 19.2448 103.542C20.217 102.569 20.7031 101.389 20.7031 100Z" fill="#667EB2"/>
<path id="Vector_111" d="M20.7031 105C22.092 105 23.2726 105.486 24.2448 106.458C25.217 107.454 25.7031 108.634 25.7031 110C24.3142 110 23.1337 109.514 22.1615 108.542C21.1892 107.569 20.7031 106.389 20.7031 105Z" fill="#667EB2"/>
<path id="Vector_112" d="M30.7031 145C32.092 145 33.2726 145.486 34.2448 146.458C35.217 147.454 35.7031 148.634 35.7031 150C34.3142 150 33.1337 149.514 32.1615 148.542C31.1892 147.569 30.7031 146.389 30.7031 145Z" fill="#667EB2"/>
<path id="Vector_113" d="M30.7031 155C32.092 155 33.2726 155.486 34.2448 156.458C35.217 157.454 35.7031 158.634 35.7031 160C34.3142 160 33.1337 159.514 32.1615 158.542C31.1892 157.569 30.7031 156.389 30.7031 155Z" fill="#667EB2"/>
<path id="Vector_114" d="M20.7031 175C19.3142 175 18.1337 175.486 17.1615 176.458C16.1892 177.454 15.7031 178.634 15.7031 180C17.092 180 18.2726 179.514 19.2448 178.542C20.217 177.569 20.7031 176.389 20.7031 175Z" fill="#667EB2"/>
<path id="Vector_115" d="M10.7031 165C9.31424 165 8.13368 165.486 7.16146 166.458C6.18924 167.454 5.70312 168.634 5.70312 170C7.09201 170 8.27257 169.514 9.24479 168.542C10.217 167.569 10.7031 166.389 10.7031 165Z" fill="#667EB2"/>
<path id="Vector_116" d="M30.7031 130C32.092 130 33.2726 130.486 34.2448 131.458C35.217 132.454 35.7031 133.634 35.7031 135C34.3142 135 33.1337 134.514 32.1615 133.542C31.1892 132.569 30.7031 131.389 30.7031 130Z" fill="#667EB2"/>
<path id="Vector_117" d="M30.7031 165C32.092 165 33.2726 165.486 34.2448 166.458C35.217 167.454 35.7031 168.634 35.7031 170C34.3142 170 33.1337 169.514 32.1615 168.542C31.1892 167.569 30.7031 166.389 30.7031 165Z" fill="#667EB2"/>
<path id="Vector_118" d="M30.7031 85C29.3142 85 28.1337 85.4861 27.1615 86.4583C26.1892 87.4537 25.7031 88.6343 25.7031 90C27.092 90 28.2726 89.5139 29.2448 88.5417C30.217 87.5694 30.7031 86.3889 30.7031 85Z" fill="#667EB2"/>
<path id="Vector_119" d="M40.7031 100C42.092 100 43.2726 100.486 44.2448 101.458C45.217 102.454 45.7031 103.634 45.7031 105C44.3142 105 43.1337 104.514 42.1615 103.542C41.1892 102.569 40.7031 101.389 40.7031 100Z" fill="#667EB2"/>
<path id="Vector_120" d="M30.7031 95C29.3142 95 28.1337 95.4861 27.1615 96.4583C26.1892 97.4537 25.7031 98.6343 25.7031 100C27.092 100 28.2726 99.5139 29.2448 98.5417C30.217 97.5694 30.7031 96.3889 30.7031 95Z" fill="#667EB2"/>
<path id="Vector_121" d="M20.7031 140C22.092 140 23.2726 140.486 24.2448 141.458C25.217 142.454 25.7031 143.634 25.7031 145C24.3142 145 23.1337 144.514 22.1615 143.542C21.1892 142.569 20.7031 141.389 20.7031 140Z" fill="#667EB2"/>
<path id="Vector_122" d="M30.7031 125C32.092 125 33.2726 125.486 34.2448 126.458C35.217 127.454 35.7031 128.634 35.7031 130C34.3142 130 33.1337 129.514 32.1615 128.542C31.1892 127.569 30.7031 126.389 30.7031 125Z" fill="#667EB2"/>
<path id="Vector_123" d="M10.7031 160C9.31424 160 8.13368 160.486 7.16146 161.458C6.18924 162.454 5.70312 163.634 5.70312 165C7.09201 165 8.27257 164.514 9.24479 163.542C10.217 162.569 10.7031 161.389 10.7031 160Z" fill="#667EB2"/>
<path id="Vector_124" d="M30.7031 135C32.092 135 33.2726 135.486 34.2448 136.458C35.217 137.454 35.7031 138.634 35.7031 140C34.3142 140 33.1337 139.514 32.1615 138.542C31.1892 137.569 30.7031 136.389 30.7031 135Z" fill="#667EB2"/>
<path id="Vector_125" d="M20.7031 135C19.3142 135 18.1337 135.486 17.1615 136.458C16.1892 137.454 15.7031 138.634 15.7031 140C17.092 140 18.2726 139.514 19.2448 138.542C20.217 137.569 20.7031 136.389 20.7031 135Z" fill="#667EB2"/>
<path id="Vector_126" d="M40.7031 85C42.092 85 43.2726 85.4861 44.2448 86.4583C45.217 87.4537 45.7031 88.6343 45.7031 90C44.3142 90 43.1337 89.5139 42.1615 88.5417C41.1892 87.5694 40.7031 86.3889 40.7031 85Z" fill="#667EB2"/>
<path id="Vector_127" d="M20.7031 145C19.3142 145 18.1337 145.486 17.1615 146.458C16.1892 147.454 15.7031 148.634 15.7031 150C17.092 150 18.2726 149.514 19.2448 148.542C20.217 147.569 20.7031 146.389 20.7031 145Z" fill="#667EB2"/>
<path id="Vector_128" d="M40.7031 95C42.092 95 43.2726 95.4861 44.2448 96.4583C45.217 97.4537 45.7031 98.6343 45.7031 100C44.3142 100 43.1337 99.5139 42.1615 98.5417C41.1892 97.5694 40.7031 96.3889 40.7031 95Z" fill="#667EB2"/>
<path id="Vector_129" d="M20.7031 155C19.3142 155 18.1337 155.486 17.1615 156.458C16.1892 157.454 15.7031 158.634 15.7031 160C17.092 160 18.2726 159.514 19.2448 158.542C20.217 157.569 20.7031 156.389 20.7031 155Z" fill="#667EB2"/>
<path id="Vector_130" d="M40.7031 90C42.092 90 43.2726 90.4861 44.2448 91.4583C45.217 92.4537 45.7031 93.6343 45.7031 95C44.3142 95 43.1337 94.5139 42.1615 93.5417C41.1892 92.5694 40.7031 91.3889 40.7031 90Z" fill="#667EB2"/>
<path id="Vector_131" d="M20.7031 85C19.3142 85 18.1337 85.4861 17.1615 86.4583C16.1892 87.4537 15.7031 88.6343 15.7031 90C17.092 90 18.2726 89.5139 19.2448 88.5417C20.217 87.5694 20.7031 86.3889 20.7031 85Z" fill="#667EB2"/>
<path id="Vector_132" d="M20.7031 95C19.3142 95 18.1337 95.4861 17.1615 96.4583C16.1892 97.4537 15.7031 98.6343 15.7031 100C17.092 100 18.2726 99.5139 19.2448 98.5417C20.217 97.5694 20.7031 96.3889 20.7031 95Z" fill="#667EB2"/>
<path id="Vector_133" d="M10.7031 155C9.31424 155 8.13368 155.486 7.16146 156.458C6.18924 157.454 5.70312 158.634 5.70312 160C7.09201 160 8.27257 159.514 9.24479 158.542C10.217 157.569 10.7031 156.389 10.7031 155Z" fill="#667EB2"/>
<path id="Vector_134" d="M30.7031 170C29.3142 170 28.1337 170.486 27.1615 171.458C26.1892 172.454 25.7031 173.634 25.7031 175C27.092 175 28.2726 174.514 29.2448 173.542C30.217 172.569 30.7031 171.389 30.7031 170Z" fill="#667EB2"/>
<path id="Vector_135" d="M30.7031 90C29.3142 90 28.1337 90.4861 27.1615 91.4583C26.1892 92.4537 25.7031 93.6343 25.7031 95C27.092 95 28.2726 94.5139 29.2448 93.5417C30.217 92.5694 30.7031 91.3889 30.7031 90Z" fill="#667EB2"/>
<path id="Vector_136" d="M10.7031 140C12.092 140 13.2726 140.486 14.2448 141.458C15.217 142.454 15.7031 143.634 15.7031 145C14.3142 145 13.1337 144.514 12.1615 143.542C11.1892 142.569 10.7031 141.389 10.7031 140Z" fill="#667EB2"/>
<path id="Vector_137" d="M30.7031 100C32.092 100 33.2726 100.486 34.2448 101.458C35.217 102.454 35.7031 103.634 35.7031 105C34.3142 105 33.1337 104.514 32.1615 103.542C31.1892 102.569 30.7031 101.389 30.7031 100Z" fill="#667EB2"/>
<path id="Vector_138" d="M20.7031 130C22.092 130 23.2726 130.486 24.2448 131.458C25.217 132.454 25.7031 133.634 25.7031 135C24.3142 135 23.1337 134.514 22.1615 133.542C21.1892 132.569 20.7031 131.389 20.7031 130Z" fill="#667EB2"/>
<path id="Vector_139" d="M30.7031 85C32.092 85 33.2726 85.4861 34.2448 86.4583C35.217 87.4537 35.7031 88.6343 35.7031 90C34.3142 90 33.1337 89.5139 32.1615 88.5417C31.1892 87.5694 30.7031 86.3889 30.7031 85Z" fill="#667EB2"/>
<path id="Vector_140" d="M30.7031 95C32.092 95 33.2726 95.4861 34.2448 96.4583C35.217 97.4537 35.7031 98.6343 35.7031 100C34.3142 100 33.1337 99.5139 32.1615 98.5417C31.1892 97.5694 30.7031 96.3889 30.7031 95Z" fill="#667EB2"/>
<path id="Vector_141" d="M20.7031 165C22.092 165 23.2726 165.486 24.2448 166.458C25.217 167.454 25.7031 168.634 25.7031 170C24.3142 170 23.1337 169.514 22.1615 168.542C21.1892 167.569 20.7031 166.389 20.7031 165Z" fill="#667EB2"/>
<path id="Vector_142" d="M20.7031 150C22.092 150 23.2726 150.486 24.2448 151.458C25.217 152.454 25.7031 153.634 25.7031 155C24.3142 155 23.1337 154.514 22.1615 153.542C21.1892 152.569 20.7031 151.389 20.7031 150Z" fill="#667EB2"/>
<path id="Vector_143" d="M10.7031 85C9.31424 85 8.13368 85.4861 7.16146 86.4583C6.18924 87.4537 5.70312 88.6343 5.70312 90C7.09201 90 8.27257 89.5139 9.24479 88.5417C10.217 87.5694 10.7031 86.3889 10.7031 85Z" fill="#667EB2"/>
<path id="Vector_144" d="M30.7031 90C32.092 90 33.2726 90.4861 34.2448 91.4583C35.217 92.4537 35.7031 93.6343 35.7031 95C34.3142 95 33.1337 94.5139 32.1615 93.5417C31.1892 92.5694 30.7031 91.3889 30.7031 90Z" fill="#667EB2"/>
<path id="Vector_145" d="M10.7031 95C9.31424 95 8.13368 95.4861 7.16146 96.4583C6.18924 97.4537 5.70312 98.6343 5.70312 100C7.09201 100 8.27257 99.5139 9.24479 98.5417C10.217 97.5694 10.7031 96.3889 10.7031 95Z" fill="#667EB2"/>
<path id="Vector_146" d="M20.7031 170C19.3142 170 18.1337 170.486 17.1615 171.458C16.1892 172.454 15.7031 173.634 15.7031 175C17.092 175 18.2726 174.514 19.2448 173.542C20.217 172.569 20.7031 171.389 20.7031 170Z" fill="#667EB2"/>
<path id="Vector_147" d="M20.7031 90C19.3142 90 18.1337 90.4861 17.1615 91.4583C16.1892 92.4537 15.7031 93.6343 15.7031 95C17.092 95 18.2726 94.5139 19.2448 93.5417C20.217 92.5694 20.7031 91.3889 20.7031 90Z" fill="#667EB2"/>
<path id="Vector_148" d="M20.7031 135C22.092 135 23.2726 135.486 24.2448 136.458C25.217 137.454 25.7031 138.634 25.7031 140C24.3142 140 23.1337 139.514 22.1615 138.542C21.1892 137.569 20.7031 136.389 20.7031 135Z" fill="#667EB2"/>
<path id="Vector_149" d="M10.7031 90C9.31424 90 8.13368 90.4861 7.16146 91.4583C6.18924 92.4537 5.70312 93.6343 5.70312 95C7.09201 95 8.27257 94.5139 9.24479 93.5417C10.217 92.5694 10.7031 91.3889 10.7031 90Z" fill="#667EB2"/>
<path id="Vector_150" d="M20.7031 145C22.092 145 23.2726 145.486 24.2448 146.458C25.217 147.454 25.7031 148.634 25.7031 150C24.3142 150 23.1337 149.514 22.1615 148.542C21.1892 147.569 20.7031 146.389 20.7031 145Z" fill="#667EB2"/>
<path id="Vector_151" d="M20.7031 155C22.092 155 23.2726 155.486 24.2448 156.458C25.217 157.454 25.7031 158.634 25.7031 160C24.3142 160 23.1337 159.514 22.1615 158.542C21.1892 157.569 20.7031 156.389 20.7031 155Z" fill="#667EB2"/>
<path id="Vector_152" d="M10.7031 165C12.092 165 13.2726 165.486 14.2448 166.458C15.217 167.454 15.7031 168.634 15.7031 170C14.3142 170 13.1337 169.514 12.1615 168.542C11.1892 167.569 10.7031 166.389 10.7031 165Z" fill="#667EB2"/>
<path id="Vector_153" d="M10.7031 150C12.092 150 13.2726 150.486 14.2448 151.458C15.217 152.454 15.7031 153.634 15.7031 155C14.3142 155 13.1337 154.514 12.1615 153.542C11.1892 152.569 10.7031 151.389 10.7031 150Z" fill="#667EB2"/>
<path id="Vector_154" d="M20.7031 100C22.092 100 23.2726 100.486 24.2448 101.458C25.217 102.454 25.7031 103.634 25.7031 105C24.3142 105 23.1337 104.514 22.1615 103.542C21.1892 102.569 20.7031 101.389 20.7031 100Z" fill="#667EB2"/>
<path id="Vector_155" d="M10.7031 160C12.092 160 13.2726 160.486 14.2448 161.458C15.217 162.454 15.7031 163.634 15.7031 165C14.3142 165 13.1337 164.514 12.1615 163.542C11.1892 162.569 10.7031 161.389 10.7031 160Z" fill="#667EB2"/>
<path id="Vector_156" d="M20.7031 175C22.092 175 23.2726 175.486 24.2448 176.458C25.217 177.454 25.7031 178.634 25.7031 180C24.3142 180 23.1337 179.514 22.1615 178.542C21.1892 177.569 20.7031 176.389 20.7031 175Z" fill="#667EB2"/>
<path id="Vector_157" d="M10.7031 145C12.092 145 13.2726 145.486 14.2448 146.458C15.217 147.454 15.7031 148.634 15.7031 150C14.3142 150 13.1337 149.514 12.1615 148.542C11.1892 147.569 10.7031 146.389 10.7031 145Z" fill="#667EB2"/>
<path id="Vector_158" d="M20.7031 85C22.092 85 23.2726 85.4861 24.2448 86.4583C25.217 87.4537 25.7031 88.6343 25.7031 90C24.3142 90 23.1337 89.5139 22.1615 88.5417C21.1892 87.5694 20.7031 86.3889 20.7031 85Z" fill="#667EB2"/>
<path id="Vector_159" d="M10.7031 155C12.092 155 13.2726 155.486 14.2448 156.458C15.217 157.454 15.7031 158.634 15.7031 160C14.3142 160 13.1337 159.514 12.1615 158.542C11.1892 157.569 10.7031 156.389 10.7031 155Z" fill="#667EB2"/>
<path id="Vector_160" d="M20.7031 95C22.092 95 23.2726 95.4861 24.2448 96.4583C25.217 97.4537 25.7031 98.6343 25.7031 100C24.3142 100 23.1337 99.5139 22.1615 98.5417C21.1892 97.5694 20.7031 96.3889 20.7031 95Z" fill="#667EB2"/>
<path id="Vector_161" d="M20.7031 170C22.092 170 23.2726 170.486 24.2448 171.458C25.217 172.454 25.7031 173.634 25.7031 175C24.3142 175 23.1337 174.514 22.1615 173.542C21.1892 172.569 20.7031 171.389 20.7031 170Z" fill="#667EB2"/>
<path id="Vector_162" d="M20.7031 90C22.092 90 23.2726 90.4861 24.2448 91.4583C25.217 92.4537 25.7031 93.6343 25.7031 95C24.3142 95 23.1337 94.5139 22.1615 93.5417C21.1892 92.5694 20.7031 91.3889 20.7031 90Z" fill="#667EB2"/>
<path id="Vector_163" d="M10.7031 175C12.092 175 13.2726 175.486 14.2448 176.458C15.217 177.454 15.7031 178.634 15.7031 180C14.3142 180 13.1337 179.514 12.1615 178.542C11.1892 177.569 10.7031 176.389 10.7031 175Z" fill="#667EB2"/>
<path id="Vector_164" d="M10.7031 85C12.092 85 13.2726 85.4861 14.2448 86.4583C15.217 87.4537 15.7031 88.6343 15.7031 90C14.3142 90 13.1337 89.5139 12.1615 88.5417C11.1892 87.5694 10.7031 86.3889 10.7031 85Z" fill="#667EB2"/>
<path id="Vector_165" d="M10.7031 95C12.092 95 13.2726 95.4861 14.2448 96.4583C15.217 97.4537 15.7031 98.6343 15.7031 100C14.3142 100 13.1337 99.5139 12.1615 98.5417C11.1892 97.5694 10.7031 96.3889 10.7031 95Z" fill="#667EB2"/>
<path id="Vector_166" d="M10.7031 170C12.092 170 13.2726 170.486 14.2448 171.458C15.217 172.454 15.7031 173.634 15.7031 175C14.3142 175 13.1337 174.514 12.1615 173.542C11.1892 172.569 10.7031 171.389 10.7031 170Z" fill="#667EB2"/>
<path id="Vector_167" d="M10.7031 90C12.092 90 13.2726 90.4861 14.2448 91.4583C15.217 92.4537 15.7031 93.6343 15.7031 95C14.3142 95 13.1337 94.5139 12.1615 93.5417C11.1892 92.5694 10.7031 91.3889 10.7031 90Z" fill="#667EB2"/>
<path id="Vector_168" d="M0.703125 85C2.09201 85 3.27257 85.4861 4.24479 86.4583C5.21701 87.4537 5.70312 88.6343 5.70312 90C4.31424 90 3.13368 89.5139 2.16146 88.5417C1.18924 87.5694 0.703125 86.3889 0.703125 85Z" fill="#667EB2"/>
<path id="Vector_169" d="M0.703125 90C2.09201 90 3.27257 90.4861 4.24479 91.4583C5.21701 92.4537 5.70312 93.6343 5.70312 95C4.31424 95 3.13368 94.5139 2.16146 93.5417C1.18924 92.5694 0.703125 91.3889 0.703125 90Z" fill="#667EB2"/>
<path id="Vector_170" d="M50.7031 50C52.092 50 53.2726 50.4861 54.2448 51.4583C55.217 52.4537 55.7031 53.6343 55.7031 55C54.3142 55 53.1337 54.5139 52.1615 53.5417C51.1892 52.5694 50.7031 51.3889 50.7031 50Z" fill="#667EB2"/>
<path id="Vector_171" d="M70.7031 50C72.092 50 73.2726 50.4861 74.2448 51.4583C75.217 52.4537 75.7031 53.6343 75.7031 55C74.3142 55 73.1337 54.5139 72.1615 53.5417C71.1892 52.5694 70.7031 51.3889 70.7031 50Z" fill="#667EB2"/>
<path id="Vector_172" d="M50.7031 60C52.092 60 53.2726 60.4861 54.2448 61.4583C55.217 62.4537 55.7031 63.6343 55.7031 65C54.3142 65 53.1337 64.5139 52.1615 63.5417C51.1892 62.5694 50.7031 61.3889 50.7031 60Z" fill="#667EB2"/>
<path id="Vector_173" d="M50.7031 70C52.092 70 53.2726 70.4861 54.2448 71.4583C55.217 72.4537 55.7031 73.6343 55.7031 75C54.3142 75 53.1337 74.5139 52.1615 73.5417C51.1892 72.5694 50.7031 71.3889 50.7031 70Z" fill="#667EB2"/>
<path id="Vector_174" d="M70.7031 60C72.092 60 73.2726 60.4861 74.2448 61.4583C75.217 62.4537 75.7031 63.6343 75.7031 65C74.3142 65 73.1337 64.5139 72.1615 63.5417C71.1892 62.5694 70.7031 61.3889 70.7031 60Z" fill="#667EB2"/>
<path id="Vector_175" d="M50.7031 35C52.092 35 53.2726 35.4861 54.2448 36.4583C55.217 37.4537 55.7031 38.6343 55.7031 40C54.3142 40 53.1337 39.5139 52.1615 38.5417C51.1892 37.5694 50.7031 36.3889 50.7031 35Z" fill="#667EB2"/>
<path id="Vector_176" d="M50.7031 45C52.092 45 53.2726 45.4861 54.2448 46.4583C55.217 47.4537 55.7031 48.6343 55.7031 50C54.3142 50 53.1337 49.5139 52.1615 48.5417C51.1892 47.5694 50.7031 46.3889 50.7031 45Z" fill="#667EB2"/>
<path id="Vector_177" d="M60.7031 50C62.092 50 63.2726 50.4861 64.2448 51.4583C65.217 52.4537 65.7031 53.6343 65.7031 55C64.3142 55 63.1337 54.5139 62.1615 53.5417C61.1892 52.5694 60.7031 51.3889 60.7031 50Z" fill="#667EB2"/>
<path id="Vector_178" d="M60.7031 70C62.092 70 63.2726 70.4861 64.2448 71.4583C65.217 72.4537 65.7031 73.6343 65.7031 75C64.3142 75 63.1337 74.5139 62.1615 73.5417C61.1892 72.5694 60.7031 71.3889 60.7031 70Z" fill="#667EB2"/>
<path id="Vector_179" d="M60.7031 45C62.092 45 63.2726 45.4861 64.2448 46.4583C65.217 47.4537 65.7031 48.6343 65.7031 50C64.3142 50 63.1337 49.5139 62.1615 48.5417C61.1892 47.5694 60.7031 46.3889 60.7031 45Z" fill="#667EB2"/>
<path id="Vector_180" d="M80.7031 70C82.092 70 83.2726 70.4861 84.2448 71.4583C85.217 72.4537 85.7031 73.6343 85.7031 75C84.3142 75 83.1337 74.5139 82.1615 73.5417C81.1892 72.5694 80.7031 71.3889 80.7031 70Z" fill="#667EB2"/>
<path id="Vector_181" d="M50.7031 55C52.092 55 53.2726 55.4861 54.2448 56.4583C55.217 57.4537 55.7031 58.6343 55.7031 60C54.3142 60 53.1337 59.5139 52.1615 58.5417C51.1892 57.5694 50.7031 56.3889 50.7031 55Z" fill="#667EB2"/>
<path id="Vector_182" d="M50.7031 65C52.092 65 53.2726 65.4861 54.2448 66.4583C55.217 67.4537 55.7031 68.6343 55.7031 70C54.3142 70 53.1337 69.5139 52.1615 68.5417C51.1892 67.5694 50.7031 66.3889 50.7031 65Z" fill="#667EB2"/>
<path id="Vector_183" d="M50.7031 40C52.092 40 53.2726 40.4861 54.2448 41.4583C55.217 42.4537 55.7031 43.6343 55.7031 45C54.3142 45 53.1337 44.5139 52.1615 43.5417C51.1892 42.5694 50.7031 41.3889 50.7031 40Z" fill="#667EB2"/>
<path id="Vector_184" d="M60.7031 55C62.092 55 63.2726 55.4861 64.2448 56.4583C65.217 57.4537 65.7031 58.6343 65.7031 60C64.3142 60 63.1337 59.5139 62.1615 58.5417C61.1892 57.5694 60.7031 56.3889 60.7031 55Z" fill="#667EB2"/>
<path id="Vector_185" d="M60.7031 65C62.092 65 63.2726 65.4861 64.2448 66.4583C65.217 67.4537 65.7031 68.6343 65.7031 70C64.3142 70 63.1337 69.5139 62.1615 68.5417C61.1892 67.5694 60.7031 66.3889 60.7031 65Z" fill="#667EB2"/>
<path id="Vector_186" d="M60.7031 40C62.092 40 63.2726 40.4861 64.2448 41.4583C65.217 42.4537 65.7031 43.6343 65.7031 45C64.3142 45 63.1337 44.5139 62.1615 43.5417C61.1892 42.5694 60.7031 41.3889 60.7031 40Z" fill="#667EB2"/>
<path id="Vector_187" d="M70.7031 55C72.092 55 73.2726 55.4861 74.2448 56.4583C75.217 57.4537 75.7031 58.6343 75.7031 60C74.3142 60 73.1337 59.5139 72.1615 58.5417C71.1892 57.5694 70.7031 56.3889 70.7031 55Z" fill="#667EB2"/>
<path id="Vector_188" d="M70.7031 65C72.092 65 73.2726 65.4861 74.2448 66.4583C75.217 67.4537 75.7031 68.6343 75.7031 70C74.3142 70 73.1337 69.5139 72.1615 68.5417C71.1892 67.5694 70.7031 66.3889 70.7031 65Z" fill="#667EB2"/>
<path id="Vector_189" d="M90.7031 70C92.092 70 93.2726 70.4861 94.2448 71.4583C95.217 72.4537 95.7031 73.6343 95.7031 75C94.3142 75 93.1337 74.5139 92.1615 73.5417C91.1892 72.5694 90.7031 71.3889 90.7031 70Z" fill="#667EB2"/>
<path id="Vector_190" d="M70.7031 50C69.3142 50 68.1337 50.4861 67.1615 51.4583C66.1892 52.4537 65.7031 53.6343 65.7031 55C67.092 55 68.2726 54.5139 69.2448 53.5417C70.217 52.5694 70.7031 51.3889 70.7031 50Z" fill="#667EB2"/>
<path id="Vector_191" d="M70.7031 60C69.3142 60 68.1337 60.4861 67.1615 61.4583C66.1892 62.4537 65.7031 63.6343 65.7031 65C67.092 65 68.2726 64.5139 69.2448 63.5417C70.217 62.5694 70.7031 61.3889 70.7031 60Z" fill="#667EB2"/>
<path id="Vector_192" d="M70.7031 70C69.3142 70 68.1337 70.4861 67.1615 71.4583C66.1892 72.4537 65.7031 73.6343 65.7031 75C67.092 75 68.2726 74.5139 69.2448 73.5417C70.217 72.5694 70.7031 71.3889 70.7031 70Z" fill="#667EB2"/>
<path id="Vector_193" d="M70.7031 45C69.3142 45 68.1337 45.4861 67.1615 46.4583C66.1892 47.4537 65.7031 48.6343 65.7031 50C67.092 50 68.2726 49.5139 69.2448 48.5417C70.217 47.5694 70.7031 46.3889 70.7031 45Z" fill="#667EB2"/>
<path id="Vector_194" d="M60.7031 50C59.3142 50 58.1337 50.4861 57.1615 51.4583C56.1892 52.4537 55.7031 53.6343 55.7031 55C57.092 55 58.2726 54.5139 59.2448 53.5417C60.217 52.5694 60.7031 51.3889 60.7031 50Z" fill="#667EB2"/>
<path id="Vector_195" d="M60.7031 70C59.3142 70 58.1337 70.4861 57.1615 71.4583C56.1892 72.4537 55.7031 73.6343 55.7031 75C57.092 75 58.2726 74.5139 59.2448 73.5417C60.217 72.5694 60.7031 71.3889 60.7031 70Z" fill="#667EB2"/>
<path id="Vector_196" d="M80.7031 70C79.3142 70 78.1337 70.4861 77.1615 71.4583C76.1892 72.4537 75.7031 73.6343 75.7031 75C77.092 75 78.2726 74.5139 79.2448 73.5417C80.217 72.5694 80.7031 71.3889 80.7031 70Z" fill="#667EB2"/>
<path id="Vector_197" d="M60.7031 45C59.3142 45 58.1337 45.4861 57.1615 46.4583C56.1892 47.4537 55.7031 48.6343 55.7031 50C57.092 50 58.2726 49.5139 59.2448 48.5417C60.217 47.5694 60.7031 46.3889 60.7031 45Z" fill="#667EB2"/>
<path id="Vector_198" d="M70.7031 55C69.3142 55 68.1337 55.4861 67.1615 56.4583C66.1892 57.4537 65.7031 58.6343 65.7031 60C67.092 60 68.2726 59.5139 69.2448 58.5417C70.217 57.5694 70.7031 56.3889 70.7031 55Z" fill="#667EB2"/>
<path id="Vector_199" d="M60.7031 55C59.3142 55 58.1337 55.4861 57.1615 56.4583C56.1892 57.4537 55.7031 58.6343 55.7031 60C57.092 60 58.2726 59.5139 59.2448 58.5417C60.217 57.5694 60.7031 56.3889 60.7031 55Z" fill="#667EB2"/>
<path id="Vector_200" d="M60.7031 65C59.3142 65 58.1337 65.4861 57.1615 66.4583C56.1892 67.4537 55.7031 68.6343 55.7031 70C57.092 70 58.2726 69.5139 59.2448 68.5417C60.217 67.5694 60.7031 66.3889 60.7031 65Z" fill="#667EB2"/>
<path id="Vector_201" d="M60.7031 40C59.3142 40 58.1337 40.4861 57.1615 41.4583C56.1892 42.4537 55.7031 43.6343 55.7031 45C57.092 45 58.2726 44.5139 59.2448 43.5417C60.217 42.5694 60.7031 41.3889 60.7031 40Z" fill="#667EB2"/>
<path id="Vector_202" d="M70.7031 65C69.3142 65 68.1337 65.4861 67.1615 66.4583C66.1892 67.4537 65.7031 68.6343 65.7031 70C67.092 70 68.2726 69.5139 69.2448 68.5417C70.217 67.5694 70.7031 66.3889 70.7031 65Z" fill="#667EB2"/>
<path id="Vector_203" d="M60.7031 75C62.092 75 63.2726 75.4861 64.2448 76.4583C65.217 77.4537 65.7031 78.6343 65.7031 80C64.3142 80 63.1337 79.5139 62.1615 78.5417C61.1892 77.5694 60.7031 76.3889 60.7031 75Z" fill="#667EB2"/>
<path id="Vector_204" d="M50.7031 80C52.092 80 53.2726 80.4861 54.2448 81.4583C55.217 82.4537 55.7031 83.6343 55.7031 85C54.3142 85 53.1337 84.5139 52.1615 83.5417C51.1892 82.5694 50.7031 81.3889 50.7031 80Z" fill="#667EB2"/>
<path id="Vector_205" d="M60.7031 80C62.092 80 63.2726 80.4861 64.2448 81.4583C65.217 82.4537 65.7031 83.6343 65.7031 85C64.3142 85 63.1337 84.5139 62.1615 83.5417C61.1892 82.5694 60.7031 81.3889 60.7031 80Z" fill="#667EB2"/>
<path id="Vector_206" d="M70.7031 80C72.092 80 73.2726 80.4861 74.2448 81.4583C75.217 82.4537 75.7031 83.6343 75.7031 85C74.3142 85 73.1337 84.5139 72.1615 83.5417C71.1892 82.5694 70.7031 81.3889 70.7031 80Z" fill="#667EB2"/>
<path id="Vector_207" d="M60.7031 75C59.3142 75 58.1337 75.4861 57.1615 76.4583C56.1892 77.4537 55.7031 78.6343 55.7031 80C57.092 80 58.2726 79.5139 59.2448 78.5417C60.217 77.5694 60.7031 76.3889 60.7031 75Z" fill="#667EB2"/>
<path id="Vector_208" d="M60.7031 80C59.3142 80 58.1337 80.4861 57.1615 81.4583C56.1892 82.4537 55.7031 83.6343 55.7031 85C57.092 85 58.2726 84.5139 59.2448 83.5417C60.217 82.5694 60.7031 81.3889 60.7031 80Z" fill="#667EB2"/>
<path id="Vector_209" d="M90.7031 70C89.3142 70 88.1337 70.4861 87.1615 71.4583C86.1892 72.4537 85.7031 73.6343 85.7031 75C87.092 75 88.2726 74.5139 89.2448 73.5417C90.217 72.5694 90.7031 71.3889 90.7031 70Z" fill="#667EB2"/>
<path id="Vector_210" d="M80.7031 75C82.092 75 83.2726 75.4861 84.2448 76.4583C85.217 77.4537 85.7031 78.6343 85.7031 80C84.3142 80 83.1337 79.5139 82.1615 78.5417C81.1892 77.5694 80.7031 76.3889 80.7031 75Z" fill="#667EB2"/>
<path id="Vector_211" d="M90.7031 75C92.092 75 93.2726 75.4861 94.2448 76.4583C95.217 77.4537 95.7031 78.6343 95.7031 80C94.3142 80 93.1337 79.5139 92.1615 78.5417C91.1892 77.5694 90.7031 76.3889 90.7031 75Z" fill="#667EB2"/>
<path id="Vector_212" d="M80.7031 80C82.092 80 83.2726 80.4861 84.2448 81.4583C85.217 82.4537 85.7031 83.6343 85.7031 85C84.3142 85 83.1337 84.5139 82.1615 83.5417C81.1892 82.5694 80.7031 81.3889 80.7031 80Z" fill="#667EB2"/>
<path id="Vector_213" d="M90.7031 80C92.092 80 93.2726 80.4861 94.2448 81.4583C95.217 82.4537 95.7031 83.6343 95.7031 85C94.3142 85 93.1337 84.5139 92.1615 83.5417C91.1892 82.5694 90.7031 81.3889 90.7031 80Z" fill="#667EB2"/>
<path id="Vector_214" d="M70.7031 75C69.3142 75 68.1337 75.4861 67.1615 76.4583C66.1892 77.4537 65.7031 78.6343 65.7031 80C67.092 80 68.2726 79.5139 69.2448 78.5417C70.217 77.5694 70.7031 76.3889 70.7031 75Z" fill="#667EB2"/>
<path id="Vector_215" d="M80.7031 75C79.3142 75 78.1337 75.4861 77.1615 76.4583C76.1892 77.4537 75.7031 78.6343 75.7031 80C77.092 80 78.2726 79.5139 79.2448 78.5417C80.217 77.5694 80.7031 76.3889 80.7031 75Z" fill="#667EB2"/>
<path id="Vector_216" d="M50.7031 110C52.092 110 53.2726 110.486 54.2448 111.458C55.217 112.454 55.7031 113.634 55.7031 115C54.3142 115 53.1337 114.514 52.1615 113.542C51.1892 112.569 50.7031 111.389 50.7031 110Z" fill="#667EB2"/>
<path id="Vector_217" d="M50.7031 120C52.092 120 53.2726 120.486 54.2448 121.458C55.217 122.454 55.7031 123.634 55.7031 125C54.3142 125 53.1337 124.514 52.1615 123.542C51.1892 122.569 50.7031 121.389 50.7031 120Z" fill="#667EB2"/>
<path id="Vector_218" d="M80.7031 80C79.3142 80 78.1337 80.4861 77.1615 81.4583C76.1892 82.4537 75.7031 83.6343 75.7031 85C77.092 85 78.2726 84.5139 79.2448 83.5417C80.217 82.5694 80.7031 81.3889 80.7031 80Z" fill="#667EB2"/>
<path id="Vector_219" d="M60.7031 110C62.092 110 63.2726 110.486 64.2448 111.458C65.217 112.454 65.7031 113.634 65.7031 115C64.3142 115 63.1337 114.514 62.1615 113.542C61.1892 112.569 60.7031 111.389 60.7031 110Z" fill="#667EB2"/>
<path id="Vector_220" d="M90.7031 75C89.3142 75 88.1337 75.4861 87.1615 76.4583C86.1892 77.4537 85.7031 78.6343 85.7031 80C87.092 80 88.2726 79.5139 89.2448 78.5417C90.217 77.5694 90.7031 76.3889 90.7031 75Z" fill="#667EB2"/>
<path id="Vector_221" d="M60.7031 105C62.092 105 63.2726 105.486 64.2448 106.458C65.217 107.454 65.7031 108.634 65.7031 110C64.3142 110 63.1337 109.514 62.1615 108.542C61.1892 107.569 60.7031 106.389 60.7031 105Z" fill="#667EB2"/>
<path id="Vector_222" d="M60.7031 115C62.092 115 63.2726 115.486 64.2448 116.458C65.217 117.454 65.7031 118.634 65.7031 120C64.3142 120 63.1337 119.514 62.1615 118.542C61.1892 117.569 60.7031 116.389 60.7031 115Z" fill="#667EB2"/>
<path id="Vector_223" d="M90.7031 80C89.3142 80 88.1337 80.4861 87.1615 81.4583C86.1892 82.4537 85.7031 83.6343 85.7031 85C87.092 85 88.2726 84.5139 89.2448 83.5417C90.217 82.5694 90.7031 81.3889 90.7031 80Z" fill="#667EB2"/>
<path id="Vector_224" d="M50.7031 140C52.092 140 53.2726 140.486 54.2448 141.458C55.217 142.454 55.7031 143.634 55.7031 145C54.3142 145 53.1337 144.514 52.1615 143.542C51.1892 142.569 50.7031 141.389 50.7031 140Z" fill="#667EB2"/>
<path id="Vector_225" d="M50.7031 150C52.092 150 53.2726 150.486 54.2448 151.458C55.217 152.454 55.7031 153.634 55.7031 155C54.3142 155 53.1337 154.514 52.1615 153.542C51.1892 152.569 50.7031 151.389 50.7031 150Z" fill="#667EB2"/>
<path id="Vector_226" d="M70.7031 110C72.092 110 73.2726 110.486 74.2448 111.458C75.217 112.454 75.7031 113.634 75.7031 115C74.3142 115 73.1337 114.514 72.1615 113.542C71.1892 112.569 70.7031 111.389 70.7031 110Z" fill="#667EB2"/>
<path id="Vector_227" d="M60.7031 140C62.092 140 63.2726 140.486 64.2448 141.458C65.217 142.454 65.7031 143.634 65.7031 145C64.3142 145 63.1337 144.514 62.1615 143.542C61.1892 142.569 60.7031 141.389 60.7031 140Z" fill="#667EB2"/>
<path id="Vector_228" d="M50.7031 130C52.092 130 53.2726 130.486 54.2448 131.458C55.217 132.454 55.7031 133.634 55.7031 135C54.3142 135 53.1337 134.514 52.1615 133.542C51.1892 132.569 50.7031 131.389 50.7031 130Z" fill="#667EB2"/>
<path id="Vector_229" d="M70.7031 120C72.092 120 73.2726 120.486 74.2448 121.458C75.217 122.454 75.7031 123.634 75.7031 125C74.3142 125 73.1337 124.514 72.1615 123.542C71.1892 122.569 70.7031 121.389 70.7031 120Z" fill="#667EB2"/>
<path id="Vector_230" d="M50.7031 100C52.092 100 53.2726 100.486 54.2448 101.458C55.217 102.454 55.7031 103.634 55.7031 105C54.3142 105 53.1337 104.514 52.1615 103.542C51.1892 102.569 50.7031 101.389 50.7031 100Z" fill="#667EB2"/>
<path id="Vector_231" d="M60.7031 150C62.092 150 63.2726 150.486 64.2448 151.458C65.217 152.454 65.7031 153.634 65.7031 155C64.3142 155 63.1337 154.514 62.1615 153.542C61.1892 152.569 60.7031 151.389 60.7031 150Z" fill="#667EB2"/>
<path id="Vector_232" d="M70.7031 105C72.092 105 73.2726 105.486 74.2448 106.458C75.217 107.454 75.7031 108.634 75.7031 110C74.3142 110 73.1337 109.514 72.1615 108.542C71.1892 107.569 70.7031 106.389 70.7031 105Z" fill="#667EB2"/>
<path id="Vector_233" d="M60.7031 160C62.092 160 63.2726 160.486 64.2448 161.458C65.217 162.454 65.7031 163.634 65.7031 165C64.3142 165 63.1337 164.514 62.1615 163.542C61.1892 162.569 60.7031 161.389 60.7031 160Z" fill="#667EB2"/>
<path id="Vector_234" d="M50.7031 135C52.092 135 53.2726 135.486 54.2448 136.458C55.217 137.454 55.7031 138.634 55.7031 140C54.3142 140 53.1337 139.514 52.1615 138.542C51.1892 137.569 50.7031 136.389 50.7031 135Z" fill="#667EB2"/>
<path id="Vector_235" d="M50.7031 145C52.092 145 53.2726 145.486 54.2448 146.458C55.217 147.454 55.7031 148.634 55.7031 150C54.3142 150 53.1337 149.514 52.1615 148.542C51.1892 147.569 50.7031 146.389 50.7031 145Z" fill="#667EB2"/>
<path id="Vector_236" d="M50.7031 155C52.092 155 53.2726 155.486 54.2448 156.458C55.217 157.454 55.7031 158.634 55.7031 160C54.3142 160 53.1337 159.514 52.1615 158.542C51.1892 157.569 50.7031 156.389 50.7031 155Z" fill="#667EB2"/>
<path id="Vector_237" d="M60.7031 125C62.092 125 63.2726 125.486 64.2448 126.458C65.217 127.454 65.7031 128.634 65.7031 130C64.3142 130 63.1337 129.514 62.1615 128.542C61.1892 127.569 60.7031 126.389 60.7031 125Z" fill="#667EB2"/>
<path id="Vector_238" d="M60.7031 145C62.092 145 63.2726 145.486 64.2448 146.458C65.217 147.454 65.7031 148.634 65.7031 150C64.3142 150 63.1337 149.514 62.1615 148.542C61.1892 147.569 60.7031 146.389 60.7031 145Z" fill="#667EB2"/>
<path id="Vector_239" d="M70.7031 115C72.092 115 73.2726 115.486 74.2448 116.458C75.217 117.454 75.7031 118.634 75.7031 120C74.3142 120 73.1337 119.514 72.1615 118.542C71.1892 117.569 70.7031 116.389 70.7031 115Z" fill="#667EB2"/>
<path id="Vector_240" d="M60.7031 135C62.092 135 63.2726 135.486 64.2448 136.458C65.217 137.454 65.7031 138.634 65.7031 140C64.3142 140 63.1337 139.514 62.1615 138.542C61.1892 137.569 60.7031 136.389 60.7031 135Z" fill="#667EB2"/>
<path id="Vector_241" d="M50.7031 85C52.092 85 53.2726 85.4861 54.2448 86.4583C55.217 87.4537 55.7031 88.6343 55.7031 90C54.3142 90 53.1337 89.5139 52.1615 88.5417C51.1892 87.5694 50.7031 86.3889 50.7031 85Z" fill="#667EB2"/>
<path id="Vector_242" d="M60.7031 155C62.092 155 63.2726 155.486 64.2448 156.458C65.217 157.454 65.7031 158.634 65.7031 160C64.3142 160 63.1337 159.514 62.1615 158.542C61.1892 157.569 60.7031 156.389 60.7031 155Z" fill="#667EB2"/>
<path id="Vector_243" d="M70.7031 140C72.092 140 73.2726 140.486 74.2448 141.458C75.217 142.454 75.7031 143.634 75.7031 145C74.3142 145 73.1337 144.514 72.1615 143.542C71.1892 142.569 70.7031 141.389 70.7031 140Z" fill="#667EB2"/>
<path id="Vector_244" d="M60.7031 110C59.3142 110 58.1337 110.486 57.1615 111.458C56.1892 112.454 55.7031 113.634 55.7031 115C57.092 115 58.2726 114.514 59.2448 113.542C60.217 112.569 60.7031 111.389 60.7031 110Z" fill="#667EB2"/>
<path id="Vector_245" d="M60.7031 100C62.092 100 63.2726 100.486 64.2448 101.458C65.217 102.454 65.7031 103.634 65.7031 105C64.3142 105 63.1337 104.514 62.1615 103.542C61.1892 102.569 60.7031 101.389 60.7031 100Z" fill="#667EB2"/>
<path id="Vector_246" d="M60.7031 105C59.3142 105 58.1337 105.486 57.1615 106.458C56.1892 107.454 55.7031 108.634 55.7031 110C57.092 110 58.2726 109.514 59.2448 108.542C60.217 107.569 60.7031 106.389 60.7031 105Z" fill="#667EB2"/>
<path id="Vector_247" d="M60.7031 140C59.3142 140 58.1337 140.486 57.1615 141.458C56.1892 142.454 55.7031 143.634 55.7031 145C57.092 145 58.2726 144.514 59.2448 143.542C60.217 142.569 60.7031 141.389 60.7031 140Z" fill="#667EB2"/>
<path id="Vector_248" d="M60.7031 115C59.3142 115 58.1337 115.486 57.1615 116.458C56.1892 117.454 55.7031 118.634 55.7031 120C57.092 120 58.2726 119.514 59.2448 118.542C60.217 117.569 60.7031 116.389 60.7031 115Z" fill="#667EB2"/>
<path id="Vector_249" d="M100.703 80C99.3142 80 98.1337 80.4861 97.1615 81.4583C96.1892 82.4537 95.7031 83.6343 95.7031 85C97.092 85 98.2726 84.5139 99.2448 83.5417C100.217 82.5694 100.703 81.3889 100.703 80Z" fill="#667EB2"/>
<path id="Vector_250" d="M60.7031 85C62.092 85 63.2726 85.4861 64.2448 86.4583C65.217 87.4537 65.7031 88.6343 65.7031 90C64.3142 90 63.1337 89.5139 62.1615 88.5417C61.1892 87.5694 60.7031 86.3889 60.7031 85Z" fill="#667EB2"/>
<path id="Vector_251" d="M60.7031 95C62.092 95 63.2726 95.4861 64.2448 96.4583C65.217 97.4537 65.7031 98.6343 65.7031 100C64.3142 100 63.1337 99.5139 62.1615 98.5417C61.1892 97.5694 60.7031 96.3889 60.7031 95Z" fill="#667EB2"/>
<path id="Vector_252" d="M50.7031 90C52.092 90 53.2726 90.4861 54.2448 91.4583C55.217 92.4537 55.7031 93.6343 55.7031 95C54.3142 95 53.1337 94.5139 52.1615 93.5417C51.1892 92.5694 50.7031 91.3889 50.7031 90Z" fill="#667EB2"/>
<path id="Vector_253" d="M70.7031 130C72.092 130 73.2726 130.486 74.2448 131.458C75.217 132.454 75.7031 133.634 75.7031 135C74.3142 135 73.1337 134.514 72.1615 133.542C71.1892 132.569 70.7031 131.389 70.7031 130Z" fill="#667EB2"/>
<path id="Vector_254" d="M70.7031 165C72.092 165 73.2726 165.486 74.2448 166.458C75.217 167.454 75.7031 168.634 75.7031 170C74.3142 170 73.1337 169.514 72.1615 168.542C71.1892 167.569 70.7031 166.389 70.7031 165Z" fill="#667EB2"/>
<path id="Vector_255" d="M60.7031 90C62.092 90 63.2726 90.4861 64.2448 91.4583C65.217 92.4537 65.7031 93.6343 65.7031 95C64.3142 95 63.1337 94.5139 62.1615 93.5417C61.1892 92.5694 60.7031 91.3889 60.7031 90Z" fill="#667EB2"/>
<path id="Vector_256" d="M70.7031 150C72.092 150 73.2726 150.486 74.2448 151.458C75.217 152.454 75.7031 153.634 75.7031 155C74.3142 155 73.1337 154.514 72.1615 153.542C71.1892 152.569 70.7031 151.389 70.7031 150Z" fill="#667EB2"/>
<path id="Vector_257" d="M70.7031 140C69.3142 140 68.1337 140.486 67.1615 141.458C66.1892 142.454 65.7031 143.634 65.7031 145C67.092 145 68.2726 144.514 69.2448 143.542C70.217 142.569 70.7031 141.389 70.7031 140Z" fill="#667EB2"/>
<path id="Vector_258" d="M70.7031 110C69.3142 110 68.1337 110.486 67.1615 111.458C66.1892 112.454 65.7031 113.634 65.7031 115C67.092 115 68.2726 114.514 69.2448 113.542C70.217 112.569 70.7031 111.389 70.7031 110Z" fill="#667EB2"/>
<path id="Vector_259" d="M60.7031 150C59.3142 150 58.1337 150.486 57.1615 151.458C56.1892 152.454 55.7031 153.634 55.7031 155C57.092 155 58.2726 154.514 59.2448 153.542C60.217 152.569 60.7031 151.389 60.7031 150Z" fill="#667EB2"/>
<path id="Vector_260" d="M70.7031 120C69.3142 120 68.1337 120.486 67.1615 121.458C66.1892 122.454 65.7031 123.634 65.7031 125C67.092 125 68.2726 124.514 69.2448 123.542C70.217 122.569 70.7031 121.389 70.7031 120Z" fill="#667EB2"/>
<path id="Vector_261" d="M60.7031 125C59.3142 125 58.1337 125.486 57.1615 126.458C56.1892 127.454 55.7031 128.634 55.7031 130C57.092 130 58.2726 129.514 59.2448 128.542C60.217 127.569 60.7031 126.389 60.7031 125Z" fill="#667EB2"/>
<path id="Vector_262" d="M60.7031 135C59.3142 135 58.1337 135.486 57.1615 136.458C56.1892 137.454 55.7031 138.634 55.7031 140C57.092 140 58.2726 139.514 59.2448 138.542C60.217 137.569 60.7031 136.389 60.7031 135Z" fill="#667EB2"/>
<path id="Vector_263" d="M80.7031 140C82.092 140 83.2726 140.486 84.2448 141.458C85.217 142.454 85.7031 143.634 85.7031 145C84.3142 145 83.1337 144.514 82.1615 143.542C81.1892 142.569 80.7031 141.389 80.7031 140Z" fill="#667EB2"/>
<path id="Vector_264" d="M60.7031 145C59.3142 145 58.1337 145.486 57.1615 146.458C56.1892 147.454 55.7031 148.634 55.7031 150C57.092 150 58.2726 149.514 59.2448 148.542C60.217 147.569 60.7031 146.389 60.7031 145Z" fill="#667EB2"/>
<path id="Vector_265" d="M60.7031 155C59.3142 155 58.1337 155.486 57.1615 156.458C56.1892 157.454 55.7031 158.634 55.7031 160C57.092 160 58.2726 159.514 59.2448 158.542C60.217 157.569 60.7031 156.389 60.7031 155Z" fill="#667EB2"/>
<path id="Vector_266" d="M70.7031 100C72.092 100 73.2726 100.486 74.2448 101.458C75.217 102.454 75.7031 103.634 75.7031 105C74.3142 105 73.1337 104.514 72.1615 103.542C71.1892 102.569 70.7031 101.389 70.7031 100Z" fill="#667EB2"/>
<path id="Vector_267" d="M70.7031 105C69.3142 105 68.1337 105.486 67.1615 106.458C66.1892 107.454 65.7031 108.634 65.7031 110C67.092 110 68.2726 109.514 69.2448 108.542C70.217 107.569 70.7031 106.389 70.7031 105Z" fill="#667EB2"/>
<path id="Vector_268" d="M70.7031 145C72.092 145 73.2726 145.486 74.2448 146.458C75.217 147.454 75.7031 148.634 75.7031 150C74.3142 150 73.1337 149.514 72.1615 148.542C71.1892 147.569 70.7031 146.389 70.7031 145Z" fill="#667EB2"/>
<path id="Vector_269" d="M70.7031 155C72.092 155 73.2726 155.486 74.2448 156.458C75.217 157.454 75.7031 158.634 75.7031 160C74.3142 160 73.1337 159.514 72.1615 158.542C71.1892 157.569 70.7031 156.389 70.7031 155Z" fill="#667EB2"/>
<path id="Vector_270" d="M80.7031 150C82.092 150 83.2726 150.486 84.2448 151.458C85.217 152.454 85.7031 153.634 85.7031 155C84.3142 155 83.1337 154.514 82.1615 153.542C81.1892 152.569 80.7031 151.389 80.7031 150Z" fill="#667EB2"/>
<path id="Vector_271" d="M70.7031 125C72.092 125 73.2726 125.486 74.2448 126.458C75.217 127.454 75.7031 128.634 75.7031 130C74.3142 130 73.1337 129.514 72.1615 128.542C71.1892 127.569 70.7031 126.389 70.7031 125Z" fill="#667EB2"/>
<path id="Vector_272" d="M70.7031 135C72.092 135 73.2726 135.486 74.2448 136.458C75.217 137.454 75.7031 138.634 75.7031 140C74.3142 140 73.1337 139.514 72.1615 138.542C71.1892 137.569 70.7031 136.389 70.7031 135Z" fill="#667EB2"/>
<path id="Vector_273" d="M80.7031 160C82.092 160 83.2726 160.486 84.2448 161.458C85.217 162.454 85.7031 163.634 85.7031 165C84.3142 165 83.1337 164.514 82.1615 163.542C81.1892 162.569 80.7031 161.389 80.7031 160Z" fill="#667EB2"/>
<path id="Vector_274" d="M70.7031 115C69.3142 115 68.1337 115.486 67.1615 116.458C66.1892 117.454 65.7031 118.634 65.7031 120C67.092 120 68.2726 119.514 69.2448 118.542C70.217 117.569 70.7031 116.389 70.7031 115Z" fill="#667EB2"/>
<path id="Vector_275" d="M80.7031 165C82.092 165 83.2726 165.486 84.2448 166.458C85.217 167.454 85.7031 168.634 85.7031 170C84.3142 170 83.1337 169.514 82.1615 168.542C81.1892 167.569 80.7031 166.389 80.7031 165Z" fill="#667EB2"/>
<path id="Vector_276" d="M70.7031 175C72.092 175 73.2726 175.486 74.2448 176.458C75.217 177.454 75.7031 178.634 75.7031 180C74.3142 180 73.1337 179.514 72.1615 178.542C71.1892 177.569 70.7031 176.389 70.7031 175Z" fill="#667EB2"/>
<path id="Vector_277" d="M70.7031 150C69.3142 150 68.1337 150.486 67.1615 151.458C66.1892 152.454 65.7031 153.634 65.7031 155C67.092 155 68.2726 154.514 69.2448 153.542C70.217 152.569 70.7031 151.389 70.7031 150Z" fill="#667EB2"/>
<path id="Vector_278" d="M70.7031 160C69.3142 160 68.1337 160.486 67.1615 161.458C66.1892 162.454 65.7031 163.634 65.7031 165C67.092 165 68.2726 164.514 69.2448 163.542C70.217 162.569 70.7031 161.389 70.7031 160Z" fill="#667EB2"/>
<path id="Vector_279" d="M80.7031 100C82.092 100 83.2726 100.486 84.2448 101.458C85.217 102.454 85.7031 103.634 85.7031 105C84.3142 105 83.1337 104.514 82.1615 103.542C81.1892 102.569 80.7031 101.389 80.7031 100Z" fill="#667EB2"/>
<path id="Vector_280" d="M80.7031 105C79.3142 105 78.1337 105.486 77.1615 106.458C76.1892 107.454 75.7031 108.634 75.7031 110C77.092 110 78.2726 109.514 79.2448 108.542C80.217 107.569 80.7031 106.389 80.7031 105Z" fill="#667EB2"/>
<path id="Vector_281" d="M70.7031 145C69.3142 145 68.1337 145.486 67.1615 146.458C66.1892 147.454 65.7031 148.634 65.7031 150C67.092 150 68.2726 149.514 69.2448 148.542C70.217 147.569 70.7031 146.389 70.7031 145Z" fill="#667EB2"/>
<path id="Vector_282" d="M70.7031 155C69.3142 155 68.1337 155.486 67.1615 156.458C66.1892 157.454 65.7031 158.634 65.7031 160C67.092 160 68.2726 159.514 69.2448 158.542C70.217 157.569 70.7031 156.389 70.7031 155Z" fill="#667EB2"/>
<path id="Vector_283" d="M80.7031 175C82.092 175 83.2726 175.486 84.2448 176.458C85.217 177.454 85.7031 178.634 85.7031 180C84.3142 180 83.1337 179.514 82.1615 178.542C81.1892 177.569 80.7031 176.389 80.7031 175Z" fill="#667EB2"/>
<path id="Vector_284" d="M90.7031 165C92.092 165 93.2726 165.486 94.2448 166.458C95.217 167.454 95.7031 168.634 95.7031 170C94.3142 170 93.1337 169.514 92.1615 168.542C91.1892 167.569 90.7031 166.389 90.7031 165Z" fill="#667EB2"/>
<path id="Vector_285" d="M70.7031 130C69.3142 130 68.1337 130.486 67.1615 131.458C66.1892 132.454 65.7031 133.634 65.7031 135C67.092 135 68.2726 134.514 69.2448 133.542C70.217 132.569 70.7031 131.389 70.7031 130Z" fill="#667EB2"/>
<path id="Vector_286" d="M70.7031 165C69.3142 165 68.1337 165.486 67.1615 166.458C66.1892 167.454 65.7031 168.634 65.7031 170C67.092 170 68.2726 169.514 69.2448 168.542C70.217 167.569 70.7031 166.389 70.7031 165Z" fill="#667EB2"/>
<path id="Vector_287" d="M70.7031 85C72.092 85 73.2726 85.4861 74.2448 86.4583C75.217 87.4537 75.7031 88.6343 75.7031 90C74.3142 90 73.1337 89.5139 72.1615 88.5417C71.1892 87.5694 70.7031 86.3889 70.7031 85Z" fill="#667EB2"/>
<path id="Vector_288" d="M60.7031 100C59.3142 100 58.1337 100.486 57.1615 101.458C56.1892 102.454 55.7031 103.634 55.7031 105C57.092 105 58.2726 104.514 59.2448 103.542C60.217 102.569 60.7031 101.389 60.7031 100Z" fill="#667EB2"/>
<path id="Vector_289" d="M70.7031 95C72.092 95 73.2726 95.4861 74.2448 96.4583C75.217 97.4537 75.7031 98.6343 75.7031 100C74.3142 100 73.1337 99.5139 72.1615 98.5417C71.1892 97.5694 70.7031 96.3889 70.7031 95Z" fill="#667EB2"/>
<path id="Vector_290" d="M80.7031 140C79.3142 140 78.1337 140.486 77.1615 141.458C76.1892 142.454 75.7031 143.634 75.7031 145C77.092 145 78.2726 144.514 79.2448 143.542C80.217 142.569 80.7031 141.389 80.7031 140Z" fill="#667EB2"/>
<path id="Vector_291" d="M70.7031 125C69.3142 125 68.1337 125.486 67.1615 126.458C66.1892 127.454 65.7031 128.634 65.7031 130C67.092 130 68.2726 129.514 69.2448 128.542C70.217 127.569 70.7031 126.389 70.7031 125Z" fill="#667EB2"/>
<path id="Vector_292" d="M90.7031 160C92.092 160 93.2726 160.486 94.2448 161.458C95.217 162.454 95.7031 163.634 95.7031 165C94.3142 165 93.1337 164.514 92.1615 163.542C91.1892 162.569 90.7031 161.389 90.7031 160Z" fill="#667EB2"/>
<path id="Vector_293" d="M70.7031 135C69.3142 135 68.1337 135.486 67.1615 136.458C66.1892 137.454 65.7031 138.634 65.7031 140C67.092 140 68.2726 139.514 69.2448 138.542C70.217 137.569 70.7031 136.389 70.7031 135Z" fill="#667EB2"/>
<path id="Vector_294" d="M80.7031 135C82.092 135 83.2726 135.486 84.2448 136.458C85.217 137.454 85.7031 138.634 85.7031 140C84.3142 140 83.1337 139.514 82.1615 138.542C81.1892 137.569 80.7031 136.389 80.7031 135Z" fill="#667EB2"/>
<path id="Vector_295" d="M60.7031 85C59.3142 85 58.1337 85.4861 57.1615 86.4583C56.1892 87.4537 55.7031 88.6343 55.7031 90C57.092 90 58.2726 89.5139 59.2448 88.5417C60.217 87.5694 60.7031 86.3889 60.7031 85Z" fill="#667EB2"/>
<path id="Vector_296" d="M80.7031 145C82.092 145 83.2726 145.486 84.2448 146.458C85.217 147.454 85.7031 148.634 85.7031 150C84.3142 150 83.1337 149.514 82.1615 148.542C81.1892 147.569 80.7031 146.389 80.7031 145Z" fill="#667EB2"/>
<path id="Vector_297" d="M60.7031 95C59.3142 95 58.1337 95.4861 57.1615 96.4583C56.1892 97.4537 55.7031 98.6343 55.7031 100C57.092 100 58.2726 99.5139 59.2448 98.5417C60.217 97.5694 60.7031 96.3889 60.7031 95Z" fill="#667EB2"/>
<path id="Vector_298" d="M80.7031 155C82.092 155 83.2726 155.486 84.2448 156.458C85.217 157.454 85.7031 158.634 85.7031 160C84.3142 160 83.1337 159.514 82.1615 158.542C81.1892 157.569 80.7031 156.389 80.7031 155Z" fill="#667EB2"/>
<path id="Vector_299" d="M60.7031 90C59.3142 90 58.1337 90.4861 57.1615 91.4583C56.1892 92.4537 55.7031 93.6343 55.7031 95C57.092 95 58.2726 94.5139 59.2448 93.5417C60.217 92.5694 60.7031 91.3889 60.7031 90Z" fill="#667EB2"/>
<path id="Vector_300" d="M80.7031 85C82.092 85 83.2726 85.4861 84.2448 86.4583C85.217 87.4537 85.7031 88.6343 85.7031 90C84.3142 90 83.1337 89.5139 82.1615 88.5417C81.1892 87.5694 80.7031 86.3889 80.7031 85Z" fill="#667EB2"/>
<path id="Vector_301" d="M80.7031 95C82.092 95 83.2726 95.4861 84.2448 96.4583C85.217 97.4537 85.7031 98.6343 85.7031 100C84.3142 100 83.1337 99.5139 82.1615 98.5417C81.1892 97.5694 80.7031 96.3889 80.7031 95Z" fill="#667EB2"/>
<path id="Vector_302" d="M90.7031 155C92.092 155 93.2726 155.486 94.2448 156.458C95.217 157.454 95.7031 158.634 95.7031 160C94.3142 160 93.1337 159.514 92.1615 158.542C91.1892 157.569 90.7031 156.389 90.7031 155Z" fill="#667EB2"/>
<path id="Vector_303" d="M70.7031 170C72.092 170 73.2726 170.486 74.2448 171.458C75.217 172.454 75.7031 173.634 75.7031 175C74.3142 175 73.1337 174.514 72.1615 173.542C71.1892 172.569 70.7031 171.389 70.7031 170Z" fill="#667EB2"/>
<path id="Vector_304" d="M70.7031 90C72.092 90 73.2726 90.4861 74.2448 91.4583C75.217 92.4537 75.7031 93.6343 75.7031 95C74.3142 95 73.1337 94.5139 72.1615 93.5417C71.1892 92.5694 70.7031 91.3889 70.7031 90Z" fill="#667EB2"/>
<path id="Vector_305" d="M90.7031 140C89.3142 140 88.1337 140.486 87.1615 141.458C86.1892 142.454 85.7031 143.634 85.7031 145C87.092 145 88.2726 144.514 89.2448 143.542C90.217 142.569 90.7031 141.389 90.7031 140Z" fill="#667EB2"/>
<path id="Vector_306" d="M70.7031 100C69.3142 100 68.1337 100.486 67.1615 101.458C66.1892 102.454 65.7031 103.634 65.7031 105C67.092 105 68.2726 104.514 69.2448 103.542C70.217 102.569 70.7031 101.389 70.7031 100Z" fill="#667EB2"/>
<path id="Vector_307" d="M80.7031 130C79.3142 130 78.1337 130.486 77.1615 131.458C76.1892 132.454 75.7031 133.634 75.7031 135C77.092 135 78.2726 134.514 79.2448 133.542C80.217 132.569 80.7031 131.389 80.7031 130Z" fill="#667EB2"/>
<path id="Vector_308" d="M70.7031 85C69.3142 85 68.1337 85.4861 67.1615 86.4583C66.1892 87.4537 65.7031 88.6343 65.7031 90C67.092 90 68.2726 89.5139 69.2448 88.5417C70.217 87.5694 70.7031 86.3889 70.7031 85Z" fill="#667EB2"/>
<path id="Vector_309" d="M70.7031 95C69.3142 95 68.1337 95.4861 67.1615 96.4583C66.1892 97.4537 65.7031 98.6343 65.7031 100C67.092 100 68.2726 99.5139 69.2448 98.5417C70.217 97.5694 70.7031 96.3889 70.7031 95Z" fill="#667EB2"/>
<path id="Vector_310" d="M80.7031 165C79.3142 165 78.1337 165.486 77.1615 166.458C76.1892 167.454 75.7031 168.634 75.7031 170C77.092 170 78.2726 169.514 79.2448 168.542C80.217 167.569 80.7031 166.389 80.7031 165Z" fill="#667EB2"/>
<path id="Vector_311" d="M80.7031 150C79.3142 150 78.1337 150.486 77.1615 151.458C76.1892 152.454 75.7031 153.634 75.7031 155C77.092 155 78.2726 154.514 79.2448 153.542C80.217 152.569 80.7031 151.389 80.7031 150Z" fill="#667EB2"/>
<path id="Vector_312" d="M90.7031 85C92.092 85 93.2726 85.4861 94.2448 86.4583C95.217 87.4537 95.7031 88.6343 95.7031 90C94.3142 90 93.1337 89.5139 92.1615 88.5417C91.1892 87.5694 90.7031 86.3889 90.7031 85Z" fill="#667EB2"/>
<path id="Vector_313" d="M70.7031 90C69.3142 90 68.1337 90.4861 67.1615 91.4583C66.1892 92.4537 65.7031 93.6343 65.7031 95C67.092 95 68.2726 94.5139 69.2448 93.5417C70.217 92.5694 70.7031 91.3889 70.7031 90Z" fill="#667EB2"/>
<path id="Vector_314" d="M90.7031 95C92.092 95 93.2726 95.4861 94.2448 96.4583C95.217 97.4537 95.7031 98.6343 95.7031 100C94.3142 100 93.1337 99.5139 92.1615 98.5417C91.1892 97.5694 90.7031 96.3889 90.7031 95Z" fill="#667EB2"/>
<path id="Vector_315" d="M80.7031 170C82.092 170 83.2726 170.486 84.2448 171.458C85.217 172.454 85.7031 173.634 85.7031 175C84.3142 175 83.1337 174.514 82.1615 173.542C81.1892 172.569 80.7031 171.389 80.7031 170Z" fill="#667EB2"/>
<path id="Vector_316" d="M80.7031 90C82.092 90 83.2726 90.4861 84.2448 91.4583C85.217 92.4537 85.7031 93.6343 85.7031 95C84.3142 95 83.1337 94.5139 82.1615 93.5417C81.1892 92.5694 80.7031 91.3889 80.7031 90Z" fill="#667EB2"/>
<path id="Vector_317" d="M80.7031 135C79.3142 135 78.1337 135.486 77.1615 136.458C76.1892 137.454 75.7031 138.634 75.7031 140C77.092 140 78.2726 139.514 79.2448 138.542C80.217 137.569 80.7031 136.389 80.7031 135Z" fill="#667EB2"/>
<path id="Vector_318" d="M90.7031 90C92.092 90 93.2726 90.4861 94.2448 91.4583C95.217 92.4537 95.7031 93.6343 95.7031 95C94.3142 95 93.1337 94.5139 92.1615 93.5417C91.1892 92.5694 90.7031 91.3889 90.7031 90Z" fill="#667EB2"/>
<path id="Vector_319" d="M80.7031 145C79.3142 145 78.1337 145.486 77.1615 146.458C76.1892 147.454 75.7031 148.634 75.7031 150C77.092 150 78.2726 149.514 79.2448 148.542C80.217 147.569 80.7031 146.389 80.7031 145Z" fill="#667EB2"/>
<path id="Vector_320" d="M80.7031 155C79.3142 155 78.1337 155.486 77.1615 156.458C76.1892 157.454 75.7031 158.634 75.7031 160C77.092 160 78.2726 159.514 79.2448 158.542C80.217 157.569 80.7031 156.389 80.7031 155Z" fill="#667EB2"/>
<path id="Vector_321" d="M90.7031 165C89.3142 165 88.1337 165.486 87.1615 166.458C86.1892 167.454 85.7031 168.634 85.7031 170C87.092 170 88.2726 169.514 89.2448 168.542C90.217 167.569 90.7031 166.389 90.7031 165Z" fill="#667EB2"/>
<path id="Vector_322" d="M90.7031 150C89.3142 150 88.1337 150.486 87.1615 151.458C86.1892 152.454 85.7031 153.634 85.7031 155C87.092 155 88.2726 154.514 89.2448 153.542C90.217 152.569 90.7031 151.389 90.7031 150Z" fill="#667EB2"/>
<path id="Vector_323" d="M80.7031 100C79.3142 100 78.1337 100.486 77.1615 101.458C76.1892 102.454 75.7031 103.634 75.7031 105C77.092 105 78.2726 104.514 79.2448 103.542C80.217 102.569 80.7031 101.389 80.7031 100Z" fill="#667EB2"/>
<path id="Vector_324" d="M90.7031 160C89.3142 160 88.1337 160.486 87.1615 161.458C86.1892 162.454 85.7031 163.634 85.7031 165C87.092 165 88.2726 164.514 89.2448 163.542C90.217 162.569 90.7031 161.389 90.7031 160Z" fill="#667EB2"/>
<path id="Vector_325" d="M80.7031 175C79.3142 175 78.1337 175.486 77.1615 176.458C76.1892 177.454 75.7031 178.634 75.7031 180C77.092 180 78.2726 179.514 79.2448 178.542C80.217 177.569 80.7031 176.389 80.7031 175Z" fill="#667EB2"/>
<path id="Vector_326" d="M90.7031 145C89.3142 145 88.1337 145.486 87.1615 146.458C86.1892 147.454 85.7031 148.634 85.7031 150C87.092 150 88.2726 149.514 89.2448 148.542C90.217 147.569 90.7031 146.389 90.7031 145Z" fill="#667EB2"/>
<path id="Vector_327" d="M80.7031 85C79.3142 85 78.1337 85.4861 77.1615 86.4583C76.1892 87.4537 75.7031 88.6343 75.7031 90C77.092 90 78.2726 89.5139 79.2448 88.5417C80.217 87.5694 80.7031 86.3889 80.7031 85Z" fill="#667EB2"/>
<path id="Vector_328" d="M90.7031 155C89.3142 155 88.1337 155.486 87.1615 156.458C86.1892 157.454 85.7031 158.634 85.7031 160C87.092 160 88.2726 159.514 89.2448 158.542C90.217 157.569 90.7031 156.389 90.7031 155Z" fill="#667EB2"/>
<path id="Vector_329" d="M80.7031 95C79.3142 95 78.1337 95.4861 77.1615 96.4583C76.1892 97.4537 75.7031 98.6343 75.7031 100C77.092 100 78.2726 99.5139 79.2448 98.5417C80.217 97.5694 80.7031 96.3889 80.7031 95Z" fill="#667EB2"/>
<path id="Vector_330" d="M80.7031 170C79.3142 170 78.1337 170.486 77.1615 171.458C76.1892 172.454 75.7031 173.634 75.7031 175C77.092 175 78.2726 174.514 79.2448 173.542C80.217 172.569 80.7031 171.389 80.7031 170Z" fill="#667EB2"/>
<path id="Vector_331" d="M80.7031 90C79.3142 90 78.1337 90.4861 77.1615 91.4583C76.1892 92.4537 75.7031 93.6343 75.7031 95C77.092 95 78.2726 94.5139 79.2448 93.5417C80.217 92.5694 80.7031 91.3889 80.7031 90Z" fill="#667EB2"/>
<path id="Vector_332" d="M90.7031 175C89.3142 175 88.1337 175.486 87.1615 176.458C86.1892 177.454 85.7031 178.634 85.7031 180C87.092 180 88.2726 179.514 89.2448 178.542C90.217 177.569 90.7031 176.389 90.7031 175Z" fill="#667EB2"/>
<path id="Vector_333" d="M90.7031 85C89.3142 85 88.1337 85.4861 87.1615 86.4583C86.1892 87.4537 85.7031 88.6343 85.7031 90C87.092 90 88.2726 89.5139 89.2448 88.5417C90.217 87.5694 90.7031 86.3889 90.7031 85Z" fill="#667EB2"/>
<path id="Vector_334" d="M90.7031 95C89.3142 95 88.1337 95.4861 87.1615 96.4583C86.1892 97.4537 85.7031 98.6343 85.7031 100C87.092 100 88.2726 99.5139 89.2448 98.5417C90.217 97.5694 90.7031 96.3889 90.7031 95Z" fill="#667EB2"/>
<path id="Vector_335" d="M90.7031 170C89.3142 170 88.1337 170.486 87.1615 171.458C86.1892 172.454 85.7031 173.634 85.7031 175C87.092 175 88.2726 174.514 89.2448 173.542C90.217 172.569 90.7031 171.389 90.7031 170Z" fill="#667EB2"/>
<path id="Vector_336" d="M90.7031 90C89.3142 90 88.1337 90.4861 87.1615 91.4583C86.1892 92.4537 85.7031 93.6343 85.7031 95C87.092 95 88.2726 94.5139 89.2448 93.5417C90.217 92.5694 90.7031 91.3889 90.7031 90Z" fill="#667EB2"/>
<path id="Vector_337" d="M100.703 85C99.3142 85 98.1337 85.4861 97.1615 86.4583C96.1892 87.4537 95.7031 88.6343 95.7031 90C97.092 90 98.2726 89.5139 99.2448 88.5417C100.217 87.5694 100.703 86.3889 100.703 85Z" fill="#667EB2"/>
<path id="Vector_338" d="M100.703 90C99.3142 90 98.1337 90.4861 97.1615 91.4583C96.1892 92.4537 95.7031 93.6343 95.7031 95C97.092 95 98.2726 94.5139 99.2448 93.5417C100.217 92.5694 100.703 91.3889 100.703 90Z" fill="#667EB2"/>
</g>
<g id="Group 2608754">
<path id="Vector_339" d="M40.7031 15C39.3142 15 38.1337 15.4861 37.1615 16.4583C36.1892 17.4537 35.7031 18.6343 35.7031 20C37.092 20 38.2726 19.5139 39.2448 18.5417C40.217 17.5694 40.7031 16.3889 40.7031 15Z" fill="#AE1B2E"/>
<path id="Vector_340" d="M60.7031 15C62.092 15 63.2726 15.4861 64.2448 16.4583C65.217 17.4537 65.7031 18.6343 65.7031 20C64.3142 20 63.1337 19.5139 62.1615 18.5417C61.1892 17.5694 60.7031 16.3889 60.7031 15Z" fill="#AE1B2E"/>
<path id="Vector_341" d="M30.7031 15C29.3142 15 28.1337 15.4861 27.1615 16.4583C26.1892 17.4537 25.7031 18.6343 25.7031 20C27.092 20 28.2726 19.5139 29.2448 18.5417C30.217 17.5694 30.7031 16.3889 30.7031 15Z" fill="#AE1B2E"/>
<path id="Vector_342" d="M70.7031 15C72.092 15 73.2726 15.4861 74.2448 16.4583C75.217 17.4537 75.7031 18.6343 75.7031 20C74.3142 20 73.1337 19.5139 72.1615 18.5417C71.1892 17.5694 70.7031 16.3889 70.7031 15Z" fill="#AE1B2E"/>
<path id="Vector_343" d="M30.7031 15C32.092 15 33.2726 15.4861 34.2448 16.4583C35.217 17.4537 35.7031 18.6343 35.7031 20C34.3142 20 33.1337 19.5139 32.1615 18.5417C31.1892 17.5694 30.7031 16.3889 30.7031 15Z" fill="#AE1B2E"/>
<path id="Vector_344" d="M70.7031 15C69.3142 15 68.1337 15.4861 67.1615 16.4583C66.1892 17.4537 65.7031 18.6343 65.7031 20C67.092 20 68.2726 19.5139 69.2448 18.5417C70.217 17.5694 70.7031 16.3889 70.7031 15Z" fill="#AE1B2E"/>
<path id="Vector_345" d="M20.7031 15C22.092 15 23.2726 15.4861 24.2448 16.4583C25.217 17.4537 25.7031 18.6343 25.7031 20C24.3142 20 23.1337 19.5139 22.1615 18.5417C21.1892 17.5694 20.7031 16.3889 20.7031 15Z" fill="#AE1B2E"/>
<path id="Vector_346" d="M80.7031 15C79.3142 15 78.1337 15.4861 77.1615 16.4583C76.1892 17.4537 75.7031 18.6343 75.7031 20C77.092 20 78.2726 19.5139 79.2448 18.5417C80.217 17.5694 80.7031 16.3889 80.7031 15Z" fill="#AE1B2E"/>
<path id="Vector_347" d="M20.7031 15C19.3142 15 18.1337 15.4861 17.1615 16.4583C16.1892 17.4537 15.7031 18.6343 15.7031 20C17.092 20 18.2726 19.5139 19.2448 18.5417C20.217 17.5694 20.7031 16.3889 20.7031 15Z" fill="#AE1B2E"/>
<path id="Vector_348" d="M80.7031 15C82.092 15 83.2726 15.4861 84.2448 16.4583C85.217 17.4537 85.7031 18.6343 85.7031 20C84.3142 20 83.1337 19.5139 82.1615 18.5417C81.1892 17.5694 80.7031 16.3889 80.7031 15Z" fill="#AE1B2E"/>
<path id="Vector_349" d="M10.7031 15C12.092 15 13.2726 15.4861 14.2448 16.4583C15.217 17.4537 15.7031 18.6343 15.7031 20C14.3142 20 13.1337 19.5139 12.1615 18.5417C11.1892 17.5694 10.7031 16.3889 10.7031 15Z" fill="#AE1B2E"/>
<path id="Vector_350" d="M90.7031 15C89.3142 15 88.1337 15.4861 87.1615 16.4583C86.1892 17.4537 85.7031 18.6343 85.7031 20C87.092 20 88.2726 19.5139 89.2448 18.5417C90.217 17.5694 90.7031 16.3889 90.7031 15Z" fill="#AE1B2E"/>
<path id="Vector_351" d="M40.7031 20C39.3142 20 38.1337 20.4861 37.1615 21.4583C36.1892 22.4537 35.7031 23.6343 35.7031 25C37.092 25 38.2726 24.5139 39.2448 23.5417C40.217 22.5694 40.7031 21.3889 40.7031 20Z" fill="#AE1B2E"/>
<path id="Vector_352" d="M60.7031 20C62.092 20 63.2726 20.4861 64.2448 21.4583C65.217 22.4537 65.7031 23.6343 65.7031 25C64.3142 25 63.1337 24.5139 62.1615 23.5417C61.1892 22.5694 60.7031 21.3889 60.7031 20Z" fill="#AE1B2E"/>
<path id="Vector_353" d="M30.7031 20C29.3142 20 28.1337 20.4861 27.1615 21.4583C26.1892 22.4537 25.7031 23.6343 25.7031 25C27.092 25 28.2726 24.5139 29.2448 23.5417C30.217 22.5694 30.7031 21.3889 30.7031 20Z" fill="#AE1B2E"/>
<path id="Vector_354" d="M30.7031 25C29.3142 25 28.1337 25.4861 27.1615 26.4583C26.1892 27.4537 25.7031 28.6343 25.7031 30C27.092 30 28.2726 29.5139 29.2448 28.5417C30.217 27.5694 30.7031 26.3889 30.7031 25Z" fill="#AE1B2E"/>
<path id="Vector_355" d="M70.7031 20C72.092 20 73.2726 20.4861 74.2448 21.4583C75.217 22.4537 75.7031 23.6343 75.7031 25C74.3142 25 73.1337 24.5139 72.1615 23.5417C71.1892 22.5694 70.7031 21.3889 70.7031 20Z" fill="#AE1B2E"/>
<path id="Vector_356" d="M70.7031 25C72.092 25 73.2726 25.4861 74.2448 26.4583C75.217 27.4537 75.7031 28.6343 75.7031 30C74.3142 30 73.1337 29.5139 72.1615 28.5417C71.1892 27.5694 70.7031 26.3889 70.7031 25Z" fill="#AE1B2E"/>
<path id="Vector_357" d="M30.7031 20C32.092 20 33.2726 20.4861 34.2448 21.4583C35.217 22.4537 35.7031 23.6343 35.7031 25C34.3142 25 33.1337 24.5139 32.1615 23.5417C31.1892 22.5694 30.7031 21.3889 30.7031 20Z" fill="#AE1B2E"/>
<path id="Vector_358" d="M70.7031 20C69.3142 20 68.1337 20.4861 67.1615 21.4583C66.1892 22.4537 65.7031 23.6343 65.7031 25C67.092 25 68.2726 24.5139 69.2448 23.5417C70.217 22.5694 70.7031 21.3889 70.7031 20Z" fill="#AE1B2E"/>
<path id="Vector_359" d="M20.7031 20C22.092 20 23.2726 20.4861 24.2448 21.4583C25.217 22.4537 25.7031 23.6343 25.7031 25C24.3142 25 23.1337 24.5139 22.1615 23.5417C21.1892 22.5694 20.7031 21.3889 20.7031 20Z" fill="#AE1B2E"/>
<path id="Vector_360" d="M80.7031 20C79.3142 20 78.1337 20.4861 77.1615 21.4583C76.1892 22.4537 75.7031 23.6343 75.7031 25C77.092 25 78.2726 24.5139 79.2448 23.5417C80.217 22.5694 80.7031 21.3889 80.7031 20Z" fill="#AE1B2E"/>
<path id="Vector_361" d="M20.7031 25C22.092 25 23.2726 25.4861 24.2448 26.4583C25.217 27.4537 25.7031 28.6343 25.7031 30C24.3142 30 23.1337 29.5139 22.1615 28.5417C21.1892 27.5694 20.7031 26.3889 20.7031 25Z" fill="#AE1B2E"/>
<path id="Vector_362" d="M80.7031 25C79.3142 25 78.1337 25.4861 77.1615 26.4583C76.1892 27.4537 75.7031 28.6343 75.7031 30C77.092 30 78.2726 29.5139 79.2448 28.5417C80.217 27.5694 80.7031 26.3889 80.7031 25Z" fill="#AE1B2E"/>
<path id="Vector_363" d="M20.7031 20C19.3142 20 18.1337 20.4861 17.1615 21.4583C16.1892 22.4537 15.7031 23.6343 15.7031 25C17.092 25 18.2726 24.5139 19.2448 23.5417C20.217 22.5694 20.7031 21.3889 20.7031 20Z" fill="#AE1B2E"/>
<path id="Vector_364" d="M80.7031 20C82.092 20 83.2726 20.4861 84.2448 21.4583C85.217 22.4537 85.7031 23.6343 85.7031 25C84.3142 25 83.1337 24.5139 82.1615 23.5417C81.1892 22.5694 80.7031 21.3889 80.7031 20Z" fill="#AE1B2E"/>
<path id="Vector_365" d="M20.7031 25C19.3142 25 18.1337 25.4861 17.1615 26.4583C16.1892 27.4537 15.7031 28.6343 15.7031 30C17.092 30 18.2726 29.5139 19.2448 28.5417C20.217 27.5694 20.7031 26.3889 20.7031 25Z" fill="#AE1B2E"/>
<path id="Vector_366" d="M80.7031 25C82.092 25 83.2726 25.4861 84.2448 26.4583C85.217 27.4537 85.7031 28.6343 85.7031 30C84.3142 30 83.1337 29.5139 82.1615 28.5417C81.1892 27.5694 80.7031 26.3889 80.7031 25Z" fill="#AE1B2E"/>
<path id="Vector_367" d="M10.7031 20C12.092 20 13.2726 20.4861 14.2448 21.4583C15.217 22.4537 15.7031 23.6343 15.7031 25C14.3142 25 13.1337 24.5139 12.1615 23.5417C11.1892 22.5694 10.7031 21.3889 10.7031 20Z" fill="#AE1B2E"/>
<path id="Vector_368" d="M90.7031 20C89.3142 20 88.1337 20.4861 87.1615 21.4583C86.1892 22.4537 85.7031 23.6343 85.7031 25C87.092 25 88.2726 24.5139 89.2448 23.5417C90.217 22.5694 90.7031 21.3889 90.7031 20Z" fill="#AE1B2E"/>
<path id="Vector_369" d="M40.7031 10C39.3142 10 38.1337 10.4861 37.1615 11.4583C36.1892 12.4537 35.7031 13.6343 35.7031 15C37.092 15 38.2726 14.5139 39.2448 13.5417C40.217 12.5694 40.7031 11.3889 40.7031 10Z" fill="#AE1B2E"/>
<path id="Vector_370" d="M60.7031 10C62.092 10 63.2726 10.4861 64.2448 11.4583C65.217 12.4537 65.7031 13.6343 65.7031 15C64.3142 15 63.1337 14.5139 62.1615 13.5417C61.1892 12.5694 60.7031 11.3889 60.7031 10Z" fill="#AE1B2E"/>
<path id="Vector_371" d="M30.7031 10C29.3142 10 28.1337 10.4861 27.1615 11.4583C26.1892 12.4537 25.7031 13.6343 25.7031 15C27.092 15 28.2726 14.5139 29.2448 13.5417C30.217 12.5694 30.7031 11.3889 30.7031 10Z" fill="#AE1B2E"/>
<path id="Vector_372" d="M70.7031 10C72.092 10 73.2726 10.4861 74.2448 11.4583C75.217 12.4537 75.7031 13.6343 75.7031 15C74.3142 15 73.1337 14.5139 72.1615 13.5417C71.1892 12.5694 70.7031 11.3889 70.7031 10Z" fill="#AE1B2E"/>
<path id="Vector_373" d="M30.7031 10C32.092 10 33.2726 10.4861 34.2448 11.4583C35.217 12.4537 35.7031 13.6343 35.7031 15C34.3142 15 33.1337 14.5139 32.1615 13.5417C31.1892 12.5694 30.7031 11.3889 30.7031 10Z" fill="#AE1B2E"/>
<path id="Vector_374" d="M70.7031 10C69.3142 10 68.1337 10.4861 67.1615 11.4583C66.1892 12.4537 65.7031 13.6343 65.7031 15C67.092 15 68.2726 14.5139 69.2448 13.5417C70.217 12.5694 70.7031 11.3889 70.7031 10Z" fill="#AE1B2E"/>
<path id="Vector_375" d="M20.7031 10C22.092 10 23.2726 10.4861 24.2448 11.4583C25.217 12.4537 25.7031 13.6343 25.7031 15C24.3142 15 23.1337 14.5139 22.1615 13.5417C21.1892 12.5694 20.7031 11.3889 20.7031 10Z" fill="#AE1B2E"/>
<path id="Vector_376" d="M80.7031 10C79.3142 10 78.1337 10.4861 77.1615 11.4583C76.1892 12.4537 75.7031 13.6343 75.7031 15C77.092 15 78.2726 14.5139 79.2448 13.5417C80.217 12.5694 80.7031 11.3889 80.7031 10Z" fill="#AE1B2E"/>
<path id="Vector_377" d="M20.7031 10C19.3142 10 18.1337 10.4861 17.1615 11.4583C16.1892 12.4537 15.7031 13.6343 15.7031 15C17.092 15 18.2726 14.5139 19.2448 13.5417C20.217 12.5694 20.7031 11.3889 20.7031 10Z" fill="#AE1B2E"/>
<path id="Vector_378" d="M80.7031 10C82.092 10 83.2726 10.4861 84.2448 11.4583C85.217 12.4537 85.7031 13.6343 85.7031 15C84.3142 15 83.1337 14.5139 82.1615 13.5417C81.1892 12.5694 80.7031 11.3889 80.7031 10Z" fill="#AE1B2E"/>
<path id="Vector_379" d="M10.7031 10C12.092 10 13.2726 10.4861 14.2448 11.4583C15.217 12.4537 15.7031 13.6343 15.7031 15C14.3142 15 13.1337 14.5139 12.1615 13.5417C11.1892 12.5694 10.7031 11.3889 10.7031 10Z" fill="#AE1B2E"/>
<path id="Vector_380" d="M90.7031 10C89.3142 10 88.1337 10.4861 87.1615 11.4583C86.1892 12.4537 85.7031 13.6343 85.7031 15C87.092 15 88.2726 14.5139 89.2448 13.5417C90.217 12.5694 90.7031 11.3889 90.7031 10Z" fill="#AE1B2E"/>
<path id="Vector_381" d="M40.7031 5C39.3142 5 38.1337 5.48611 37.1615 6.45833C36.1892 7.4537 35.7031 8.63426 35.7031 10C37.092 10 38.2726 9.51389 39.2448 8.54167C40.217 7.56944 40.7031 6.38889 40.7031 5Z" fill="#AE1B2E"/>
<path id="Vector_382" d="M60.7031 5C62.092 5 63.2726 5.48611 64.2448 6.45833C65.217 7.4537 65.7031 8.63426 65.7031 10C64.3142 10 63.1337 9.51389 62.1615 8.54167C61.1892 7.56944 60.7031 6.38889 60.7031 5Z" fill="#AE1B2E"/>
<path id="Vector_383" d="M30.7031 5C29.3142 5 28.1337 5.48611 27.1615 6.45833C26.1892 7.4537 25.7031 8.63426 25.7031 10C27.092 10 28.2726 9.51389 29.2448 8.54167C30.217 7.56944 30.7031 6.38889 30.7031 5Z" fill="#AE1B2E"/>
<path id="Vector_384" d="M30.7031 3.97232e-08C29.3142 1.61144e-07 28.1337 0.486111 27.1615 1.45833C26.1892 2.4537 25.7031 3.63426 25.7031 5C27.092 5 28.2726 4.51389 29.2448 3.54167C30.217 2.56944 30.7031 1.38889 30.7031 3.97232e-08Z" fill="#AE1B2E"/>
<path id="Vector_385" d="M70.7031 5C72.092 5 73.2726 5.48611 74.2448 6.45833C75.217 7.4537 75.7031 8.63426 75.7031 10C74.3142 10 73.1337 9.51389 72.1615 8.54167C71.1892 7.56944 70.7031 6.38889 70.7031 5Z" fill="#AE1B2E"/>
<path id="Vector_386" d="M70.7031 3.97232e-08C72.092 1.61144e-07 73.2726 0.486111 74.2448 1.45833C75.217 2.4537 75.7031 3.63426 75.7031 5C74.3142 5 73.1337 4.51389 72.1615 3.54167C71.1892 2.56944 70.7031 1.38889 70.7031 3.97232e-08Z" fill="#AE1B2E"/>
<path id="Vector_387" d="M30.7031 5C32.092 5 33.2726 5.48611 34.2448 6.45833C35.217 7.4537 35.7031 8.63426 35.7031 10C34.3142 10 33.1337 9.51389 32.1615 8.54167C31.1892 7.56944 30.7031 6.38889 30.7031 5Z" fill="#AE1B2E"/>
<path id="Vector_388" d="M70.7031 5C69.3142 5 68.1337 5.48611 67.1615 6.45833C66.1892 7.4537 65.7031 8.63426 65.7031 10C67.092 10 68.2726 9.51389 69.2448 8.54167C70.217 7.56944 70.7031 6.38889 70.7031 5Z" fill="#AE1B2E"/>
<path id="Vector_389" d="M20.7031 5C22.092 5 23.2726 5.48611 24.2448 6.45833C25.217 7.4537 25.7031 8.63426 25.7031 10C24.3142 10 23.1337 9.51389 22.1615 8.54167C21.1892 7.56944 20.7031 6.38889 20.7031 5Z" fill="#AE1B2E"/>
<path id="Vector_390" d="M80.7031 5C79.3142 5 78.1337 5.48611 77.1615 6.45833C76.1892 7.4537 75.7031 8.63426 75.7031 10C77.092 10 78.2726 9.51389 79.2448 8.54167C80.217 7.56944 80.7031 6.38889 80.7031 5Z" fill="#AE1B2E"/>
<path id="Vector_391" d="M20.7031 5C19.3142 5 18.1337 5.48611 17.1615 6.45833C16.1892 7.4537 15.7031 8.63426 15.7031 10C17.092 10 18.2726 9.51389 19.2448 8.54167C20.217 7.56944 20.7031 6.38889 20.7031 5Z" fill="#AE1B2E"/>
<path id="Vector_392" d="M80.7031 5C82.092 5 83.2726 5.48611 84.2448 6.45833C85.217 7.4537 85.7031 8.63426 85.7031 10C84.3142 10 83.1337 9.51389 82.1615 8.54167C81.1892 7.56944 80.7031 6.38889 80.7031 5Z" fill="#AE1B2E"/>
<path id="Vector_393" d="M10.7031 5C12.092 5 13.2726 5.48611 14.2448 6.45833C15.217 7.4537 15.7031 8.63426 15.7031 10C14.3142 10 13.1337 9.51389 12.1615 8.54167C11.1892 7.56944 10.7031 6.38889 10.7031 5Z" fill="#AE1B2E"/>
<path id="Vector_394" d="M90.7031 5C89.3142 5 88.1337 5.48611 87.1615 6.45833C86.1892 7.4537 85.7031 8.63426 85.7031 10C87.092 10 88.2726 9.51389 89.2448 8.54167C90.217 7.56944 90.7031 6.38889 90.7031 5Z" fill="#AE1B2E"/>
<path id="Vector_395" d="M20.7031 3.97232e-08C22.092 1.61144e-07 23.2726 0.486111 24.2448 1.45833C25.217 2.4537 25.7031 3.63426 25.7031 5C24.3142 5 23.1337 4.51389 22.1615 3.54167C21.1892 2.56944 20.7031 1.38889 20.7031 3.97232e-08Z" fill="#AE1B2E"/>
<path id="Vector_396" d="M80.7031 3.97232e-08C79.3142 1.61144e-07 78.1337 0.486111 77.1615 1.45833C76.1892 2.4537 75.7031 3.63426 75.7031 5C77.092 5 78.2726 4.51389 79.2448 3.54167C80.217 2.56944 80.7031 1.38889 80.7031 3.97232e-08Z" fill="#AE1B2E"/>
<path id="Vector_397" d="M20.7031 3.97232e-08C19.3142 1.61144e-07 18.1337 0.486111 17.1615 1.45833C16.1892 2.4537 15.7031 3.63426 15.7031 5C17.092 5 18.2726 4.51389 19.2448 3.54167C20.217 2.56944 20.7031 1.38889 20.7031 3.97232e-08Z" fill="#AE1B2E"/>
<path id="Vector_398" d="M80.7031 3.97232e-08C82.092 1.61144e-07 83.2726 0.486111 84.2448 1.45833C85.217 2.4537 85.7031 3.63426 85.7031 5C84.3142 5 83.1337 4.51389 82.1615 3.54167C81.1892 2.56944 80.7031 1.38889 80.7031 3.97232e-08Z" fill="#AE1B2E"/>
<path id="Vector_399" d="M40.7031 15C42.092 15 43.2726 15.4861 44.2448 16.4583C45.217 17.4537 45.7031 18.6343 45.7031 20C44.3142 20 43.1337 19.5139 42.1615 18.5417C41.1892 17.5694 40.7031 16.3889 40.7031 15Z" fill="#AE1B2E"/>
<path id="Vector_400" d="M40.7031 20C42.092 20 43.2726 20.4861 44.2448 21.4583C45.217 22.4537 45.7031 23.6343 45.7031 25C44.3142 25 43.1337 24.5139 42.1615 23.5417C41.1892 22.5694 40.7031 21.3889 40.7031 20Z" fill="#AE1B2E"/>
<path id="Vector_401" d="M50.7031 15C52.092 15 53.2726 15.4861 54.2448 16.4583C55.217 17.4537 55.7031 18.6343 55.7031 20C54.3142 20 53.1337 19.5139 52.1615 18.5417C51.1892 17.5694 50.7031 16.3889 50.7031 15Z" fill="#AE1B2E"/>
<path id="Vector_402" d="M50.7031 15C49.3142 15 48.1337 15.4861 47.1615 16.4583C46.1892 17.4537 45.7031 18.6343 45.7031 20C47.092 20 48.2726 19.5139 49.2448 18.5417C50.217 17.5694 50.7031 16.3889 50.7031 15Z" fill="#AE1B2E"/>
<path id="Vector_403" d="M60.7031 15C59.3142 15 58.1337 15.4861 57.1615 16.4583C56.1892 17.4537 55.7031 18.6343 55.7031 20C57.092 20 58.2726 19.5139 59.2448 18.5417C60.217 17.5694 60.7031 16.3889 60.7031 15Z" fill="#AE1B2E"/>
<path id="Vector_404" d="M60.7031 20C59.3142 20 58.1337 20.4861 57.1615 21.4583C56.1892 22.4537 55.7031 23.6343 55.7031 25C57.092 25 58.2726 24.5139 59.2448 23.5417C60.217 22.5694 60.7031 21.3889 60.7031 20Z" fill="#AE1B2E"/>
<path id="Vector_405" d="M40.7031 10C42.092 10 43.2726 10.4861 44.2448 11.4583C45.217 12.4537 45.7031 13.6343 45.7031 15C44.3142 15 43.1337 14.5139 42.1615 13.5417C41.1892 12.5694 40.7031 11.3889 40.7031 10Z" fill="#AE1B2E"/>
<path id="Vector_406" d="M40.7031 5C42.092 5 43.2726 5.48611 44.2448 6.45833C45.217 7.4537 45.7031 8.63426 45.7031 10C44.3142 10 43.1337 9.51389 42.1615 8.54167C41.1892 7.56944 40.7031 6.38889 40.7031 5Z" fill="#AE1B2E"/>
<path id="Vector_407" d="M50.7031 10C52.092 10 53.2726 10.4861 54.2448 11.4583C55.217 12.4537 55.7031 13.6343 55.7031 15C54.3142 15 53.1337 14.5139 52.1615 13.5417C51.1892 12.5694 50.7031 11.3889 50.7031 10Z" fill="#AE1B2E"/>
<path id="Vector_408" d="M50.7031 10C49.3142 10 48.1337 10.4861 47.1615 11.4583C46.1892 12.4537 45.7031 13.6343 45.7031 15C47.092 15 48.2726 14.5139 49.2448 13.5417C50.217 12.5694 50.7031 11.3889 50.7031 10Z" fill="#AE1B2E"/>
<path id="Vector_409" d="M60.7031 10C59.3142 10 58.1337 10.4861 57.1615 11.4583C56.1892 12.4537 55.7031 13.6343 55.7031 15C57.092 15 58.2726 14.5139 59.2448 13.5417C60.217 12.5694 60.7031 11.3889 60.7031 10Z" fill="#AE1B2E"/>
<path id="Vector_410" d="M60.7031 5C59.3142 5 58.1337 5.48611 57.1615 6.45833C56.1892 7.4537 55.7031 8.63426 55.7031 10C57.092 10 58.2726 9.51389 59.2448 8.54167C60.217 7.56944 60.7031 6.38889 60.7031 5Z" fill="#AE1B2E"/>
</g>
</g>
</svg>
