<svg width="120" height="150" viewBox="0 0 120 150" fill="none" xmlns="http://www.w3.org/2000/svg">
<path d="M110 85C108.611 85 107.431 85.4861 106.458 86.4583C105.486 87.4537 105 88.6343 105 90C106.389 90 107.569 89.5139 108.542 88.5417C109.514 87.5694 110 86.3889 110 85Z" fill="#667EB2"/>
<path d="M120 75C118.611 75 117.431 75.4861 116.458 76.4583C115.486 77.4537 115 78.6343 115 80C116.389 80 117.569 79.5139 118.542 78.5417C119.514 77.5694 120 76.3889 120 75Z" fill="#667EB2"/>
<path d="M120 80C118.611 80 117.431 80.4861 116.458 81.4583C115.486 82.4537 115 83.6343 115 85C116.389 85 117.569 84.5139 118.542 83.5417C119.514 82.5694 120 81.3889 120 80Z" fill="#667EB2"/>
<path d="M110 70C108.611 70 107.431 70.4861 106.458 71.4583C105.486 72.4537 105 73.6343 105 75C106.389 75 107.569 74.5139 108.542 73.5417C109.514 72.5694 110 71.3889 110 70Z" fill="#667EB2"/>
<path d="M100 30C101.389 30 102.569 30.4861 103.542 31.4583C104.514 32.4537 105 33.6343 105 35C103.611 35 102.431 34.5139 101.458 33.5417C100.486 32.5694 100 31.3889 100 30Z" fill="#667EB2"/>
<path d="M100 70C101.389 70 102.569 70.4861 103.542 71.4583C104.514 72.4537 105 73.6343 105 75C103.611 75 102.431 74.5139 101.458 73.5417C100.486 72.5694 100 71.3889 100 70Z" fill="#667EB2"/>
<path d="M100 30C98.6111 30 97.4306 30.4861 96.4583 31.4583C95.4861 32.4537 95 33.6343 95 35C96.3889 35 97.5694 34.5139 98.5417 33.5417C99.5139 32.5694 100 31.3889 100 30Z" fill="#667EB2"/>
<path d="M100 35C98.6111 35 97.4306 35.4861 96.4583 36.4583C95.4861 37.4537 95 38.6343 95 40C96.3889 40 97.5694 39.5139 98.5417 38.5417C99.5139 37.5694 100 36.3889 100 35Z" fill="#667EB2"/>
<path d="M100 70C98.6111 70 97.4306 70.4861 96.4583 71.4583C95.4861 72.4537 95 73.6343 95 75C96.3889 75 97.5694 74.5139 98.5417 73.5417C99.5139 72.5694 100 71.3889 100 70Z" fill="#667EB2"/>
<path d="M100 85C98.6111 85 97.4306 85.4861 96.4583 86.4583C95.4861 87.4537 95 88.6343 95 90C96.3889 90 97.5694 89.5139 98.5417 88.5417C99.5139 87.5694 100 86.3889 100 85Z" fill="#667EB2"/>
<path d="M100 135C98.6111 135 97.4306 135.486 96.4583 136.458C95.4861 137.454 95 138.634 95 140C96.3889 140 97.5694 139.514 98.5417 138.542C99.5139 137.569 100 136.389 100 135Z" fill="#667EB2"/>
<path d="M100 140C98.6111 140 97.4306 140.486 96.4583 141.458C95.4861 142.454 95 143.634 95 145C96.3889 145 97.5694 144.514 98.5417 143.542C99.5139 142.569 100 141.389 100 140Z" fill="#667EB2"/>
<path d="M110 70C111.389 70 112.569 70.4861 113.542 71.4583C114.514 72.4537 115 73.6343 115 75C113.611 75 112.431 74.5139 111.458 73.5417C110.486 72.5694 110 71.3889 110 70Z" fill="#667EB2"/>
<path d="M110 80C111.389 80 112.569 80.4861 113.542 81.4583C114.514 82.4537 115 83.6343 115 85C113.611 85 112.431 84.5139 111.458 83.5417C110.486 82.5694 110 81.3889 110 80Z" fill="#667EB2"/>
<path d="M110 85C111.389 85 112.569 85.4861 113.542 86.4583C114.514 87.4537 115 88.6343 115 90C113.611 90 112.431 89.5139 111.458 88.5417C110.486 87.5694 110 86.3889 110 85Z" fill="#667EB2"/>
<path d="M100 85C101.389 85 102.569 85.4861 103.542 86.4583C104.514 87.4537 105 88.6343 105 90C103.611 90 102.431 89.5139 101.458 88.5417C100.486 87.5694 100 86.3889 100 85Z" fill="#667EB2"/>
<path d="M100 135C101.389 135 102.569 135.486 103.542 136.458C104.514 137.454 105 138.634 105 140C103.611 140 102.431 139.514 101.458 138.542C100.486 137.569 100 136.389 100 135Z" fill="#667EB2"/>
<path d="M100 140C101.389 140 102.569 140.486 103.542 141.458C104.514 142.454 105 143.634 105 145C103.611 145 102.431 144.514 101.458 143.542C100.486 142.569 100 141.389 100 140Z" fill="#667EB2"/>
<path d="M60 85C58.6111 85 57.4306 85.4861 56.4583 86.4583C55.4861 87.4537 55 88.6343 55 90C56.3889 90 57.5694 89.5139 58.5417 88.5417C59.5139 87.5694 60 86.3889 60 85Z" fill="#667EB2"/>
<path d="M50 85C48.6111 85 47.4306 85.4861 46.4583 86.4583C45.4861 87.4537 45 88.6343 45 90C46.3889 90 47.5694 89.5139 48.5417 88.5417C49.5139 87.5694 50 86.3889 50 85Z" fill="#667EB2"/>
<path d="M50 90C48.6111 90 47.4306 90.4861 46.4583 91.4583C45.4861 92.4537 45 93.6343 45 95C46.3889 95 47.5694 94.5139 48.5417 93.5417C49.5139 92.5694 50 91.3889 50 90Z" fill="#667EB2"/>
<path d="M90 85C88.6111 85 87.4306 85.4861 86.4583 86.4583C85.4861 87.4537 85 88.6343 85 90C86.3889 90 87.5694 89.5139 88.5417 88.5417C89.5139 87.5694 90 86.3889 90 85Z" fill="#667EB2"/>
<path d="M50 95C48.6111 95 47.4306 95.4861 46.4583 96.4583C45.4861 97.4537 45 98.6343 45 100C46.3889 100 47.5694 99.5139 48.5417 98.5417C49.5139 97.5694 50 96.3889 50 95Z" fill="#667EB2"/>
<path d="M80 85C78.6111 85 77.4306 85.4861 76.4583 86.4583C75.4861 87.4537 75 88.6343 75 90C76.3889 90 77.5694 89.5139 78.5417 88.5417C79.5139 87.5694 80 86.3889 80 85Z" fill="#667EB2"/>
<path d="M60 100C58.6111 100 57.4306 100.486 56.4583 101.458C55.4861 102.454 55 103.634 55 105C56.3889 105 57.5694 104.514 58.5417 103.542C59.5139 102.569 60 101.389 60 100Z" fill="#667EB2"/>
<path d="M50 115C48.6111 115 47.4306 115.486 46.4583 116.458C45.4861 117.454 45 118.634 45 120C46.3889 120 47.5694 119.514 48.5417 118.542C49.5139 117.569 50 116.389 50 115Z" fill="#667EB2"/>
<path d="M70 130C68.6111 130 67.4306 130.486 66.4583 131.458C65.4861 132.454 65 133.634 65 135C66.3889 135 67.5694 134.514 68.5417 133.542C69.5139 132.569 70 131.389 70 130Z" fill="#667EB2"/>
<path d="M90 90C88.6111 90 87.4306 90.4861 86.4583 91.4583C85.4861 92.4537 85 93.6343 85 95C86.3889 95 87.5694 94.5139 88.5417 93.5417C89.5139 92.5694 90 91.3889 90 90Z" fill="#667EB2"/>
<path d="M70 145C68.6111 145 67.4306 145.486 66.4583 146.458C65.4861 147.454 65 148.634 65 150C66.3889 150 67.5694 149.514 68.5417 148.542C69.5139 147.569 70 146.389 70 145Z" fill="#667EB2"/>
<path d="M60 145C58.6111 145 57.4306 145.486 56.4583 146.458C55.4861 147.454 55 148.634 55 150C56.3889 150 57.5694 149.514 58.5417 148.542C59.5139 147.569 60 146.389 60 145Z" fill="#667EB2"/>
<path d="M50 145C48.6111 145 47.4306 145.486 46.4583 146.458C45.4861 147.454 45 148.634 45 150C46.3889 150 47.5694 149.514 48.5417 148.542C49.5139 147.569 50 146.389 50 145Z" fill="#667EB2"/>
<path d="M60 120C58.6111 120 57.4306 120.486 56.4583 121.458C55.4861 122.454 55 123.634 55 125C56.3889 125 57.5694 124.514 58.5417 123.542C59.5139 122.569 60 121.389 60 120Z" fill="#667EB2"/>
<path d="M90 95C88.6111 95 87.4306 95.4861 86.4583 96.4583C85.4861 97.4537 85 98.6343 85 100C86.3889 100 87.5694 99.5139 88.5417 98.5417C89.5139 97.5694 90 96.3889 90 95Z" fill="#667EB2"/>
<path d="M70 135C68.6111 135 67.4306 135.486 66.4583 136.458C65.4861 137.454 65 138.634 65 140C66.3889 140 67.5694 139.514 68.5417 138.542C69.5139 137.569 70 136.389 70 135Z" fill="#667EB2"/>
<path d="M70 5C68.6111 5 67.4306 5.48611 66.4583 6.45833C65.4861 7.4537 65 8.63426 65 10C66.3889 10 67.5694 9.51389 68.5417 8.54167C69.5139 7.56944 70 6.38889 70 5Z" fill="#AE1B2E"/>
<path d="M70 15C68.6111 15 67.4306 15.4861 66.4583 16.4583C65.4861 17.4537 65 18.6343 65 20C66.3889 20 67.5694 19.5139 68.5417 18.5417C69.5139 17.5694 70 16.3889 70 15Z" fill="#AE1B2E"/>
<path d="M60 5C58.6111 5 57.4306 5.48611 56.4583 6.45833C55.4861 7.4537 55 8.63426 55 10C56.3889 10 57.5694 9.51389 58.5417 8.54167C59.5139 7.56944 60 6.38889 60 5Z" fill="#AE1B2E"/>
<path d="M60 15C58.6111 15 57.4306 15.4861 56.4583 16.4583C55.4861 17.4537 55 18.6343 55 20C56.3889 20 57.5694 19.5139 58.5417 18.5417C59.5139 17.5694 60 16.3889 60 15Z" fill="#AE1B2E"/>
<path d="M70 25C68.6111 25 67.4306 25.4861 66.4583 26.4583C65.4861 27.4537 65 28.6343 65 30C66.3889 30 67.5694 29.5139 68.5417 28.5417C69.5139 27.5694 70 26.3889 70 25Z" fill="#667EB2"/>
<path d="M70 55C68.6111 55 67.4306 55.4861 66.4583 56.4583C65.4861 57.4537 65 58.6343 65 60C66.3889 60 67.5694 59.5139 68.5417 58.5417C69.5139 57.5694 70 56.3889 70 55Z" fill="#667EB2"/>
<path d="M60 25C58.6111 25 57.4306 25.4861 56.4583 26.4583C55.4861 27.4537 55 28.6343 55 30C56.3889 30 57.5694 29.5139 58.5417 28.5417C59.5139 27.5694 60 26.3889 60 25Z" fill="#AE1B2E"/>
<path d="M60 35C58.6111 35 57.4306 35.4861 56.4583 36.4583C55.4861 37.4537 55 38.6343 55 40C56.3889 40 57.5694 39.5139 58.5417 38.5417C59.5139 37.5694 60 36.3889 60 35Z" fill="#667EB2"/>
<path d="M60 55C58.6111 55 57.4306 55.4861 56.4583 56.4583C55.4861 57.4537 55 58.6343 55 60C56.3889 60 57.5694 59.5139 58.5417 58.5417C59.5139 57.5694 60 56.3889 60 55Z" fill="#667EB2"/>
<path d="M60 75C58.6111 75 57.4306 75.4861 56.4583 76.4583C55.4861 77.4537 55 78.6343 55 80C56.3889 80 57.5694 79.5139 58.5417 78.5417C59.5139 77.5694 60 76.3889 60 75Z" fill="#667EB2"/>
<path d="M50 5C48.6111 5 47.4306 5.48611 46.4583 6.45833C45.4861 7.4537 45 8.63426 45 10C46.3889 10 47.5694 9.51389 48.5417 8.54167C49.5139 7.56944 50 6.38889 50 5Z" fill="#AE1B2E"/>
<path d="M50 15C48.6111 15 47.4306 15.4861 46.4583 16.4583C45.4861 17.4537 45 18.6343 45 20C46.3889 20 47.5694 19.5139 48.5417 18.5417C49.5139 17.5694 50 16.3889 50 15Z" fill="#AE1B2E"/>
<path d="M70 3.97232e-08C68.6111 1.61144e-07 67.4306 0.486111 66.4583 1.45833C65.4861 2.4537 65 3.63426 65 5C66.3889 5 67.5694 4.51389 68.5417 3.54167C69.5139 2.56944 70 1.38889 70 3.97232e-08Z" fill="#AE1B2E"/>
<path d="M70 10C68.6111 10 67.4306 10.4861 66.4583 11.4583C65.4861 12.4537 65 13.6343 65 15C66.3889 15 67.5694 14.5139 68.5417 13.5417C69.5139 12.5694 70 11.3889 70 10Z" fill="#AE1B2E"/>
<path d="M50 25C48.6111 25 47.4306 25.4861 46.4583 26.4583C45.4861 27.4537 45 28.6343 45 30C46.3889 30 47.5694 29.5139 48.5417 28.5417C49.5139 27.5694 50 26.3889 50 25Z" fill="#AE1B2E"/>
<path d="M50 35C48.6111 35 47.4306 35.4861 46.4583 36.4583C45.4861 37.4537 45 38.6343 45 40C46.3889 40 47.5694 39.5139 48.5417 38.5417C49.5139 37.5694 50 36.3889 50 35Z" fill="#AE1B2E"/>
<path d="M50 55C48.6111 55 47.4306 55.4861 46.4583 56.4583C45.4861 57.4537 45 58.6343 45 60C46.3889 60 47.5694 59.5139 48.5417 58.5417C49.5139 57.5694 50 56.3889 50 55Z" fill="#667EB2"/>
<path d="M60 3.97232e-08C58.6111 1.61144e-07 57.4306 0.486111 56.4583 1.45833C55.4861 2.4537 55 3.63426 55 5C56.3889 5 57.5694 4.51389 58.5417 3.54167C59.5139 2.56944 60 1.38889 60 3.97232e-08Z" fill="#AE1B2E"/>
<path d="M60 10C58.6111 10 57.4306 10.4861 56.4583 11.4583C55.4861 12.4537 55 13.6343 55 15C56.3889 15 57.5694 14.5139 58.5417 13.5417C59.5139 12.5694 60 11.3889 60 10Z" fill="#AE1B2E"/>
<path d="M50 3.97232e-08C48.6111 1.61144e-07 47.4306 0.486111 46.4583 1.45833C45.4861 2.4537 45 3.63426 45 5C46.3889 5 47.5694 4.51389 48.5417 3.54167C49.5139 2.56944 50 1.38889 50 3.97232e-08Z" fill="#AE1B2E"/>
<path d="M50 10C48.6111 10 47.4306 10.4861 46.4583 11.4583C45.4861 12.4537 45 13.6343 45 15C46.3889 15 47.5694 14.5139 48.5417 13.5417C49.5139 12.5694 50 11.3889 50 10Z" fill="#AE1B2E"/>
<path d="M70 20C68.6111 20 67.4306 20.4861 66.4583 21.4583C65.4861 22.4537 65 23.6343 65 25C66.3889 25 67.5694 24.5139 68.5417 23.5417C69.5139 22.5694 70 21.3889 70 20Z" fill="#667EB2"/>
<path d="M60 20C58.6111 20 57.4306 20.4861 56.4583 21.4583C55.4861 22.4537 55 23.6343 55 25C56.3889 25 57.5694 24.5139 58.5417 23.5417C59.5139 22.5694 60 21.3889 60 20Z" fill="#AE1B2E"/>
<path d="M60 30C58.6111 30 57.4306 30.4861 56.4583 31.4583C55.4861 32.4537 55 33.6343 55 35C56.3889 35 57.5694 34.5139 58.5417 33.5417C59.5139 32.5694 60 31.3889 60 30Z" fill="#667EB2"/>
<path d="M60 50C58.6111 50 57.4306 50.4861 56.4583 51.4583C55.4861 52.4537 55 53.6343 55 55C56.3889 55 57.5694 54.5139 58.5417 53.5417C59.5139 52.5694 60 51.3889 60 50Z" fill="#667EB2"/>
<path d="M60 80C58.6111 80 57.4306 80.4861 56.4583 81.4583C55.4861 82.4537 55 83.6343 55 85C56.3889 85 57.5694 84.5139 58.5417 83.5417C59.5139 82.5694 60 81.3889 60 80Z" fill="#667EB2"/>
<path d="M50 20C48.6111 20 47.4306 20.4861 46.4583 21.4583C45.4861 22.4537 45 23.6343 45 25C46.3889 25 47.5694 24.5139 48.5417 23.5417C49.5139 22.5694 50 21.3889 50 20Z" fill="#AE1B2E"/>
<path d="M40 5C38.6111 5 37.4306 5.48611 36.4583 6.45833C35.4861 7.4537 35 8.63426 35 10C36.3889 10 37.5694 9.51389 38.5417 8.54167C39.5139 7.56944 40 6.38889 40 5Z" fill="#AE1B2E"/>
<path d="M90 15C88.6111 15 87.4306 15.4861 86.4583 16.4583C85.4861 17.4537 85 18.6343 85 20C86.3889 20 87.5694 19.5139 88.5417 18.5417C89.5139 17.5694 90 16.3889 90 15Z" fill="#667EB2"/>
<path d="M80 5C78.6111 5 77.4306 5.48611 76.4583 6.45833C75.4861 7.4537 75 8.63426 75 10C76.3889 10 77.5694 9.51389 78.5417 8.54167C79.5139 7.56944 80 6.38889 80 5Z" fill="#AE1B2E"/>
<path d="M80 15C78.6111 15 77.4306 15.4861 76.4583 16.4583C75.4861 17.4537 75 18.6343 75 20C76.3889 20 77.5694 19.5139 78.5417 18.5417C79.5139 17.5694 80 16.3889 80 15Z" fill="#667EB2"/>
<path d="M40 10C38.6111 10 37.4306 10.4861 36.4583 11.4583C35.4861 12.4537 35 13.6343 35 15C36.3889 15 37.5694 14.5139 38.5417 13.5417C39.5139 12.5694 40 11.3889 40 10Z" fill="#AE1B2E"/>
<path d="M50 30C48.6111 30 47.4306 30.4861 46.4583 31.4583C45.4861 32.4537 45 33.6343 45 35C46.3889 35 47.5694 34.5139 48.5417 33.5417C49.5139 32.5694 50 31.3889 50 30Z" fill="#AE1B2E"/>
<path d="M50 40C48.6111 40 47.4306 40.4861 46.4583 41.4583C45.4861 42.4537 45 43.6343 45 45C46.3889 45 47.5694 44.5139 48.5417 43.5417C49.5139 42.5694 50 41.3889 50 40Z" fill="#667EB2"/>
<path d="M50 50C48.6111 50 47.4306 50.4861 46.4583 51.4583C45.4861 52.4537 45 53.6343 45 55C46.3889 55 47.5694 54.5139 48.5417 53.5417C49.5139 52.5694 50 51.3889 50 50Z" fill="#667EB2"/>
<path d="M80 10C78.6111 10 77.4306 10.4861 76.4583 11.4583C75.4861 12.4537 75 13.6343 75 15C76.3889 15 77.5694 14.5139 78.5417 13.5417C79.5139 12.5694 80 11.3889 80 10Z" fill="#AE1B2E"/>
<path d="M90 100C88.6111 100 87.4306 100.486 86.4583 101.458C85.4861 102.454 85 103.634 85 105C86.3889 105 87.5694 104.514 88.5417 103.542C89.5139 102.569 90 101.389 90 100Z" fill="#667EB2"/>
<path d="M70 125C68.6111 125 67.4306 125.486 66.4583 126.458C65.4861 127.454 65 128.634 65 130C66.3889 130 67.5694 129.514 68.5417 128.542C69.5139 127.569 70 126.389 70 125Z" fill="#667EB2"/>
<path d="M60 125C58.6111 125 57.4306 125.486 56.4583 126.458C55.4861 127.454 55 128.634 55 130C56.3889 130 57.5694 129.514 58.5417 128.542C59.5139 127.569 60 126.389 60 125Z" fill="#667EB2"/>
<path d="M80 100C78.6111 100 77.4306 100.486 76.4583 101.458C75.4861 102.454 75 103.634 75 105C76.3889 105 77.5694 104.514 78.5417 103.542C79.5139 102.569 80 101.389 80 100Z" fill="#667EB2"/>
<path d="M40 45C38.6111 45 37.4306 45.4861 36.4583 46.4583C35.4861 47.4537 35 48.6343 35 50C36.3889 50 37.5694 49.5139 38.5417 48.5417C39.5139 47.5694 40 46.3889 40 45Z" fill="#667EB2"/>
<path d="M40 65C38.6111 65 37.4306 65.4861 36.4583 66.4583C35.4861 67.4537 35 68.6343 35 70C36.3889 70 37.5694 69.5139 38.5417 68.5417C39.5139 67.5694 40 66.3889 40 65Z" fill="#667EB2"/>
<path d="M40 75C38.6111 75 37.4306 75.4861 36.4583 76.4583C35.4861 77.4537 35 78.6343 35 80C36.3889 80 37.5694 79.5139 38.5417 78.5417C39.5139 77.5694 40 76.3889 40 75Z" fill="#667EB2"/>
<path d="M90 45C88.6111 45 87.4306 45.4861 86.4583 46.4583C85.4861 47.4537 85 48.6343 85 50C86.3889 50 87.5694 49.5139 88.5417 48.5417C89.5139 47.5694 90 46.3889 90 45Z" fill="#667EB2"/>
<path d="M20 55C18.6111 55 17.4306 55.4861 16.4583 56.4583C15.4861 57.4537 15 58.6343 15 60C16.3889 60 17.5694 59.5139 18.5417 58.5417C19.5139 57.5694 20 56.3889 20 55Z" fill="#667EB2"/>
<path d="M90 65C88.6111 65 87.4306 65.4861 86.4583 66.4583C85.4861 67.4537 85 68.6343 85 70C86.3889 70 87.5694 69.5139 88.5417 68.5417C89.5139 67.5694 90 66.3889 90 65Z" fill="#667EB2"/>
<path d="M90 75C88.6111 75 87.4306 75.4861 86.4583 76.4583C85.4861 77.4537 85 78.6343 85 80C86.3889 80 87.5694 79.5139 88.5417 78.5417C89.5139 77.5694 90 76.3889 90 75Z" fill="#667EB2"/>
<path d="M80 55C78.6111 55 77.4306 55.4861 76.4583 56.4583C75.4861 57.4537 75 58.6343 75 60C76.3889 60 77.5694 59.5139 78.5417 58.5417C79.5139 57.5694 80 56.3889 80 55Z" fill="#667EB2"/>
<path d="M40 60C38.6111 60 37.4306 60.4861 36.4583 61.4583C35.4861 62.4537 35 63.6343 35 65C36.3889 65 37.5694 64.5139 38.5417 63.5417C39.5139 62.5694 40 61.3889 40 60Z" fill="#667EB2"/>
<path d="M40 80C38.6111 80 37.4306 80.4861 36.4583 81.4583C35.4861 82.4537 35 83.6343 35 85C36.3889 85 37.5694 84.5139 38.5417 83.5417C39.5139 82.5694 40 81.3889 40 80Z" fill="#667EB2"/>
<path d="M90 40C88.6111 40 87.4306 40.4861 86.4583 41.4583C85.4861 42.4537 85 43.6343 85 45C86.3889 45 87.5694 44.5139 88.5417 43.5417C89.5139 42.5694 90 41.3889 90 40Z" fill="#667EB2"/>
<path d="M90 50C88.6111 50 87.4306 50.4861 86.4583 51.4583C85.4861 52.4537 85 53.6343 85 55C86.3889 55 87.5694 54.5139 88.5417 53.5417C89.5139 52.5694 90 51.3889 90 50Z" fill="#667EB2"/>
<path d="M20 50C18.6111 50 17.4306 50.4861 16.4583 51.4583C15.4861 52.4537 15 53.6343 15 55C16.3889 55 17.5694 54.5139 18.5417 53.5417C19.5139 52.5694 20 51.3889 20 50Z" fill="#667EB2"/>
<path d="M90 60C88.6111 60 87.4306 60.4861 86.4583 61.4583C85.4861 62.4537 85 63.6343 85 65C86.3889 65 87.5694 64.5139 88.5417 63.5417C89.5139 62.5694 90 61.3889 90 60Z" fill="#667EB2"/>
<path d="M90 70C88.6111 70 87.4306 70.4861 86.4583 71.4583C85.4861 72.4537 85 73.6343 85 75C86.3889 75 87.5694 74.5139 88.5417 73.5417C89.5139 72.5694 90 71.3889 90 70Z" fill="#667EB2"/>
<path d="M80 20C78.6111 20 77.4306 20.4861 76.4583 21.4583C75.4861 22.4537 75 23.6343 75 25C76.3889 25 77.5694 24.5139 78.5417 23.5417C79.5139 22.5694 80 21.3889 80 20Z" fill="#667EB2"/>
<path d="M80 30C78.6111 30 77.4306 30.4861 76.4583 31.4583C75.4861 32.4537 75 33.6343 75 35C76.3889 35 77.5694 34.5139 78.5417 33.5417C79.5139 32.5694 80 31.3889 80 30Z" fill="#667EB2"/>
<path d="M80 50C78.6111 50 77.4306 50.4861 76.4583 51.4583C75.4861 52.4537 75 53.6343 75 55C76.3889 55 77.5694 54.5139 78.5417 53.5417C79.5139 52.5694 80 51.3889 80 50Z" fill="#667EB2"/>
<path d="M80 60C78.6111 60 77.4306 60.4861 76.4583 61.4583C75.4861 62.4537 75 63.6343 75 65C76.3889 65 77.5694 64.5139 78.5417 63.5417C79.5139 62.5694 80 61.3889 80 60Z" fill="#667EB2"/>
<path d="M80 70C78.6111 70 77.4306 70.4861 76.4583 71.4583C75.4861 72.4537 75 73.6343 75 75C76.3889 75 77.5694 74.5139 78.5417 73.5417C79.5139 72.5694 80 71.3889 80 70Z" fill="#667EB2"/>
<path d="M40 115C38.6111 115 37.4306 115.486 36.4583 116.458C35.4861 117.454 35 118.634 35 120C36.3889 120 37.5694 119.514 38.5417 118.542C39.5139 117.569 40 116.389 40 115Z" fill="#667EB2"/>
<path d="M20 115C18.6111 115 17.4306 115.486 16.4583 116.458C15.4861 117.454 15 118.634 15 120C16.3889 120 17.5694 119.514 18.5417 118.542C19.5139 117.569 20 116.389 20 115Z" fill="#667EB2"/>
<path d="M80 115C78.6111 115 77.4306 115.486 76.4583 116.458C75.4861 117.454 75 118.634 75 120C76.3889 120 77.5694 119.514 78.5417 118.542C79.5139 117.569 80 116.389 80 115Z" fill="#667EB2"/>
<path d="M10 115C8.61111 115 7.43056 115.486 6.45833 116.458C5.48611 117.454 5 118.634 5 120C6.38889 120 7.56944 119.514 8.54167 118.542C9.51389 117.569 10 116.389 10 115Z" fill="#667EB2"/>
<path d="M90 130C88.6111 130 87.4306 130.486 86.4583 131.458C85.4861 132.454 85 133.634 85 135C86.3889 135 87.5694 134.514 88.5417 133.542C89.5139 132.569 90 131.389 90 130Z" fill="#667EB2"/>
<path d="M20 130C18.6111 130 17.4306 130.486 16.4583 131.458C15.4861 132.454 15 133.634 15 135C16.3889 135 17.5694 134.514 18.5417 133.542C19.5139 132.569 20 131.389 20 130Z" fill="#667EB2"/>
<path d="M90 145C88.6111 145 87.4306 145.486 86.4583 146.458C85.4861 147.454 85 148.634 85 150C86.3889 150 87.5694 149.514 88.5417 148.542C89.5139 147.569 90 146.389 90 145Z" fill="#667EB2"/>
<path d="M80 145C78.6111 145 77.4306 145.486 76.4583 146.458C75.4861 147.454 75 148.634 75 150C76.3889 150 77.5694 149.514 78.5417 148.542C79.5139 147.569 80 146.389 80 145Z" fill="#667EB2"/>
<path d="M10 145C8.61111 145 7.43056 145.486 6.45833 146.458C5.48611 147.454 5 148.634 5 150C6.38889 150 7.56944 149.514 8.54167 148.542C9.51389 147.569 10 146.389 10 145Z" fill="#667EB2"/>
<path d="M40 105C38.6111 105 37.4306 105.486 36.4583 106.458C35.4861 107.454 35 108.634 35 110C36.3889 110 37.5694 109.514 38.5417 108.542C39.5139 107.569 40 106.389 40 105Z" fill="#667EB2"/>
<path d="M40 120C38.6111 120 37.4306 120.486 36.4583 121.458C35.4861 122.454 35 123.634 35 125C36.3889 125 37.5694 124.514 38.5417 123.542C39.5139 122.569 40 121.389 40 120Z" fill="#667EB2"/>
<path d="M90 105C88.6111 105 87.4306 105.486 86.4583 106.458C85.4861 107.454 85 108.634 85 110C86.3889 110 87.5694 109.514 88.5417 108.542C89.5139 107.569 90 106.389 90 105Z" fill="#667EB2"/>
<path d="M90 120C88.6111 120 87.4306 120.486 86.4583 121.458C85.4861 122.454 85 123.634 85 125C86.3889 125 87.5694 124.514 88.5417 123.542C89.5139 122.569 90 121.389 90 120Z" fill="#667EB2"/>
<path d="M20 120C18.6111 120 17.4306 120.486 16.4583 121.458C15.4861 122.454 15 123.634 15 125C16.3889 125 17.5694 124.514 18.5417 123.542C19.5139 122.569 20 121.389 20 120Z" fill="#667EB2"/>
<path d="M90 135C88.6111 135 87.4306 135.486 86.4583 136.458C85.4861 137.454 85 138.634 85 140C86.3889 140 87.5694 139.514 88.5417 138.542C89.5139 137.569 90 136.389 90 135Z" fill="#667EB2"/>
<path d="M40 110C38.6111 110 37.4306 110.486 36.4583 111.458C35.4861 112.454 35 113.634 35 115C36.3889 115 37.5694 114.514 38.5417 113.542C39.5139 112.569 40 111.389 40 110Z" fill="#667EB2"/>
<path d="M80 135C78.6111 135 77.4306 135.486 76.4583 136.458C75.4861 137.454 75 138.634 75 140C76.3889 140 77.5694 139.514 78.5417 138.542C79.5139 137.569 80 136.389 80 135Z" fill="#667EB2"/>
<path d="M20 110C18.6111 110 17.4306 110.486 16.4583 111.458C15.4861 112.454 15 113.634 15 115C16.3889 115 17.5694 114.514 18.5417 113.542C19.5139 112.569 20 111.389 20 110Z" fill="#667EB2"/>
<path d="M80 110C78.6111 110 77.4306 110.486 76.4583 111.458C75.4861 112.454 75 113.634 75 115C76.3889 115 77.5694 114.514 78.5417 113.542C79.5139 112.569 80 111.389 80 110Z" fill="#667EB2"/>
<path d="M90 125C88.6111 125 87.4306 125.486 86.4583 126.458C85.4861 127.454 85 128.634 85 130C86.3889 130 87.5694 129.514 88.5417 128.542C89.5139 127.569 90 126.389 90 125Z" fill="#667EB2"/>
<path d="M10 125C8.61111 125 7.43056 125.486 6.45833 126.458C5.48611 127.454 5 128.634 5 130C6.38889 130 7.56944 129.514 8.54167 128.542C9.51389 127.569 10 126.389 10 125Z" fill="#667EB2"/>
<path d="M10 140C8.61111 140 7.43056 140.486 6.45833 141.458C5.48611 142.454 5 143.634 5 145C6.38889 145 7.56944 144.514 8.54167 143.542C9.51389 142.569 10 141.389 10 140Z" fill="#667EB2"/>
<path d="M30 5C31.3889 5 32.5694 5.48611 33.5417 6.45833C34.5139 7.4537 35 8.63426 35 10C33.6111 10 32.4306 9.51389 31.4583 8.54167C30.4861 7.56944 30 6.38889 30 5Z" fill="#667EB2"/>
<path d="M90 25C91.3889 25 92.5694 25.4861 93.5417 26.4583C94.5139 27.4537 95 28.6343 95 30C93.6111 30 92.4306 29.5139 91.4583 28.5417C90.4861 27.5694 90 26.3889 90 25Z" fill="#667EB2"/>
<path d="M90 35C91.3889 35 92.5694 35.4861 93.5417 36.4583C94.5139 37.4537 95 38.6343 95 40C93.6111 40 92.4306 39.5139 91.4583 38.5417C90.4861 37.5694 90 36.3889 90 35Z" fill="#667EB2"/>
<path d="M90 45C91.3889 45 92.5694 45.4861 93.5417 46.4583C94.5139 47.4537 95 48.6343 95 50C93.6111 50 92.4306 49.5139 91.4583 48.5417C90.4861 47.5694 90 46.3889 90 45Z" fill="#667EB2"/>
<path d="M20 55C21.3889 55 22.5694 55.4861 23.5417 56.4583C24.5139 57.4537 25 58.6343 25 60C23.6111 60 22.4306 59.5139 21.4583 58.5417C20.4861 57.5694 20 56.3889 20 55Z" fill="#667EB2"/>
<path d="M90 65C91.3889 65 92.5694 65.4861 93.5417 66.4583C94.5139 67.4537 95 68.6343 95 70C93.6111 70 92.4306 69.5139 91.4583 68.5417C90.4861 67.5694 90 66.3889 90 65Z" fill="#667EB2"/>
<path d="M90 75C91.3889 75 92.5694 75.4861 93.5417 76.4583C94.5139 77.4537 95 78.6343 95 80C93.6111 80 92.4306 79.5139 91.4583 78.5417C90.4861 77.5694 90 76.3889 90 75Z" fill="#667EB2"/>
<path d="M20 75C21.3889 75 22.5694 75.4861 23.5417 76.4583C24.5139 77.4537 25 78.6343 25 80C23.6111 80 22.4306 79.5139 21.4583 78.5417C20.4861 77.5694 20 76.3889 20 75Z" fill="#667EB2"/>
<path d="M30 10C31.3889 10 32.5694 10.4861 33.5417 11.4583C34.5139 12.4537 35 13.6343 35 15C33.6111 15 32.4306 14.5139 31.4583 13.5417C30.4861 12.5694 30 11.3889 30 10Z" fill="#667EB2"/>
<path d="M90 20C91.3889 20 92.5694 20.4861 93.5417 21.4583C94.5139 22.4537 95 23.6343 95 25C93.6111 25 92.4306 24.5139 91.4583 23.5417C90.4861 22.5694 90 21.3889 90 20Z" fill="#667EB2"/>
<path d="M90 30C91.3889 30 92.5694 30.4861 93.5417 31.4583C94.5139 32.4537 95 33.6343 95 35C93.6111 35 92.4306 34.5139 91.4583 33.5417C90.4861 32.5694 90 31.3889 90 30Z" fill="#667EB2"/>
<path d="M90 40C91.3889 40 92.5694 40.4861 93.5417 41.4583C94.5139 42.4537 95 43.6343 95 45C93.6111 45 92.4306 44.5139 91.4583 43.5417C90.4861 42.5694 90 41.3889 90 40Z" fill="#667EB2"/>
<path d="M20 50C21.3889 50 22.5694 50.4861 23.5417 51.4583C24.5139 52.4537 25 53.6343 25 55C23.6111 55 22.4306 54.5139 21.4583 53.5417C20.4861 52.5694 20 51.3889 20 50Z" fill="#667EB2"/>
<path d="M90 70C91.3889 70 92.5694 70.4861 93.5417 71.4583C94.5139 72.4537 95 73.6343 95 75C93.6111 75 92.4306 74.5139 91.4583 73.5417C90.4861 72.5694 90 71.3889 90 70Z" fill="#667EB2"/>
<path d="M20 70C21.3889 70 22.5694 70.4861 23.5417 71.4583C24.5139 72.4537 25 73.6343 25 75C23.6111 75 22.4306 74.5139 21.4583 73.5417C20.4861 72.5694 20 71.3889 20 70Z" fill="#667EB2"/>
<path d="M20 80C21.3889 80 22.5694 80.4861 23.5417 81.4583C24.5139 82.4537 25 83.6343 25 85C23.6111 85 22.4306 84.5139 21.4583 83.5417C20.4861 82.5694 20 81.3889 20 80Z" fill="#667EB2"/>
<path d="M30 55C31.3889 55 32.5694 55.4861 33.5417 56.4583C34.5139 57.4537 35 58.6343 35 60C33.6111 60 32.4306 59.5139 31.4583 58.5417C30.4861 57.5694 30 56.3889 30 55Z" fill="#667EB2"/>
<path d="M30 65C31.3889 65 32.5694 65.4861 33.5417 66.4583C34.5139 67.4537 35 68.6343 35 70C33.6111 70 32.4306 69.5139 31.4583 68.5417C30.4861 67.5694 30 66.3889 30 65Z" fill="#667EB2"/>
<path d="M30 75C31.3889 75 32.5694 75.4861 33.5417 76.4583C34.5139 77.4537 35 78.6343 35 80C33.6111 80 32.4306 79.5139 31.4583 78.5417C30.4861 77.5694 30 76.3889 30 75Z" fill="#667EB2"/>
<path d="M30 50C31.3889 50 32.5694 50.4861 33.5417 51.4583C34.5139 52.4537 35 53.6343 35 55C33.6111 55 32.4306 54.5139 31.4583 53.5417C30.4861 52.5694 30 51.3889 30 50Z" fill="#667EB2"/>
<path d="M30 60C31.3889 60 32.5694 60.4861 33.5417 61.4583C34.5139 62.4537 35 63.6343 35 65C33.6111 65 32.4306 64.5139 31.4583 63.5417C30.4861 62.5694 30 61.3889 30 60Z" fill="#667EB2"/>
<path d="M30 70C31.3889 70 32.5694 70.4861 33.5417 71.4583C34.5139 72.4537 35 73.6343 35 75C33.6111 75 32.4306 74.5139 31.4583 73.5417C30.4861 72.5694 30 71.3889 30 70Z" fill="#667EB2"/>
<path d="M90 90C91.3889 90 92.5694 90.4861 93.5417 91.4583C94.5139 92.4537 95 93.6343 95 95C93.6111 95 92.4306 94.5139 91.4583 93.5417C90.4861 92.5694 90 91.3889 90 90Z" fill="#667EB2"/>
<path d="M20 90C21.3889 90 22.5694 90.4861 23.5417 91.4583C24.5139 92.4537 25 93.6343 25 95C23.6111 95 22.4306 94.5139 21.4583 93.5417C20.4861 92.5694 20 91.3889 20 90Z" fill="#667EB2"/>
<path d="M90 85C91.3889 85 92.5694 85.4861 93.5417 86.4583C94.5139 87.4537 95 88.6343 95 90C93.6111 90 92.4306 89.5139 91.4583 88.5417C90.4861 87.5694 90 86.3889 90 85Z" fill="#667EB2"/>
<path d="M20 85C21.3889 85 22.5694 85.4861 23.5417 86.4583C24.5139 87.4537 25 88.6343 25 90C23.6111 90 22.4306 89.5139 21.4583 88.5417C20.4861 87.5694 20 86.3889 20 85Z" fill="#667EB2"/>
<path d="M60 5C61.3889 5 62.5694 5.48611 63.5417 6.45833C64.5139 7.4537 65 8.63426 65 10C63.6111 10 62.4306 9.51389 61.4583 8.54167C60.4861 7.56944 60 6.38889 60 5Z" fill="#AE1B2E"/>
<path d="M60 15C61.3889 15 62.5694 15.4861 63.5417 16.4583C64.5139 17.4537 65 18.6343 65 20C63.6111 20 62.4306 19.5139 61.4583 18.5417C60.4861 17.5694 60 16.3889 60 15Z" fill="#AE1B2E"/>
<path d="M90 95C91.3889 95 92.5694 95.4861 93.5417 96.4583C94.5139 97.4537 95 98.6343 95 100C93.6111 100 92.4306 99.5139 91.4583 98.5417C90.4861 97.5694 90 96.3889 90 95Z" fill="#667EB2"/>
<path d="M50 5C51.3889 5 52.5694 5.48611 53.5417 6.45833C54.5139 7.4537 55 8.63426 55 10C53.6111 10 52.4306 9.51389 51.4583 8.54167C50.4861 7.56944 50 6.38889 50 5Z" fill="#AE1B2E"/>
<path d="M50 15C51.3889 15 52.5694 15.4861 53.5417 16.4583C54.5139 17.4537 55 18.6343 55 20C53.6111 20 52.4306 19.5139 51.4583 18.5417C50.4861 17.5694 50 16.3889 50 15Z" fill="#AE1B2E"/>
<path d="M20 105C21.3889 105 22.5694 105.486 23.5417 106.458C24.5139 107.454 25 108.634 25 110C23.6111 110 22.4306 109.514 21.4583 108.542C20.4861 107.569 20 106.389 20 105Z" fill="#667EB2"/>
<path d="M40 5C41.3889 5 42.5694 5.48611 43.5417 6.45833C44.5139 7.4537 45 8.63426 45 10C43.6111 10 42.4306 9.51389 41.4583 8.54167C40.4861 7.56944 40 6.38889 40 5Z" fill="#AE1B2E"/>
<path d="M40 15C41.3889 15 42.5694 15.4861 43.5417 16.4583C44.5139 17.4537 45 18.6343 45 20C43.6111 20 42.4306 19.5139 41.4583 18.5417C40.4861 17.5694 40 16.3889 40 15Z" fill="#AE1B2E"/>
<path d="M20 100C21.3889 100 22.5694 100.486 23.5417 101.458C24.5139 102.454 25 103.634 25 105C23.6111 105 22.4306 104.514 21.4583 103.542C20.4861 102.569 20 101.389 20 100Z" fill="#667EB2"/>
<path d="M90 130C91.3889 130 92.5694 130.486 93.5417 131.458C94.5139 132.454 95 133.634 95 135C93.6111 135 92.4306 134.514 91.4583 133.542C90.4861 132.569 90 131.389 90 130Z" fill="#667EB2"/>
<path d="M20 130C21.3889 130 22.5694 130.486 23.5417 131.458C24.5139 132.454 25 133.634 25 135C23.6111 135 22.4306 134.514 21.4583 133.542C20.4861 132.569 20 131.389 20 130Z" fill="#667EB2"/>
<path d="M60 -3.97233e-08C61.3889 -1.61144e-07 62.5694 0.486111 63.5417 1.45833C64.5139 2.4537 65 3.63426 65 5C63.6111 5 62.4306 4.51389 61.4583 3.54167C60.4861 2.56944 60 1.38889 60 -3.97233e-08Z" fill="#AE1B2E"/>
<path d="M60 10C61.3889 10 62.5694 10.4861 63.5417 11.4583C64.5139 12.4537 65 13.6343 65 15C63.6111 15 62.4306 14.5139 61.4583 13.5417C60.4861 12.5694 60 11.3889 60 10Z" fill="#AE1B2E"/>
<path d="M20 110C21.3889 110 22.5694 110.486 23.5417 111.458C24.5139 112.454 25 113.634 25 115C23.6111 115 22.4306 114.514 21.4583 113.542C20.4861 112.569 20 111.389 20 110Z" fill="#667EB2"/>
<path d="M50 -3.97233e-08C51.3889 -1.61144e-07 52.5694 0.486111 53.5417 1.45833C54.5139 2.4537 55 3.63426 55 5C53.6111 5 52.4306 4.51389 51.4583 3.54167C50.4861 2.56944 50 1.38889 50 -3.97233e-08Z" fill="#AE1B2E"/>
<path d="M50 10C51.3889 10 52.5694 10.4861 53.5417 11.4583C54.5139 12.4537 55 13.6343 55 15C53.6111 15 52.4306 14.5139 51.4583 13.5417C50.4861 12.5694 50 11.3889 50 10Z" fill="#AE1B2E"/>
<path d="M90 125C91.3889 125 92.5694 125.486 93.5417 126.458C94.5139 127.454 95 128.634 95 130C93.6111 130 92.4306 129.514 91.4583 128.542C90.4861 127.569 90 126.389 90 125Z" fill="#667EB2"/>
<path d="M40 10C41.3889 10 42.5694 10.4861 43.5417 11.4583C44.5139 12.4537 45 13.6343 45 15C43.6111 15 42.4306 14.5139 41.4583 13.5417C40.4861 12.5694 40 11.3889 40 10Z" fill="#AE1B2E"/>
<path d="M60 25C61.3889 25 62.5694 25.4861 63.5417 26.4583C64.5139 27.4537 65 28.6343 65 30C63.6111 30 62.4306 29.5139 61.4583 28.5417C60.4861 27.5694 60 26.3889 60 25Z" fill="#667EB2"/>
<path d="M60 55C61.3889 55 62.5694 55.4861 63.5417 56.4583C64.5139 57.4537 65 58.6343 65 60C63.6111 60 62.4306 59.5139 61.4583 58.5417C60.4861 57.5694 60 56.3889 60 55Z" fill="#667EB2"/>
<path d="M80 15C81.3889 15 82.5694 15.4861 83.5417 16.4583C84.5139 17.4537 85 18.6343 85 20C83.6111 20 82.4306 19.5139 81.4583 18.5417C80.4861 17.5694 80 16.3889 80 15Z" fill="#667EB2"/>
<path d="M70 5C71.3889 5 72.5694 5.48611 73.5417 6.45833C74.5139 7.4537 75 8.63426 75 10C73.6111 10 72.4306 9.51389 71.4583 8.54167C70.4861 7.56944 70 6.38889 70 5Z" fill="#AE1B2E"/>
<path d="M70 15C71.3889 15 72.5694 15.4861 73.5417 16.4583C74.5139 17.4537 75 18.6343 75 20C73.6111 20 72.4306 19.5139 71.4583 18.5417C70.4861 17.5694 70 16.3889 70 15Z" fill="#AE1B2E"/>
<path d="M50 25C51.3889 25 52.5694 25.4861 53.5417 26.4583C54.5139 27.4537 55 28.6343 55 30C53.6111 30 52.4306 29.5139 51.4583 28.5417C50.4861 27.5694 50 26.3889 50 25Z" fill="#AE1B2E"/>
<path d="M50 35C51.3889 35 52.5694 35.4861 53.5417 36.4583C54.5139 37.4537 55 38.6343 55 40C53.6111 40 52.4306 39.5139 51.4583 38.5417C50.4861 37.5694 50 36.3889 50 35Z" fill="#667EB2"/>
<path d="M50 45C51.3889 45 52.5694 45.4861 53.5417 46.4583C54.5139 47.4537 55 48.6343 55 50C53.6111 50 52.4306 49.5139 51.4583 48.5417C50.4861 47.5694 50 46.3889 50 45Z" fill="#667EB2"/>
<path d="M50 55C51.3889 55 52.5694 55.4861 53.5417 56.4583C54.5139 57.4537 55 58.6343 55 60C53.6111 60 52.4306 59.5139 51.4583 58.5417C50.4861 57.5694 50 56.3889 50 55Z" fill="#667EB2"/>
<path d="M40 25C41.3889 25 42.5694 25.4861 43.5417 26.4583C44.5139 27.4537 45 28.6343 45 30C43.6111 30 42.4306 29.5139 41.4583 28.5417C40.4861 27.5694 40 26.3889 40 25Z" fill="#AE1B2E"/>
<path d="M40 35C41.3889 35 42.5694 35.4861 43.5417 36.4583C44.5139 37.4537 45 38.6343 45 40C43.6111 40 42.4306 39.5139 41.4583 38.5417C40.4861 37.5694 40 36.3889 40 35Z" fill="#667EB2"/>
<path d="M40 45C41.3889 45 42.5694 45.4861 43.5417 46.4583C44.5139 47.4537 45 48.6343 45 50C43.6111 50 42.4306 49.5139 41.4583 48.5417C40.4861 47.5694 40 46.3889 40 45Z" fill="#667EB2"/>
<path d="M40 65C41.3889 65 42.5694 65.4861 43.5417 66.4583C44.5139 67.4537 45 68.6343 45 70C43.6111 70 42.4306 69.5139 41.4583 68.5417C40.4861 67.5694 40 66.3889 40 65Z" fill="#667EB2"/>
<path d="M40 75C41.3889 75 42.5694 75.4861 43.5417 76.4583C44.5139 77.4537 45 78.6343 45 80C43.6111 80 42.4306 79.5139 41.4583 78.5417C40.4861 77.5694 40 76.3889 40 75Z" fill="#667EB2"/>
<path d="M80 10C81.3889 10 82.5694 10.4861 83.5417 11.4583C84.5139 12.4537 85 13.6343 85 15C83.6111 15 82.4306 14.5139 81.4583 13.5417C80.4861 12.5694 80 11.3889 80 10Z" fill="#AE1B2E"/>
<path d="M70 -3.97233e-08C71.3889 -1.61144e-07 72.5694 0.486111 73.5417 1.45833C74.5139 2.4537 75 3.63426 75 5C73.6111 5 72.4306 4.51389 71.4583 3.54167C70.4861 2.56944 70 1.38889 70 -3.97233e-08Z" fill="#AE1B2E"/>
<path d="M70 10C71.3889 10 72.5694 10.4861 73.5417 11.4583C74.5139 12.4537 75 13.6343 75 15C73.6111 15 72.4306 14.5139 71.4583 13.5417C70.4861 12.5694 70 11.3889 70 10Z" fill="#AE1B2E"/>
<path d="M60 20C61.3889 20 62.5694 20.4861 63.5417 21.4583C64.5139 22.4537 65 23.6343 65 25C63.6111 25 62.4306 24.5139 61.4583 23.5417C60.4861 22.5694 60 21.3889 60 20Z" fill="#AE1B2E"/>
<path d="M60 30C61.3889 30 62.5694 30.4861 63.5417 31.4583C64.5139 32.4537 65 33.6343 65 35C63.6111 35 62.4306 34.5139 61.4583 33.5417C60.4861 32.5694 60 31.3889 60 30Z" fill="#667EB2"/>
<path d="M60 50C61.3889 50 62.5694 50.4861 63.5417 51.4583C64.5139 52.4537 65 53.6343 65 55C63.6111 55 62.4306 54.5139 61.4583 53.5417C60.4861 52.5694 60 51.3889 60 50Z" fill="#667EB2"/>
<path d="M50 20C51.3889 20 52.5694 20.4861 53.5417 21.4583C54.5139 22.4537 55 23.6343 55 25C53.6111 25 52.4306 24.5139 51.4583 23.5417C50.4861 22.5694 50 21.3889 50 20Z" fill="#AE1B2E"/>
<path d="M50 30C51.3889 30 52.5694 30.4861 53.5417 31.4583C54.5139 32.4537 55 33.6343 55 35C53.6111 35 52.4306 34.5139 51.4583 33.5417C50.4861 32.5694 50 31.3889 50 30Z" fill="#AE1B2E"/>
<path d="M50 40C51.3889 40 52.5694 40.4861 53.5417 41.4583C54.5139 42.4537 55 43.6343 55 45C53.6111 45 52.4306 44.5139 51.4583 43.5417C50.4861 42.5694 50 41.3889 50 40Z" fill="#667EB2"/>
<path d="M50 50C51.3889 50 52.5694 50.4861 53.5417 51.4583C54.5139 52.4537 55 53.6343 55 55C53.6111 55 52.4306 54.5139 51.4583 53.5417C50.4861 52.5694 50 51.3889 50 50Z" fill="#667EB2"/>
<path d="M50 70C51.3889 70 52.5694 70.4861 53.5417 71.4583C54.5139 72.4537 55 73.6343 55 75C53.6111 75 52.4306 74.5139 51.4583 73.5417C50.4861 72.5694 50 71.3889 50 70Z" fill="#667EB2"/>
<path d="M30 5C28.6111 5 27.4306 5.48611 26.4583 6.45833C25.4861 7.4537 25 8.63426 25 10C26.3889 10 27.5694 9.51389 28.5417 8.54167C29.5139 7.56944 30 6.38889 30 5Z" fill="#667EB2"/>
<path d="M30 10C28.6111 10 27.4306 10.4861 26.4583 11.4583C25.4861 12.4537 25 13.6343 25 15C26.3889 15 27.5694 14.5139 28.5417 13.5417C29.5139 12.5694 30 11.3889 30 10Z" fill="#667EB2"/>
<path d="M30 50C28.6111 50 27.4306 50.4861 26.4583 51.4583C25.4861 52.4537 25 53.6343 25 55C26.3889 55 27.5694 54.5139 28.5417 53.5417C29.5139 52.5694 30 51.3889 30 50Z" fill="#667EB2"/>
<path d="M30 55C28.6111 55 27.4306 55.4861 26.4583 56.4583C25.4861 57.4537 25 58.6343 25 60C26.3889 60 27.5694 59.5139 28.5417 58.5417C29.5139 57.5694 30 56.3889 30 55Z" fill="#667EB2"/>
<path d="M30 65C28.6111 65 27.4306 65.4861 26.4583 66.4583C25.4861 67.4537 25 68.6343 25 70C26.3889 70 27.5694 69.5139 28.5417 68.5417C29.5139 67.5694 30 66.3889 30 65Z" fill="#667EB2"/>
<path d="M30 70C28.6111 70 27.4306 70.4861 26.4583 71.4583C25.4861 72.4537 25 73.6343 25 75C26.3889 75 27.5694 74.5139 28.5417 73.5417C29.5139 72.5694 30 71.3889 30 70Z" fill="#667EB2"/>
<path d="M30 75C28.6111 75 27.4306 75.4861 26.4583 76.4583C25.4861 77.4537 25 78.6343 25 80C26.3889 80 27.5694 79.5139 28.5417 78.5417C29.5139 77.5694 30 76.3889 30 75Z" fill="#667EB2"/>
<path d="M30 80C28.6111 80 27.4306 80.4861 26.4583 81.4583C25.4861 82.4537 25 83.6343 25 85C26.3889 85 27.5694 84.5139 28.5417 83.5417C29.5139 82.5694 30 81.3889 30 80Z" fill="#667EB2"/>
<path d="M30 85C28.6111 85 27.4306 85.4861 26.4583 86.4583C25.4861 87.4537 25 88.6343 25 90C26.3889 90 27.5694 89.5139 28.5417 88.5417C29.5139 87.5694 30 86.3889 30 85Z" fill="#667EB2"/>
<path d="M30 90C28.6111 90 27.4306 90.4861 26.4583 91.4583C25.4861 92.4537 25 93.6343 25 95C26.3889 95 27.5694 94.5139 28.5417 93.5417C29.5139 92.5694 30 91.3889 30 90Z" fill="#667EB2"/>
<path d="M30 95C28.6111 95 27.4306 95.4861 26.4583 96.4583C25.4861 97.4537 25 98.6343 25 100C26.3889 100 27.5694 99.5139 28.5417 98.5417C29.5139 97.5694 30 96.3889 30 95Z" fill="#667EB2"/>
<path d="M30 100C28.6111 100 27.4306 100.486 26.4583 101.458C25.4861 102.454 25 103.634 25 105C26.3889 105 27.5694 104.514 28.5417 103.542C29.5139 102.569 30 101.389 30 100Z" fill="#667EB2"/>
<path d="M30 105C28.6111 105 27.4306 105.486 26.4583 106.458C25.4861 107.454 25 108.634 25 110C26.3889 110 27.5694 109.514 28.5417 108.542C29.5139 107.569 30 106.389 30 105Z" fill="#667EB2"/>
<path d="M30 125C28.6111 125 27.4306 125.486 26.4583 126.458C25.4861 127.454 25 128.634 25 130C26.3889 130 27.5694 129.514 28.5417 128.542C29.5139 127.569 30 126.389 30 125Z" fill="#667EB2"/>
<path d="M30 130C28.6111 130 27.4306 130.486 26.4583 131.458C25.4861 132.454 25 133.634 25 135C26.3889 135 27.5694 134.514 28.5417 133.542C29.5139 132.569 30 131.389 30 130Z" fill="#667EB2"/>
<path d="M40 20C41.3889 20 42.5694 20.4861 43.5417 21.4583C44.5139 22.4537 45 23.6343 45 25C43.6111 25 42.4306 24.5139 41.4583 23.5417C40.4861 22.5694 40 21.3889 40 20Z" fill="#AE1B2E"/>
<path d="M40 30C41.3889 30 42.5694 30.4861 43.5417 31.4583C44.5139 32.4537 45 33.6343 45 35C43.6111 35 42.4306 34.5139 41.4583 33.5417C40.4861 32.5694 40 31.3889 40 30Z" fill="#AE1B2E"/>
<path d="M40 40C41.3889 40 42.5694 40.4861 43.5417 41.4583C44.5139 42.4537 45 43.6343 45 45C43.6111 45 42.4306 44.5139 41.4583 43.5417C40.4861 42.5694 40 41.3889 40 40Z" fill="#667EB2"/>
<path d="M40 60C41.3889 60 42.5694 60.4861 43.5417 61.4583C44.5139 62.4537 45 63.6343 45 65C43.6111 65 42.4306 64.5139 41.4583 63.5417C40.4861 62.5694 40 61.3889 40 60Z" fill="#667EB2"/>
<path d="M40 80C41.3889 80 42.5694 80.4861 43.5417 81.4583C44.5139 82.4537 45 83.6343 45 85C43.6111 85 42.4306 84.5139 41.4583 83.5417C40.4861 82.5694 40 81.3889 40 80Z" fill="#667EB2"/>
<path d="M80 55C81.3889 55 82.5694 55.4861 83.5417 56.4583C84.5139 57.4537 85 58.6343 85 60C83.6111 60 82.4306 59.5139 81.4583 58.5417C80.4861 57.5694 80 56.3889 80 55Z" fill="#667EB2"/>
<path d="M10 55C11.3889 55 12.5694 55.4861 13.5417 56.4583C14.5139 57.4537 15 58.6343 15 60C13.6111 60 12.4306 59.5139 11.4583 58.5417C10.4861 57.5694 10 56.3889 10 55Z" fill="#667EB2"/>
<path d="M70 55C71.3889 55 72.5694 55.4861 73.5417 56.4583C74.5139 57.4537 75 58.6343 75 60C73.6111 60 72.4306 59.5139 71.4583 58.5417C70.4861 57.5694 70 56.3889 70 55Z" fill="#667EB2"/>
<path d="M80 30C81.3889 30 82.5694 30.4861 83.5417 31.4583C84.5139 32.4537 85 33.6343 85 35C83.6111 35 82.4306 34.5139 81.4583 33.5417C80.4861 32.5694 80 31.3889 80 30Z" fill="#667EB2"/>
<path d="M80 50C81.3889 50 82.5694 50.4861 83.5417 51.4583C84.5139 52.4537 85 53.6343 85 55C83.6111 55 82.4306 54.5139 81.4583 53.5417C80.4861 52.5694 80 51.3889 80 50Z" fill="#667EB2"/>
<path d="M80 60C81.3889 60 82.5694 60.4861 83.5417 61.4583C84.5139 62.4537 85 63.6343 85 65C83.6111 65 82.4306 64.5139 81.4583 63.5417C80.4861 62.5694 80 61.3889 80 60Z" fill="#667EB2"/>
<path d="M70 20C71.3889 20 72.5694 20.4861 73.5417 21.4583C74.5139 22.4537 75 23.6343 75 25C73.6111 25 72.4306 24.5139 71.4583 23.5417C70.4861 22.5694 70 21.3889 70 20Z" fill="#667EB2"/>
<path d="M70 60C71.3889 60 72.5694 60.4861 73.5417 61.4583C74.5139 62.4537 75 63.6343 75 65C73.6111 65 72.4306 64.5139 71.4583 63.5417C70.4861 62.5694 70 61.3889 70 60Z" fill="#667EB2"/>
<path d="M60 90C61.3889 90 62.5694 90.4861 63.5417 91.4583C64.5139 92.4537 65 93.6343 65 95C63.6111 95 62.4306 94.5139 61.4583 93.5417C60.4861 92.5694 60 91.3889 60 90Z" fill="#667EB2"/>
<path d="M40 90C41.3889 90 42.5694 90.4861 43.5417 91.4583C44.5139 92.4537 45 93.6343 45 95C43.6111 95 42.4306 94.5139 41.4583 93.5417C40.4861 92.5694 40 91.3889 40 90Z" fill="#667EB2"/>
<path d="M40 85C41.3889 85 42.5694 85.4861 43.5417 86.4583C44.5139 87.4537 45 88.6343 45 90C43.6111 90 42.4306 89.5139 41.4583 88.5417C40.4861 87.5694 40 86.3889 40 85Z" fill="#667EB2"/>
<path d="M60 95C61.3889 95 62.5694 95.4861 63.5417 96.4583C64.5139 97.4537 65 98.6343 65 100C63.6111 100 62.4306 99.5139 61.4583 98.5417C60.4861 97.5694 60 96.3889 60 95Z" fill="#667EB2"/>
<path d="M50 95C51.3889 95 52.5694 95.4861 53.5417 96.4583C54.5139 97.4537 55 98.6343 55 100C53.6111 100 52.4306 99.5139 51.4583 98.5417C50.4861 97.5694 50 96.3889 50 95Z" fill="#667EB2"/>
<path d="M50 120C51.3889 120 52.5694 120.486 53.5417 121.458C54.5139 122.454 55 123.634 55 125C53.6111 125 52.4306 124.514 51.4583 123.542C50.4861 122.569 50 121.389 50 120Z" fill="#667EB2"/>
<path d="M60 100C61.3889 100 62.5694 100.486 63.5417 101.458C64.5139 102.454 65 103.634 65 105C63.6111 105 62.4306 104.514 61.4583 103.542C60.4861 102.569 60 101.389 60 100Z" fill="#667EB2"/>
<path d="M50 115C51.3889 115 52.5694 115.486 53.5417 116.458C54.5139 117.454 55 118.634 55 120C53.6111 120 52.4306 119.514 51.4583 118.542C50.4861 117.569 50 116.389 50 115Z" fill="#667EB2"/>
<path d="M40 115C41.3889 115 42.5694 115.486 43.5417 116.458C44.5139 117.454 45 118.634 45 120C43.6111 120 42.4306 119.514 41.4583 118.542C40.4861 117.569 40 116.389 40 115Z" fill="#667EB2"/>
<path d="M60 130C61.3889 130 62.5694 130.486 63.5417 131.458C64.5139 132.454 65 133.634 65 135C63.6111 135 62.4306 134.514 61.4583 133.542C60.4861 132.569 60 131.389 60 130Z" fill="#667EB2"/>
<path d="M60 145C61.3889 145 62.5694 145.486 63.5417 146.458C64.5139 147.454 65 148.634 65 150C63.6111 150 62.4306 149.514 61.4583 148.542C60.4861 147.569 60 146.389 60 145Z" fill="#667EB2"/>
<path d="M50 145C51.3889 145 52.5694 145.486 53.5417 146.458C54.5139 147.454 55 148.634 55 150C53.6111 150 52.4306 149.514 51.4583 148.542C50.4861 147.569 50 146.389 50 145Z" fill="#667EB2"/>
<path d="M40 110C41.3889 110 42.5694 110.486 43.5417 111.458C44.5139 112.454 45 113.634 45 115C43.6111 115 42.4306 114.514 41.4583 113.542C40.4861 112.569 40 111.389 40 110Z" fill="#667EB2"/>
<path d="M60 125C61.3889 125 62.5694 125.486 63.5417 126.458C64.5139 127.454 65 128.634 65 130C63.6111 130 62.4306 129.514 61.4583 128.542C60.4861 127.569 60 126.389 60 125Z" fill="#667EB2"/>
<path d="M30 95C31.3889 95 32.5694 95.4861 33.5417 96.4583C34.5139 97.4537 35 98.6343 35 100C33.6111 100 32.4306 99.5139 31.4583 98.5417C30.4861 97.5694 30 96.3889 30 95Z" fill="#667EB2"/>
<path d="M30 105C31.3889 105 32.5694 105.486 33.5417 106.458C34.5139 107.454 35 108.634 35 110C33.6111 110 32.4306 109.514 31.4583 108.542C30.4861 107.569 30 106.389 30 105Z" fill="#667EB2"/>
<path d="M30 120C31.3889 120 32.5694 120.486 33.5417 121.458C34.5139 122.454 35 123.634 35 125C33.6111 125 32.4306 124.514 31.4583 123.542C30.4861 122.569 30 121.389 30 120Z" fill="#667EB2"/>
<path d="M30 100C31.3889 100 32.5694 100.486 33.5417 101.458C34.5139 102.454 35 103.634 35 105C33.6111 105 32.4306 104.514 31.4583 103.542C30.4861 102.569 30 101.389 30 100Z" fill="#667EB2"/>
<path d="M80 105C81.3889 105 82.5694 105.486 83.5417 106.458C84.5139 107.454 85 108.634 85 110C83.6111 110 82.4306 109.514 81.4583 108.542C80.4861 107.569 80 106.389 80 105Z" fill="#667EB2"/>
<path d="M3.97232e-08 105C1.38889 105 2.56944 105.486 3.54167 106.458C4.51389 107.454 5 108.634 5 110C3.61111 110 2.43056 109.514 1.45833 108.542C0.486111 107.569 1.61144e-07 106.389 3.97232e-08 105Z" fill="#667EB2"/>
<path d="M80 120C81.3889 120 82.5694 120.486 83.5417 121.458C84.5139 122.454 85 123.634 85 125C83.6111 125 82.4306 124.514 81.4583 123.542C80.4861 122.569 80 121.389 80 120Z" fill="#667EB2"/>
<path d="M10 120C11.3889 120 12.5694 120.486 13.5417 121.458C14.5139 122.454 15 123.634 15 125C13.6111 125 12.4306 124.514 11.4583 123.542C10.4861 122.569 10 121.389 10 120Z" fill="#667EB2"/>
<path d="M3.97232e-08 120C1.38889 120 2.56944 120.486 3.54167 121.458C4.51389 122.454 5 123.634 5 125C3.61111 125 2.43056 124.514 1.45833 123.542C0.486111 122.569 1.61144e-07 121.389 3.97232e-08 120Z" fill="#667EB2"/>
<path d="M80 135C81.3889 135 82.5694 135.486 83.5417 136.458C84.5139 137.454 85 138.634 85 140C83.6111 140 82.4306 139.514 81.4583 138.542C80.4861 137.569 80 136.389 80 135Z" fill="#667EB2"/>
<path d="M70 135C71.3889 135 72.5694 135.486 73.5417 136.458C74.5139 137.454 75 138.634 75 140C73.6111 140 72.4306 139.514 71.4583 138.542C70.4861 137.569 70 136.389 70 135Z" fill="#667EB2"/>
<path d="M80 140C81.3889 140 82.5694 140.486 83.5417 141.458C84.5139 142.454 85 143.634 85 145C83.6111 145 82.4306 144.514 81.4583 143.542C80.4861 142.569 80 141.389 80 140Z" fill="#667EB2"/>
<path d="M70 140C71.3889 140 72.5694 140.486 73.5417 141.458C74.5139 142.454 75 143.634 75 145C73.6111 145 72.4306 144.514 71.4583 143.542C70.4861 142.569 70 141.389 70 140Z" fill="#667EB2"/>
<path d="M3.97232e-08 135C1.38889 135 2.56944 135.486 3.54167 136.458C4.51389 137.454 5 138.634 5 140C3.61111 140 2.43056 139.514 1.45833 138.542C0.486111 137.569 1.61144e-07 136.389 3.97232e-08 135Z" fill="#667EB2"/>
<path d="M30 125C31.3889 125 32.5694 125.486 33.5417 126.458C34.5139 127.454 35 128.634 35 130C33.6111 130 32.4306 129.514 31.4583 128.542C30.4861 127.569 30 126.389 30 125Z" fill="#667EB2"/>
<path d="M3.97232e-08 100C1.38889 100 2.56944 100.486 3.54167 101.458C4.51389 102.454 5 103.634 5 105C3.61111 105 2.43056 104.514 1.45833 103.542C0.486111 102.569 1.61144e-07 101.389 3.97232e-08 100Z" fill="#667EB2"/>
<path d="M80 115C81.3889 115 82.5694 115.486 83.5417 116.458C84.5139 117.454 85 118.634 85 120C83.6111 120 82.4306 119.514 81.4583 118.542C80.4861 117.569 80 116.389 80 115Z" fill="#667EB2"/>
<path d="M10 115C11.3889 115 12.5694 115.486 13.5417 116.458C14.5139 117.454 15 118.634 15 120C13.6111 120 12.4306 119.514 11.4583 118.542C10.4861 117.569 10 116.389 10 115Z" fill="#667EB2"/>
<path d="M70 115C71.3889 115 72.5694 115.486 73.5417 116.458C74.5139 117.454 75 118.634 75 120C73.6111 120 72.4306 119.514 71.4583 118.542C70.4861 117.569 70 116.389 70 115Z" fill="#667EB2"/>
<path d="M3.97232e-08 115C1.38889 115 2.56944 115.486 3.54167 116.458C4.51389 117.454 5 118.634 5 120C3.61111 120 2.43056 119.514 1.45833 118.542C0.486111 117.569 1.61144e-07 116.389 3.97232e-08 115Z" fill="#667EB2"/>
<path d="M10 130C11.3889 130 12.5694 130.486 13.5417 131.458C14.5139 132.454 15 133.634 15 135C13.6111 135 12.4306 134.514 11.4583 133.542C10.4861 132.569 10 131.389 10 130Z" fill="#667EB2"/>
<path d="M70 130C71.3889 130 72.5694 130.486 73.5417 131.458C74.5139 132.454 75 133.634 75 135C73.6111 135 72.4306 134.514 71.4583 133.542C70.4861 132.569 70 131.389 70 130Z" fill="#667EB2"/>
<path d="M3.97232e-08 130C1.38889 130 2.56944 130.486 3.54167 131.458C4.51389 132.454 5 133.634 5 135C3.61111 135 2.43056 134.514 1.45833 133.542C0.486111 132.569 1.61144e-07 131.389 3.97232e-08 130Z" fill="#667EB2"/>
<path d="M90 145C91.3889 145 92.5694 145.486 93.5417 146.458C94.5139 147.454 95 148.634 95 150C93.6111 150 92.4306 149.514 91.4583 148.542C90.4861 147.569 90 146.389 90 145Z" fill="#667EB2"/>
<path d="M80 145C81.3889 145 82.5694 145.486 83.5417 146.458C84.5139 147.454 85 148.634 85 150C83.6111 150 82.4306 149.514 81.4583 148.542C80.4861 147.569 80 146.389 80 145Z" fill="#667EB2"/>
<path d="M70 145C71.3889 145 72.5694 145.486 73.5417 146.458C74.5139 147.454 75 148.634 75 150C73.6111 150 72.4306 149.514 71.4583 148.542C70.4861 147.569 70 146.389 70 145Z" fill="#667EB2"/>
<path d="M3.97232e-08 145C1.38889 145 2.56944 145.486 3.54167 146.458C4.51389 147.454 5 148.634 5 150C3.61111 150 2.43056 149.514 1.45833 148.542C0.486111 147.569 1.61144e-07 146.389 3.97232e-08 145Z" fill="#667EB2"/>
<path d="M80 110C81.3889 110 82.5694 110.486 83.5417 111.458C84.5139 112.454 85 113.634 85 115C83.6111 115 82.4306 114.514 81.4583 113.542C80.4861 112.569 80 111.389 80 110Z" fill="#667EB2"/>
<path d="M3.97232e-08 110C1.38889 110 2.56944 110.486 3.54167 111.458C4.51389 112.454 5 113.634 5 115C3.61111 115 2.43056 114.514 1.45833 113.542C0.486111 112.569 1.61144e-07 111.389 3.97232e-08 110Z" fill="#667EB2"/>
<path d="M10 125C11.3889 125 12.5694 125.486 13.5417 126.458C14.5139 127.454 15 128.634 15 130C13.6111 130 12.4306 129.514 11.4583 128.542C10.4861 127.569 10 126.389 10 125Z" fill="#667EB2"/>
<path d="M3.97232e-08 125C1.38889 125 2.56944 125.486 3.54167 126.458C4.51389 127.454 5 128.634 5 130C3.61111 130 2.43056 129.514 1.45833 128.542C0.486111 127.569 1.61144e-07 126.389 3.97232e-08 125Z" fill="#667EB2"/>
<path d="M3.97232e-08 140C1.38889 140 2.56944 140.486 3.54167 141.458C4.51389 142.454 5 143.634 5 145C3.61111 145 2.43056 144.514 1.45833 143.542C0.486111 142.569 1.61144e-07 141.389 3.97232e-08 140Z" fill="#667EB2"/>
</svg>
